<?xml version="1.0" encoding="UTF-8"?>
<svg id="_Шар_1" data-name="Шар 1" xmlns="http://www.w3.org/2000/svg" viewBox="0 0 400 400">
  <defs>
    <style>
      .cls-1 {
        fill: #29a91c;
      }

      .cls-2 {
        fill: #201c1e;
      }

      .cls-3 {
        fill: #141112;
      }

      .cls-4 {
        fill: #151213;
      }

      .cls-5 {
        fill: #181516;
      }

      .cls-6 {
        fill: #151314;
      }

      .cls-7 {
        fill: #ad1620;
      }

      .cls-8 {
        fill: #141213;
      }

      .cls-9 {
        fill: #004aff;
      }

      .cls-10 {
        fill: #121010;
      }

      .cls-11 {
        fill: #131011;
      }

      .cls-12 {
        fill: #231f20;
      }

      .cls-13 {
        fill: #141011;
      }

      .cls-14 {
        fill: #1e1a1b;
      }
    </style>
  </defs>
  <path class="cls-12" d="M193.88,399.83c-10.97-.05-21.81-1.42-32.56-3.5-71.37-13.87-130.15-66.33-152.15-135.72-3.05-9.61-5.31-19.4-6.93-29.34-.08-.49-.05-1-.08-1.5,.34-.42,.09-.94,.24-1.42-.16,.21-.05,.54-.32,.66C.61,220.83,0,212.59,0,204.29c.29-2.87,.29-5.74,0-8.62-.08-9.95,.96-19.82,2.7-29.59,7.52-42.41,26.52-78.88,57.32-109.01C90.08,27.67,125.99,9.56,167.5,2.62c9.3-1.56,18.66-2.53,28.11-2.48,2.87,.3,5.75,.3,8.62,0,8.3,0,16.55,.61,24.73,2.07-.13,.29-.46,.16-.67,.33,.48-.16,1,.1,1.43-.25,8.09,.93,15.99,2.77,23.82,4.95,72.17,20.13,126.81,78.4,142.32,151.84,2.43,11.48,3.9,23.11,3.98,34.87-.3,4.02-.3,8.05,0,12.07-.05,10.97-1.2,21.85-3.53,32.54-14.78,67.71-53.71,116.14-116.76,144.93-22.88,10.45-47.16,15.51-72.3,16.4-.43,.02-.86-.03-1.29-.05-4.02-.3-8.05-.3-12.07,0Z"/>
  <path class="cls-6" d="M399.83,206.02c-.86-2.81-.25-5.68-.35-8.52-.04-1.17-.43-2.44,.35-3.55,.23,4.02,.23,8.05,0,12.07Z"/>
  <path class="cls-8" d="M193.88,399.83c2.59-.88,5.25-.26,7.87-.35,1.39-.05,2.86-.43,4.2,.35-4.02,.23-8.05,.23-12.07,0Z"/>
  <path class="cls-5" d="M204.23,.14c-2.87,.64-5.75,.64-8.62,0,2.87-.18,5.75-.18,8.62,0Z"/>
  <path class="cls-3" d="M229.71,2.29c-.48,.54-1.07,.44-1.69,.3,.18-.52,.66-.2,.94-.38,.25,.03,.5,.05,.75,.08Z"/>
  <path class="cls-1" d="M187.82,171.88c6.59-.62,13.16-1.3,19.76-1.85,24.13-2.01,48.29-2.42,72.47-.84,19.2,1.25,38.22,3.68,56.92,8.35,11.81,2.95,23.34,6.74,34.06,12.62,6.16,3.37,11.84,7.38,16.34,12.88,.75,.92,1.21,1.82,1.16,3.1-1.57,39.9-14.27,75.83-38.21,107.8-1.23,1.64-2.41,2.14-4.44,2.03-31.04-1.71-60.11-10.8-88.27-23.37-18.5-8.26-36.42-17.73-54.75-26.35-15.3-7.19-30.84-13.7-47.38-17.6-27.02-6.38-52.83-3.28-77.39,9.68-1.76,.93-2.08,.52-2.61-1.17-5.22-16.8-8.67-33.96-10.59-51.44-.15-1.38,.38-1.84,1.5-2.35,19.31-8.73,39.41-15.11,59.94-20.21,19.63-4.87,39.5-8.47,59.57-10.89,.27-.03,.54-.17,.8-.26,.34-.46,.74-.31,1.14-.12Z"/>
  <path class="cls-7" d="M63.53,171.67c.4-5.49,.77-10.98,1.2-16.47,.23-2.92,.57-5.83,.87-8.75-.13-.09-.16-.18-.11-.25,.05-.07,.1-.1,.15-.1,.31-1.76,.62-3.53,.91-5.29,.15-.88,.35-1.52,1.48-1.76,42.05-9.08,80.49-26.89,117.44-48.39,17.01-9.9,33.86-20.1,51.64-28.62,13.92-6.68,28.31-11.97,43.67-14.24,9.59-1.42,19.21-1.5,28.84-.56,.92,.09,1.62,.51,2.32,1.03,39.08,29.59,63.68,68.28,73.28,116.41,1.49,7.48,2.38,15.04,2.91,22.65-.18,.04-.37,.13-.44,.08-11.86-9.01-25.41-14.43-39.53-18.65-12.21-3.65-24.69-6.1-37.28-7.98-.42-.06-.86-.03-1.29-.04-.27,.19-.53,.25-.75-.08-5.5-1.12-11.09-1.54-16.66-2.06-21.96-2.05-43.96-2.3-65.97-1.29-21.86,1.01-43.58,3.35-65.17,6.96-.2,.03-.39,.16-.59,.24-.18,.39-.44,.29-.71,.11-8.62,1.17-17.12,3.01-25.6,4.91-23.8,5.35-47.12,12.24-69.48,22.14-.18,.08-.41,.06-.7,.1-.15-1.66-.3-3.27-.45-4.89-.67-2.65-.24-5.35-.25-8.03-.02-2.39-.4-4.8,.26-7.17Z"/>
  <path class="cls-9" d="M228.42,386.51c-3.44,.26-6.87,.67-10.32,.76-22.96,.65-43.76-6.22-62.99-18.36-20.66-13.04-37.01-30.45-50.62-50.55-9.79-14.46-17.56-29.97-23.86-46.24-.64-1.65-.1-2.19,1.2-2.91,24.21-13.19,49.57-15.51,76-8.17,16.83,4.67,32.63,11.88,48.27,19.48,19.37,9.41,38.49,19.35,58.46,27.49,19.83,8.09,40.18,14.31,61.41,17.42,4.32,.63,8.67,1.06,13.05,1.59-.16,.82-.82,1.2-1.29,1.7-29,30.67-64.29,49.74-105.85,57.17-.91,.16-1.88,.02-2.72,.52-.2,.35-.46,.29-.73,.09Z"/>
  <path class="cls-9" d="M289.32,35.52c-3.68,.02-7.33,.39-10.93,1.21-.21,.35-.46,.29-.73,.09-7.6,.9-14.92,2.96-22.16,5.35-17.07,5.63-32.89,13.97-48.46,22.8-19.06,10.8-37.8,22.19-57.34,32.13-25.32,12.88-51.62,23.14-79.31,29.66-.25,.06-.51,.13-1,.26,.66-3.89,1.69-7.45,2.72-11.02,6.98-24.33,17.71-46.72,34.56-65.86,15.47-17.56,34.17-30.04,57.28-35.12,16.13-3.54,32.5-4.26,48.94-3.14,27.06,1.84,52.55,9.23,76.46,22.05,.74,.4,1.62,.64,2.1,1.42-.66,.67-1.39,.36-2.12,.17Z"/>
  <path class="cls-1" d="M54.43,213.79c.76,8.1,2.35,16.06,4.06,23.99,1.9,8.85,4.32,17.57,7.12,26.18,.25,.77,.76,1.48-.16,2.32-7.63,7-11.29,16.13-13.66,25.9-1.53,6.31-2.33,12.72-2.68,19.19-.02,.38,.18,.87-.52,1.28-2.1-3.04-4.28-6.04-6.32-9.14-11.87-18.06-20.4-37.57-25.57-58.55-.28-1.14-.2-2.07,.29-3.09,2.88-6,7.14-10.93,12.02-15.37,7.17-6.53,15.27-11.7,23.74-16.35,.3-.16,.65-.22,.98-.33,.2,1.01,.39,1.91,.57,2.81,.47,.33,.3,.74,.13,1.14Z"/>
  <path class="cls-9" d="M54.75,142.89c-1.17,5.76-1.58,11.62-2.02,17.47-.33,4.42-.74,8.85-.5,13.3,.31,3.59,.31,7.19,0,10.78-.18,3.6,0,7.19,.37,10.76,.16,1.57-.27,2.38-1.74,3.14-10.61,5.51-20.7,11.83-29.61,19.89-2.77,2.51-5.34,5.2-8.1,8.46-.37-3.06-.74-5.7-.99-8.35-2.35-25.27,.06-50.06,7.57-74.34,.46-1.48,.98-1.81,2.52-1.58,2.19,.33,4.4,.72,6.64,.53,4.17-.06,8.34-.09,12.51,.02,3.97,0,7.91-.37,11.8-1.2,.2-.37,.45-.29,.72-.09,.33,.1,.74,.03,.9,.45,.19,.27,.25,.53-.09,.75Z"/>
  <path class="cls-7" d="M154.94,383.07c-11.89-2.69-23.27-6.84-34.31-11.95-22.46-10.4-42.06-24.75-58.95-42.83-.88-.94-1.35-1.86-1.37-3.2-.19-12.35,.42-24.59,4.45-36.41,1.32-3.87,3.05-7.54,5.74-10.99,3.82,9.73,8.01,18.98,12.88,27.92,13.98,25.7,31.8,48.18,55.28,65.92,5.46,4.12,11.19,7.82,17.14,11.19-.03,.74-.47,.5-.87,.36Z"/>
  <path class="cls-7" d="M77.73,71.4c-4.52,8.81-8.75,17.75-12.09,27.08-3.42,9.54-6.26,19.24-8.26,29.17-.32,1.57-.98,2.18-2.59,2.44-9.55,1.54-19.13,2.17-28.79,1.27-1.45-.13-1.65-.46-1.11-1.79,6.15-15.19,14.12-29.35,23.94-42.46,.08-.11,.22-.17,.33-.26,.11-.1,.23-.17,.38-.19,1.06-.18,2.03,1.17,3.05,.35,.78-.62,.22-2,1.16-2.68,.34-.25,.25-.54,.13-.93-.31-1.04,.56-2.38,1.56-2.22,.54,.08,.51-.13,.68-.36,1.44-2,2.82-3.89,4.85-5.54,2.54-2.07,5.29-4.2,7.21-6.91,1.87-2.65,4.63-4.29,6.63-6.68,1.69-2.02,3.88-3.65,5.08-6.08,1.1-2.24,2.31-.33,3.35,.03,1.22,.42,1.29,1.39,.48,2.41-1.01,1.28-1.96,2.55-2.17,4.29-.13,1.08-.7,2.01-2.17,1.84-.95-.11-1.76,.32-1.65,1.48,.19,1.92-.37,3.83,0,5.74Z"/>
  <path class="cls-7" d="M77.73,71.4c-.79-.77-.75-1.74-.66-2.73,.05-.57,.26-1.16,.17-1.69-.42-2.32-.02-3.76,2.85-3.36,1.05,.15,1.1-1.5,1.07-1.69-.39-2.07,1.3-2.98,2.25-4.22,.73-.96,.51-1.49-.39-1.74-.56-.16-.97-.29-1.42-.69-.61-.56-.76-.21-1.25,.51-1.8,2.65-3.69,5.3-6.44,7.11-.84,.55-.91,1.81-1.62,2.21-3.12,1.78-4.41,5.44-7.26,7.2-2.14,1.32-2.93,3.93-5.69,4.71-1.35,.39-2.09,2.9-3.11,4.46-.14,.21-.25,.44-.37,.66-.63-1.6-1.04,.15-1.57,.12-.26-.01-.63,.33-.38,.55,2.09,1.92-1.6,3.03-.67,4.83,.1,.2-.61,.33-1.08,.3-1.12-.07-1.93-.91-2.99-1.09,6.73-9.36,14.56-17.75,23.01-25.55,5.69-5.25,11.58-10.28,18.05-14.57,.52,.15,.64-.24,.8-.58,2.51-2.07,5.29-3.73,8.18-5.31-3.69,4.32-7.09,8.84-10.59,13.27-.58-.01-1.03,.07-.58,.8-3.44,5.49-6.87,10.99-10.31,16.48Z"/>
  <path class="cls-2" d="M63.53,171.67c0,5.07,0,10.13,0,15.2,.12,1.88-.73,3.89,.67,5.72-.77,.05-1.51,.02-1.43-1.14,.57-7.82,.08-15.65,.26-23.48,.02-.69-.21-1.41,.51-2.59v6.29Z"/>
  <path class="cls-13" d="M41.42,142.97c-4.17,.43-8.34,.37-12.51-.02,3.05-.86,6.16-.23,9.24-.36,1.08-.05,2.27-.43,3.27,.37Z"/>
  <path class="cls-4" d="M52.24,184.44c-.21-3.59-.21-7.19,0-10.78,.67,3.59,.67,7.19,0,10.78Z"/>
  <path class="cls-14" d="M124.45,256.22h8.94c0,.07,0,.14,0,.22h-8.96c0-.07,.01-.14,.02-.22Z"/>
  <path class="cls-7" d="M88.04,54.92c-.81-.44-1.04-1.06-.59-2.01,.6,.24,.42,1.22,1.17,1.2-.19,.27-.39,.53-.58,.8Z"/>
  <path class="cls-7" d="M91.03,46.15c.08,.43,.7,.92,.11,1.27-.57,.35-.85-.13-.92-.69,.27-.19,.54-.39,.8-.58Z"/>
  <path class="cls-11" d="M187.82,171.88c-.38,.04-.76,.08-1.14,.12-.33-.07-.65-.13-1.35-.27,1.11-.3,1.82-.42,2.49,.16Z"/>
  <path class="cls-3" d="M228.42,386.51c.24-.03,.49-.06,.73-.09,.33,.06,.66,.12,1.33,.24-.95,.29-1.54,.45-2.06-.15Z"/>
  <path class="cls-7" d="M154.94,383.07c.29-.12,.58-.24,.87-.36,.31,.11,.9,.32,.73,.52-.49,.57-1.08,.17-1.59-.16Z"/>
  <path class="cls-10" d="M54.43,213.79c-.04-.38-.09-.76-.13-1.14,.08-.18,.12-.48,.25-.53,.29-.11,.24,.19,.25,.34,.02,.48,.08,.97-.37,1.32Z"/>
  <path class="cls-13" d="M65.65,146.1c.08,.13,.07,.24-.04,.35-.57-.51-.52-1.09-.16-1.97,.09,.71,.15,1.17,.2,1.63Z"/>
  <path class="cls-3" d="M159.76,164.61c.24-.04,.47-.07,.71-.11,.33,.07,.66,.13,1.31,.26-.91,.28-1.49,.45-2.02-.15Z"/>
  <path class="cls-3" d="M308.85,160.64c.25,.03,.5,.06,.75,.08-.47,.6-1.08,.35-1.71,.14,.32-.08,.64-.15,.96-.23Z"/>
  <path class="cls-11" d="M54.75,142.89c.03-.25,.06-.5,.09-.75,.54,.48,.44,1.07,.21,2.02-.15-.63-.22-.95-.3-1.28Z"/>
  <path class="cls-11" d="M53.94,141.69c-.24,.03-.48,.06-.72,.09-.33-.06-.66-.13-1.34-.25,.95-.28,1.54-.45,2.06,.17Z"/>
  <path class="cls-3" d="M277.66,36.82c.24-.03,.49-.06,.73-.09,.33,.06,.66,.12,1.33,.24-.96,.3-1.55,.44-2.07-.15Z"/>
  <path class="cls-11" d="M289.32,35.52c.71-.06,1.41-.11,2.12-.17-.64,.91-1.36,.72-2.12,.17Z"/>
</svg>