<?xml version="1.0" encoding="UTF-8"?>
<svg id="_Шар_1" data-name="Шар 1" xmlns="http://www.w3.org/2000/svg" viewBox="0 0 700.89 500.59">
  <defs>
    <style>
      .cls-1 {
        fill: #f34000;
      }

      .cls-2 {
        fill: #ffaa2d;
      }

      .cls-3 {
        fill: #1c1c1c;
      }

      .cls-4 {
        fill: #1b1b1b;
      }

      .cls-5 {
        fill: #181818;
      }

      .cls-6 {
        fill: #1751ff;
      }

      .cls-7 {
        fill: #1d1d1d;
      }

      .cls-8 {
        fill: #191919;
      }

      .cls-9 {
        fill: #1a1a1a;
      }
    </style>
  </defs>
  <path class="cls-2" d="M352.86,.1C467.52,.1,582.17,.12,696.83,0c3.37,0,4.18,.67,4.04,4.19-.32,8.16-.1,16.35-.1,24.53-1.23,1.29-2.89,1.55-4.47,1.95-37.01,9.38-68.14,29.31-95.23,56.67-15.4,15.56-28.22,33.08-38.63,52.54-13.42,25.74-22.28,53.05-25.53,82.13-4.52,40.49,.15,79.75,15.52,117.49,12.59,30.91,31.15,57.42,54.68,80.3,1.25,1.48,2.6,2.86,4.25,3.88,.97,.73,1.83,1.57,2.72,2.39,24.24,20.71,51.07,36.27,81.75,44.14,1.74,.45,3.57,.69,4.94,2.1,0,8.18-.12,16.36,.07,24.53,.06,2.56-.56,3.14-3.02,3.13-29.24-.1-58.48-.07-87.72-.07H352.86c-1.68-1.99-1.47-4.43-1.47-6.8-.02-57.49-.03-114.98,0-172.48,0-7.49,.92-8.31,7.9-9.53,23.19-4.05,38.82-17.76,47.39-40.31,6.92-21,3.91-40.46-9.01-58.04-8.04-10.94-18.32-18.76-31.75-21.32-3.04-.73-6.07-1.47-9.15-1.96-3.36-.54-5.17-2.66-5.39-6.22-.1-1.7-.12-3.4-.12-5.09,0-56.42-.01-112.83,.02-169.25,0-3-.54-6.18,1.57-8.81Z"/>
  <path class="cls-2" d="M348.07,500.48c-114.51,0-229.01-.02-343.52,.1-3.78,0-4.64-.98-4.49-4.74,.31-7.64,.09-15.31,.09-22.96,4.09-2.8,8.99-3.03,13.5-4.44,26.47-8.26,49.82-22.41,71.32-40.12,8.58-6.88,15.93-15.1,23.46-23.13,31.15-36.26,50.45-78.32,55.66-126.61,6.66-61.7-7.83-117.79-44.31-167.41-1.19-1.61-2.68-3.03-3.18-5.09-.33-2.66,.93-6.22-3.46-6.62-.43-.19-.76-.48-1.03-.88-1.53-3.25-4.21-5.08-7.31-6.42-6.58-4.58-11.44-11.13-17.52-16.34C63.98,55.83,38.33,40.52,8.93,32.36c-2.97-.82-6.22-.9-8.77-3.06C.16,20.79,.27,12.27,.09,3.75,.03,1.19,.65,.61,3.11,.62c29.24,.1,58.48,.07,87.72,.07H348.07c1.68,1.99,1.47,4.44,1.47,6.8,.02,57.71,.03,115.43,0,173.14,0,7.7-.95,8.72-8.26,9.76-25.95,3.73-46.6,26.1-49.89,53.09-4.17,34.15,20.23,64.49,51.06,68.37,6.09,.77,7.08,2.06,7.09,9.21,.05,35.07,.02,70.14,.02,105.21,0,22.13,.02,44.26-.02,66.4,0,2.68,.43,5.5-1.47,7.82Z"/>
  <path class="cls-2" d="M700.77,32.8V165.68c-7.62,1.87-15.24,3.28-22.59-.99-.57-.33-1.06-1.01-1.63-.38-4.46,4.98-10.23,2.35-15.39,2.69-3.88,.26-8.35,1.43-11.26-3.03-.61-.94-1.5-.39-1.99,.37-1.98,3.09-5.05,2.75-7.99,2.77-5.42,.04-10.84-.01-16.26,.02-5.92,.04-6.18,.31-6.25,6.25-.04,3.07-.05,6.13-.02,9.2,.04,4.38-2.06,6.43-6.18,6.96-22.28,2.91-37.63,15.67-47.25,36.28-9.53,20.43-5.06,48.87,9.97,65.37,10.54,11.57,23.01,19.08,38.58,20.28,3.21,.25,4.73,1.88,4.83,5.17,.11,3.58,.03,7.15,.07,10.73,.07,6.24,.31,6.49,6.51,6.52,5.58,.03,11.18,.22,16.75-.07,3.62-.18,6.13,1.49,8.51,3.83,2.1-2.6,4.61-3.99,8.05-3.8,4.09,.23,8.22,.22,12.31,0,3.18-.17,6.33,3.31,7.72,2.69,2.48-1.1,4.67-2.89,7.58-2.61,5.31,.5,10.83-1.46,15.94,1.41v132.87c-2.02,1.7-4.11,.52-6.09,0-23.81-6.23-45.31-17.6-65.38-32.03-5.65-4.06-11.08-8.45-16.32-13.09-41.58-37.47-66.53-84.5-74.16-141.02-6.71-49.7,1.5-96.86,24.61-141.09,6.94-12.37,14.45-24.34,23.26-35.38,16.9-21.2,36.89-38.6,59.91-52.25,15.17-8.99,30.97-16.4,48.07-20.52,1.99-.48,4.06-1.75,6.1-.03Z"/>
  <path class="cls-2" d="M1,165.68V32.8c2.03-1.68,4.12-.54,6.12-.03,28.75,7.36,54.09,21.77,76.87,41.03,44.6,37.72,71.04,86.32,78.99,145.4,6.6,49.04-1.54,95.63-23.98,139.36-8.51,16.58-18.76,31.99-31.44,45.52-4.5,5.85-10.25,10.4-15.28,15.7-2.1,2.22-4.54,3.84-7.19,5.21q-3.76,1.95-4.52-.34c.51-.65,.83-1.38,.84-2.39-.24,.79-.08,1.57-.64,2.1-.47,.54-.65,1.29-.57,1.88,.2,1.32-4.43,1.21-.91,3.39-.43,1.83-1.88,2.76-3.18,3.75-20.97,15.94-43.72,28.13-69.02,34.84-1.98,.53-4.08,1.69-6.1,0v-132.87c7.62-1.97,15.22-3.23,22.58,.94,.76,.43,1.07,.82,2,.17,7.36-5.1,15.47-1.95,23.28-2.04,.99-.01,1.73,.9,2.32,1.75,.8,1.16,1.62,1.68,2.64,.21,1.79-2.6,4.51-2.45,7.14-2.48,6.23-.07,12.46-.07,18.7,0,3.33,.03,4.77-1.43,4.7-4.89-.08-3.91-.03-7.82,.03-11.73,.06-3.69,1.67-5.56,5.32-5.86,10.57-.87,20.01-4.98,28.61-11.28,15.27-11.98,24.05-27.47,24.33-47.72,.1-7.02-.27-13.93-2.4-20.64-2.82-8.77-6.94-16.72-13.38-23.27-2.2-2.24-4.61-4.31-6.26-7.09-.31-2.7-2.2-2.8-4.2-2.72-4.23-1.43-7.85-4.21-12.06-5.71-3.88-1.38-7.75-2.73-11.85-3.25-7.17-.92-8.04-1.93-8.16-9.22,0-.34,0-.68,0-1.02-.16-13.63,1.63-12.24-11.76-12.32-3.44-.02-6.88-.05-10.32,0-3.68,.06-7.27-.01-9.66-4.28-2.02,4.07-5.24,4.32-8.62,4.27-4.42-.07-9.04,.84-13.21-.29-4.2-1.14-7.7-.96-11.98-.18-5.7,1.05-12.01,1.9-17.79-1.01Z"/>
  <path class="cls-1" d="M0,331.25V169.76c1.89-1.76,4.25-1.65,6.53-1.66,22.66-.04,45.33-.07,67.99,.02,6.64,.03,7.86,1.24,7.87,8.04,.08,49.56,.08,99.12,0,148.68-.01,6.8-1.23,8.02-7.87,8.04-22.66,.09-45.33,.05-67.99,.02-2.29,0-4.64,.1-6.53-1.66Z"/>
  <path class="cls-1" d="M699.77,169.76v161.49c-1.89,1.76-4.25,1.65-6.53,1.66-22.66,.04-45.33,.07-67.99-.02-6.64-.03-7.86-1.24-7.87-8.04-.08-49.56-.08-99.12,0-148.68,.01-6.8,1.23-8.02,7.87-8.04,22.66-.09,45.33-.05,67.99-.02,2.29,0,4.64-.1,6.53,1.66Z"/>
  <path class="cls-5" d="M347.92,499.9c-.01-60.29-.07-120.59,.07-180.88,.01-4.54-1.12-5.85-5.53-6.25-28.84-2.63-51.49-28.5-53.31-60.43-1.64-28.69,19.08-56.61,46.84-63.14,1.12-.26,2.23-.58,3.36-.79q8.54-1.62,8.54-10.48c0-59.27,.02-118.55,.03-177.82h3.94c0,60.57,.07,121.14-.07,181.71-.01,4.48,1.01,6.65,5.49,6.26,3.33-.29,6.15,1.87,9.36,2.18-.09,2.52-1.95,3.19-3.78,3.89q-9.57-.2-9.57,10.1c0,31.96,0,63.93,0,95.89,0,7.22,.64,7.84,7.35,6.37,16.88-3.69,29.38-13.57,37.82-29.12,1.75-3.23,2.43-7.09,5.31-9.65,1.9-.24,3.57-.16,3.43,2.54-5.41,21.51-27.58,40.61-49.85,42.48-4.38,.37-5.58,1.66-5.57,6.27,.15,60.29,.09,120.59,.07,180.88h-3.94Z"/>
  <path class="cls-8" d="M699.77,169.76c-25.44,0-50.89,.06-76.33-.07-3.32-.02-4.42,.7-4.41,4.41,.13,50.9,.13,101.8,0,152.69,0,3.66,1.03,4.47,4.4,4.46,25.44-.12,50.89-.03,76.33,0v4.09c-6.07,.01-12.15,.03-18.22,.03-1.94,0-4.18-.49-3.64,2.91,.23,1.46-.48,2.11-1.94,2.2-1.83,.11-2.31-.82-2.12-2.45,.29-2.49-1.17-2.69-3.03-2.67-5.91,.06-11.82,.03-17.73,.02-1.49,0-3.06-.23-2.87,2.2,.13,1.63-.02,3.02-2.27,2.92-2-.08-1.99-1.36-1.91-2.75,.16-2.73-1.68-2.37-3.3-2.37-8.04,0-16.09-.1-24.13,.07-2.68,.06-3.79-.57-3.63-3.61,.25-4.75-.14-9.54,.13-14.29,.18-3.23-.76-4.31-3.96-4.63-27.98-2.78-50.98-25.77-54.21-53.95-3.5-30.46,13.05-58.19,40.59-68.02,4.35-1.55,8.79-2.87,13.41-2.94,3.42-.05,4.41-1.55,4.18-4.96-.29-4.41,.12-8.86-.13-13.27-.19-3.24,.64-4.39,3.97-4.27,7.71,.27,15.43,.05,23.14,.12,2.3,.02,4.37,.13,3.99-3.29-.18-1.67,.96-1.86,2.25-1.86,1.59,0,2.03,.97,1.87,2.31-.35,2.84,1.31,2.87,3.3,2.84,5.58-.08,11.16-.1,16.74,0,2.24,.04,3.98-.13,3.6-3.16-.2-1.6,.68-2,2.07-1.99,1.48,0,2.19,.7,1.98,2.16-.46,3.29,1.65,2.97,3.65,2.97,6.07,0,12.15,.05,18.22,.08v4.09Z"/>
  <path class="cls-8" d="M105.49,403.91c18.19-21.32,32.89-44.88,42.72-71.57C192.16,213,134.25,79.99,17.56,37.49,11.85,35.41,6.03,33.64,0,32.8v-4.09c12.11,1.49,23.35,5.97,34.4,11,26.35,11.98,49.57,28.66,69.6,50.1,.44,.47,1.02,.82,1.53,1.22,2.19,2.48,5.74,3.65,6.59,7.4,2.44,1.41,4.11,3.5,5.06,6.22,13.83,18.65,26.19,38.29,33.96,60.5,30.64,87.55,17.21,167.2-40.54,238.67-.62,.77-1.41,1.38-2.13,2.07-1.64,.38-2.93,.22-2.97-1.98Z"/>
  <path class="cls-5" d="M0,331.25c25.28-.03,50.56-.13,75.85,.01,3.78,.02,4.92-.88,4.91-4.99-.15-50.56-.15-101.13,0-151.69,.01-4.15-1.2-4.93-4.91-4.91-25.28,.17-50.57,.09-75.85,.09v-4.09c6.07-.03,12.14-.08,18.21-.07,2.01,0,4.11,.32,3.66-2.95-.2-1.45,.45-2.11,1.94-2.19,1.85-.09,2.23,.84,2.08,2.47-.23,2.41,1.19,2.71,3.08,2.68,5.91-.07,11.81-.1,17.72,.01,2.03,.04,3.14-.43,2.86-2.77-.2-1.72,.55-2.46,2.27-2.4,1.48,.05,2.1,.65,1.9,2.17-.44,3.21,1.61,2.99,3.68,2.98,7.87-.05,15.76,.15,23.62-.1,3.11-.1,3.93,.88,3.77,3.99-.26,4.92-.03,9.86-.08,14.8-.02,1.83,0,3.34,2.39,3.43,11.08,.42,20.77,5.15,30.16,10.71,1.28,.28,2,1.36,2.9,2.18,8.27,7.74,15.36,16.36,19.15,27.45,.32,.93,.47,1.92,.69,2.89-.12,2.36-.99,3.76-3.56,3-4.11-7.7-7.45-15.82-13.49-22.37-8.46-9.18-18.48-15.1-30.51-17.34-5.41-1.01-6.26-.34-6.27,5.14-.04,34.03-.05,68.06,0,102.09,0,5.51,1.02,6.32,6.2,5.27,5.99-1.22,11.77-3.07,17.05-6.36,1.82-1.13,3.57-2.46,5.78-2.72,1.87,.2,3.58,.59,3.17,3.21-8.47,7.24-18.36,10.93-29.14,11.96-3.42,.33-4.98,1.08-4.62,5.03,.39,4.21-.2,8.53,.2,12.74,.4,4.25-1.3,4.98-4.93,4.85-7.54-.27-15.09-.07-22.63-.1-2.03,0-4.1-.29-3.57,3.01,.24,1.48-.56,2.07-2,2.12-1.81,.06-2.35-.9-2.15-2.5,.3-2.48-1.06-2.67-2.94-2.65-5.74,.08-11.48,.1-17.22,0-2.28-.04-3.89,.22-3.48,3.2,.22,1.62-.8,1.94-2.13,1.93-1.5,0-2.13-.77-1.92-2.2,.51-3.38-1.72-2.9-3.66-2.9-6.07,0-12.14-.02-18.2-.03v-4.09Z"/>
  <path class="cls-8" d="M699.77,32.8c-22.06,4.19-41.9,14.04-60.75,26.16-30.66,19.73-54.9,45.97-73.06,78.29-.74,1.32-1.56,2.58-2.35,3.87-1.54,.21-3.06,.4-2.82-2.04,5.62-11.92,12.97-22.69,21.02-32.9,29.12-36.9,65.22-63.06,109.79-75.97,2.64-.77,5.29-1.88,8.16-1.5v4.09Z"/>
  <path class="cls-4" d="M613,422.48c19.31,16.41,40.32,29.84,63.77,38.97,7.49,2.92,15.13,5.28,23.01,6.76v4.09c-11.29-1.52-21.86-5.53-32.24-10.14-20.28-9.02-39.05-20.58-55.64-35.78,.06-1.56-1.21-1.58-2.14-1.99-1.53-.66-2.73-1.73-3.57-3.21,.81-1.7,1.88-1.14,3.1-.49,1.21,.65,2.15,1.95,3.72,1.8Z"/>
  <path class="cls-8" d="M0,468.21c29.02-6.34,54.6-20.1,77.87-38.83,.95-2.76,3.74-3.07,5.64-4.57,3.01-.42,2.88,1.32,2.21,3.44-24.69,21.28-52.31,36.55-83.76,43.97-.62,.15-1.3,.05-1.96,.07,0-1.36,0-2.73,0-4.09Z"/>
  <path class="cls-9" d="M613,422.48c-2.68,1.85-4.26-2.46-6.82-1.31-19.66-17.69-35.52-38.61-47.27-62.58-35.43-72.28-35.02-144.73,.22-217.04,.43-.89,1.1-1.66,1.66-2.48,.94,.68,1.88,1.36,2.82,2.04-10.46,21.05-18.91,42.87-22.68,66.34-13.33,82.86,8.98,153.43,68.14,211.17,1.31,1.28,2.62,2.57,3.93,3.85Z"/>
  <path class="cls-3" d="M363.69,193.22c.98-.99,1.97-1.98,2.95-2.97,21.49,4.79,40.8,27.78,43.39,51.6,1.05,9.7,.81,19.23-2.83,28.42-.57-1.38-1.92-1.7-3.01-2.39-1.44-1.7-.57-3.58-.28-5.35,3.01-18.43-.47-35.06-12.28-49.56-6.2-7.62-14.08-12.56-22.8-16.32-1.9-.82-4.27-.96-5.15-3.44Z"/>
  <path class="cls-9" d="M609.76,424.39c1.14,.1,2.57-.76,3.36,.41,.54,.8-.6,1.2-1.22,1.58-.98-.35-1.69-1.02-2.14-1.99Z"/>
  <path class="cls-7" d="M85.71,428.26c-.91-.83,.29-3.17-2-3-.3-.2-.41-.42-.32-.65,.08-.23,.17-.35,.26-.35,7.03-4.57,12.46-11.01,18.38-16.88,1.16-1.15,2.31-2.31,3.47-3.47,.99,.66,1.98,1.32,2.97,1.98-6.83,8.28-14.34,15.82-22.75,22.37Z"/>
  <path class="cls-2" d="M117.43,104.98c-2-1.8-3.78-3.8-5.06-6.23,4.97-.95,5.77,.03,5.06,6.23Z"/>
  <path class="cls-2" d="M112.12,98.44c-2.48-2.2-4.71-4.63-6.6-7.4,4.2,1.14,7.05,4.35,6.6,7.4Z"/>
  <path class="cls-3" d="M118.39,300.89c-.52-1.44-1.45-2.3-2.98-2.31-.45-2.37,1.53-3.22,2.76-4.35,16.17-14.85,22.12-33.34,18.54-55.31-.26-1.59-1.01-3.33,.49-4.77,.94-1.06,1.88-2.12,2.82-3.18,9.23,23.17-1.15,56.75-21.62,69.92Z"/>
  <path class="cls-2" d="M83.65,424.26c.02,.33,.04,.67,.06,1l-5.84,4.12c.73-.94-4.77-1.01-.31-2.59,.93-.33,1.53-1.66,2.28-2.53h0c1.28,3.55,2.54-1.26,3.82,0Z"/>
  <path class="cls-2" d="M141.7,218.83c-.3,.88-.66,1.82-1.63,1.31-1.11-.57-2.31-1.42-2.34-2.82-.01-.56,1.24-1.74,1.52-1.62,1.3,.55,2.01,1.8,2.45,3.13Z"/>
  <path class="cls-2" d="M79.83,424.26c-.07-.48-.07-1-.24-1.45-.47-1.23-.25-2.27,.82-2.96,.19-.12,.83,.35,1.16,.67,1.43,1.37-.32,1.87-.76,2.71-.21,.41-.65,.69-.99,1.02,0,0,0,0,0,0Z"/>
  <path class="cls-2" d="M120.17,200.63c-1.2-.39-2.21-1.07-2.9-2.18,.3-.75,.74-1.74,1.54-1.52,1.9,.53,.37,2.65,1.36,3.7Z"/>
  <path class="cls-1" d="M347.88,250.46c0,17.69-.22,35.38,.14,53.05,.1,5.12-1.58,5.77-5.77,5.21-22.61-3.03-42.54-21.76-47.51-44.88-5.24-24.4,4.42-49.28,24.3-62.57,7.26-4.86,15.17-7.79,23.73-9.09,3.89-.59,5.31,.09,5.23,4.71-.3,17.85-.12,35.71-.12,53.57Z"/>
  <path class="cls-1" d="M363.69,193.22c13.28,4.35,24.58,11.62,32.62,23.73,10.42,15.69,12.28,32.79,7.88,50.94-7.03,19.7-19.69,33.31-39.49,39.13-12.8,3.76-12.81,3.72-12.81-9.56,0-33.31,.1-66.63-.11-99.94-.03-4.78,1.15-6.37,5.62-5.27,2.05,.51,4.18,.66,6.28,.97Z"/>
  <path class="cls-6" d="M615.04,250.69c0,17.54,0,35.07,0,52.61,0,6.17-.04,6.37-5.89,5.28-23-4.27-39.05-17.73-45.94-40.84-6.82-22.89-1.29-43.4,15.44-60.16,9.12-9.13,20.24-14.16,32.92-15.52,2.97-.32,3.54,.6,3.52,3.46-.11,18.39-.06,36.77-.05,55.16Z"/>
  <path class="cls-6" d="M137.19,234.15c5.85,26.24-1.56,47.66-21.78,64.42-8.31,5.29-17.06,9.25-26.92,10.3-3.06,.33-3.84-.46-3.83-3.68,.11-36.43,.12-72.86-.01-109.29-.01-3.56,1.06-4.22,4.17-3.78,22.84,3.28,38.31,16.27,47.03,38.2,.5,1.25,.9,2.55,1.35,3.82Z"/>
</svg>