<?xml version="1.0" encoding="UTF-8"?>
<svg id="_Шар_1" data-name="Шар 1" xmlns="http://www.w3.org/2000/svg" viewBox="0 0 286.16 386.95">
  <defs>
    <style>
      .cls-1 {
        fill: #040307;
      }

      .cls-2 {
        fill: #514c4e;
      }

      .cls-3 {
        fill: #282c2c;
      }

      .cls-4 {
        fill: #cdcbcb;
      }

      .cls-5 {
        fill: #020d08;
      }

      .cls-6 {
        fill: #0f0f0f;
      }

      .cls-7 {
        fill: #2f2624;
      }

      .cls-8 {
        fill: #090909;
      }

      .cls-9 {
        fill: #030401;
      }

      .cls-10 {
        fill: #1f1112;
      }

      .cls-11 {
        fill: #6b6b6d;
      }

      .cls-12 {
        fill: #0f0f10;
      }

      .cls-13 {
        fill: #160a0b;
      }

      .cls-14 {
        fill: #515354;
      }

      .cls-15 {
        fill: #575757;
      }

      .cls-16 {
        fill: #110f0f;
      }

      .cls-17 {
        fill: #d1d1d1;
      }

      .cls-18 {
        fill: #040406;
      }

      .cls-19 {
        fill: #737676;
      }

      .cls-20 {
        fill: #313033;
      }

      .cls-21 {
        fill: #636461;
      }

      .cls-22 {
        fill: #0c0c0c;
      }

      .cls-23 {
        fill: #505151;
      }

      .cls-24 {
        fill: #a4a6a6;
      }

      .cls-25 {
        fill: #312e30;
      }

      .cls-26 {
        fill: #a6a7a7;
      }

      .cls-27 {
        fill: #130c09;
      }

      .cls-28 {
        fill: #040404;
      }

      .cls-29 {
        fill: #0e0d0d;
      }

      .cls-30 {
        fill: #2a2d2d;
      }

      .cls-31 {
        fill: #00ff4f;
      }

      .cls-32 {
        fill: #0b0502;
      }

      .cls-33 {
        fill: #1c1c1e;
      }

      .cls-34 {
        fill: #020202;
      }

      .cls-35 {
        fill: #151515;
      }

      .cls-36 {
        fill: #111013;
      }

      .cls-37 {
        fill: #7a7d7d;
      }

      .cls-38 {
        fill: #131313;
      }

      .cls-39 {
        fill: #9ea0a0;
      }

      .cls-40 {
        fill: #454949;
      }

      .cls-41 {
        fill: #0a0a0a;
      }

      .cls-42 {
        fill: #131515;
      }

      .cls-43 {
        fill: #31302f;
      }

      .cls-44 {
        fill: #606464;
      }

      .cls-45 {
        fill: #272a2a;
      }

      .cls-46 {
        fill: #272b2b;
      }

      .cls-47 {
        fill: #232323;
      }

      .cls-48 {
        fill: #2e2e30;
      }

      .cls-49 {
        fill: #1c1c1c;
      }

      .cls-50 {
        fill: #2f2f2f;
      }

      .cls-51 {
        fill: #e70000;
      }

      .cls-52 {
        fill: #170800;
      }

      .cls-53 {
        fill: #a4a4a4;
      }

      .cls-54 {
        fill: #1e1619;
      }

      .cls-55 {
        fill: #1e1e1f;
      }

      .cls-56 {
        fill: #1b1b1b;
      }

      .cls-57 {
        fill: #353537;
      }

      .cls-58 {
        fill: #111;
      }

      .cls-59 {
        fill: #1f1817;
      }

      .cls-60 {
        fill: #4b4e4e;
      }

      .cls-61 {
        fill: #2f2723;
      }

      .cls-62 {
        fill: #3f4040;
      }

      .cls-63 {
        fill: #030303;
      }

      .cls-64 {
        fill: #101010;
      }

      .cls-65 {
        fill: #b9b3b3;
      }

      .cls-66 {
        fill: #1c1717;
      }

      .cls-67 {
        fill: #231617;
      }

      .cls-68 {
        fill: #89898b;
      }

      .cls-69 {
        fill: #0d0d0d;
      }

      .cls-70 {
        fill: #080808;
      }

      .cls-71 {
        fill: #979792;
      }

      .cls-72 {
        fill: #2e3232;
      }

      .cls-73 {
        fill: #211415;
      }

      .cls-74 {
        fill: #0f0a0d;
      }

      .cls-75 {
        fill: #000002;
      }

      .cls-76 {
        fill: #3a3d3d;
      }

      .cls-77 {
        fill: #1c0d0f;
      }

      .cls-78 {
        fill: #252724;
      }

      .cls-79 {
        fill: #cbcacb;
      }

      .cls-80 {
        fill: #181818;
      }

      .cls-81 {
        fill: #333435;
      }

      .cls-82 {
        fill: #101012;
      }

      .cls-83 {
        fill: #040306;
      }

      .cls-84 {
        fill: #696466;
      }

      .cls-85 {
        fill: #444848;
      }

      .cls-86 {
        fill: #020201;
      }

      .cls-87 {
        fill: #776e6f;
      }

      .cls-88 {
        fill: #171717;
      }

      .cls-89 {
        fill: #f5f4f7;
      }

      .cls-90 {
        fill: #0e0e0e;
      }

      .cls-91 {
        fill: #1d1d1d;
      }

      .cls-92 {
        fill: #9a9d9d;
      }

      .cls-93 {
        fill: #0d0c0f;
      }

      .cls-94 {
        fill: #121212;
      }

      .cls-95 {
        fill: #070505;
      }

      .cls-96 {
        fill: #050505;
      }

      .cls-97 {
        fill: #706a6c;
      }

      .cls-98 {
        fill: #6a6264;
      }

      .cls-99 {
        fill: #141414;
      }

      .cls-100 {
        fill: #171718;
      }

      .cls-101 {
        fill: #484c4c;
      }

      .cls-102 {
        fill: #909393;
      }

      .cls-103 {
        fill: #2d2d2d;
      }

      .cls-104 {
        fill: #1b1314;
      }

      .cls-105 {
        fill: #020204;
      }

      .cls-106 {
        fill: #0b0b0b;
      }

      .cls-107 {
        fill: #151615;
      }

      .cls-108 {
        fill: #f7f7f7;
      }

      .cls-109 {
        fill: #1b1414;
      }

      .cls-110 {
        fill: #8b8d8d;
      }

      .cls-111 {
        fill: #121414;
      }

      .cls-112 {
        fill: #a3a3a5;
      }

      .cls-113 {
        fill: #747274;
      }

      .cls-114 {
        fill: #2a2e2e;
      }

      .cls-115 {
        fill: #1f1f1f;
      }

      .cls-116 {
        fill: #1a1a1a;
      }

      .cls-117 {
        fill: #1d0e10;
      }

      .cls-118 {
        fill: #19181b;
      }

      .cls-119 {
        fill: #313130;
      }

      .cls-120 {
        fill: #2b1d21;
      }

      .cls-121 {
        fill: #211a1b;
      }

      .cls-122 {
        fill: #070707;
      }

      .cls-123 {
        fill: #0c0c0e;
      }

      .cls-124 {
        fill: #070709;
      }

      .cls-125 {
        fill: #6d6d6d;
      }

      .cls-126 {
        fill: #a3a5a5;
      }

      .cls-127 {
        fill: #0c0e0e;
      }

      .cls-128 {
        fill: #979a9a;
      }

      .cls-129 {
        fill: #080a0a;
      }

      .cls-130 {
        fill: #060101;
      }

      .cls-131 {
        fill: #1e1e1e;
      }

      .cls-132 {
        fill: #18171a;
      }

      .cls-133 {
        fill: #120c0d;
      }

      .cls-134 {
        fill: #3a8393;
      }

      .cls-135 {
        fill: #010101;
      }

      .cls-136 {
        fill: #060202;
      }

      .cls-137 {
        fill: #3c3c3c;
      }

      .cls-138 {
        fill: #716a6d;
      }

      .cls-139 {
        fill: #0d0d0e;
      }

      .cls-140 {
        fill: #4d5051;
      }

      .cls-141 {
        fill: #fefefe;
      }
    </style>
  </defs>
  <path class="cls-124" d="M179.67,382.88c.56,1.28,1.13,2.56,1.69,3.84-16.91,.01-33.82,.02-50.73,.03-2.98-1.1-3.82-3.33-3.64-6.33,.35-5.84,1.41-11.58,2.62-17.27,1.12-5.26,1.45-10.51,1.5-15.86,.24-25.79,1.76-51.55,1.13-77.35-.14-5.98,.19-11.98-.63-17.94-.1-1.38-.41-2.76-.05-4.14,.32-1.39,.85-2.75,.65-4.23-.29-2.47-1.1-4.68-3.19-6.23-1.09-1.28-1.94-2.69-2.16-4.4,0-1,.24-1.88,1.3-2.3,1.56-.06,1.92,1.63,3.01,2.09-1.67-1.84-.85-3.52,.48-5.16,.15-.06,.31-.11,.46-.17,1.41-.61,.84-1.97,1.13-3.01-.38,.85,.22,2.02-.86,2.64-.28,.16-.6,.15-.93,0-1.37-1.45-.72-3.6-1.78-5.15-.38-.59-.69-1.22-.92-1.88-.36-2.59-2.4-4.56-2.68-7.18,.08-.47,.3-.87,.64-1.19,5.68,.72,3.17-3.61,3.7-6.05,0-1.42,.13-2.87-1.06-3.98-.45-.48-.83-1-1.09-1.61-.09-.46-.05-.9,.11-1.34,.37-.62,.88-1.07,1.55-1.34,.45-.12,.91-.16,1.38-.09,.8,.17,1.62,.42,2.37-.16,.67,0-.14-.83,.18-.25,.1,.18-.04,.13-.3,.22-2.55,.89-2.71-1-3.03-2.62-.41-2.08,.37-4.33-.9-6.29-1.21-1.62-3.16-2.7-3.57-4.89,0-.45,.11-.88,.34-1.28,1.34-.78,2.3,.54,3.46,.61,.87-.94,.37-1.58-.44-2.15-1-.33-2.03-.23-3.05-.22-.69,.04-1.37,.04-2.05,.02-1.2-.05-2.39-.16-3.43-.85-2.51-4.81,2.75-5.49,4.32-8.14,.26-2.15,.64-4.26,1-6.38,.63-3.7,2.84-5.85,6.31-6.9,3.32-1.01,6.72-1.8,9.79-3.51,.73-.33,1.5-.52,2.29-.64,.79-.12,1.58-.16,2.38-.16,2.33,.03,4.66,0,6.98,0,1.47,.03,2.94-.09,4.42-.15,.75,.04,1.34,.37,1.74,1.01,.27,.6,.37,1.24,.45,1.88,.54,1.75,1.94,.75,2.98,.91,1.14,.07,2.15,.48,3.01,1.23,.27,.35,.41,.74,.4,1.19-.27,.8-.86,1.41-1.26,2.13-.29,.53-.62,1.04-1.15,1.37-1.23,.2-2.13-1.05-3.39-.77-1.71,.73-1.14,2.02-.81,3.24,.25,.38,.46,.78,.63,1.2,.09,.46,.06,.9-.09,1.34-.47,.82-1.2,1.36-2.02,1.78-.61,.41-1.4,.22-2.02,.6,1.21,.24,1.47,1.6,2.45,2.1,.74,.51,1.49,1.01,1.64,2.01-.12,.71-.52,1.24-1.05,1.69-.36,.27-.74,.5-1.14,.71-2.14,1.24-3.78,2.91-4.54,5.32,.79,2.55-.18,5.3,.94,7.78,.37,.05,.7-.02,.99-.25,.71-1.49,.62-3.41,2.37-4.3,.45-.1,.88-.05,1.3,.15,.94,1.05,.99,2.45,1.47,3.68,.3,.82,.63,1.63,.79,2.49,.08,1.13-.34,2.13-.79,3.12-.37,.75-.79,1.48-1.47,2.01-.89,.38-1.89-.39-2.75,.3-.75,1.01-1.18,2.21-1.99,3.16-2.19,3.55-1.42,7.55-1.74,11.36,.62,.52,1.49,.7,1.93,1.45,.2,.39,.33,.8,.42,1.23,.4,2.36-.13,4.79,.49,7.12,.52,.62,1.4,.76,1.92,1.4,.21,.37,.35,.77,.43,1.19-.29,2.17,.14,4.25,.66,6.34-.07,.69-.39,1.23-.97,1.6-1.33,.57-1.57,1.84-1.91,3.04-.8,5.52-3.51,11.09,.51,16.47,.45,11.97,.08,23.94,.22,35.91,.03,2.15-.22,4.33,.44,6.43,.82,12.24,1.09,24.52,3.34,36.66,3.03,16.34,8.41,31.75,16.72,46.15,1.05,1.82,2.64,3.51,2.16,5.91Z"/>
  <path class="cls-50" d="M132.6,250.97c2.14,22.92,.91,45.9,.73,68.84-.06,7.42-.9,14.94-.56,22.38,.51,11.26-2,22.07-3.68,33.03-.59,3.85-2.32,8.15,1.54,11.53-7.47,.05-14.94,.07-22.41,.19-1.57,.03-2.55-.27-2.47-2.05,.28-.39,.57-.78,.85-1.17,.5-2.79,1.84-5.07,4.09-6.81,9.83-16.65,15.75-34.6,18.04-53.78,.41-2.05-.07-4.22,.84-6.2,.06-.58,.12-1.17,.18-1.75,.13-.42,.41-.6,.83-.49,.41,.15,.94,.55,.9-.45-.76-20.44-.14-40.84-.32-61.24,0-.99-.02-2.06,1.45-2.03Z"/>
  <path class="cls-41" d="M100.68,183.99c-1.13-3.92-3.66-5.16-7.75-5.14-28.9,.16-57.81,.11-86.72,.04-1.45,0-3.3,1.09-4.42-.89,.99-.95,2.2-1.29,3.53-1.35,29.39-.17,58.78,.04,88.15-.12,3.66,.31,6.49-.88,7.94-4.52,2.46-1.71,5.35-.65,7.98-1.23,2.88-.19,5.77-.11,8.65-.13,2.87,.58,6.47-1.68,8.5,2.17-2.66,1.43-5.88,2.32-5.82,6.27-.11,.2-.22,.39-.33,.59-.5,.51-1.11,.77-1.83,.78-1.92-.39-3.5,.14-4.7,1.72-.39,.23-.82,.33-1.27,.35-1.23-.15-1.96-1.2-2.99-1.68-1.23-.58-2.56-1.26-2.96,.93-.1,1.3-.42,2.53-1.14,3.63-.27,.36-.61,.61-1.03,.76-1.94,.44-2.39-1.71-3.8-2.2Z"/>
  <path class="cls-6" d="M128.45,230.99c-.27,.64-.54,1.28-.81,1.92-4.61,2.13-5.06,3.86-2.47,9.62,.28,.6,.5,1.22,.75,1.83,.78,2.09,2.88,2.42,4.52,3.36,.7,.6,1.69,1.19,1.01,2.26-.49,.77-1.37,.47-2.11,.15-3.89-.85-7.67-2.94-11.55,.69-1.26,1.18-5.68-2.73-5.34-4.82,.56-3.36,1.47-6.67,2.23-10,.18-.12,.35-.23,.53-.35,.4,.1,.73,.32,.97,.62,1.72-.43-.09-1.6,.46-2.26,.02-.68,.2-1.3,.57-1.87,.67-.71,1.6-.6,2.44-.76,3.09-3.67,2.95-4.52-.92-5.8-.46-.04-.87-.19-1.24-.45-.55-1.1-.17-2.2-.02-3.3,.67-1.9,.35-3.87,.37-5.81,.1-.44,.3-.83,.57-1.19,2.45-.35,2.49-4.25,5.51-3.77,.44,.56,.62,1.21,.67,1.91-.14,2.99-1.77,6.1,.73,8.92,1.81,.02,2.22-2.56,4.16-2.17,.48,.49,.97,.98,1.45,1.48-.69,3.3-1.97,6.45-2.49,9.79Z"/>
  <path class="cls-20" d="M129.35,250.11c2.5-.37,.98-1.22,.24-1.98-.16-1.66,.18-3.13,1.51-4.26,.38-.22,.79-.31,1.23-.27,1.51,1,.3,2.23,.27,3.36,0,1.33,0,2.67,0,4-1.5,1.31-.95,3.09-.95,4.68-.04,15.6-.03,31.19-.02,46.79,0,4.13,1.55,8.13,1,12.32-.19,1.43,.39,3.03-1.01,4.16-.76-3.21-1.22-6.46-1.28-9.77-.23-1.09-.4-2.18,.15-3.23,.1-17.47,.2-34.94,.31-52.41,0-1.37,.03-2.69-1.45-3.41Z"/>
  <path class="cls-99" d="M113.73,204.97c-2-6.8-5.97-12.63-9.26-18.78,.09-.18,.21-.35,.36-.49,.98-.72,2.04-1.18,3.29-1.03,3.69,3.74,6.09,8.3,8.3,12.99,.13,.71,.1,1.43-.04,2.13-.21,.92-.44,1.84-.59,2.78-.38,1.06-.29,2.54-2.06,2.41Z"/>
  <path d="M117.65,231.96c-.02,.71-.04,1.42-.06,2.13-.78,.51-.18,2.34-1.88,1.97l-.1-.15c-1.18-2.21,.19-4.72-.84-6.95,.04-1.91-.86-3.94,.7-5.67-.98-3.73,.37-7.61-.76-11.32-.08-1.24-.15-2.47-.23-3.71-.34-.94-.57-1.86,.51-2.51,1.03-.38,.95,2.07,2.29,.9,.47,.19,.82,.5,1.06,.95,.45,2.39,1.55,4.76,.35,7.23-.06,.47-.11,.94-.17,1.41-1.56,1.82-.48,4.05-.93,6.04,.28,.91-1.03,1.86,.08,2.74,.34,0,.69-.02,1.03-.02,1.07,1.39,.32,2.86,.21,4.31-.16,1.01-.49,1.94-1.26,2.65Z"/>
  <path class="cls-115" d="M114.71,211.98c1.96,3.66,1,7.51,.76,11.32-.25-3.77-.51-7.55-.76-11.32Z"/>
  <path class="cls-131" d="M115.54,206.01c-.35,.75-.7,1.51-1.06,2.26-.9-.95-.8-2.13-.75-3.3,1.11-.76,.79-1.95,.91-3.01,2.61,.84,2.05,2.38,.9,4.05Z"/>
  <path class="cls-115" d="M114.77,228.97c1.92,2.12,.47,4.64,.84,6.95-.31,.02-.61,.04-.92,.06,.03-2.34,.05-4.67,.08-7.01Z"/>
  <path class="cls-89" d="M126.61,253.4c1.75,.62,3.01,1.49,2.55,2.49-.75,1.61-1.35,.12-1.8-.56-.25-.38-.35-.86-.76-1.93Z"/>
  <path class="cls-108" d="M112.78,219.72c-.08-2.34-.54-3.63,.41-4.9,.61,1.49,.72,2.86-.41,4.9Z"/>
  <path class="cls-31" d="M164.48,162.93c.06-.58,.12-1.15,.18-1.73,1.84-1.06,3.91-1.45,5.9-2.09,1.54-.37,3.12-.41,4.69-.42,2.02,.03,4.04,.04,6.06-.21,1.43,.06,2.37,.78,2.79,2.15,.14,1.05-.28,1.93-.85,2.75-1.46,1.63-2.32,3.55-2.75,5.69-.27,.78-.72,1.42-1.38,1.91-5.2,2.31-10.54,1.7-15.9,.8-2.11-1.35-1.42-3.24-.99-5.09,.11-.49,.28-.97,.49-1.44,.38-.93,1.04-1.67,1.77-2.33Z"/>
  <path class="cls-8" d="M162.76,170.91c5.6-.27,11.27,.94,16.79-.8,1.22-.38,2.4-1.09,3.76-.52,.38,.25,.59,.61,.66,1.05-.22,1.24,.07,2.61-.89,3.67-.81,.95-1.97,1.46-2.85,2.33-.55,.61-1.02,1.3-1.73,1.76-1.26,.38-2.65,.53-3.35,1.89-1.36,1.36-1.91,4.25-4.87,2.59-.53-1.36,.03-2.2,1.12-2.73-2.41-.08-5.04,.55-7.54-.59-.64-.42-.93-1.04-1.06-1.76,.23-1.69-1.15-2.12-2.21-2.81-.43-.81-1.18-.98-2-1-1.2-2.16,.43-2.79,1.9-3.51,.82-.2,1.58-.06,2.27,.42Z"/>
  <path class="cls-119" d="M126.54,172.84c-2.46-2.22-5.36-.01-7.97-.8-.3-.4-.32-.81-.06-1.24,2.62-1.01,2.61-3.22,2.5-5.47,.75-1.61,1.41-3.23,1.04-5.08,.16-1.74,.26-3.48,1.19-5.04,4.03-2.95,8.75-.87,13.06-1.81,.49-.07,.99-.09,1.49-.07,1.42,.17,2.8,.49,4.16,.95,.43,.22,.73,.55,.9,1-1.86,2.15-4.62,2.75-7.06,3.03-6.57,.74-8.65,4.86-9.08,10.6-.1,1.31-.11,2.62-.16,3.93Z"/>
  <path class="cls-58" d="M121.49,189.01c.39,5.09,5.58,5.91,8.12,9.08-.4,.33-.8,.66-1.2,.98-1.14,.89-2.12,.14-3.16-.27-1.16-.46-2.58-2.39-3.48,.08-.73,2.01,.06,3.92,1.74,5.21,1.08,.82,1.72-.17,2.25-1.02,.76-1.22,1.24-2.71,2.91-3.07,.32,.33,.63,.66,.95,1,.34,.33,.53,.74,.6,1.2-.63,3.36-2.88,6.13-3.5,9.5-.06,.51-.13,1.02-.19,1.53-.86,.69-1.76,.7-2.71,.19-.09-.86-.18-1.72-.27-2.58-2.04-1.13-2.95-3.98-5.83-3.81-.36,0-.71-.01-1.07-.02-1.12-2.25,.37-4.88-1.02-7.09,.02-.7,.04-1.4,.06-2.1,.11-1.22,2.13,1.16,2.04-1.27-.09-2.48-.54-4.85-.91-7.27,.06-.47,.23-.91,.48-1.31,.56-.51,1.23-.66,1.96-.57,1.01,.17,1.6,.92,2.23,1.61Z"/>
  <path class="cls-31" d="M146.59,154.87c-.64,.04-1.27,.07-1.91,.11-2.46-1.93-2.5-4.68-2.53-7.44,.18-.57,.53-.99,1.06-1.26,5.95-.74,11.93-1.82,17.44,1.75,.78,2.46-.2,4.38-1.85,6.11-1.13,1.78-2.77,.65-4.2,.75-2.67-.62-5.34-.6-8.01-.01Z"/>
  <path class="cls-68" d="M157.63,246.92c-1.78,1.42-.84,3.38-.87,5.05-.18,14.36-.24,28.72-.34,43.08-1.03-10.55-.39-21.13-.62-31.7-.1-4.46-.18-8.93-.26-13.39-.58-1.49-1.34-3.09,.56-4.15,.85-.48,1.47,.1,1.53,1.11Z"/>
  <path class="cls-18" d="M154.61,212.99c-.67,.33-1.33,.66-2,1-.38-4.56,.1-8.98,2.14-13.14,1.7-.2,1.56,1.36,2.14,2.2,1.32,1.08,2.1-.73,3.23-.62,1.47,.03,2.11,.81,2.03,2.24-1.94,2.75-3.71,5.6-4.83,8.81-1,.4-1.91,.26-2.7-.49Z"/>
  <path class="cls-100" d="M158.65,230.84c1.28,.35,1.78,3.86,3.86,.95,.87,.43,1.23,1.22,1.5,2.09-.21,2.28,1.94,3.82,1.89,6.05-.27,.66-.74,1.12-1.41,1.37-2.33-.75-4.18,.99-6.33,1.2-.45-.14-.81-.4-1.07-.8-.75-3.09,2.24-6.06,.31-9.2,.16-.17,.32-.33,.48-.5,.26-.39,.52-.77,.78-1.15Z"/>
  <path class="cls-83" d="M157.63,246.92q-1.75-.7-2.09,3.04c-2.92-1.31-3.28-4.38-2.38-6.33,1.32-2.85,.81-5.98,2.24-8.66,1.44,.98,1.38,2.45,1.28,3.93-.14,1.17-.06,2.28,.94,3.11l-.1-.1c1.24,1.41,2.75,2.6,3.29,4.52-.58,1.17-1.46,1.11-2.45,.61l-.39,.04-.35-.18Z"/>
  <path class="cls-136" d="M183.56,161.06c-.58-.65-1.17-1.29-1.75-1.94-1.98,.97-4.24-.21-6.22,.79-1.55,.09-3.09,.17-4.64,.26-1.47,.32-2.96,.85-4.33-.32-.01-.26-.02-.52-.02-.78,.67-.89,1.66-1.1,2.68-1.23,1.67-.14,3.38,.01,5.01-.55,.68-.19,1.38-.31,2.08-.39,1.14-.11,2.27-.31,3.37-.65,1.12-.28,2.25-.31,3.36,.03,1.37,.86,2.91-.55,4.29,.3,.37,.27,.62,.63,.76,1.07,.05,.46-.01,.9-.17,1.33-.82,1.12-1.98,1.8-3.2,2.4-.46,.12-.86,.01-1.22-.3Z"/>
  <path class="cls-17" d="M159.63,157.01c0-.66-.01-1.31-.02-1.97,.28-1.91,.38-3.87,1.29-5.65,2.56-4.1,3.29-.4,4.56,1.06,.76,1.39,1.28,2.82,.7,4.42-.77,1.52-2.16,2-3.7,2.23-.95,.23-1.9,.47-2.83-.09Z"/>
  <path class="cls-132" d="M157.51,222.74c1.92-3.51,2.72-6.76-1.98-8.77-.3,.49-.61,.5-.93,.01,0-.33,0-.66,0-.99,1.04-.01,2.08-.02,3.11-.04,2.02-.34,2.5,1.38,3.41,2.53,.55,.92,1.35,1.67,1.8,2.66,.14,1.17-.26,2.15-1.04,3-.66,.52-1.79,.06-2.22,1.07-.64,.69-1.29,1.38-1.93,2.07-.08-.51-.15-1.03-.23-1.54Z"/>
  <path class="cls-105" d="M152.6,182.01c1.7-2.29,2.91-5.09,5.99-6,.75,.83,.95,1.75,.43,2.79-.46,.9-1.14,1.65-1.65,2.52-1.07,3.19,.19,6.79-1.72,9.83-2.1,0-1.64-1.47-1.6-2.74,.08-2.25,.44-4.58-1.46-6.39Z"/>
  <path class="cls-93" d="M155.26,201.03c-1.93,4.1-2.08,8.57-2.66,12.95-1.12-4.88-1.16-9.63,1.81-13.98,.46-.16,.95-.3,1.22,.26,.1,.21-.1,.5-.38,.77Z"/>
  <path class="cls-82" d="M130.45,197.93c.65-3.63,.41-7.28,.19-10.93,2.4,2.81-.12,6.48,1.54,9.36,1.93,.51,.24-2.4,1.97-1.9,.36,.1,.81,.7,.82,1.09,.03,1.06-.53,2-1.55,2.26-.93,.24-1.97,.1-2.96,.12Z"/>
  <path class="cls-12" d="M153.84,277.9v-13.7c.15,0,.3,0,.44,0v13.7c-.15,0-.3,0-.44,0Z"/>
  <path class="cls-123" d="M152.6,182.01c2.37,.28,1.85,2.11,2.01,3.64,.19,1.81-.76,3.88,1.08,5.36,.22,.18,.31,.38,.26,.59-.05,.22-.1,.32-.17,.32-1.82-.09-3.48-.63-2.63-2.85,.97-2.54-.13-4.73-.56-7.06Z"/>
  <path class="cls-31" d="M159.56,166.94c-2.31-3.65-1.91-4.88,1.85-5.7,.68,.41,.98,1.05,1.05,1.82,.11,2.09-1.56,2.86-2.89,3.88Z"/>
  <path class="cls-80" d="M161.73,156.26c1.29-.44,2.59-.88,3.88-1.31,.55,.11,.95,.43,1.27,.88,.18,.33,.36,.65,.58,.95,.72,.45,1.61,.5,2.25,1.07,.25,.42,.19,.81-.15,1.15-.99,.02-1.99,.04-2.98,.06-1.04-.36-2.09-.72-3.13-1.09-.58-.57-2.14-.14-1.73-1.71Z"/>
  <path class="cls-82" d="M160.61,171.4c-.93,.67-2.17,1.1-2.02,2.61-1.82,.58-.68-4.09-3.52-1.99-.28,.2-.37-1.21,.04-1.44,1.11-.64,2.36-1.04,3.56-1.54,.54,.54,1.3,.78,1.82,1.34,.2,.2,.29,.43,.26,.66-.03,.24-.08,.36-.14,.36Z"/>
  <path class="cls-103" d="M160.53,190.32c1.74-.61,2.64-3.05,5.01-2.3-.31,2.4-2.47,2.89-4.08,3.95-.87-.24-1.01-.89-.93-1.65Z"/>
  <path class="cls-112" d="M155.79,191.92c.16-.32,.13-.63-.09-.91,.9-3.66-.43-7.49,.79-11.13,.07,3.97,.14,7.94,.21,11.92l-.44,.16-.47-.04Z"/>
  <path class="cls-8" d="M159.58,179.4c-.33-.18-.66-.36-.99-.53,0-.95,0-1.91,0-2.86,.33,0,.66,0,1,0,1.39,.1,2.91-.3,4,1,0,.62,0,1.23,0,1.85-1.34,.18-2.67,.37-4.01,.55Z"/>
  <path class="cls-55" d="M128.46,237.9c.33-.33,.66-.65,.98-.98,3.43,.61,2.94,3.92,4.16,6.05-.35,.33-.45,.92-1.02,1.02-.35,0-.7,0-1.06-.01-1.27-1.19-1.01-3.17-2.26-4.37-.41-.5-.7-1.06-.81-1.71Z"/>
  <path class="cls-25" d="M142.6,148.03c1.92,1.95,.48,4.9,2.07,6.95-.61,.1-1.22,.2-1.83,.3,0,0-.31-.33-.31-.33-1.32-1.6-1.38-3.53-1.39-5.46,.19-.78,.68-1.26,1.46-1.46Z"/>
  <path class="cls-75" d="M154.6,213.99c.31,0,.62,0,.93-.01,.08,3.33,.15,6.65,.23,9.98-2.4-3.09-.61-6.66-1.16-9.96Z"/>
  <path d="M161.59,200l-1.92-3.39c.04-.69,.19-1.31,.92-1.6,.64,1.07,1.27,2.13,1.91,3.2,.45,.97-.1,1.45-.9,1.8Z"/>
  <path class="cls-15" d="M161.73,156.26c.58,.57,1.16,1.14,1.73,1.71-1.47,.69-2.98,1.74-4.54,.5-.54-.43,.01-1.17,.71-1.46,.7-.25,1.4-.5,2.1-.75Z"/>
  <path class="cls-57" d="M155.26,201.03c-.28-.34-.56-.68-.85-1.03,.63-1.34,1.25-2.68,1.88-4.03-.46,3,.75,6.12-.68,9.05-.12-1.33-.23-2.66-.35-3.99Z"/>
  <path class="cls-118" d="M158.75,186.02c-.58-2.15-.03-4.15,.81-6.12,2.35,2.03,.47,4.07,.02,6.1l-.42,.02h-.42Z"/>
  <path class="cls-137" d="M162.76,170.91c-.72,.16-1.43,.33-2.15,.49-.15-.14-.17-.3-.06-.47-.79-1.05-.68-2.08,.06-3.1l-.22-.23,.11-.3c.58-1.36,1.55-1.67,2.86-1.07-.2,1.56-.4,3.12-.6,4.67Z"/>
  <path class="cls-139" d="M163.59,177.01c-1.38-.14-2.95,.46-4-1,.33-.33,.67-.67,1-1,1.16,.42,4.58-2.55,3,2Z"/>
  <path class="cls-53" d="M163.36,166.24c-.95,.36-1.91,.71-2.86,1.07-.31-.12-.63-.25-.94-.37-.64-1.99,2.43-2.05,2.03-3.92,1.84-.45,1.74,1.03,2.08,2.08-.1,.38-.21,.76-.31,1.14Z"/>
  <path class="cls-23" d="M161.36,149.91c-.53,1.73-.48,3.65-1.75,5.13-.27-.3-.54-.6-.82-.91,.3-1.82,.43-3.7,1.74-5.18,.41,.2,.69,.52,.82,.96Z"/>
  <path class="cls-90" d="M167.58,384.88c3-1.59,6-1.61,8.99,0-3,.75-5.99,.77-8.99,0Z"/>
  <path d="M167.58,384.88c3,0,5.99,0,8.99,0-3,1.57-6,1.58-8.99,0Z"/>
  <path class="cls-4" d="M146.59,154.87c2.67-1.24,5.34-1.29,8.01,.01-2.67,0-5.34,0-8.01-.01Z"/>
  <path class="cls-36" d="M131.45,227.97c0-.32,.01-.64,.02-.95,2.06-.88,.2-3.6,3.03-5.07-1.58,2.38,.57,5.33-3.05,6.03Z"/>
  <path class="cls-125" d="M163.67,165.1l-2.08-2.08c-.06-.59-.12-1.19-.19-1.78,1.71-.68,2.14,.97,3.08,1.69,.22,.91,.01,1.65-.81,2.17Z"/>
  <path class="cls-106" d="M126.68,179.03c.04,.86,.07,1.73,.11,2.59-.07,.48-.13,.97-.2,1.45-1.39-.95-1.7-2.53-2.31-3.94l2.4-.11Z"/>
  <path class="cls-33" d="M130.6,185c.37-1.99,.64-3.98-.12-5.94,1.94,1.94,1.73,3.93,.12,5.94Z"/>
  <path class="cls-80" d="M166.62,159.84c1.44,.11,2.88,.22,4.32,.32-2.09,.35-4.19,.7-6.28,1.04,.24-1.05,1.13-1.17,1.96-1.37Z"/>
  <path class="cls-99" d="M131.49,205.35c-1-.82,.41-3.02-1.8-3.16-.02-.4-.05-.8-.07-1.2,2.92,.47,1.9,2.62,1.87,4.36Z"/>
  <path class="cls-31" d="M160.61,167.83c-.02,1.03-.04,2.07-.06,3.1-1.65,.39-2.41-.12-1.89-1.89,.65-.4,1.3-.8,1.95-1.21Z"/>
  <path class="cls-69" d="M172.43,375.71c.3,.64,.71,1.21,.81,1.82,.1,.61-.46,.91-.86,.42-.38-.46-.49-1.16-.65-1.78-.02-.08,.38-.26,.7-.47Z"/>
  <path class="cls-35" d="M132.59,243.99c.34-.34,.68-.68,1.02-1.02-.15,1.38,.48,2.96-1.01,4-1.12-.99,.33-1.99-.01-2.98Z"/>
  <path class="cls-48" d="M130.44,314.56c.1-1.87,.2-3.74,.3-5.61,1.78,3.19,.48,6.66,.88,9.97-1.51-1.16-.8-2.91-1.17-4.37Z"/>
  <path class="cls-12" d="M158.37,247.06c.74-.32,1.47-.64,2.21-.96,2.63-.66,4.55-1.88,3.98-5.06,.27-.35,.54-.71,.82-1.06,2.37-1.66,.19-4.36,1.43-6.29,1.19-1.77,1.38-3.97,2.54-5.76,.46-.25,.92-.27,1.4-.07,.6,1.67,.09,3.49,.7,5.15,.04,.32,.08,.64,.12,.96,1.14,2.57,.13,5.54,1.52,8.05-.08,.69-.5,1.16-.95,1.67-.76,.87-1.35-.02-2.01-.08,.34,1.4,1.56,.89,2.44,1.13,1.2,1.19,2.86,2.36,1.46,4.28-1.58,2.17-3.05,.97-4.42-.46-.69-.72-1.37-1.16-2.54-.46-3.1,1.88-6,.89-8.71-1.04Z"/>
  <path class="cls-99" d="M172.75,201.29c-.78,3.24-1.56,6.48-2.33,9.72-.36,2.27-.96,4.56,.43,6.71,.42,.65,.3,1.34,.16,2.03-.47,1.82-.87,3.68-2.57,4.86-.58,.47-1.21,.76-1.98,.62-.68-.31-1.16-.81-1.43-1.51-.2-2.72,.66-5.47-.17-8.18-.02-.47,.04-.92,.15-1.37,.25-.64,.65-1.17,1.11-1.66,.75-.73,1.2-1.56,.95-2.64-.3-1.67-1.26,.12-1.79-.33-.2-.06-.39-.12-.59-.19-.35-.28-.57-.63-.68-1.06-.11-1.22,.53-2.11,1.31-2.93,2.13-1.63,1.9-4.24,2.64-6.44,.53-1.04,1.07-2.07,2.43-2.16,.65,.31,1.06,.86,1.41,1.46,.42,.99,1.43,1.81,.94,3.08Z"/>
  <path class="cls-38" d="M170.41,197c-.65,.68-1.3,1.36-1.95,2.05-.84,.9-1.74,1.67-3.1,1.43-.71-.31-1.22-.73-.84-1.61,3.43-4.04,7.66-7.49,9.25-12.85,.46-.51,1.04-.64,1.7-.58,.82,.17,1.61,.45,2.38,.79,.38,.19,.67,.48,.89,.85-.74,3.07-1.52,6.12-3.99,8.36-.56-.06-1.11,0-1.61,.28-.89,.48-1.63,1.27-2.73,1.28Z"/>
  <path class="cls-90" d="M178.74,187.07c-.36-.01-.71-.03-1.07-.04-.73-.86-.28-1.69,.04-2.53,.29-1.64,3.24-2.56,1.28-4.8-.41-.49-.8-.99-.41-1.68,.02-.83,.2-1.58,1.02-2.01,2.21-1.13,4.11,.03,6.06,.83,.42,.25,.79,.55,1.1,.92,.22,.47,.17,.9-.16,1.3,.09,.16,.09,.33,0,.5-3.18,1.92-4.32,5.98-7.86,7.52Z"/>
  <path class="cls-103" d="M173.32,194.17c.48,.42,.96,.84,1.44,1.26,.28,2.28-1,4.02-2.01,5.86-.67-.86-1.33-1.72-2-2.58,.99-1.44,1.62-3.08,2.57-4.54Z"/>
  <path class="cls-56" d="M170.7,216.98c-.1,.33-.2,.66-.29,.99-1.28-2.32-1.27-4.64,0-6.96,.1,1.99,.19,3.98,.29,5.97Z"/>
  <path class="cls-8" d="M4.76,177.96c-.99,.02-1.98,.03-2.96,.05,0-.67-.01-1.34-.02-2.01,.8-1.4,.45-2.93,.45-4.4,.02-55.04,0-110.08,.02-165.11,0-1.14,.34-2.34-.48-3.37C1.21,1.2,1.35-.17,3.92,.02c1.66,.12,3.33,.01,4.99,.01C98.45,.02,187.98,.01,277.52,.02c1.66,0,3.32,.13,4.98,.19,1.01,2.6-.51,3.72-2.66,4.28-1.11,.29-2.32,.11-3.49,.11-76.91,0-153.81,0-230.72,0-1.09,0-2.19,.21-2.49,.07,.86-.09,2.52-.03,4.18-.03,75.91,0,151.82-.01,227.72,.08,1.82,0,4.42-1.61,5.56,1.46-2.44,2.09-5.4,1.32-8.14,1.32-74.3,.05-148.6,.03-222.91,.04-2.49,0-4.99-.15-7.45,.22-.55,.18-1.08,.41-1.58,.73-1.73,.86-3.72,.96-5.45,1.84-1.03,.4-2.08,.71-3.21,.68-6.93-2.35-14.14-1.03-21.2-1.64-1.19-.02-2.55-.7-3.31,.91-.39,2.34-.21,4.68-.21,7-.07,51.75,.11,103.5-.09,155.24-.03,.59-.12,1.18-.26,1.75-.35,1.4-1.08,2.61-2.03,3.68Z"/>
  <path class="cls-96" d="M280.49,6.11c-1.82-1.8-4.11-.96-6.18-.96-76.05-.05-152.1-.04-228.15-.04-1.79,0-3.59,0-6.29,0,2.55-1.5,4.37-.97,6.09-.97,76.38-.03,152.76-.03,229.14-.03,3.15,0,6.59,.55,7.39-3.91,6.41-.09,2.31,4.48,3.06,6.9-.44,.4-.76,.89-.93,1.46-.3,34.15-.04,68.3-.13,102.45,.12,21.16-.25,42.33,.19,63.49,.25,.63,.23,1.25-.06,1.86,.23,.13,.29,.31,.17,.55-.61,.4-1.22,.41-1.84,.03-2.33-2.03-1.94-4.78-1.94-7.42-.05-40.74,.14-81.48,.06-122.21,0-2.65,.29-5.33-.52-7.93-.96-10.18-.24-20.39-.43-30.59,0-.91,.17-1.8,.37-2.68Z"/>
  <path d="M1.75,3.12c.67,.12,1.33,.28,1.33,1.14-.12,55.85-.24,111.69-.38,167.54,0,1.45,.42,3.04-.93,4.2-.08-1.32-.23-2.64-.23-3.96-.01-55.15,0-110.3,0-165.46,0-1.15,.14-2.31,.21-3.46Z"/>
  <path d="M284.49,7.12c.35,0,.7,0,1.06,0,.1,12.78,.28,25.56,.29,38.34,.05,41.86,.07,83.71,0,125.57,0,1.77,1.14,4.03-1.23,5.35-.04-.45-.09-.91-.13-1.36-.91-1.72-.46-3.58-.46-5.36-.04-19.53-.02-39.06-.02-58.59,0-32.86,0-65.71,.02-98.57,0-1.79-.46-3.65,.46-5.38Z"/>
  <path class="cls-90" d="M283.49,176.98c.43-.02,.86-.04,1.29-.07,1.4,.59,1.28,1.52,.07,1.89-1.23,.37-2.63,.16-3.96,.16-31.43,.03-62.87,.06-94.3,.09,0-.35-.02-.7-.03-1.05,1.47-3.37,4.29-1.18,6.49-1.58,28.18,.43,56.35-.23,84.52-.03,2,.01,3.97,.16,5.92,.58Z"/>
  <path class="cls-141" d="M0,77.96v-13.56c.12,0,.24-.01,.36-.02v13.57c-.12,0-.24,0-.36,.01Z"/>
  <path class="cls-141" d="M.53,6.32v7.56l-.5,.02V6.33h.5Z"/>
  <path class="cls-8" d="M101.64,173.01c-1.05,2.75-1.6,6.27-6,4-.89,.63-1.91,.48-2.89,.48-27.76,0-55.53,.03-83.29-.08-1.38,0-4.63,1.65-3.75-2.4h0c.32-.32,.64-.62,.97-.93,2.15-.94,2.38-4.17,5.19-4.34,24.59-.32,49.16-.06,73.72-.16,1.59,.19,3.02-.53,4.51-.89,1.23,.15,2.08,1.04,3.08,1.61,1.37,1.31,2.84,2.49,4.44,3.52,1.14,.73,.45-.63,.87-.7,1.96-2.01,2.14-2.02,3.13-.13Z"/>
  <path class="cls-135" d="M5.71,175.01c.8,3.29,3.49,1.93,5.34,1.94,28.2,.09,56.39,.06,84.59,.06-1.31,1.51-3.09,.95-4.68,.95-28.74,.02-57.47,0-86.21,0-.02-1.09-.19-2.23,.96-2.94Z"/>
  <path class="cls-29" d="M101.64,173.01c-1.79-2.01-1.93,.87-3,1-2.47-3.35-2.27-5.43,.7-7.43,1.95,1.59,3.53,4.05,6.68,2.93,.45-.07,.9-.05,1.36,.02,.69,.22,1.19,.66,1.55,1.28,.15,.47,.04,.87-.32,1.2-2.22,1.05-4.86-.91-6.96,.99Z"/>
  <path class="cls-107" d="M108.6,172.01c0-.27,0-.54,.02-.82,.24-.43,.6-.93,1.03-.92,4.45,.13,5.58-2.59,5.53-6.36,.47-.68,1.08-1.12,1.94-1.15,2.46,2.43,2.71,5.25,1.47,8.32-.04,.31-.05,.63-.02,.94-3.32,0-6.65-.02-9.97-.03Z"/>
  <path class="cls-88" d="M119.6,187.94c-.29-2.65-.58-5.3-.86-7.96,.68-.29,1.37-.59,2.05-.88-.73,3.37,1.16,6.55,.71,9.9-.81-.04-1.52-.26-1.89-1.06Z"/>
  <path class="cls-47" d="M113.91,181.93c1.74,1.63,3.6,3.18,3.82,5.81-.08,.52-.17,1.04-.25,1.56-2-2.17-3.88-4.43-4.91-7.27,.45-.03,.89-.07,1.34-.1Z"/>
  <path d="M105.7,181.81c1.34,.58,1.75,1.77,2,3.06-.71,1.14-1.78,1.01-2.87,.82,.29-1.3,.58-2.59,.87-3.88Z"/>
  <path class="cls-124" d="M129.81,239.35c-2.35,1.33-2.68,4.49-5.16,5.71-.04-.77-.08-1.54-.12-2.31,.97-1.89,1.98-3.75,3.93-4.85,.45,.48,.9,.97,1.35,1.45Z"/>
  <path class="cls-115" d="M117.61,229.02c.71,1.3,1.42,2.61,2.13,3.91-.7-.32-1.39-.65-2.09-.97-.01-.98-.03-1.96-.04-2.94Z"/>
  <path class="cls-115" d="M116.68,222.87c.64-.31,1.28-.63,1.92-.94-.31,1.03-.62,2.07-.92,3.1-2.07,.08-.81-1.37-.99-2.16Z"/>
  <path class="cls-31" d="M183.62,169.8c-1.41-.56-2.5,2.85-4.06,.32,.03-.74,.05-1.49,.08-2.23,1.12-.89,1.02-2.83,2.74-3.21,.64,.16,1.1,.55,1.44,1.1,.36,.96,.16,1.97,.19,2.96-.01,.4-.15,.76-.4,1.07Z"/>
  <path class="cls-31" d="M183.35,166c-.31-.42-.61-.83-.92-1.25-.45-.57-.4-1.11,.1-1.62,.34-.69,.68-1.38,1.02-2.07,.33,.06,.66,.02,.97-.11,1.88-.32,1.2,1.26,1.56,2.08,.02,.43-.06,.85-.22,1.26-.59,.93-1.29,1.71-2.51,1.72Z"/>
  <path class="cls-1" d="M182.53,163.13c-.03,.54-.07,1.08-.1,1.62-1.45,.59-.73,3.11-2.8,3.14,.08-2.13,.95-3.77,2.9-4.75Z"/>
  <path class="cls-99" d="M175.58,159.91c1.91-1.57,4.11-.85,6.22-.79-1.97,1.05-4.1,.9-6.22,.79Z"/>
  <path class="cls-96" d="M191.57,177.01c-1.37,1.81-3.62-.77-5,.99-.33,0-.66,0-.99,0,.15-2.21-3.07-1.84-3.03-3.97,.89-.86-.07-2.47,1.27-3.15,.71-.7,1.59-.89,2.54-.88,.45,.02,.89,.11,1.33,.24,1.09,.4,1.71,1.34,2.42,2.17,.99,1.03,2.67,.47,3.63,1.56,.15,1.64-.92,2.4-2.18,3.03Z"/>
  <path class="cls-31" d="M186.41,170.8c-.86,.03-1.73,.06-2.59,.1l-.21-1.1-.04-.35c-.07-2.01,.78-3.67,1.93-5.23-.04-.31-.04-.61,.03-.91,2.94,2.11,3.07,3.2,.89,7.49Z"/>
  <path class="cls-94" d="M182.55,174.04c1.67,.81,4.7,.59,3.03,3.97-2-.67-3.99-1.33-5.99-2,.99-.65,1.97-1.31,2.96-1.96Z"/>
  <path class="cls-94" d="M178.58,178.02c.38,.35,.75,.7,1.13,1.04,.42,1.63-.27,2.69-1.73,3.36-.48,.04-.91-.1-1.29-.39-.02-1.47,.55-3.36-2.1-2.97,.76-2.5,2.56-1.04,3.98-1.05Z"/>
  <path class="cls-31" d="M137.76,154.05c-2.85,1.89-6.03,.41-9.02,.89-1.72,.28-3.63-.56-5.17,.87-.42,.78-1.11,.83-1.87,.67-1.71-.77-2.07-2.66-3.24-3.88-1.06-1.46-2.54-2.73-2.3-4.81,2.24-3.38,5.74-1.66,8.69-2.16,4.69,.3,9.44-.63,14.09,.63,2.34,3-.23,5.27-1.18,7.79Z"/>
  <path class="cls-13" d="M122.06,155.85c.5-.01,1-.02,1.51-.03,.13,1.82,.24,3.63-1.21,5.07-.38,.63-.99,.82-1.67,.89-1.39-.08-2.68,.23-3.89,.9-.36,.44-.72,.89-1.07,1.33-3.3-3.49-7.5-3.04-11.68-2.63-.43,.14-.86,.2-1.31,.19-1.07-.29-1.91-1.14-3.06-1.2-1.69-.53-4.1,.52-4.85-2.16-.4-2.16,.1-4.04,1.72-5.58,.96-.56,1.99-.62,3.06-.49,4.77,.42,9.46,1.74,14.3,1.26,.49-.05,.99-.02,1.47,.05,1.57,.55,3.07,1.27,4.69,1.71,.65,.29,1.29,.59,2,.68Z"/>
  <path class="cls-31" d="M116.8,162.68c.06-3.48,2.13-2.3,3.95-1.71,1.05,1.15,1.93,2.34,1.07,4,.14,.8,.17,1.64,.45,2.39,1.47,3.95-.27,4.65-3.68,3.73-.6-2.81-1.19-5.61-1.79-8.42Z"/>
  <path class="cls-79" d="M141.93,148.93c.41,1.99,1.05,3.95,.6,6.03-1.41,.09-2.93,.62-3.96-.92,.05-2.45-.37-5.11,2.7-6.26,.56,.19,.77,.58,.65,1.15Z"/>
  <path class="cls-2" d="M141.63,147.99c-3.25,.89-1.15,4.48-3.05,6.04,0,0-.41,.03-.41,.03,0,0-.41,0-.41,0-.57-2.56,.48-4.73,1.65-6.87,1.09-.7,2.07-1.09,2.21,.81Z"/>
  <path class="cls-78" d="M121.82,164.98c-.36-1.33-.72-2.67-1.07-4,.54-.03,1.08-.06,1.61-.09,2.14,1.67,1.09,2.92-.54,4.1Z"/>
  <path class="cls-67" d="M161.36,149.91c-.27-.32-.55-.64-.82-.96-5.73-2.96-11.87-1.91-17.91-1.86-.35-.55-.28-1.04,.2-1.47,4.81-1.29,9.62-.46,14.43,0,.67,.02-.23-1.11,.04-.5,.07,.15-.06,.26-.37,.22-4.35-.66-8.82,.3-13.14-.93-.44-.44-.54-.96-.3-1.54,3.59-2.41,7.83-.33,11.58-1.69,.54-.17,1.1-.27,1.66-.34,1.96-.2,3.92-.1,5.88-.22,2.2,.06,4.44-.19,6.51,.81,.47,.27,.72,.68,.74,1.22-2.98,3.39-6.53,.58-9.57,.86,2.5-.55,3.94,3.05,6.76,2.16,2,.19,4.21-.33,5.66,1.67,.04,.52-.15,.94-.57,1.23-2.4,1.14-5.65-.04-7.47,2.72-1.46-.57-.44-3-2.25-3.15-1.01-.08-.82,1.1-1.08,1.77Z"/>
  <path class="cls-133" d="M142.58,146.02c.02,.36,.04,.73,.05,1.09-.03,.31-.04,.62-.03,.93-.22,.3-.45,.6-.67,.89-.15-.3-.25-.61-.3-.94-.37-1.28-1.3-1.01-2.21-.81-4.92-.09-9.85-.18-14.77-.27,.02-1.88,1.56-2.01,2.75-2.01,4.68-.02,9.37-1.01,14.05,.05,.48,.25,.86,.61,1.14,1.08Z"/>
  <path class="cls-56" d="M164.53,198.87c.39,.39,.77,.78,1.16,1.17,.48,2.07,1.26,4.14-.15,6.17-.31,.9-.62,1.8-.93,2.7-2.71-.12-2.58-2.34-3.04-4.12-.04-1.13-.61-1.74-1.76-1.77,.02-1.34,2.66-1.15,1.78-3.02,.3-.6,.6-1.2,.9-1.8,.68,.22,1.36,.45,2.04,.67Z"/>
  <path class="cls-52" d="M166.59,188c1.22-1.44,1.64-3.68,3.99-4,1.07,3.73-.27,5.06-3.99,4Z"/>
  <path class="cls-56" d="M176.69,182.03c.3-.05,.61-.05,.91-.02,.57,.51,.67,1.14,.46,1.84-.56,.92-.72,2.24-2.21,2.22-.69-.02-1.38-.04-2.07-.06,.84-1.42,1.02-3.33,2.91-3.98Z"/>
  <path class="cls-35" d="M165.73,223.98c.3,.38,.61,.76,.91,1.13,.88,.61,.86,1.96,1.96,2.37,.38,.06,.7,.23,.98,.49,.09,2.24,.31,4.53-1.99,5.98-1.44,.17-2.89-.58-4.33,.01-.25-.72-.5-1.45-.75-2.17,.4-1.61,.79-3.22,1.19-4.83,.46-.66,.07-1.53,.54-2.19,.38-.48,.84-.8,1.48-.79Z"/>
  <path class="cls-116" d="M164.63,224.85l-.92,2.11c-1.69-1.29-1.07-4.54-4.04-4.75,.32-1.03,1.17-1.21,2.08-1.28,2.61,.09,2.96,1.85,2.88,3.92Z"/>
  <path class="cls-139" d="M189.57,173.01c-.73-.7-1.46-1.39-2.19-2.09,.04-3.89-1.4-7.79,.1-11.67,.03-.41,.07-.82,.1-1.23,1.57-.02,1.2-1.73,2.09-2.37,1.9-.61,3.03,.49,4.09,1.77,.23,.39,.38,.81,.46,1.25-.03,1.5-.16,3-.18,4.51,.13,.49-.69,.97-.11,1.39,.53,.38-.33,.05,.27-.32,.35-.52,.73-.96,1.22-1.32,.51-.14,.96-.05,1.36,.3,.49,.7,.62,1.48,.56,2.31-1.29,4.54,1.91,3.94,4.53,3.94,22.22,0,44.45-.01,66.67,.03,2.79,0,5.66-.45,8.3,.97,.2,3.39,.09,3.46-5.25,3-22.67-.14-45.35-.03-68.02-.05-1.49,0-2.98-.05-4.41,.44-.46,.26-.96,.45-1.48,.57-2.46-.5-4.75-2.01-7.44-1.41-.23,0-.46-.01-.69-.02Z"/>
  <path class="cls-113" d="M187.48,159.26c-.03,3.89-.07,7.78-.1,11.67,0,0-.49,.02-.49,.02l-.47-.14c-.2-2.51,1.29-5.22-.89-7.5-1.42-.32,.27-1.97-1-2.36,.64-1.17,1.45-2.04,2.96-1.69Z"/>
  <path class="cls-50" d="M169.59,158.06c-.96-.47-2.53,.88-3.01-1.02,3.06-2.06,6.28-1.65,9.54-.6,.59,.39,.73,.9,.42,1.53-.65,.03-1.3,.06-1.95,.1-1.67,.67-3.33,.69-5,0Z"/>
  <path class="cls-91" d="M176.54,157.97c.02-.31,.03-.62,.03-.93-1.42-1.61-3.97,.75-5.21-1.49,.71-1.66,2.24-1.59,3.67-1.74,.98-.02,1.94,.08,2.87,.41,.44,.19,.83,.48,1.15,.84,.41,.61,.61,1.28,.57,2.02-.79,1.12-1.95,.93-3.08,.89Z"/>
  <path class="cls-73" d="M187.57,157.03c-1.34-.49-2.66,1.01-4,.03-.25-.25-.37-.52-.37-.82,0-.31,.03-.47,.09-.47,.38-.66,.92-1.13,1.63-1.38,1.31-.26,2.46-.13,3.05,1.3,.04,.5-.1,.95-.41,1.35Z"/>
  <path class="cls-99" d="M169.59,158.06c1.67,0,3.33,0,5,0-1.44,1.58-3.32,.74-5.01,.93,0-.31,0-.63,.01-.94Z"/>
  <path class="cls-16" d="M187.57,157.03c0-.34,0-.67,0-1.01,.66-.63,1.33-.53,1.99,0-.09,1.23,.49,3.11-1.97,2-.01-.33-.02-.66-.02-.99Z"/>
  <path class="cls-43" d="M183.56,156.04c0,.34,0,.68,.01,1.02-1.32,0-2.64,.01-3.95,.02-.35-.35-.7-.69-1.04-1.04,1.66-1.28,3.32-1.55,4.99,0Z"/>
  <path class="cls-31" d="M175.58,154.97c-1.43,.3-2.86,.61-4.29,.91-1.53,1.09-3.11,.78-4.71,.18-.32-.37-.65-.74-.97-1.11,.36-1.39,.1-2.62-.93-3.65,.41-5.29,4.1-3.2,6.91-3.08,2.36,.07,4.65-.81,7.03-.51,1.62,.02,3.27-.1,4.83,.41,3.14,1.02,3.76,2.97,2.05,6.14-.99,.22-1.75,1.1-2.84,1.06-2.36-.01-4.66-1.51-7.08-.33Z"/>
  <path class="cls-99" d="M165.54,215.11c-1.71,.24-2.2,1.82-3.18,2.87-1.16-.06-1.73-.68-1.76-1.83,1.75-2.18,3.67-4.27,4.11-7.2,.34,.05,.68,.1,1.02,.15,1.44,1.7,.73,3.34-.14,4.97-.02,.35-.03,.7-.05,1.04Z"/>
  <path class="cls-99" d="M166.59,156.06c1.57-.06,3.14-.12,4.71-.18,1.65,.9,3.93-1.12,5.28,1.16-3.33,0-6.66,0-9.99,0,0-.33,0-.66,0-.98Z"/>
  <path class="cls-94" d="M169.58,227.98c-.25,0-.5,0-.75,0-1.1-.63-1.12-1.58-.8-2.64,.49-1,1.18-1.64,2.39-1.33,.03,1.33,.05,2.65,.08,3.98h-.46s-.46,0-.46,0Z"/>
  <path class="cls-56" d="M168.74,224.97c-.3-.35-.36-1.03-1.09-.78,.93-1.4,1.85-2.79,2.78-4.19,0,1.33,0,2.66,0,4-.56,.32-1.12,.65-1.69,.97Z"/>
  <path class="cls-28" d="M167.59,209c-.26,1.22-.53,2.45-.79,3.67-.4,.47-.81,.93-1.21,1.4,.05-1.66,.09-3.32,.14-4.97,.61-.3,1.19-1.15,1.86-.09Z"/>
  <path class="cls-134" d="M87.64,170.94c-25.95,.24-51.89,.51-77.84-.14-.83-.65-1.19-1.55-1.34-2.56-.37-29.4-.05-58.8-.18-88.2-.33-9.81,.11-10.17,10.02-8.02,.96,.21,1.92,.42,2.86,.71,2.55,.74,5.14,1.37,7.67,2.17,8.8,2.89,17.55,5.95,25.81,10.21,7.49,3.77,14.68,8.04,21.55,12.84,2.95,1.84,5.58,4.13,9.54,6.71-1.62-4.65-5.17-5.85-7.67-8.02-5.99-5.42-13.13-8.98-20.24-12.6-8.86-4.78-18.54-7.46-27.88-11.03-1.12-.42-2.26-.79-3.41-1.13-2.74-.84-5.6-1.32-8.13-2.79-1.31-.76-2.8-.93-4.24-1.31-1.33-.43-2.8-.4-4.04-1.17-1.38-.97-1.75-2.43-1.75-3.95,.02-17.64-.52-35.29,.27-52.93,.22-.62,.58-1.16,1.06-1.61,7.75-.34,15.54-1.27,22.98,1.99,6.12,.74,11.09,4.16,16.23,7.1,5.63,3.22,10.9,7.01,15.97,11.04,1.93,2,4.08,3.75,6.36,5.34,4.8,4.97,10.25,9.4,13.1,15.97-.33,1.95,.69,2.87,2.48,3.17,2.07,1.19,3.44,2.97,4.32,5.17,.11,.44,.14,.89,.1,1.34-.52,1.39-.96,2.74,1.4,2.62,.35,.29,.62,.63,.82,1.03,.53,1.67,.74,3.55,2.74,4.29,2.38,2.68,3.73,5.95,5.29,9.11,.83,2.55,2.32,4.9,2.24,7.71-.02,.65-.15,1.3-.27,1.94q-1.85,10.05-12.17,11.24c-.82,.09-1.63,.13-2.59,.5,2.5-.35,4.22,.4,5.02,2.75,.66,13.56,.19,27.11,.25,40.65,0,1.85-.33,3.64-1.91,4.89-1.31,1.04-2.96,1.21-4.49,1.68-1.87,.92-4.38,.87-5.15,3.44,.06,2.44,.46,4.79,1.61,6.97,1.03,3.66,5.41,6.13,3.81,10.72-.95,.98-2.17,.69-3.3,.69-21.79,.02-43.59,.01-65.38,.02-.66,0-1.33,.06-1.85-.4,.75,1.11,1.9,.38,2.8,.39,21.13,.06,42.26,.02,63.38,.1,1.39,0,3.44-1.14,4.13,1.36Z"/>
  <path class="cls-106" d="M21.7,74.06c-2.86-.5-5.73-.95-8.58-1.52-3.17-.63-5.51-.72-3.37,3.64,.38,.76-.05,1.92-.1,2.9-.66,1.06-.44,2.25-.44,3.4-.01,27.71-.01,55.42,0,83.13,0,1.14-.22,2.33,.45,3.4,.05,.6,.1,1.2,.14,1.8,.45,2.48-.61,3.87-3.09,4.21-.84-1.39-.47-2.92-.47-4.39-.02-53.04-.02-106.08,0-159.11,0-1.47-.37-3,.46-4.39,1,.33,2.01,.67,3.01,1-.05,.33-.09,.67-.14,1-.93,5.93-.29,11.9-.35,17.85-.12,11.98-.05,23.96-.02,35.95,0,1.54-.86,3.45,1.42,4.25,.74,.07,1.47,.26,2.18,.46,.91,.15,1.81,.41,2.75,.4,1.09-.04,2.19-.83,3.28,0l8,2.99c-1.32,1.69-3.54,1.85-5.15,3.05Z"/>
  <path class="cls-41" d="M64.56,29.37c-9.84-7.71-20.6-13.9-31.86-19.26,.67-.33,1.33-.66,2-.99,1.74,0,3.43-.17,4.98-1.06,0-.32,.02-.63,.04-.95,1.4-.82,2.93-.46,4.4-.46,66.27-.02,132.55-.02,198.82,0,1.48,0,3-.33,4.42,.4,.82,1.89-.68,2.12-1.84,2.59-44.75,.04-89.51,.02-134.26,.02-21.25,0-42.49,.01-64.18,0,6.09,3.23,11.49,6.71,16.52,10.75,1.68,1.35,3.5,2.61,3.96,4.95,.19,2.22-.76,3.6-2.99,4.02Z"/>
  <path class="cls-122" d="M247.54,8.09c-1.48-1.62-3.43-.97-5.18-.97-67.54-.03-135.09-.02-202.63-.02,1.82-1.8,4.12-.95,6.17-.95,78.2-.05,156.4-.04,234.59-.04,.33,.34,.67,.67,1,1.01-1.15,7.99-.2,16.02-.51,24.03-.09,2.46,.16,4.93-.16,7.38-.38,.6-.89,.76-1.54,.47-2.01-3-.97-6.38-1.16-9.6-.26-4.42,.31-8.87-.36-13.28-.77-2.15-.19-4.52-1.07-6.65-.46-.54-1.04-.88-1.76-.95-4.46-.07-8.92-.28-13.35,.18-.45,.12-.91,.18-1.37,.21-1.8-.09-3.82-.87-4.82,1.55-.63,.3-1.28,.32-1.93,.09-1.38-1.19-2.96-1.84-4.81-1.73-.45-.13-.81-.39-1.11-.75Z"/>
  <path class="cls-96" d="M41.01,2.26h237.15c0,.17,0,.33,0,.5H40.82c.06-.17,.13-.33,.19-.5Z"/>
  <path class="cls-96" d="M6.71,7.12c0,55.97,0,111.93,0,167.9-.33,0-.67,0-1,0,0-54.07,0-108.14,.03-162.22,0-1.9-.76-4.03,.96-5.68Z"/>
  <path class="cls-63" d="M8.87,2.34H30.59c0,.17,0,.33,0,.5H9.02c-.05-.17-.1-.33-.16-.5Z"/>
  <path class="cls-64" d="M39.68,8.05c.57,.41,.68,1.55,.44,1.46-1.8-.7-3.76,1.2-5.41-.39,1.53-.97,3.24-1.06,4.98-1.06Z"/>
  <path class="cls-70" d="M272.45,172.05c1.74-.04,3.94,2.02,5-1.09,.07-.27,.13-.55,.19-.82,.18-.55,.3-1.11,.37-1.69,.19-16.47,.01-32.94,.09-49.4,.01-2.49-.21-4.99,.43-7.45,.18-.61,.45-1.17,.79-1.7,1.08-2.02,.75-4.23,.75-6.36,.03-18.94,0-37.89,.03-56.83,0-2.3-.37-4.67,.77-6.86,.2-.25,.41-.49,.62-.73,1.73,1.65,.96,3.78,.96,5.68,.05,41.8,.03,83.6,.04,125.4,0,2.31-.36,4.69,.99,6.81-1.29,1.55-3.06,1-4.65,1-27.54,.03-55.07,.03-82.61,0-1.59,0-3.36,.55-4.67-.97-.16-1.55,1.38-1.96,2-2.99-.24-.28-.33-.55-.25-.83,.08-.28,.16-.42,.24-.42,1.41-.57,2.28,.14,3,1.24,.34,0,.68,0,1.02,0,.5-.4,1.06-.68,1.68-.85,22.99-.39,45.97,.05,68.96-.22,1.37-.5,2.93-.09,4.24-.9Z"/>
  <path class="cls-41" d="M284.49,7.12c0,34.65,0,69.29-.01,103.94-.33,.45-.66,.45-.99,0,0-34.13,0-68.27,0-102.4,0-.48,.06-.97,.2-1.43,.03-.11,.52-.08,.8-.11Z"/>
  <path class="cls-90" d="M283.49,111.05c.33,0,.66,0,.99,0,0,21.32,0,42.64,0,63.95-1.63-1.47-.96-3.42-.97-5.17-.05-19.6-.03-39.19-.03-58.79Z"/>
  <path class="cls-106" d="M280.49,39.09c0-8.94-.04-17.88,.03-26.82,.01-1.74-.66-3.69,.97-5.15,0,10.66,0,21.32,0,31.97h0c-.17,.13-.33,.25-.5,.38-.17-.13-.33-.25-.5-.38Z"/>
  <path class="cls-41" d="M95.65,159.01c.86,2.1,3.79-2.37,4.15,1.31,1.01,2.27,.93,4.5-.24,6.69-1.44,2.18-2.08,4.47-.91,7,0,.54,.45,1.81-.06,1.49-2.09-1.31-4.98-1.69-5.94-4.49-.55-.76-.4-1.64-.43-2.49-.25-1.7-.72-3.36-1.09-5.03-.31-1.25,0-2.5,.06-3.75,.15-.88,.57-1.59,1.32-2.08,.4-.17,.81-.25,1.25-.24,.97,.13,1.36,.95,1.91,1.59Z"/>
  <path class="cls-134" d="M87.64,170.94c-1.52-1.54-3.45-.9-5.21-.9-20.6-.04-41.2-.03-61.8-.03-1.62,0-3.24,0-5.69,0,2.33-1.47,4-.97,5.57-.97,20.77-.04,41.53,0,62.3-.07,1.76,0,4.22,1.08,4.85-1.97,.35-.46,.51-1.1,1.16-1.31,.9-.06,1.56,.37,2.1,1.03,.2,.37,.3,.76,.31,1.18-.07,.42-.27,.76-.6,1.03-1.16,.42-.76,3.16-2.98,2.01Z"/>
  <path class="cls-135" d="M17.05,172.18H88.32c0,.16,0,.32,0,.48H16.84c.07-.16,.14-.32,.21-.48Z"/>
  <path class="cls-49" d="M90.62,168.93l-.08-1.13c1.34-.8,2.22-.12,2.96,.95-.29,.75-.58,1.51-.87,2.26-1.33-.06-2.08-.67-2.02-2.08Z"/>
  <path class="cls-34" d="M13.63,173.41c-.15,.61-.29,1.16-.89,.79-.33-.2-.61-.69-.65-1.08-.05-.51,.37-.91,.88-.64,.33,.17,.48,.67,.66,.94Z"/>
  <path class="cls-31" d="M103.56,161c3.71-2.72,10.43-1.06,12.17,3.02q.6,7.14-7.1,7.19c-.37-.4-.73-.79-1.1-1.19-1.8-.94-2.48-2.67-3.1-4.44-.34-1.52-1.63-2.86-.87-4.58Z"/>
  <path class="cls-31" d="M99.55,167.01c-1.46-2.29,.48-4.45,.24-6.69,1.47-1.61,2.36-1.39,2.63,.83,1.4,1.23,1.59,3.11,2.48,4.62,.43,1.48,1.3,2.77,1.79,4.23-4.59,2.29-5.56,1.88-7.14-2.98Z"/>
  <path class="cls-74" d="M106.7,170c-1.24-1.02-1.64-2.48-2.11-3.91-.56-1.03,.02-1.1,.83-.98,.7,1.64,1.41,3.28,2.11,4.91-.28,0-.55,0-.83-.02Z"/>
  <path class="cls-81" d="M185.5,164.22c-.41,1.83-.53,3.77-1.93,5.23-2.08-1.02,.21-2.33-.22-3.45,.52-.84,1.13-1.56,2.15-1.78Z"/>
  <path class="cls-139" d="M193.56,173.01v1.01c-1.2-.85-3.35,2.05-4-1.01,0,0,0,0,0,0,1.33-.73,2.67-.72,4,0Z"/>
  <path class="cls-27" d="M141.63,146.01c-5.69-.23-11.39-.63-16.99,.9-2.11,.14-4.22,.36-6.33,.38-1.34,.01-1.72,.56-1.51,1.76,0,1.77,.42,3.65-1.29,4.98h-.46s-.46,0-.46,0c-1.45-1.47-1.24-3.24-.88-5.02-.34-.32,1.13-.94-.02-.92-1.76,.02-3.56,.23-5.27,.81-.99,.22-1.97,.31-2.98,.14-.79-.2-1.8-.52-1.79-1.33,.02-1.58,1.53-1.84,2.66-2.37,.97-.33,1.97-.46,2.98-.5,1.69-.05,3.41,.06,5.05-.54,.48-.16,.97-.27,1.48-.36,2.31-.31,4.64-.17,6.96-.28,4.53-.34,9.06-.2,14.06,.03,.2,0-.63-1.11-.4-.49-2.21,.61-4.43,.33-6.66,.13-.39-.47-.41-.95-.05-1.45,2.76-1.85,5.77-1.17,8.74-.85,.51,.15,.98,.38,1.42,.68,.79,.65,1.52,1.36,2.07,2.24,.27,.75,.22,1.45-.34,2.06Z"/>
  <path class="cls-65" d="M115.51,154.02c.62-1.61-.67-3.72,1.29-4.98,1.9,.32,1.5,2.79,3.14,3.35-.61,1.08,1.09,2.61-.67,3.47-1.41-.29-3.07-.06-3.75-1.84Z"/>
  <path class="cls-121" d="M119.27,155.86c.71-1.06-.62-2.52,.67-3.47,.71,1.15,1.41,2.3,2.12,3.45-.93,0-1.86,.01-2.79,.02Z"/>
  <path class="cls-31" d="M106.21,148.1c.81-.04,1.62-.09,2.43-.13,1.91-.54,3.81-.88,5.66,.21,.1,1.95,.2,3.9,.3,5.84-5.12,1.79-10.02,.28-14.94-1-.38-.45-.65-.97-.81-1.54-.14-2.54,1.26-3.56,3.58-3.4,1.27,.09,2.51,.65,3.78,.01Z"/>
  <path class="cls-29" d="M95.65,159.01c-.67-.33-1.34-.67-2.02-1-1.28-.7-2.22-1.69-2.67-3.11-.29-.91-.35-1.83-.11-2.76,.23-.67,.64-1.19,1.34-1.42,1.42,.88,4.08-.61,4.45,2.3-.33,2-1.35,3.88-1,5.99Z"/>
  <path class="cls-9" d="M96.64,153.03c-.8-1.74-3.63,.59-4.01-2,2.84-3.38,4.82-.75,6.92,1,.03,.33,.07,.67,.1,1-1.01,0-2.01,0-3.02,0Z"/>
  <path class="cls-117" d="M110.67,157.48c-2.16,.77-4.22,.82-6.38-.97,2.59-1.07,4.35,.84,6.38,.97Z"/>
  <path class="cls-62" d="M105.41,165.1c-.28,.33-.55,.66-.83,.98-1.24-1.42-1.97-3.06-2.16-4.93,.38-.05,.76-.1,1.14-.16,1.13,1.14,1.52,2.61,1.85,4.1Z"/>
  <path class="cls-31" d="M169.27,142.17c-2.23-.09-4.46-.18-6.69-.26-2.22-.78-4.51-.25-6.77-.34-8.29,1.39-16.56-.24-24.84-.05-1.89,.3-3.73,.88-5.62,1.23-.51,.17-1.03,.28-1.56,.36-2.35,.33-4.73,.21-7.09,.26-2.36,.03-4.74-.23-7.04,.59-.55,.16-1.1,.25-1.67,.3-1.79,.09-3.58,.18-5.19-.86-1.7-1.53-1.58-3.61-1.52-5.58,.21-6.97-.7-13.97,.82-20.9,.51-2.33-.06-4.56-1.65-6.54-1.1-1.37-1.22-3.13-.23-4.69,1.02-1.59,2.38-.35,3.59-.21,1.99,.23,3.99,.17,5.99,.17,22.64,0,45.27,.02,67.91-.01,3.42,0,6.69,.19,9.06,3.12,1.16,2.12,1.27,4.46,1.18,6.78-.39,9.41,1.04,18.86-.78,28.23-1.64,1.86-3.77,1.59-5.89,1.34-1.88-.56-3.84-.78-5.76-1.14-2.03-.74-4.38-.38-6.22-1.8Z"/>
  <path class="cls-77" d="M181,143.92c1.85-.04,3.7-.08,5.55-.12,.46-.17,.87-.09,1.23,.23,.08,.58-.06,1.02-.7,1.17,.62,.44,.76-.27,.87-.5,.45-.87,1.06-1.52,1.96-1.92,.44-.16,.89-.23,1.35-.21,.91,.13,1.74,.48,2.53,.92,.38,.22,.73,.47,1.08,.75,.17,.13,.33,.27,.51,.4,1.58,1.51,3.95,1.67,5.55,3.17,.89,1.09,1.41,2.33,1.49,3.74,0,.47-.05,.93-.15,1.39-.06,.23-.14,.45-.2,.68-.51,1.33-1.01,2.68-2.52,3.23-2.04,.41-4,1.25-6.13,1.18-1.27-.7-2.14-2.16-3.85-2.01-.66,0-1.33,0-1.99,0-.72-1.18-1.91-.97-3.01-1.01-.28-.18-.38-.36-.28-.54,.09-.18,.19-.27,.28-.27,2.14-2.99,2-4.99-2.25-5.19-1.14-.05-2.27-.07-3.41-.11-.54-.07-.71-.38-.59-.87,.23,.64-.26-.48,.36-.32,.45,.11,.54-.24,.27-.15-1.7,.58-3.51,.29-5.21,.73-.48,.15-.86,.01-1.14-.4-1.86-1.59-4.18-.5-6.21-1.07-.68-.35-1.78-.31-1.86-1.25-.09-1.11,.75-1.86,1.78-1.9,2.42-.11,4.79-.52,7.16-.91,.53-.16,1.02-.08,1.48,.24,1.89,1.19,4.14,.02,6.07,.92Z"/>
  <path class="cls-32" d="M141.63,146.01c0-.64,0-1.28,0-1.93,.65-.44,1.31-.23,1.98-.05,4.94,.04,9.93-.4,14.75,1.99-5.26,0-10.51,0-15.77,0,0,0-.48,0-.48,0h-.48Z"/>
  <path class="cls-31" d="M129.68,141.09c8.95,0,17.9,0,26.86,0,.34,.13,.46,.29,.38,.48-.09,.19-.19,.29-.29,.29-.36,.12-.72,.24-1.08,.36-5.31,.24-10.63,.87-15.93-.07-3.35,.03-6.7,.06-10.04,.09-.1-.2-.21-.4-.31-.61,.14-.18,.28-.36,.42-.54Z"/>
  <path class="cls-32" d="M173.57,143.14c-1.8,1.63-3.99,.65-6,.89-2.15,.25-3.1,.88-1.2,2.8-1.61,.18-3.67,.77-4.2-1.28-.75-2.88-3.19-.61-5.06-2.66h12.72c1.28-.4,2.55-.74,3.73,.25Z"/>
  <path class="cls-32" d="M139.61,142.14c5.31,.02,10.62,.05,15.93,.07-3.89,1.74-8.01,.36-11.98,.89-1.33,.63-2.66,.67-3.96-.09,0-.29,0-.58,.01-.87Z"/>
  <path class="cls-31" d="M178.3,148.17c.19,.25,.38,.49,.59,.73-2.46,.03-4.99,.87-7.29-.69,.33-.11,.66-.21,.98-.32,.34,0,.68,.01,1.02,.02,1.59-.42,3.19-.85,4.7,.27Z"/>
  <path class="cls-31" d="M173.57,143.14c-1.24-.08-2.49-.17-3.73-.25-.19-.24-.38-.47-.57-.72,2.15-.16,4.35-.81,6.33,.67-.2,.54-.53,.66-1,.32-.34,0-.68-.02-1.02-.02Z"/>
  <path class="cls-31" d="M156.62,141.86c-.02-.26-.05-.51-.09-.77,2.03,.17,4.21-.75,6.05,.82l-5.96-.05Z"/>
  <path class="cls-61" d="M139.6,143.01c1.32,.03,2.64,.06,3.96,.09,.02,.31,.03,.62,.04,.92-.63,1.1-1.32,.04-1.98,.05-.82-.08-1.61-.21-2.02-1.07Z"/>
  <path class="cls-134" d="M277.46,170.96h-83c-.76-2.77,2.44-4.09,2.28-6.56,.27-2.34,1.22-4.47,2.73-6.17,1.4-1.57,1.84-3.29,1.96-5.23l.36,.1c3.34-2.31,5.13-6.87,4.31-10.68-.29-1.37-1.15-1.94-2.34-2.2-3.5-.77-5.16-3.31-6.29-6.4-.66-7.58,0-15.18-.4-22.76-.22-1.5,.57-2.54,1.58-3.48,4.18-3.48,7.91-7.61,13.32-9.34,1.42,.05,2.94,.31,3.26-1.74,.7-1.57,2-2.53,3.39-3.4,11.99-7.61,24.91-13.26,38.27-17.98,1.66-.35,3.25-.89,4.86-1.42,3.37-.93,6.72-1.91,10.15-2.5,5.29-.9,7.1,.57,7.03,6.01-.14,12.6-.04,25.2-.34,37.8-.39,16.58-.08,33.18-.12,49.76,0,2.1,.54,4.35-1.03,6.22l.02-.02Z"/>
  <path d="M198.53,174h-.48s-.48,0-.48,0c.63-3.06,3.11-1.92,4.84-1.92,23.35-.07,46.69-.04,70.04-.04-.71,1.17-1.88,.92-2.96,.97-1.73,.91-3.59,.45-5.38,.46-20.07,.04-40.15,0-60.22,.05-1.79,0-3.65-.48-5.36,.48Z"/>
  <path class="cls-134" d="M193.41,158.03c1.66-1.62,3.78-1.78,5.92-1.91,.89,3.41-1.38,5.16-3.65,6.91-.1,.28-.21,.55-.32,.82-2.78-.92-1.04-3.29-1.59-4.93-.16-.28-.28-.58-.36-.9Z"/>
  <path class="cls-73" d="M195.68,163.03c.89-2.48,3.3-4.15,3.65-6.91,1.49-.51,.95-2.38,2.09-3.13,1.69,5.14-2.2,7.98-4.69,11.4-.35-.45-.7-.91-1.05-1.36Z"/>
  <path class="cls-71" d="M193.77,158.93c2.18,1.11-.13,3.67,1.59,4.93-.24,.41-.48,.83-.73,1.24-1.83,.06-1.7-.91-1.11-2.12-.6-1.39-.43-2.73,.24-4.05Z"/>
  <path class="cls-34" d="M193.56,173.01c-1.33,0-2.67,0-4,0,2.56-1.28,5.09-2.36,6.99,1-1-.33-2-.67-3-1Z"/>
  <path class="cls-21" d="M193.53,162.98c.07,.86,.02,1.79,1.11,2.12-.48,.77-.97,1.55-1.76,2.82-.16-2.13-.71-3.66,.65-4.94Z"/>
  <path class="cls-31" d="M175.58,154.97c2.28-1.5,4.63-1.36,7.01-.26-1.19,1.37-2.61,.74-3.99,.48-1-.07-2.01-.15-3.01-.22Z"/>
  <path class="cls-95" d="M178.6,155.19c1.33-.16,2.66-.32,3.99-.48,.66-.17,1.31-.34,1.97-.52,0,.27,0,.54,0,.82-.33,.34-.66,.68-1,1.02-1.66,0-3.32,0-4.99,0,0-.28,.02-.57,.02-.85Z"/>
  <path class="cls-134" d="M199.56,108.28c-.67,.59-1.33,1.18-2,1.77,1.07,6.37,.17,12.79,.5,19.18,.1,1.94-.52,3.95,.5,5.82,2.21,1.73,3.5,4.88,7.27,4.17,1.41-.27,1.81,1.29,1.68,2.5-.4,3.72-.54,7.53-1.51,11.11-.61,2.25-2.81-.6-4.21,.28-.06-.3-.12-.59-.16-.89,1.02-1.69-.1-2.79-1.08-3.94-1.85-1.35-4.76-.74-5.98-3.24,1.19-2.24,0-4.71,.37-5.91-.24,1.21,.65,3.65-.37,5.9l-1.01-.99c-1.99-2.35-1.11-5.22-1.46-7.87-.05-.61-.04-1.22,.02-1.83,.09-10.14,.05-20.27,0-30.41-.12-1.13-.28-2.26-.87-3.26-1.81-1.77-4.09-1.16-6.18-1.17-29.41-.05-58.81,0-88.21-.04-.57,0-1.15,0-1.72-.03-.84,0-1.67-.21-2.49-.37-.8-.21-1.71-.25-2.37-.67-1.29-.81-2.04,2.61-2.93,.54-.95-2.19,1.7-1.77,2.7-2.57,.25-.2,.62-.43,.9-.39,9.52,1.28,11.69-4.53,11.86-12.27,3.42,.62,2.02,5.1,6.16,6.92-1.45-6.37-3.33-11.45-6.03-16.28-1.04-2.1-1.93-4.25-2.18-6.6,.16-1.5,.18-2.93-1.63-3.52-2.37-2.11-3.47-5.12-5.3-7.6-2.55-3.04-4.6-6.44-6.99-9.59-.53-.97-1.31-1.71-2.14-2.41-3.94-4.29-7.61-8.83-11.93-12.76-1.32-2.68-4.94-3.04-6.01-5.97-.15-2.66-2.64-3.24-4.23-4.47-6.39-4.95-13.3-9.12-20.44-13.64,4.51,0,9.02,0,13.54,0,61.68,.02,123.37,.04,185.05,.14,1.54,0,3.63-1.17,4.71,1.15-6.58,4.99-14.12,8.49-20.76,13.39-.89,.61-1.7,1.32-2.49,2.05-.47,.42-.99,.77-1.56,1.04-1.24,.4-1.96,1.42-2.74,2.37-3.08,2.94-5.64,6.56-10.07,7.73-4.33-1.13-1.47,2.57-2.47,3.68-3.66,5.57-8.16,10.52-11.85,16.06-.79,1.12-1.52,2.29-2.24,3.46-5.02,8.83-9.59,17.84-12.7,27.58-1.17,3.65-.42,4.99,3.37,4.49,1.85,2.03,4,3.13,6.9,3.02,1.4-.05,3.77-.59,3.59,2.28-2.25,.64-4.51,.32-6.78,.3,2.22-.09,4.45,.35,6.67-.23q2.57,.58,4.14,3.53c1.9-3.96,2.18-4.01,5.7-.88-.38,3.24-2.2,6.09-2.51,9.34Z"/>
  <path class="cls-106" d="M29.89,71.99c9.98,2.74,19.73,6.04,28.76,11.2-.07,2.81-1.86,3.2-4.12,2.93-8.61-3.37-17.23-6.75-25.84-10.12-.86-1.71-2.03-3.51,1.19-4.01Z"/>
  <path class="cls-69" d="M54.54,86.13c1.48-.82,3.28-1.2,4.12-2.93,7.01,3.74,14.5,6.72,20.06,12.75,.42,2.46-1.96,2.1-3.05,3.03-6.7-4.85-14.06-8.6-21.12-12.85Z"/>
  <path class="cls-22" d="M94.61,56.1c1.75,2.65,3.5,5.3,5.25,7.95,1.48,.54,1.2,2.06,1.73,3.12,.78,2.26,1.55,4.52,2.33,6.79-.58,1.59-1.79,2.3-3.42,2.39-1.71-3.07-3.43-6.14-5.14-9.21-1.52-1.04-1.73-2.88-2.61-4.32,.09-.32-.02-.55-.33-.69-1.41-.46-1.15-1.98-1.84-2.91,0-.33,0-.65-.02-.98,.34-2.6,2.4-1.97,4.04-2.14Z"/>
  <path class="cls-22" d="M73.48,31.12c4.58,3.86,8.52,8.31,12.16,13.04,.32,.98,.33,2.03,.59,3.03-.05,1.14-.47,2.11-1.27,2.92-.41,.22-.81,.21-1.2-.06-3.32-6.24-9-10.48-13.39-15.82,.45-1.62,.82-3.33,3.11-3.11Z"/>
  <path class="cls-34" d="M9.66,169.01c-1.46-1.33-.92-3.09-.92-4.69-.03-26.85-.03-53.7,0-80.55,0-1.59-.54-3.36,.92-4.69,0,29.97,0,59.95,0,89.92Z"/>
  <path class="cls-69" d="M100.51,76.34c.72-1.39,2.17-1.75,3.42-2.39,3.4,4.56,4.27,10.17,6.36,15.27,.84,2.05-.95,2.05-2.05,2.48-1.26,.5-2.37,.89-2.93-1.14-.64-2.33-.99-4.82-2.51-6.85-.76-2.45-1.53-4.91-2.29-7.36Z"/>
  <path class="cls-13" d="M91.63,152.02c0,1,0,2.01,.01,3.01-.12,1.18,.34,2.17,1.02,3.09-.34,.55-.67,1.11-1.01,1.66-1.14,1.09-2.12,.21-3.13-.25-1.22-.86-2.2-2.3-4.04-1.61-.58,.24-1.17,.44-1.79,.1-1.8-2.11-.98-4.64-1.14-7.02,1.33-1.93,3.3-2.51,5.49-2.6,1.57,1.15,3.19,2.24,4.57,3.63Z"/>
  <path class="cls-63" d="M11.71,68.08c-2.41,1.08-3.76-.3-3.62-2.34,1.26-18.64,.59-37.27,.35-55.91,0-.23,.75-.47,1.15-.7,.09,17.39,.15,34.78,.31,52.18,.02,1.76-1.09,4.15,1.81,4.94,.61,.61,.51,1.23,0,1.85Z"/>
  <path class="cls-84" d="M92.64,99.06c.35-.31,.7-.62,1.05-.94,.61,.7,1.05,1.48,1.19,2.41,.37,12.28,.05,24.57,.18,36.86,.02,1.97-.36,3.99,.54,5.86,1.14,1.18,2.71,.55,4.03,.95,.48,.16,.89,.43,1.24,.8,.17,.5,.12,.99-.12,1.46-2.17,2.21-4.94,2.23-7.75,2.12-1.19-.53-2.04-1.38-2.51-2.61,1.08-.9,2.38-1.39,2.35-3.34-.16-14.52-.16-29.04-.2-43.57Z"/>
  <path class="cls-64" d="M84.6,50.23c.35-1.05,.71-2.1,1.06-3.15,.42-.65,.8-1.38,1.79-.96,2.39,3.33,4.77,6.66,7.16,9.98-1.35,.71-2.69,1.43-4.04,2.14-1.38-1.7-2.75-3.4-4.13-5.1-1.09-.67-2.27-1.28-1.84-2.91Z"/>
  <path class="cls-90" d="M75.66,98.98c-.12-2.16,2.45-1.6,3.05-3.03,3.96,2.5,9.49,3.87,7.64,10.96-3.69-2.74-7.19-5.33-10.69-7.93Z"/>
  <path class="cls-69" d="M73.48,31.12l-3.11,3.11c-1.94-1.62-3.87-3.24-5.81-4.86,.6-1.24,2.3-1.79,2.19-3.48,2.54,1.36,5.27,2.48,6.72,5.24Z"/>
  <path class="cls-22" d="M29.89,71.99c-1.64,.97-1.06,2.59-1.19,4.01-2.44-.26-4.86-.58-6.99-1.94,.59-2.91,2.96-2.82,5.15-3.05,1.12,0,2.54-.94,3.04,.98Z"/>
  <path class="cls-109" d="M82.71,158.01c.33-.36,.66-.73,.99-1.09,3.31,.93,3.94,4.22,5.72,6.51,.29,1.05,.28,2.07-.41,2.99-.24,.68-.74,.77-1.35,.58-1.46-3.1-4.09-5.55-4.95-8.99Z"/>
  <path class="cls-120" d="M87.68,149.14c-2.04,.62-4.08,1.24-6.12,1.86-.25-3.67,2.9-3.22,4.96-4.1,1.66-.4,2.21,.53,2.36,1.95-.31,.47-.71,.55-1.2,.29Z"/>
  <path class="cls-138" d="M89.01,148.5c-.83-.53-1.65-1.07-2.48-1.6,1.07-1.36,2.56-.98,3.96-.93,1.07,.03,1.89,.4,2.14,1.55-.7,2.19-2.11,1.79-3.62,.98Z"/>
  <path class="cls-134" d="M90.59,59.21c.99,.73,1.52,1.75,1.84,2.91-1,.09-1.55,2.44-2.97,.54-1.33-1.77,.26-2.47,1.13-3.45Z"/>
  <path class="cls-134" d="M84.6,50.23c.61,.97,1.23,1.94,1.84,2.91-.99,.44-2.01,1.33-2.83-.24-.51-.98-1.33-1.97,.14-2.85,.29,.02,.57,.08,.84,.18Z"/>
  <path class="cls-134" d="M83.59,165.52c-.05,1.35-1.12,.81-1.8,.95-.94,.19-1.7-.19-1.56-1.18,.07-.55,.22-2.07,1.25-1.28,.68,.53,2.24-.05,2.11,1.51Z"/>
  <path class="cls-134" d="M92.76,62.81c1.4,1.12,2.01,2.72,2.61,4.32-5.23,1.2-1.01-3.32-2.61-4.32Z"/>
  <path class="cls-134" d="M71.27,100.51c-1.45,.66-2.62,.83-3.01-.1-.47-1.13,.6-.6,1.08-.52,.44,.08,.86,.27,1.93,.61Z"/>
  <path class="cls-22" d="M18.84,68.03c-1.05,.35-2.09,.7-3.14,1.05-.52-.41-1.09-.78-1.22-1.51,.1-.2,.2-.4,.3-.6,1.47-.09,2.86,.11,4.06,1.05Z"/>
  <path class="cls-22" d="M11.71,68.08c0-.62,0-1.23,0-1.85,1.13-.18,2.18-.03,3.08,.74l-.2,.31c-.57,.65-1.29,1.15-1.87,1.79-.33-.33-.67-.66-1-1Z"/>
  <path class="cls-63" d="M12.72,69.07c.04-1.21,.53-1.94,1.87-1.8,.37,.6,.75,1.2,1.12,1.8-1,0-2,0-2.99,0Z"/>
  <path class="cls-8" d="M223.5,22.02c6.86-5.05,13.9-9.79,21.87-12.96,.72-.32,1.44-.65,2.16-.97,.33,.01,.65,.02,.98,.02,1.66,.83,3.99,.82,4.28,3.39-1.4,2.58-4.35,2.73-6.52,4.1-5.13,3.26-10.68,5.83-15.61,9.43-1.47,1.07-3.01,2.04-4.97,1.8-.77-.18-1.36-.6-1.8-1.25-.62-1.13-.94-2.31-.4-3.57Z"/>
  <path class="cls-134" d="M225.68,26.16c5.23-2.02,9.35-5.9,14.28-8.43,4.22-2.16,8.39-4.41,12.58-6.61,.2-.46,.54-.75,1.01-.89,.64-.11,1.29-.21,1.93-.32,.81-2.05,2.79-1.22,4.23-1.71,.33,.15,.6,.07,.8-.24,4.81-.77,9.66-.13,14.48-.34,3.7,1.37,1.76,5.07,3.06,7.45,.39,16.7,1.47,33.39,.36,50.09-.86,1.95-2.75,2.28-4.5,2.69-5.98,1.41-11.82,3.34-17.7,5.06-14.34,4.85-28.03,11.11-40.89,19.15-3.33,1.56-6.23,3.78-9.25,5.84-1.32,.9-2.52,2.33-4.44,1.44-1.66-1.11-3.94-4.41-3.68,1.11,.03,.68-.58,1.82-1.13,2-1.28,.41-1.55-.94-1.9-1.78-.66-1.61-.17-3.79-2.38-4.6h0c-1.41-1.62-3.36-1.13-5-.93-3.52,.44-5.33-1.09-6.1-4.32-1.32-1.5-.82-3.12-.23-4.68,3.5-9.32,7.18-18.56,12.45-27.07,2.51-2.12,3.02-6.04,6.51-7.28,3.88,1.81,2.93-.92,2.73-2.93,.22-1.91,1.24-3.42,2.52-4.74,4.95-5.12,10.01-10.13,15.09-15.12,1.46-1.43,3.19-2.33,5.15-2.82Z"/>
  <path class="cls-106" d="M255.39,71.78c7.13-2.36,14.2-4.92,21.72-5.82,1.38-.56,.81-1.97,1.28-2.93,.22-6.26,0-12.51,.12-18.77,.03-1.76-.49-3.66,.98-5.17,.33,0,.66,0,1,0,0,0,0,0,0,0,.72,1.05,.47,2.24,.48,3.38,.01,21.73,.01,43.46,0,65.19,0,1.14,.24,2.34-.48,3.38-.33,0-.66,0-.99,0-1.15-9.25-.09-18.53-.51-26.64-.02,26.28,0,53.7-.03,81.12,0,1.8,.41,3.66-.41,5.4-.37,.02-.74,.04-1.11,.05,.03-31.93,.03-63.86,.16-95.79,.01-2.97-1-3.23-3.49-2.77-4.51,.82-8.79,2.83-13.49,2.7-1.61,.88-2.97-.06-4.4-.59-.78-.76-1.43-1.56-.84-2.74Z"/>
  <path class="cls-22" d="M278.55,64c-.09,.93-.33,1.76-1.43,1.96,1-11.79,.24-23.6,.42-35.4,.09-5.82-.09-11.64-.15-17.46-.64-1.69-.92-3.37,.21-4.99,1.79,2.16,.51,4.74,.98,7.08,.93,12.96,.21,25.93,.37,38.9,.04,3.3,.55,6.64-.39,9.91Z"/>
  <path class="cls-135" d="M278.55,64c0-16.27,.02-32.54,.03-48.81,2.07,5.07,.47,10.35,.88,15.52,.22,2.78,.04,5.59,.04,8.39,0,6.75,.03,13.51-.03,20.26-.01,1.57,.59,3.34-.92,4.64Z"/>
  <path class="cls-8" d="M276.47,8.04c-5.31-.7-10.63-.24-15.95-.07,5.38-1.8,10.89-.63,16.34-.65,.11,.37-.04,.6-.39,.72Z"/>
  <path class="cls-8" d="M253.56,10.23c-.11,.56-.34,.98-1.01,.89-1.34-1-2.68-2.01-4.03-3.01,2.34-.86,4.33-.9,5.04,2.12Z"/>
  <path class="cls-8" d="M259.72,8.21c-1.41,.57-2.82,1.14-4.23,1.71,.02-3.14,.37-3.28,4.23-1.71Z"/>
  <path class="cls-134" d="M276.47,8.04c.15-.23,.28-.47,.39-.72,.24,.26,.48,.53,.73,.79-.07,1.66-.14,3.33-.21,4.99-2.35-1.32-1.39-3.24-.91-5.06Z"/>
  <path class="cls-135" d="M278.54,170.93V80.33c.32,0,.64,0,.95-.01,0,10.24,0,20.49,0,30.73,0,18.24,.02,36.47-.04,54.71,0,1.74,.7,3.68-.92,5.17Z"/>
  <path class="cls-96" d="M280.49,111.05V39.09c.33,0,.67,0,1,0,0,22.1,.02,44.19-.04,66.29,0,1.9,.76,4.02-.96,5.67Z"/>
  <path class="cls-69" d="M198.53,174c1.65-1.72,3.77-.95,5.67-.96,21.76-.05,43.53-.03,65.29-.03-1.47,1.63-3.43,.96-5.17,.96-21.93,.04-43.86,.02-65.79,.02Z"/>
  <path class="cls-90" d="M225.5,176.75h-24.69v-.41h24.69c0,.14,0,.28,0,.41Z"/>
  <path class="cls-11" d="M89.01,166.42c-.12-1.16-.25-2.32-.37-3.47-.84-1.38-1.29-2.75,.2-4.02,.94,.29,1.88,.57,2.82,.86,1.66,1.17-.61,2.3-.03,3.47,.02,1.63,.34,3.34-1.12,4.62-.86-.11-1.3-.65-1.5-1.44Z"/>
  <path class="cls-134" d="M90.51,167.86c.03-1.62,.17-3.22,1.12-4.62,1.89,1.4,.65,3.87,1.88,5.5-.99-.32-1.97-.63-2.96-.95,0,0-.04,.06-.04,.06Z"/>
  <path class="cls-66" d="M92.67,158.12c-2.04-.47-2.71-1.39-1.02-3.09,.66,.99,1.32,1.99,1.98,2.98-.32,0-.64,.04-.96,.1Z"/>
  <path class="cls-133" d="M89.01,148.5c1.21-.33,2.41-.66,3.62-.98,2.69-.4,5.47-.3,8.01-1.49,1.39-1.22,2.98-1.38,4.69-.9,.54,.2,.97,.53,1.3,1-.7,.52-1.4,1.03-2.1,1.55,.55,.14,1.11,.29,1.66,.43-1.86,1.91-6.67-1.17-6.65,3.93-2.36,.02-4.28-2.99-6.92-1-.33,.33-.67,.66-1,.99-1.63-.54-3.57-.64-3.95-2.89,.44-.21,.88-.42,1.32-.64Z"/>
  <path class="cls-7" d="M116.9,142.16l7.8,.03c1.71-.11,3.46-.52,4.93,.82h7.78c-5.07,.29-9.94,2.18-15.03,1.89-1.79-.85-3.72-.08-5.55-.5-.41-.29-.66-.67-.71-1.17,.05-.52,.31-.87,.79-1.07Z"/>
  <path class="cls-98" d="M106.64,146.12c-.34-.08-.68-.15-1.01-.23-.37-.15-.48-.41-.36-.78-.29-.84-1.34-.26-1.73-.91-.23-.44-.15-.8,.24-1.09,1.65,.02,3.3,.04,4.95,.05,1.85,.54,3.85-.79,5.65,.42,.29,.24,.41,.51,.38,.81-.04,.31-.09,.46-.17,.46l.05,.34c-1.69,.77-3.62-.16-5.29,.74-.9,.06-1.81,.13-2.71,.19Z"/>
  <path class="cls-87" d="M114.58,144.86c.03-.23,.05-.47,.06-.7,.59-.64,1.23-.73,1.95-.22,1.87,.67,4.08-.69,5.78,.97-2.6-.01-5.2-.03-7.8-.04Z"/>
  <path class="cls-133" d="M114.3,148.18c-1.89-.07-3.78-.14-5.66-.21,1.86-1.58,3.95-1,6-.59,.03,0,.06,.31,0,.44-.06,.14-.22,.24-.34,.36Z"/>
  <path class="cls-133" d="M109.35,145.93c1.63-1.19,3.49-.78,5.29-.74-1.6,1.42-3.5,.67-5.29,.74Z"/>
  <path class="cls-59" d="M129.63,143.01c-1.66-.18-3.47,.58-4.93-.82l-.13-.3c1.69-.52,3.39-.5,5.08-.03l-.09,.37c.03,.26,.05,.52,.06,.78Z"/>
  <path class="cls-31" d="M103.77,143.11c-.14,.23-.25,.48-.33,.74-1.5,1.37-2.94,.98-4.35-.17-1-1.64-1.02-3.48-1.03-5.3-.05-9.62-.06-19.23,0-28.85,.01-1.98,.02-4,1.33-5.71,1.39-1.14,3.08-1.15,4.74-1.15,26.25-.03,52.49-.08,78.74,.02,.67,0,1.32,.11,1.98,.24,1,.27,1.81,.79,2.33,1.71,.61,1.65,.72,3.2-.86,4.43-3.52-2.37-7.48-2.07-11.45-2.06-22.63,.06-45.26,.04-67.89,0-1.93,0-4.06,.67-5.63-1.17-1.1,1.09-1.03,2.69-.33,3.25,3.71,3.01,2.28,6.65,2.07,10.45-.45,7.84-1.62,15.77,.69,23.55Z"/>
  <path class="cls-31" d="M186.32,109.08c.07-1.3,.13-2.6,.2-3.89,3.5,1.02,2.19,3.96,2.5,6.26-.11,8.77,.02,17.53-.07,26.3-.02,2.1,.38,4.37-1.48,6.04l-.46,.1-.46-.08c-.08-11.57-.15-23.14-.23-34.72Z"/>
  <path class="cls-104" d="M116.6,143.93c-.65,.07-1.3,.15-1.95,.22-1.94-.52-4.16,.6-5.92-.99,.32-.04,.62-.13,.91-.26,2.31-.57,4.63-.54,6.95-.02,0,.35,.01,.7,.02,1.05Z"/>
  <path class="cls-31" d="M116.58,142.88c-2.32,0-4.63,.01-6.95,.02,2.28-1.61,4.81-.82,7.27-.74-.13,.23-.23,.47-.32,.72Z"/>
  <path class="cls-10" d="M174.59,143.16l1-.32c1.8,.36,3.6,.71,5.4,1.07-2.15-.1-4.43,.84-6.41-.75Z"/>
  <path class="cls-31" d="M129.66,141.86c-1.69,0-3.39,.02-5.08,.03,1.53-1.39,3.37-.71,5.1-.8-.02,.26-.03,.51-.02,.77Z"/>
  <path class="cls-86" d="M187.47,143.79c.05-10.91,.1-21.82,.14-32.73,2.94,.73,2.38,3.26,2.42,5.22,.14,7.09,.24,14.18-.06,21.26-.04,1.85,.05,3.7,.61,5.5-1.53,1.54-2.94,3.29-5.49,3.32-.02-1.8,2.44-.95,2.37-2.57Z"/>
  <path class="cls-5" d="M190.58,143.04c-2.69-.32-1.83-2.42-2.01-4.01,.75-1.54,1.45-3.37,3.17-.77,.86,1.31,.98,2.75,.36,4.22-.18,.19-.36,.37-.54,.56h-.49s-.49,0-.49,0Z"/>
  <path class="cls-135" d="M193.53,136.04c0,2.66,.02,5.33,.03,7.99-.82-.02-1.57-.19-2-1,0,0,0,0,0,0,.94-1.35,.44-2.8,.31-4.22-.11-1.31-.33-2.7,1.65-2.77Z"/>
  <path class="cls-130" d="M178.3,148.17c-1.57-.09-3.13-.18-4.7-.27,2.2-1.74,4.6-.49,6.97-.22l-2.28,.49Z"/>
  <path class="cls-73" d="M200.55,148.26c1.63,.96,2.56,2.12,1.08,3.94-.36-1.31-.72-2.63-1.08-3.94Z"/>
  <path class="cls-106" d="M255.39,71.78c.37,.77,.75,1.53,1.12,2.3,.64,.77,.62,1.59,.14,2.42-13.17,4.81-25.78,10.84-38.06,17.58-2.21,.29-3.89-.19-4.02-2.85,12.72-8.34,26.52-14.44,40.82-19.46Z"/>
  <path class="cls-90" d="M214.57,91.23c.83,1.67,2.58,2.04,4.02,2.85-1.01,1.01-2.02,2.03-3.03,3.04-.79,1.17-2.02,1.53-3.3,1.8-4.63,2.57-8.81,5.76-12.69,9.36-1.44-3.48-.61-6.43,2.09-8.95,4.31-2.7,8.61-5.39,12.92-8.09Z"/>
  <path class="cls-134" d="M198.56,135.04c-2.08-3.71-.73-7.73-.94-11.6-.25-4.45-.05-8.93-.05-13.39,2.07,3.72,.72,7.73,.94,11.6,.25,4.45,.06,8.93,.06,13.39Z"/>
  <path class="cls-134" d="M212.25,98.92c.91-.96,1.71-2.11,3.3-1.8,.31,.86,.93,1.75-.25,2.44-1.2,.7-2.05-.36-3.05-.65Z"/>
  <path class="cls-34" d="M256.65,76.5c-.05-.81-.09-1.61-.14-2.42,1.37,.34,2.74,.69,4.11,1.03-.89,1.71-2.63,.99-3.97,1.39Z"/>
  <path class="cls-134" d="M250.86,85.51c-1.45,.41-2.42-.39-3.67-.95,1.58-.71,2.79-.75,3.67,.95Z"/>
  <path class="cls-8" d="M193.53,136.04c-2.21,1.89,.3,5.11-1.97,6.99-.21-5.11-.39-5.34-3-4,0-7.77,.02-15.54-.03-23.3-.01-1.59,.54-3.35-.93-4.67-.85-1.87,.62-4.17-1.09-5.87,.29-.89-.51-.9-.96-1.19-1.06-.68-2.26-.45-3.4-.45-26.27-.01-52.53-.02-78.8,.03-1.21,0-2.7-.71-3.62,.8-.02,13.19-.04,26.37-.05,39.56,.34,.24,.44,.46,.31,.66-.13,.19-.26,.28-.38,.28-1.33,.33-2.65,.66-3.98,.99-1.82-1.7-1.44-3.93-1.46-6.06-.15-13.24,.3-26.48-.23-39.71-.08-.65-.16-1.31-.25-1.96,.32-.03,.64-.06,.95-.08,8.02,1.19,16.1,.2,24.14,.55,.59,.08,1.15,.26,1.67,.54,12.48,.78,24.97,1.06,37.45,.02,8.46-.36,16.93,.29,25.38-.35,3.46-.03,7.07-1.27,10.22,1.25,0,1,0,2.01,.01,3.01-.83,10.65-.72,21.31,.01,31.96,0,.34,0,.67,0,1.01Z"/>
  <path class="cls-8" d="M200.57,52.11c-2.84,1.61-2.55,5.78-5.79,7.06-.85,.46-1.41-.02-1.95-.59-.68-1.13-1.12-2.28-.27-3.52,3.14-5.99,7.99-10.73,11.95-16.12,1.22-1.15,1-3.64,3.42-3.68,3.19-2.73,6.38-5.46,9.56-8.19,1.11-.45,2.35-.74,2.66-2.18,.39-.3,.78-.61,1.17-.91,1.41-.67,2.29,.27,3.21,1.08,.39,.36,.77,.73,1.16,1.09-6.47,5.96-13.13,11.73-18.93,18.38-1.18,1.36-2.22,2.83-3.33,4.25-.35,1.63-1.06,2.94-2.85,3.32Z"/>
  <path class="cls-22" d="M193.5,58.07c.42,.37,.85,.74,1.27,1.1-4.31,8.46-8.66,16.91-11.8,25.9-.65,1.86-1.01,3.82-1.51,5.74-.96,2.29-2.65,1.92-4.45,1.24-2.15-.81-.76-2.25-.45-3.27,3.28-10.86,7.69-21.21,13.88-30.76,1.03-.55,2.05-.3,3.06,.05Z"/>
  <path d="M193.5,100.05c-3.22-1.2-6.58-1.03-9.93-.99-.58,.36-1.21,.49-1.9,.48-19.09-.21-38.18,.91-57.27,.51-1.65-.04-3.35,.19-4.77-.98-6.78,0-13.57,.02-20.35-.03-1.59-.01-3.36,.55-4.64-1,21.46-.11,42.93-.23,64.39-.33,10.32-.05,20.64-.09,30.96-.04,1.54,0,4.12-.99,3.51,2.39Z"/>
  <path class="cls-135" d="M193.52,135.03c-1.94-2.88-.73-6.1-.91-9.15-.39-6.59,.46-13.22-.46-19.81-.17-1.2,.34-2.26,1.37-3.01,0,10.65,0,21.31,.01,31.96Z"/>
  <path class="cls-134" d="M207.92,35.27c-.86,1.48-1.92,2.79-3.42,3.68-.72-1.86-.37-3.58,1.16-4.77,1.07-.83,1.31,1.08,2.26,1.1Z"/>
  <path class="cls-134" d="M194.57,145.02v-7.74c.61,2.6,1.95,5.23,0,7.74h0Z"/>
  <path class="cls-134" d="M192.56,96.06c-2.48,1.98-5.22,.56-7.88,0,2.63,0,5.25,0,7.88,0h0Z"/>
  <path class="cls-99" d="M220.14,24.9c.82,2.81-.42,3.09-2.66,2.18,1.15-.4,.64-2.83,2.66-2.18Z"/>
  <path class="cls-134" d="M200.62,144.66c-4.05,1.41-3.98-.49-3.98-3.27,1.16,1.51,1.74,2.81,3.98,3.27Z"/>
  <path class="cls-134" d="M101.6,67.16c-1.09-.76-1.37-1.96-1.73-3.12,3.9-.81,2.51,1.33,1.73,3.12Z"/>
  <path class="cls-58" d="M193.5,58.07c-1.03,.71-2.05,.54-3.06-.05,.71-.99,1.41-1.97,2.12-2.96,.31,1,.63,2.01,.94,3.01Z"/>
  <path class="cls-99" d="M224.52,25.07c-1.07-.36-2.14-.72-3.21-1.08,.73-.66,1.46-1.31,2.19-1.97,.34,1.02,.68,2.03,1.02,3.05Z"/>
  <path class="cls-38" d="M87.46,46.11c-.6,.32-1.19,.64-1.79,.96-.62-.96-.68-1.94-.03-2.91,1.16,.13,1.62,.92,1.82,1.95Z"/>
  <path class="cls-134" d="M88.84,158.92c-.07,1.34-.13,2.68-.2,4.02-2.95-.93-2.94-4.3-4.94-6.02,2.5-1.35,4.38-1.12,5.14,2Z"/>
  <path class="cls-135" d="M93.93,100.08c1.57,.3,.82,1.34,.82,2.27-.07,12.9-.11,25.79-.06,38.69,0,1.61,.61,3.21,.93,4.82-2.71,.3-1.83-1.76-1.83-3,0-14.26,.08-28.52,.14-42.77Z"/>
  <path class="cls-54" d="M99.6,144.87c0-.32,.03-.63,.08-.94,1.26-.03,2.51-.05,3.77-.08,.92,.11,1.85,.19,2.76,.34,.13,.02,.2,.36,.3,.55-.29,.11-.59,.22-.88,.32-1.66,.71-3.32,.66-4.98,.03-.35-.08-.69-.15-1.04-.23Z"/>
  <path class="cls-97" d="M100.65,145.1c1.66-.01,3.32-.02,4.98-.03,0,.28,0,.55,0,.83-1.66,.04-3.32,.09-4.98,.13,0-.31,0-.62,0-.93Z"/>
  <path class="cls-134" d="M200.57,52.11c.95-1.11,1.9-2.21,2.85-3.32,1.29,1.79,2.33,3.57-.26,5.17-2.34,1.45-2.3-.43-2.59-1.85Z"/>
  <path d="M99.74,104.37c.87-1.78,2.53-1.3,3.94-1.3,26.06-.02,52.12-.02,78.18-.01,1.3,0,2.69-.27,3.7,.94-23.29,.08-46.57,.15-69.86,.24-5.32,.02-10.64,.09-15.97,.13Z"/>
  <path class="cls-31" d="M182.23,105.92H104.97c0-.16,0-.33,0-.49h77.48c-.07,.16-.14,.33-.21,.49Z"/>
  <path class="cls-31" d="M101.5,112.38v29.32c-.17,0-.33,0-.5,0v-29.52c.17,.06,.33,.13,.5,.19Z"/>
  <path class="cls-90" d="M119.63,99.07c21.31,0,42.63,0,63.94,0-3.37,2.12-7.07,.75-10.61,.93-5.11,.26-10.25,.07-15.38,.07-12.66,.82-25.31,.78-37.97,0,0-.33,0-.66,0-.99Z"/>
  <path class="cls-96" d="M119.62,100.05c12.66,0,25.31,0,37.97,0-.55,.32-1.1,.91-1.66,.91-11.71,.02-23.41-.02-35.12-.1-.4,0-.79-.53-1.19-.81Z"/>
  <g>
    <path class="cls-51" d="M260.69,89.78h-7.91c-.05-.06-.13-.11-.15-.18-.17-.57-.66-.84-1.13-1.12-.77-.48-1.62-.82-2.44-1.22-.82-.39-1.53-.91-2.2-1.52-.63-.57-1.23-1.17-1.85-1.76-.76-.73-1.45-1.51-2.16-2.28-.55-.59-1.12-1.17-1.64-1.79-.08-.1-.16-.2-.22-.31-.45-.72,.02-1.26,.66-1.43,.69-.17,1.31,.02,1.9,.37,.9,.53,1.63,1.26,2.29,2.05,.39,.46,.78,.92,1.27,1.28,.12,.09,.25,.17,.39,.23,.61,.26,.67,.36,.55,.98-.02,.04-.03,.07-.06,.1,.04-.03,.04-.07,.06-.11,0-.05,.03-.1,.02-.14-.05-.46,.13-.78,.5-1.08,.26-.22,.28-.61,.3-.96,.03-.68-.04-1.36-.09-2.04-.05-.6-.05-1.21-.15-1.8-.14-.83-.29-1.65-.51-2.46-.13-.48-.24-.97-.36-1.45-.29-1.13-.68-2.24-.9-3.39-.05-.27-.11-.54-.1-.81,0-.24,0-.47,0-.71,.02-.49,.09-.97,.46-1.36,.25-.26,.56-.29,.87-.11,.29,.17,.49,.41,.65,.68,.39,.66,.68,1.37,.87,2.11,.37,1.52,.76,3.05,1.23,4.55,.22,.68,.45,1.37,.86,1.99,.11,.17,.05,.22-.3,.24,.46,.05,.84,.06,1.27-.13-.26,.06-.33-.01-.29-.2,.29-1.16,.13-2.32,.07-3.49-.04-.68-.11-1.36-.13-2.04,0-.13,0-.26,0-.38,.02-.14-.04-.25-.1-.37-.09-1.03-.17-2.07,0-3.1,.06-.11,.12-.23,.11-.36,.05-.36,.16-.7,.4-.99,.34-.4,.98-.44,1.36-.08,.38,.36,.51,.83,.66,1.29,.13,.4,.16,.82,.21,1.24,0,.15-.01,.31,.09,.45,.04,.3,.09,.6,.1,.9,.05,1.54,.1,3.07,.13,4.61,.01,.85,.2,1.68,.36,2.51,.02,.12,.1,.19,.2,.23,.21,.08,.42,.13,.72,.11-.23-.06-.18-.16-.14-.26,.33-.84,.46-1.73,.63-2.61,.18-.92,.21-1.85,.37-2.77,.03-.09,.11-.16,.09-.26,0-.09,0-.19,0-.28,.09-.7,.06-1.42,.18-2.12,.08-.46,.26-.88,.58-1.23,.32-.35,.72-.57,1.19-.48,.51,.1,.73,.52,.87,.96,.08,.23,.12,.48,.11,.72-.04,.85-.09,1.71-.21,2.55-.06,.1-.1,.2-.08,.32-.05,1.14-.15,2.27-.27,3.4-.04,.1-.12,.19-.1,.31,0,.11,0,.22,0,.32,.03,.39-.08,.78-.06,1.17,0,.22,.03,.43,.09,.64,.1,.32,.29,.58,.68,.65-.18-.14-.15-.26,0-.39,.58-.48,.93-1.11,1.32-1.73,.51-.81,.82-1.71,1.37-2.5,.33-.47,.68-.92,1.2-1.22,.66-.39,1.04-.09,1.07,.6,.02,.57-.18,1.12-.39,1.64-.19,.47-.37,.95-.57,1.41-.39,.89-.68,1.81-1.02,2.72-.15,.4-.25,.82-.37,1.23-.18,.61-.37,1.21-.51,1.83-.26,1.18-.56,2.35-.86,3.52-.26,1.02-.52,2.04-.71,3.08-.02,.1-.03,.19-.07,.28-.08,.11-.09,.23-.07,.35-.06,.47-.03,.96-.21,1.41Z"/>
    <path class="cls-129" d="M260.69,89.78l.13-1.46c.09-.08,.02-.22,.11-.3,.08-.88,.32-1.73,.52-2.58,.16-.69,.33-1.39,.52-2.07,.15-.52,.2-1.06,.37-1.57,.15-.45,.21-.92,.34-1.37,.24-.79,.45-1.58,.72-2.36,.23-.67,.45-1.34,.72-1.99,.31-.73,.56-1.47,.9-2.19,.14-.29,.19-.63,.25-.96,.03-.19,.14-.35,.14-.55,0-.24-.09-.42-.19-.62-.12-.24-.4-.22-.77-.01-.48,.27-.82,.68-1.12,1.12-.34,.5-.59,1.05-.87,1.59-.43,.83-.88,1.66-1.49,2.38-.16,.19-.33,.38-.59,.49,.1,.13,.29,.15,.36,.3-.65,.03-.93-.38-1.02-.82-.12-.57-.03-1.14,0-1.72,.09-.12,.04-.25,.05-.38,0-.08,0-.15,.05-.21,.09-1.17,.17-2.33,.26-3.5,.06-.07,.03-.18,.1-.25,.06-.75,.12-1.51,.17-2.26,.04-.53-.02-1.05-.33-1.52-.22-.33-.51-.48-.91-.39-.54,.12-.87,.46-1.11,.94-.31,.64-.29,1.33-.35,2-.02,.27-.01,.54-.07,.81-.08,.1-.04,.21-.05,.32,0,.06-.01,.11-.05,.16-.18,1.9-.36,3.79-1.04,5.62,.04,.03,.13-.03,.23,0-.01,.03-.02,.05-.04,.07-.23,.22-.9,.04-1.07-.18-.09-.12-.05-.32-.09-.48-.27-1.13-.3-2.28-.32-3.43-.03-1.43-.06-2.86-.16-4.29-.11-.12,0-.3-.11-.42-.07-.44-.09-.89-.24-1.32-.15-.43-.3-.86-.64-1.2-.3-.29-.92-.24-1.21,.08-.26,.29-.32,.63-.4,.97-.09,.08-.02,.22-.11,.3-.12,1.07-.04,2.14,0,3.21,.07,.08,.05,.18,.05,.27,.02,.15-.04,.3,.05,.44,.11,1.34,.22,2.67,.24,4.02,0,.56-.04,1.12-.21,1.68,.15,.03,.28-.09,.43-.05-.24,.37-1.18,.46-1.64,.16h.5c-.38-.56-.59-1.16-.81-1.78-.29-.83-.51-1.68-.76-2.53-.13-.46-.19-.94-.35-1.39-.17-.46-.2-.94-.36-1.39-.21-.58-.43-1.17-.75-1.7-.16-.26-.36-.52-.64-.69-.35-.21-.84,0-1.01,.45-.11,.3-.17,.62-.19,.94-.08,.26-.08,.51,0,.77,.05,.5,.11,1.01,.25,1.49,.27,.88,.49,1.77,.74,2.66,.13,.45,.2,.92,.35,1.36,.2,.56,.2,1.16,.36,1.72,.29,.99,.26,2.01,.35,3.01,.05,.59,.14,1.18,.06,1.78-.07,.53-.15,1.06-.77,1.29-.11,.04-.04,.11-.03,.17,.04,.26,.02,.5-.11,.73-.05,0-.09,0-.06-.06,.01-.09,.03-.17,.03-.26,0-.28-.04-.5-.37-.61-.62-.2-1.06-.66-1.47-1.12-.77-.87-1.51-1.77-2.52-2.4-.62-.38-1.26-.67-2.02-.46-.34,.1-.65,.26-.74,.63-.1,.37,.1,.67,.31,.94,.27,.34,.59,.63,.88,.95,.6,.64,1.21,1.27,1.79,1.93,.51,.58,1.07,1.12,1.62,1.67,.82,.82,1.65,1.62,2.61,2.28,.61,.42,1.32,.7,2,1.02,.76,.37,1.53,.72,2.19,1.28,.27,.23,.34,.54,.47,.83h-.3c.05-.35-.2-.56-.43-.75-.69-.56-1.5-.92-2.31-1.3-1.02-.47-2-.99-2.85-1.76-.82-.74-1.61-1.52-2.41-2.29-.46-.44-.86-.94-1.3-1.41-.54-.58-1.09-1.14-1.62-1.73-.29-.32-.58-.65-.81-1.01-.32-.5-.09-1.09,.46-1.36,.83-.41,1.62-.21,2.36,.21,.92,.52,1.67,1.23,2.33,2.04,.43,.52,.87,1.04,1.45,1.42,.45,.29,.94,.34,1.19-.25,.21-.47,.26-.94,.22-1.43-.04-.56-.12-1.12-.11-1.69-.11-.14,0-.34-.11-.48-.06-.68-.08-1.37-.27-2.02-.14-.48-.18-.98-.31-1.46-.27-.95-.5-1.91-.78-2.85-.11-.4-.19-.8-.33-1.19-.24-.65-.31-1.31-.31-1.99,0-.51,.05-1.01,.33-1.47,.34-.58,.96-.69,1.5-.26,.32,.26,.53,.6,.71,.94,.25,.48,.46,.99,.61,1.53,.14,.48,.2,.98,.36,1.45,.15,.4,.2,.82,.32,1.22,.25,.84,.46,1.7,.77,2.53,.19,.51,.3,1.06,.66,1.52,.08,.1,.13,.26,.27,.23,.1-.02,.12-.19,.15-.29,.25-.79,.2-1.61,.18-2.42,0-.1,0-.19,0-.29-.11-.17,.01-.38-.1-.55-.13-1.63-.27-3.26-.27-4.9,0-.66,0-1.33,.21-1.97,.19-.55,.54-1.01,1.28-.98,.33,.01,.58,.16,.77,.38,.25,.29,.42,.64,.55,1.01,.31,.88,.35,1.8,.42,2.71,.06,.09,.05,.19,.05,.28,.02,.2-.05,.41,.05,.6,.05,1.49,.09,2.97,.15,4.46,.01,.37,.04,.74,.1,1.1,.05,.28,.17,.54,.26,.81,.03,.09,.07,.18,.2,.18,.14,0,.15-.11,.2-.19,.28-.47,.34-1,.43-1.52,.02-.11,.04-.23,.06-.34,.09-.08,.02-.22,.11-.3,.08-.7,.17-1.4,.25-2.1,.08-.1,.04-.21,.05-.32,0-.06,.01-.11,.05-.16,.09-1.01,.17-2.02,.26-3.04,.07-.06,.03-.18,.11-.24,.09-.78,.45-1.38,1.24-1.67,.61-.23,1.2-.03,1.53,.6,.35,.68,.26,1.39,.22,2.1,0,.13-.03,.25-.04,.38-.09,.11-.04,.25-.05,.37,0,.06-.01,.12-.05,.16-.09,1.05-.17,2.1-.26,3.15-.09,.12-.04,.25-.05,.38,0,.08,0,.15-.05,.21-.05,.87-.16,1.73-.13,2.6,0,.19,0,.37,.06,.55,.07,.26,.13,.28,.36,.11,.28-.2,.49-.46,.68-.74,.64-.89,1.1-1.88,1.61-2.85,.4-.76,.89-1.49,1.7-1.92,.29-.16,.59-.25,.93-.05,.3,.18,.31,.47,.31,.74,0,.87-.28,1.67-.69,2.44-.07,.14-.09,.3-.15,.44-.3,.81-.63,1.61-.9,2.43-.21,.62-.41,1.25-.61,1.88-.18,.58-.31,1.17-.49,1.75-.15,.47-.2,.95-.33,1.42-.3,1.06-.55,2.14-.82,3.2-.13,.5-.17,1-.32,1.49-.22,.72-.26,1.46-.33,2.2,0,.1,0,.19,0,.29h-.3Z"/>
    <path class="cls-3" d="M255.37,69.76c-.23-.16-.07-.4-.11-.59,.04-.03,.08-.03,.11,.01,0,.19,0,.39,0,.58Z"/>
    <path class="cls-46" d="M252.31,72.62c.22,.15,.08,.36,.1,.55-.2-.15-.07-.36-.1-.55Z"/>
    <path class="cls-110" d="M248.56,78c.19,.13,.09,.32,.11,.48-.22-.12-.08-.32-.11-.48Z"/>
    <path class="cls-114" d="M260.45,69.88c.03-.12-.09-.28,.11-.36v.34s-.07,.04-.11,.01Z"/>
    <path class="cls-114" d="M260.1,73.57c.01-.13-.1-.29,.1-.37,0,.12,0,.23,0,.35-.03,.04-.06,.04-.1,.02Z"/>
    <path class="cls-92" d="M255.37,69.18s-.07,0-.11-.01c0-.1,0-.2,0-.29,.2,.05,.08,.2,.1,.31Z"/>
    <path class="cls-40" d="M256.89,73.97c0,.11,.06,.24-.11,.3,0-.12-.03-.23,.11-.3Z"/>
    <path class="cls-114" d="M257.25,71.57c-.01,.11,.07,.25-.11,.3,0-.1,0-.19,0-.29,.03-.04,.07-.04,.11-.01Z"/>
    <path class="cls-140" d="M257.61,68.12c0,.1,.03,.2-.11,.24-.03-.11-.02-.2,.11-.24Z"/>
    <path class="cls-26" d="M260.1,73.57s.07-.01,.1-.02c0,.1,.06,.21-.11,.25,0-.08,0-.15,0-.23Z"/>
    <path class="cls-39" d="M260.45,69.88s.07,0,.11-.01c.01,.09,.04,.18-.1,.19,0-.06,0-.12,0-.18Z"/>
    <path class="cls-128" d="M257.25,71.57s-.07,0-.11,.01c-.01-.09-.03-.18,.1-.19,0,.06,0,.12,0,.18Z"/>
    <path class="cls-127" d="M254.83,83.22c-.93-1.3-2.17-2.21-3.68-2.79-.06-.02-.12-.06-.18-.09,0-.05,0-.09,.07-.06,.74,.18,1.41,.49,2.04,.9,.51,.33,.97,.72,1.34,1.2,.18,.23,.39,.43,.47,.72,.04,.07,.04,.12-.06,.12Z"/>
    <path class="cls-111" d="M257.5,89.01c.86,.02,1.72,.06,2.56-.15-.9,.46-1.84,.48-2.8,.2,.05-.13,.15-.06,.24-.05Z"/>
    <path class="cls-42" d="M253.2,89.38c.52-.09,1.01-.25,1.5-.52-.16,.43-.94,.71-1.56,.62-.02-.05,.01-.08,.06-.1Z"/>
    <path class="cls-72" d="M246.85,68.94c-.16-.17-.16-.6,0-.77,0,.26,0,.51,0,.77Z"/>
    <path class="cls-101" d="M254.9,67.7c.2,.1,.1,.27,.11,.42-.17-.11-.1-.27-.11-.42Z"/>
    <path class="cls-114" d="M252.41,70.46c-.2-.1-.09-.28-.11-.42,.04-.03,.08-.03,.11,.02,0,.13,0,.27,0,.4Z"/>
    <path class="cls-45" d="M254.83,83.22c.05-.02,.05-.07,.06-.12,.16,.04,.16,.17,.19,.29-.02,.03-.05,.03-.08,0-.14,.01-.14-.1-.17-.18Z"/>
    <path class="cls-114" d="M259.84,74.72c-.02,.12,.1,.29-.11,.36v-.34s.06-.04,.11-.02Z"/>
    <path class="cls-19" d="M252.3,66.54c0-.11-.05-.24,.11-.3,0,.11,.07,.25-.11,.3Z"/>
    <path class="cls-126" d="M252.41,70.06s-.07-.01-.11-.02c0-.1,0-.19,0-.29,.17,.06,.11,.19,.11,.3Z"/>
    <path class="cls-114" d="M257.49,70.64c.01-.11-.07-.25,.11-.3,0,.1,0,.19,0,.29-.03,.04-.07,.04-.11,.01Z"/>
    <path class="cls-76" d="M251.04,80.29s-.04,.04-.07,.06c-.11-.04-.25-.02-.39-.18,.19,.05,.33,.04,.45,.13Z"/>
    <path class="cls-37" d="M260.93,88.02c0,.11,.06,.25-.11,.3-.02-.12-.05-.24,.11-.3Z"/>
    <path class="cls-60" d="M257.5,89.01c-.08,.03-.17-.02-.24,.05-.08,.02-.15-.02-.23-.09,.18-.02,.32-.02,.47,.05Z"/>
    <path class="cls-14" d="M248,83.09s.04,.04,.06,.06c-.03,.08-.05,.17-.2,.15,.05-.08,.1-.15,.14-.21Z"/>
    <path class="cls-24" d="M259.84,74.72l-.11,.02c-.02-.1-.04-.21,.11-.25,0,.08,0,.15,0,.23Z"/>
    <path class="cls-30" d="M255,83.4h.08c.07,.05,.09,.13,.1,.24-.14-.04-.15-.15-.18-.24Z"/>
    <path class="cls-26" d="M260.2,70.75c0,.1,.05,.21-.1,.25-.01-.1-.06-.21,.1-.25Z"/>
    <path class="cls-85" d="M253.2,89.38l-.06,.1c-.06,0-.18,.03-.16-.05,.02-.1,.14-.05,.22-.05Z"/>
    <path class="cls-128" d="M257.49,70.64s.07,0,.11-.01c.01,.09,.03,.18-.1,.19v-.18Z"/>
    <path class="cls-44" d="M255.2,83.86c-.02-.05-.04-.1-.06-.15,.02,0,.04-.02,.05-.01,.08,.03,.06,.11,.07,.17-.02,.02-.04,.02-.06,0Z"/>
    <path class="cls-102" d="M255.2,83.86h.06s.07,.03,.1,.04c-.01,.02-.03,.06-.04,.06-.07,0-.1-.05-.12-.1Z"/>
  </g>
</svg>