<?xml version="1.0" encoding="UTF-8"?>
<svg id="_Шар_1" data-name="Шар 1" xmlns="http://www.w3.org/2000/svg" viewBox="0 0 36.32 55.37">
  <defs>
    <style>
      .cls-1 {
        fill: #797979;
      }

      .cls-2 {
        fill: #343434;
      }

      .cls-3 {
        fill: #6c6c6c;
      }

      .cls-4 {
        fill: #555;
      }

      .cls-5 {
        fill: #3d3d3d;
      }

      .cls-6 {
        fill: #727272;
      }

      .cls-7 {
        fill: #575757;
      }

      .cls-8 {
        fill: #fafafa;
      }

      .cls-9 {
        fill: #848484;
      }

      .cls-10 {
        fill: #3f3f3f;
      }

      .cls-11 {
        fill: #f6f6f6;
      }

      .cls-12 {
        fill: #717171;
      }

      .cls-13 {
        fill: #4b4b4b;
      }

      .cls-14 {
        fill: #777;
      }

      .cls-15 {
        fill: #5f5f5f;
      }

      .cls-16 {
        fill: #323232;
      }

      .cls-17 {
        fill: #868686;
      }

      .cls-18 {
        fill: #303030;
      }

      .cls-19 {
        fill: #393939;
      }

      .cls-20 {
        fill: #4e4e4e;
      }

      .cls-21 {
        fill: #2f2f2f;
      }

      .cls-22 {
        fill: #656565;
      }

      .cls-23 {
        fill: #313131;
      }

      .cls-24 {
        fill: #1b1b1b;
      }

      .cls-25 {
        fill: #e67373;
      }

      .cls-26 {
        fill: #333;
      }

      .cls-27 {
        fill: #646464;
      }

      .cls-28 {
        fill: #818181;
      }

      .cls-29 {
        fill: #282828;
      }

      .cls-30 {
        fill: #626262;
      }

      .cls-31 {
        fill: #5a5a5a;
      }

      .cls-32 {
        fill: #242424;
      }

      .cls-33 {
        fill: #828282;
      }

      .cls-34 {
        fill: #787878;
      }

      .cls-35 {
        fill: #767676;
      }

      .cls-36 {
        fill: #272727;
      }

      .cls-37 {
        fill: #6f6f6f;
      }

      .cls-38 {
        fill: #7d7d7d;
      }

      .cls-39 {
        fill: #747474;
      }

      .cls-40 {
        fill: #414141;
      }

      .cls-41 {
        fill: #676767;
      }

      .cls-42 {
        fill: #3a3a3a;
      }

      .cls-43 {
        fill: #e4e4e4;
      }

      .cls-44 {
        fill: #fbfbfb;
      }

      .cls-45 {
        fill: #3b3b3b;
      }

      .cls-46 {
        fill: #464646;
      }

      .cls-47 {
        fill: #5d5d5d;
      }

      .cls-48 {
        fill: #616161;
      }

      .cls-49 {
        fill: #494949;
      }

      .cls-50 {
        fill: #858585;
      }

      .cls-51 {
        fill: #4f4f4f;
      }

      .cls-52 {
        fill: #2e2e2e;
      }

      .cls-53 {
        fill: #373737;
      }

      .cls-54 {
        fill: #636363;
      }

      .cls-55 {
        fill: #535353;
      }

      .cls-56 {
        fill: #515151;
      }

      .cls-57 {
        fill: #2d2d2d;
      }

      .cls-58 {
        fill: #292929;
      }

      .cls-59 {
        fill: #f7f7f7;
      }

      .cls-60 {
        fill: #7e7e7e;
      }

      .cls-61 {
        fill: #545454;
      }

      .cls-62 {
        fill: #7b7b7b;
      }

      .cls-63 {
        fill: #525252;
      }

      .cls-64 {
        fill: #454545;
      }

      .cls-65 {
        fill: #7f7f7f;
      }

      .cls-66 {
        fill: #595959;
      }

      .cls-67 {
        fill: #5b5b5b;
      }

      .cls-68 {
        fill: #f8f8f8;
      }

      .cls-69 {
        fill: #838383;
      }

      .cls-70 {
        fill: #686868;
      }

      .cls-71 {
        fill: #3c3c3c;
      }

      .cls-72 {
        fill: #5e5e5e;
      }
    </style>
  </defs>
  <path class="cls-35" d="M19.58,3.86c-1.03,.17-2.09,.58-3.05-.22,.94,0,1.88,0,2.82,0,.11,.04,.19,.11,.23,.22Z"/>
  <path class="cls-4" d="M4.7,6.45c.34,.86,.31,1.78,.44,2.68-.07,.17-.14,.17-.2,0-.23-.88-.57-1.75-.23-2.67Z"/>
  <path class="cls-49" d="M25.11,3.36c-.02-.19-.02-.38-.26-.44-.06-.05-.07-.11-.06-.16,.02-.05,.04-.08,.06-.08,.55-.14,1.06-.17,1.39,.43-.35-.07-.69-.13-.89,.27-.09,.12-.17,.11-.24-.02Z"/>
  <path class="cls-48" d="M24.85,2.68c0,.08,0,.16,0,.24-.43,.32-.96,.3-1.45,.42-.17-.08-.17-.15,0-.22,.01-.06,.02-.11,.02-.17,.48-.09,.95-.17,1.43-.26Z"/>
  <path class="cls-48" d="M30.85,10.38c-.46-.5-.19-1,0-1.5,.06-.17,.13-.18,.21,0,.04,.52-.05,1.02-.2,1.51Z"/>
  <path class="cls-54" d="M29.42,4.32c-.52,.13-1.01,.2-1.21-.48,.46,0,.85,.21,1.21,.48Z"/>
  <path class="cls-70" d="M8.58,3.61c-.37,.32-.79,.5-1.28,.49,.33-.41,.69-.76,1.28-.49Z"/>
  <path class="cls-26" d="M4.93,9.12c.07,0,.14,0,.2,0,0,.64,.02,1.27,.02,1.91-.07,.17-.13,.17-.19,0-.01-.64-.02-1.28-.04-1.91Z"/>
  <path class="cls-5" d="M12.61,3.32c-.48-.16-1.06-.03-1.46-.45,.4,.01,.8,.02,1.21,.04,.15,0,.26,.05,.34,.18,.02,.1,0,.17-.08,.23Z"/>
  <path class="cls-28" d="M15.32,3.6c-.44,.34-.79,.28-1.03-.24,.37-.04,.72,.02,1.03,.24Z"/>
  <path class="cls-21" d="M30.84,12.73c-.39-.57-.39-1.13,0-1.7,0,.57,0,1.13,0,1.7Z"/>
  <path class="cls-36" d="M11.19,2.89c-.29,0-.54,.07-.51,.45-.27-.06-.34-.53-.73-.34,.36-.64,.79-.46,1.24-.11Z"/>
  <path class="cls-64" d="M4.97,11.04c.06,0,.13,0,.19,0,0,.57,.01,1.13,.02,1.7-.47-.52-.17-1.13-.21-1.7Z"/>
  <path class="cls-8" d="M12.61,3.15c-.08-.08-.17-.16-.25-.24,.4-.26,.69-.04,.97,.21-.23,.17-.47,.15-.72,.02Z"/>
  <path class="cls-26" d="M12.61,3.15c.24,0,.48-.01,.72-.02,.05,.04,.11,.05,.18,.03,.08,.16,.39,.41-.13,.34-.26-.04-.51-.11-.77-.17,0-.06,0-.12,0-.18Z"/>
  <path class="cls-57" d="M19.58,3.86c-.08-.07-.15-.14-.23-.22,.48,.03,1-.29,1.42,.2-.4,0-.79,.01-1.19,.02Z"/>
  <path class="cls-2" d="M31.05,8.87c-.07,0-.14,0-.21,0,.01-.39,.03-.78,.04-1.16,.21-.06,.33-.02,.22,.23-.02,.31-.04,.62-.06,.93Z"/>
  <path class="cls-38" d="M31.11,7.94c-.07-.08-.15-.15-.22-.23-.02-.32,.11-.52,.44-.55-.08,.26-.15,.52-.23,.78Z"/>
  <path class="cls-9" d="M6.82,11.21c-.65-.42-.37-1.07-.41-1.64,.04-.11,.12-.19,.23-.23,.36,.6,.08,1.25,.18,1.87Z"/>
  <path class="cls-44" d="M29.12,10.06c-.28-.68-.33-1.32,.22-1.9,.21,.11,.16,.31,.17,.49-.13,.48-.22,.96-.32,1.45l-.07-.03Z"/>
  <path class="cls-53" d="M30.13,5.5c.01,.54,0,1.07-.47,1.45,.26-.45-.47-1.22,.47-1.45Z"/>
  <path class="cls-51" d="M6.37,7.93c-.36-.53-.51-1.09-.24-1.7,.27,.54,.34,1.11,.24,1.7Z"/>
  <path class="cls-67" d="M26.29,4.78c.14-.44,.01-1.04,.69-1.16-.18,.42-.17,.95-.69,1.16Z"/>
  <path class="cls-42" d="M29.41,8.64c-.02-.16-.04-.32-.06-.48,.02-.23,.05-.46,.07-.69,.13-.04,.35-.34,.36,.04,.01,.37-.11,.75-.17,1.12-.06,.12-.13,.12-.2,0Z"/>
  <path class="cls-16" d="M6.64,9.34c-.08,.08-.15,.15-.23,.23-.01-.46-.03-.93-.04-1.39,.43,.31,.19,.77,.27,1.16Z"/>
  <path class="cls-63" d="M30.36,4.81c.34,.02,.65,.12,.92,.38-.39,.31-.61-.1-.9-.15-.03-.07-.04-.15-.02-.23Z"/>
  <path class="cls-37" d="M19.04,11.76c.28-.27,.6-.36,.96-.17-.3,.2-.58,.46-.96,.17Z"/>
  <path class="cls-72" d="M17.46,12.32c.3-.11,.6-.21,.9-.32-.11,.66-.48,.56-.9,.32Z"/>
  <g>
    <path class="cls-25" d="M29.42,4.32c.3,.15,.6,.3,.91,.46,.05,.03,.09,.06,.14,.08,.06,.09,.1,.19,.12,.3-.04,.21-.02,.43-.09,.64-.25,.37-.52,.74-.53,1.22-.06,.19-.17,.36-.19,.56-.02,.21-.03,.43-.07,.64-.33,.65-.35,1.34-.21,2.04,.24,1.12,.44,2.23,.48,3.38,.02,.12,.04,.24,.06,.35,.08,.33,.08,.67,.08,1.01,0,.34,.05,.67,.07,1.01-.07,.58,.19,1.09,.41,1.6,.09,.38,.2,.76,.32,1.13,.13,.41,.26,.83,.42,1.23,.26,.85,.65,1.65,.91,2.49,.1,.3,.15,.62,.33,.89,.08,.2,.19,.4,.24,.62,.03,.18,.03,.35,.06,.53,.09,.31,.08,.63,.08,.96,0,1.26,0,2.52,0,3.78v1.93c-.02,.64,.06,1.29-.07,1.93-.11,.64-.03,1.29-.05,1.94v9.47c-.02,.67,.05,1.34-.05,2.01-.16,1.51-.03,3.02-.08,4.53-.01,.43,.07,.88-.13,1.29-.11,.12-.23,.2-.38,.24-.51,.1-1.03,.06-1.55,.06-8.53,0-17.05,0-25.58,0-.52,0-1.04,.04-1.55-.07-.14-.05-.27-.13-.36-.25-.16-.65-.04-1.31-.08-1.96,.04-.64-.19-1.27-.12-1.92,0-.64,0-1.28,0-1.93v-1.94c-.01-2.45,.03-4.9-.02-7.35-.03-.14-.06-.28-.09-.41-.02-.63,0-1.26,0-1.88v-7.65c.07-.74-.15-1.49,.14-2.21h-.02c-.03-.3,.11-.57,.13-.85,.25-.73,.46-1.47,.65-2.21,.16-.34,.29-.7,.45-1.04,.41-.63,.6-1.33,.7-2.06,.11-.48,.49-.86,.53-1.37,0-.12,.04-.23,.08-.34,.12-.67,.6-1.26,.45-1.99-.04-.33,.01-.64,.14-.94,.35-.58,.35-1.19,.15-1.82-.07-.39-.05-.77,0-1.16,.2-.61,.23-1.21-.22-1.74-.22-.4-.19-.85-.31-1.27-.03-.11-.06-.23-.08-.35-.04-.52-.19-1.02-.26-1.54,.04-.53-.13-1.1,.28-1.56,.54-.25,1.08-.51,1.62-.76,.39-.25,.84-.36,1.28-.49,.14-.08,.28-.16,.42-.23,.79,.1,.93,.8,1.2,1.35,1.58,3.23,4.04,5.49,7.42,6.72,.2,.02,.39,.02,.59-.02,.24-.04,.45-.16,.67-.27,.27-.14,.57-.15,.84-.28,2.66-1.47,4.84-3.4,6.03-6.27,.17-.54,.58-.82,1.09-.99,.06,0,.11-.01,.17-.02,.45-.15,.82,.07,1.2,.26,.34,.33,.76,.45,1.21,.48Z"/>
    <path class="cls-4" d="M32.54,54.02c-6.34,.02-12.67,.05-19.01,.05-3.43,0-6.85-.05-10.28-.08-.07-.16-.05-.3,.08-.43,.5-.44,1.12-.4,1.71-.4,8.58-.02,17.16-.02,25.74,0,.59,0,1.21-.02,1.7,.42,.11,.13,.13,.28,.06,.44Z"/>
    <path class="cls-33" d="M3.05,36.91c.27,2.57,.19,5.16,.16,7.74-.18,.66-.04,1.33-.08,1.99,0,.62,0,1.24,0,1.86-.07,.4,.15,.84-.16,1.21-.26-2.34-.18-4.68-.16-7.02,.17-.66,.04-1.33,.08-2v-1.88c.08-.63-.17-1.28,.16-1.89Z"/>
    <path class="cls-34" d="M32.54,54.02l-.02-.29c-.49-.46-.44-.94-.04-1.43,.19-1.91-.04-3.85,.25-5.76,.04,.05,.09,.1,.13,.15,.04,.58,0,1.17,.02,1.75,.04,.64-.09,1.29,.08,1.92,0,.91,.03,1.81,.02,2.72,0,.36,.14,.83-.44,.94Z"/>
    <path class="cls-60" d="M32.8,29.29c0-1.37,0-2.74,0-4.11,.13-.07,.23-.03,.3,.1,.08,.68-.08,1.37,.1,2.05,0,1.93,.13,3.86-.16,5.78-.05-.05-.09-.09-.14-.14-.04-.58-.01-1.17-.02-1.75-.04-.64,.09-1.29-.08-1.92Z"/>
    <path class="cls-29" d="M32.78,44.62c0-2.56,.01-5.11,.02-7.67,.03-.05,.06-.11,.09-.16,.03,.05,.06,.1,.09,.16,0,2.56,0,5.11-.01,7.67-.03,.05-.06,.11-.09,.16-.03-.05-.06-.11-.09-.16Z"/>
    <path class="cls-24" d="M2.97,29.27c0,1.28,0,2.56,0,3.83-.06,.14-.11,.14-.17,0,0-1.28,0-2.56,0-3.83,.06-.14,.11-.15,.17,0Z"/>
    <path class="cls-27" d="M31.32,17.33c-.29-.65-.61-1.29-.23-2.01,.2,.66,.49,1.3,.23,2.01Z"/>
    <path class="cls-67" d="M33,25.2c-.07,0-.13,0-.2-.01-.09-.24-.19-.47-.28-.71,.38-.31,.33-.76,.41-1.18,.09-.08,.18-.08,.28,0l.08-.04c.07,.09,.07,.18,0,.27-.03,.55-.05,1.11-.08,1.66-.06,.17-.13,.18-.2,0Z"/>
    <path class="cls-48" d="M30.84,14.46c-.21-.44-.41-.89,0-1.33,.13,.44,.38,.89,0,1.33Z"/>
    <path class="cls-59" d="M33.51,21.18c-.17-.44-.05-.69,.22-.96,.13,.34,.03,.59-.22,.96Z"/>
    <path class="cls-18" d="M3.03,25.1l-.05,2.26c-.06,.14-.12,.14-.17,0,.02-.76-.32-1.55,.23-2.26Z"/>
    <path class="cls-6" d="M33,25.2c.07,0,.13,0,.2,0,0,.71,0,1.43,0,2.14-.31-.69-.15-1.42-.2-2.13Z"/>
    <path class="cls-13" d="M3.05,36.91l-.1,1.93s-.09,.02-.14,.02c0-.64,0-1.28,0-1.92,.07-.17,.14-.17,.2,0l.04-.04Z"/>
    <path class="cls-48" d="M2.81,38.86s.09-.01,.14-.02c.01,.64,.02,1.28,.03,1.92-.02,.06-.04,.13-.07,.19-.04-.06-.07-.12-.11-.17,0-.64,0-1.28,0-1.92Z"/>
    <path class="cls-35" d="M2.81,40.78c.06,0,.12,0,.17-.02,0,.65,.12,1.3-.17,1.92,0-.63,0-1.27,0-1.9Z"/>
    <path class="cls-71" d="M32.78,44.62c.06,0,.12,0,.18,0,0,.64,0,1.28,0,1.92-.04,0-.08,0-.12-.01l-.11,.02c.01-.64,.03-1.28,.04-1.92Z"/>
    <path class="cls-13" d="M32.84,46.52s.08,0,.12,.01c0,.64,0,1.28,0,1.92-.05,0-.09-.02-.14-.03,0-.64,.01-1.27,.02-1.91Z"/>
    <path class="cls-46" d="M2.97,49.7c.04-.41,.07-.82,.11-1.23,.04,0,.09,0,.13-.01,0,.64,0,1.28,0,1.92-.07,.17-.13,.17-.19,0-.02-.23-.03-.45-.05-.68Z"/>
    <path class="cls-15" d="M32.83,48.43s.09,.02,.14,.03c0,.63,0,1.27,0,1.9-.28-.63-.17-1.28-.14-1.93Z"/>
    <path class="cls-2" d="M3.02,50.38c.06,0,.13,0,.19,0,.02,.63,.04,1.26,.06,1.9-.07,.09-.15,.09-.24,.02,0-.64,0-1.28-.01-1.92Z"/>
    <path class="cls-56" d="M3.01,22.07c-.01,.64-.02,1.28-.04,1.93-.07,.18-.15,.18-.21,0,.02-.65-.4-1.36,.25-1.92Z"/>
    <path class="cls-32" d="M2.8,27.35c.06,0,.12,0,.17,0,0,.64,0,1.28,0,1.92-.06,0-.11,0-.17,0,0-.64,0-1.28,0-1.92Z"/>
    <path class="cls-29" d="M2.81,33.11c.06,0,.11,0,.17,0,0,.64,0,1.28,.01,1.92-.03,.05-.06,.11-.09,.16-.03-.05-.06-.11-.09-.16,0-.64,0-1.28,0-1.92Z"/>
    <path class="cls-40" d="M32.8,35.03c0-.64,0-1.28,0-1.92,.04,0,.09,.01,.13,.02l.11-.03c-.02,.64-.04,1.28-.05,1.92-.06,.17-.12,.17-.19,0Z"/>
    <path class="cls-45" d="M2.81,35.02c.06,0,.12,0,.18,0l.02,1.92c-.07,0-.13,0-.2,0v-1.92Z"/>
    <path class="cls-2" d="M32.8,35.03c.06,0,.12,0,.19,0,0,.64,0,1.28-.01,1.92-.06,0-.12,0-.18,0,0-.64,0-1.28,0-1.92Z"/>
    <path class="cls-52" d="M3.04,52.3c.08,0,.16-.01,.24-.02h0c.09,.1,.17,.21,.25,.33,.22,.44,.11,.8-.24,1.1,0,.09,0,.18-.01,.27-.49-.51-.22-1.11-.22-1.69Z"/>
    <path class="cls-62" d="M5.18,14.37c-.08,.34-.16,.69-.24,1.03-.38-.45-.34-.81,.24-1.03Z"/>
    <path class="cls-30" d="M3.51,20.64c-.02,.46-.26,.82-.5,1.19-.29-.49,.1-.82,.28-1.2,.08-.1,.15-.09,.22,0Z"/>
    <path class="cls-46" d="M2.76,23.99c.07,0,.14,0,.21,0,.05,.28,.2,.46,.47,.55-.14,.18-.29,.36-.43,.54-.39-.29-.3-.7-.25-1.09Z"/>
    <path class="cls-61" d="M32.04,19.71c-.35-.25-.28-.68-.45-1.01,.07-.09,.08-.24,.23-.27,.22,.4,.37,.81,.22,1.28Z"/>
    <path class="cls-49" d="M33.2,23.29c-.07,0-.14,0-.21-.01-.26-.39,0-.87-.21-1.27,.07-.08,.14-.15,.21-.23,.4,.46,.2,.99,.2,1.5Z"/>
    <path class="cls-15" d="M3.51,20.64c-.07,0-.15,0-.22,0,.14-.38,.09-.89,.68-.95-.15,.32-.3,.63-.45,.95Z"/>
    <path class="cls-11" d="M33.28,23.52c0-.09,0-.18,0-.27,.13-.05,.26-.09,.39-.14,.03,.1,.11,.22,.08,.3-.09,.23-.29,.17-.47,.12Z"/>
    <path class="cls-55" d="M31.82,18.44l-.23,.27c.02-.33-.41-.64-.03-.97,.09,.23,.17,.47,.26,.7Z"/>
    <path class="cls-57" d="M32.26,52.31c-.36,.47-.88,.24-1.32,.24-9.22,.02-18.45,.03-27.67,.04,0-.1,0-.21,0-.31,9.67,.01,19.33,.02,29,.03Z"/>
    <path class="cls-58" d="M29.39,10.08c0,1.28,.01,2.56,.02,3.84-.59-1.25-.08-2.58-.28-3.86l.14-.07,.13,.09Z"/>
    <path class="cls-17" d="M6.41,14.19c.04-.57-.26-1.22,.41-1.63-.06,.62,.2,1.28-.16,1.87-.17,.01-.17-.16-.25-.25Z"/>
    <path class="cls-54" d="M6.13,17.52c-.39-.77,.04-1.46,.23-2.17,.07-.17,.14-.18,.22,0-.06,.74-.16,1.48-.45,2.17Z"/>
    <path class="cls-43" d="M32.79,22.01c.28,.39,.08,.85,.21,1.27-.17,.39,.14,.98-.48,1.2,0-.16-.02-.32-.03-.48,.4-.62,.18-1.33,.3-1.99Z"/>
    <path class="cls-31" d="M29.65,16.01c.15,.57,.31,1.15,.46,1.72-.7-.43-.91-.99-.46-1.72Z"/>
    <path class="cls-68" d="M30.91,23.64c.23,.45,.17,.95,.38,1.39-.51-.34-.45-.88-.38-1.39Z"/>
    <path class="cls-54" d="M5.66,19.23c-.22-.61-.21-1.15,.47-1.47-.16,.49-.31,.98-.47,1.47Z"/>
    <path class="cls-3" d="M3.06,46.57c-.01-.65-.15-1.31,.15-1.93,0,.63,0,1.27,0,1.9-.05,0-.1,.02-.15,.02Z"/>
    <path class="cls-61" d="M3.06,46.57c.05-.01,.1-.02,.15-.02v1.92s-.09,0-.13,.01c0-.64-.01-1.27-.02-1.91Z"/>
    <path class="cls-41" d="M32.8,29.29c.3,.62,.17,1.27,.15,1.92-.05,0-.1-.01-.15-.02,0-.63,0-1.27,0-1.9Z"/>
    <path class="cls-66" d="M32.8,31.19s.1,0,.15,.02c0,.64-.01,1.28-.02,1.92-.04,0-.09-.01-.13-.02,0-.64,0-1.28,0-1.92Z"/>
    <path class="cls-50" d="M29.42,14.25c.23,.33,.33,.65-.02,.96-.27-.33-.26-.65,.02-.96Z"/>
    <path class="cls-39" d="M4.45,22.36c-.2-.52-.12-.9,.49-1.04-.16,.35-.33,.69-.49,1.04Z"/>
    <path class="cls-47" d="M30.37,18.92c.16,.41,.31,.82,.47,1.23-.65-.22-.69-.67-.47-1.23Z"/>
    <path class="cls-10" d="M6.58,15.35c-.07,0-.15,0-.22,0,.02-.39,.03-.78,.05-1.17,.08,.08,.16,.16,.25,.25-.02,.31-.05,.61-.07,.92Z"/>
    <path class="cls-59" d="M18,13.19s.08-.14,.11-.14c.07,0,.13,.06,.19,.1-.04,.05-.07,.14-.1,.14-.07,0-.13-.06-.19-.1Z"/>
    <path class="cls-26" d="M31.8,22.78c.15,.22,.3,.45,.44,.67-.53,.03-.54-.29-.44-.67Z"/>
  </g>
  <path class="cls-14" d="M25.11,3.36c.08,0,.16,.02,.24,.02-.05,.47-.09,.94-.65,1.11h0c0-.42,.21-.77,.41-1.13Z"/>
  <path class="cls-71" d="M11.65,4.59c-.25,.08-.2,.3-.23,.48-.35-.26-.66-.53-.49-1.03,.24,.1,.47,.21,.71,.31,.06,.05,.08,.1,.06,.16-.02,.05-.04,.08-.06,.08Z"/>
  <path class="cls-12" d="M24.7,4.5s0-.01,0-.01c-.03,.1-.06,.19-.09,.29-.31,0-.62,0-.93,.01,.22-.53,.6-.48,1.03-.29Z"/>
  <path class="cls-51" d="M17.19,10.33l1.47,.24c-.55,.29-1.09,.52-1.47-.24Z"/>
  <path class="cls-1" d="M23.4,6.61c.08-.42,.28-.73,.72-.84-.05,.45-.3,.72-.72,.84Z"/>
  <path class="cls-61" d="M21.96,8.16c.2-.4,.43-.76,.96-.71-.24,.34-.46,.71-.96,.71Z"/>
  <path class="cls-20" d="M29.41,8.64c.07,0,.13,0,.2,0l-.22,1.45c-.07,0-.13,0-.2,.01-.08-.51,.03-.99,.22-1.45Z"/>
  <path class="cls-69" d="M20.07,5.31c-.39,.21-.82,.22-1.25,.18-.62-.14-1.25-.12-1.87-.01-.35,.03-.7,.02-1.01-.16,0-.16,.15-.16,.24-.24,1.22,0,2.44,0,3.66,.01,.11,.04,.19,.11,.23,.22Z"/>
  <path class="cls-7" d="M15.01,5.26l-1.92-.27c-.06-.06-.08-.12-.06-.18,.02-.06,.04-.09,.07-.09,.64,.07,1.31,.04,1.91,.33,.17,.07,.17,.14,0,.22Z"/>
  <path class="cls-22" d="M13.1,4.71c0,.09,0,.18,0,.28-.47-.18-1.03-.02-1.45-.4,0-.08,0-.16,0-.24,.49,.12,.97,.24,1.46,.36Z"/>
  <path class="cls-23" d="M23.42,4.81c-.45,.26-.95,.24-1.44,.27-.25,.11-.28,0-.22-.22,.55,.07,1.09-.41,1.66-.05Z"/>
  <path class="cls-45" d="M23.4,3.11c0,.07,0,.15,0,.22-.38,.07-.76,.15-1.33,.26,.47-.5,.9-.48,1.33-.48Z"/>
  <path class="cls-21" d="M20.07,5.31l-.23-.22c.47-.02,.94-.05,1.4-.07,.06,.06,.07,.11,.05,.16-.02,.05-.05,.07-.07,.07l-1.16,.06Z"/>
  <path class="cls-65" d="M21.23,5.25c0-.08,.01-.15,.02-.23,.17-.05,.35-.11,.52-.16,.07,.07,.15,.14,.22,.22-.22,.19-.48,.23-.76,.18Z"/>
  <path class="cls-19" d="M15.01,5.26c0-.07,0-.14,0-.22,.39,.01,.78,.02,1.17,.03-.08,.08-.16,.16-.24,.24-.31-.02-.62-.04-.93-.06Z"/>
  <path class="cls-6" d="M16.95,5.48c.63-.26,1.25-.27,1.87,.01-.62,0-1.25,0-1.87-.01Z"/>
</svg>