<?xml version="1.0" encoding="UTF-8"?>
<svg id="_Шар_1" data-name="Шар 1" xmlns="http://www.w3.org/2000/svg" viewBox="0 0 36.32 55.37">
  <defs>
    <style>
      .cls-1 {
        fill: #6a6a6a;
      }

      .cls-2 {
        fill: #262626;
      }

      .cls-3 {
        fill: #6c6c6c;
      }

      .cls-4 {
        fill: #555;
      }

      .cls-5 {
        fill: #727272;
      }

      .cls-6 {
        fill: #575757;
      }

      .cls-7 {
        fill: #fafafa;
      }

      .cls-8 {
        fill: #848484;
      }

      .cls-9 {
        fill: #565656;
      }

      .cls-10 {
        fill: #717171;
      }

      .cls-11 {
        fill: #f5f5f5;
      }

      .cls-12 {
        fill: #4b4b4b;
      }

      .cls-13 {
        fill: #4a4a4a;
      }

      .cls-14 {
        fill: #4d4d4d;
      }

      .cls-15 {
        fill: #303030;
      }

      .cls-16 {
        fill: #909090;
      }

      .cls-17 {
        fill: #393939;
      }

      .cls-18 {
        fill: #4e4e4e;
      }

      .cls-19 {
        fill: #7c7c7c;
      }

      .cls-20 {
        fill: #232323;
      }

      .cls-21 {
        fill: #2f2f2f;
      }

      .cls-22 {
        fill: #8d8d8d;
      }

      .cls-23 {
        fill: #656565;
      }

      .cls-24 {
        fill: #696969;
      }

      .cls-25 {
        fill: #707070;
      }

      .cls-26 {
        fill: #2a2a2a;
      }

      .cls-27 {
        fill: #626262;
      }

      .cls-28 {
        fill: gray;
      }

      .cls-29 {
        fill: #828282;
      }

      .cls-30 {
        fill: #787878;
      }

      .cls-31 {
        fill: #767676;
      }

      .cls-32 {
        fill: #272727;
      }

      .cls-33 {
        fill: #7d7d7d;
      }

      .cls-34 {
        fill: #424242;
      }

      .cls-35 {
        fill: #414141;
      }

      .cls-36 {
        fill: #3a3a3a;
      }

      .cls-37 {
        fill: #737373;
      }

      .cls-38 {
        fill: #fbfbfb;
      }

      .cls-39 {
        fill: #3b3b3b;
      }

      .cls-40 {
        fill: #5d5d5d;
      }

      .cls-41 {
        fill: #878787;
      }

      .cls-42 {
        fill: #616161;
      }

      .cls-43 {
        fill: #858585;
      }

      .cls-44 {
        fill: #4f4f4f;
      }

      .cls-45 {
        fill: #2e2e2e;
      }

      .cls-46 {
        fill: #373737;
      }

      .cls-47 {
        fill: #636363;
      }

      .cls-48 {
        fill: #474747;
      }

      .cls-49 {
        fill: #535353;
      }

      .cls-50 {
        fill: #2d2d2d;
      }

      .cls-51 {
        fill: #f7f7f7;
      }

      .cls-52 {
        fill: #191919;
      }

      .cls-53 {
        fill: #545454;
      }

      .cls-54 {
        fill: #606060;
      }

      .cls-55 {
        fill: #1a1a1a;
      }

      .cls-56 {
        fill: #525252;
      }

      .cls-57 {
        fill: #484848;
      }

      .cls-58 {
        fill: #6d6d6d;
      }

      .cls-59 {
        fill: #6e6e6e;
      }

      .cls-60 {
        fill: #838383;
      }

      .cls-61 {
        fill: #919191;
      }

      .cls-62 {
        fill: #666;
      }

      .cls-63 {
        fill: #3c3c3c;
      }

      .cls-64 {
        fill: #5e5e5e;
      }

      .cls-65 {
        fill: #fefefe;
      }

      .cls-66 {
        fill: #fcfcfc;
      }
    </style>
  </defs>
  <path class="cls-65" d="M6.23,4.17c.79-.68,1.7-1.08,2.73-1.19,.1,.01,.2,.03,.3,.05,.48,.19,1,.17,1.51,.22,.54,.17,1.09,.23,1.66,.14,.11,0,.22,0,.33,.02,.57,.05,1.1,.26,1.64,.43,.25,.11,.51,.18,.79,.13,.37-.01,.74,.05,1.08,.19,.42,.26,.9,.33,1.38,.35,.35,.02,.71,.02,1.06-.02,.49,0,.81-.42,1.25-.53,.34-.04,.69-.04,1.04-.08,.86,.05,1.68-.13,2.47-.44,.1-.03,.21-.05,.32-.07,.58,0,1.1-.25,1.64-.41,.62-.03,1.23-.15,1.85,0,.55,.16,1.1,.32,1.64,.48,.35,.33,.87,.36,1.2,.72h.48c.11,.34,.2,.67,.04,1.02-.3,.42-.52,.86-.55,1.39,.11,.7-.09,1.41,.1,2.1-.03,.53,0,1.05,.01,1.58,0,.11,0,.23,0,.34,0,.39,0,.78-.03,1.17-.02,.28,.02,.56,0,.84-.03,.44-.02,.88-.19,1.3-.08,.34,.21,.55,.3,.82,.07,.26,.14,.53,.21,.8,.1,.45,.09,.92,.3,1.35,.03,.21,.06,.42,.12,.63,.14,.44,.15,.91,.36,1.34,.14,.4,.31,.78,.5,1.15,.05,.1,.09,.2,.13,.3,.1,.35,.23,.69,.38,1.03,.07,.19,.14,.39,.22,.58,.09,.29,.2,.57,.32,.85,.08,.25,.2,.49,.25,.76,.23,.72,.13,1.47,.14,2.2,0,.38,0,.75,0,1.13-.02,.61,.06,1.22-.08,1.82-.09,.63-.02,1.26-.04,1.89v9.58c-.02,.66,.04,1.32-.04,1.97-.19,2.55-.03,5.09-.08,7.64-.08,.68,.19,1.39-.21,2.03-.34,.28-.75,.24-1.14,.24-9.09,0-18.18,0-27.28,0-.2,0-.4-.02-.59-.05-.15-.04-.28-.12-.38-.24-.26-.65-.09-1.32-.14-1.99,0-.66,0-1.32,0-1.98-.05-2.52,.1-5.04-.08-7.56-.09-.65-.02-1.31-.04-1.97v-9.51c0-.64,0-1.28,0-1.92-.03-.67-.18-1.33-.12-2-.01-.44,.14-.84,.31-1.23,.19-.34,.28-.72,.33-1.11,.12-.33,.31-.65,.35-1.01,.03-.16,.11-.3,.15-.46,.16-.46,.32-.92,.55-1.35,.45-.68,.66-1.43,.7-2.24,.08-.55,.42-1.03,.42-1.6,0-.18,.07-.34,.1-.51,.11-.32,.2-.64,.19-.98,.1-.36,.11-.73,.14-1.09,.13-.41,.44-.76,.42-1.22,.05-.49,.05-.99,.03-1.49,.02-.5-.19-.94-.42-1.37-.03-.37-.17-.71-.24-1.06,.08-.75-.24-1.45-.35-2.17-.02-.32-.18-.63-.08-.97,.15-.3,.23-.67,.62-.78Z"/>
  <path class="cls-38" d="M6.13,5.15c.09,.28,.18,.55,.27,.83,.07,.69,.18,1.39,.21,2.08l.25,1c-.02,1.44,0,2.87-.01,4.31,0,.37,0,.73,0,1.1-.25,.3-.38,.62-.24,1.01,0,.15,0,.3,0,.45-.46,.47-.38,1.1-.48,1.67-.24,.8-.48,1.6-.72,2.41-.48,.24-.34,.87-.71,1.17-.02,.2-.03,.4-.05,.59-.28,.3-.4,.68-.58,1.04-.29,.25-.24,.87-.85,.78-.33-.78-.31-1.55,.01-2.33,.06-.71,.48-1.28,.74-1.92,.09-.43,.15-.87,.46-1.22,.09-.33,.17-.65,.26-.98,.06-.65,.12-1.31,.23-1.96,0-.25,.1-.48,.15-.72,.18-.39-.02-.88,.35-1.22,0-.15,0-.31-.01-.46-.19-1.19-.19-2.38,0-3.57-.08-.14-.16-.27-.24-.41-.01-.32,.03-.63,.02-.94-.09-.33-.17-.66-.26-.99-.04-.61-.19-1.2-.24-1.8,.05-.13,.11-.27,.16-.4,.69-.55,1.17-.54,1.28,.48Z"/>
  <path class="cls-66" d="M29.64,12.57c-.08-.22-.17-.44-.25-.66,.3-.38-.04-.89,.25-1.27,0-.08,0-.16,0-.24-.25-.5-.06-1.03-.12-1.55,.2-.73,.22-1.49,.33-2.23-.06-.6,.32-1.13,.27-1.73,.16-.24,.32-.48,.48-.72,1.2,.34,1.02,1.29,.95,2.18-.43,.44-.35,1-.35,1.54-.12,.42-.2,.84,.09,1.23,.18,1.39,.13,2.79-.04,4.18-.33,.27,.02,.67-.18,.97,.08,.29,.16,.58,.25,.87,.08,.59,.1,1.18,.33,1.74,.04,.43,.22,.82,.4,1.21v-.03c.13,.39,.06,.86,.44,1.16,0,.08,.02,.15,.03,.23,.08,.46,.18,.92,.49,1.29,.08,.13,.16,.26,.23,.4-.04,.55,.09,1.12-.1,1.66-.22,.28-.43,.09-.63-.03-.35-.1-.41-.4-.47-.69-.08-.13-.16-.26-.24-.39-.27-.38-.5-.78-.48-1.28,0-.07,0-.14-.01-.2-.47-.26-.38-.8-.59-1.2-.09-.49-.48-.92-.35-1.46-.08-.12-.16-.24-.25-.37-.11-.52-.18-1.04-.24-1.56-.09-.23-.18-.46-.26-.69,0-.45,.05-.91-.09-1.35,.04-.34-.11-.7,.11-1.02Z"/>
  <path class="cls-38" d="M12.63,3.94c-.08,0-.17,0-.25-.01-.65,.18-1.18-.26-1.78-.36-.54-.11-1.12-.08-1.61-.41,0-.06-.02-.12-.04-.19,.08-1.5,1.2-.89,1.97-.97,.51,.43,1.22,.24,1.75,.59,.56-.19,1.06,.4,1.63,.13,.06,0,.12,0,.17,0,.32,.25,.7,.26,1.08,.25,.47,0,.94,.01,1.41,.02,.85,.25,1.71,.54,2.56,0,.09,0,.18-.01,.27-.02,.43,.23,.87,.12,1.32,.06,.22-.06,.45-.05,.67-.06,.14-.08,.28-.16,.42-.24,.5,.28,.92-.3,1.4-.14,.45-.2,.95-.22,1.4-.41,.32-.16,.73,.12,1.03-.19,.89-.27,.92,.53,1.23,.98-.46,.55-1.12,.42-1.71,.49-.5,.4-1.08,.51-1.7,.47-.07,0-.14,0-.22,0-.83,.45-1.73,.49-2.65,.48l-.71,.24c-.98,.22-1.95-.11-2.93,0-.37-.01-.75,.04-1.11-.08-.37-.07-.74-.02-1.11-.04-.24-.06-.48-.12-.72-.17-.6-.08-1.23-.09-1.78-.42Z"/>
  <path class="cls-4" d="M32.98,53.31c-.39,.04-.79,.11-1.18,.11-9.2,0-18.4,0-27.6,0-.24,0-.47-.05-.71-.07-.09-.16-.07-.3,.06-.42,.49-.45,1.11-.42,1.7-.42,8.61-.02,17.21-.02,25.82,0,.48,0,.96,0,1.41,.2,.15,.04,.29,.11,.41,.19,.13,.11,.16,.24,.09,.4Z"/>
  <path class="cls-8" d="M3.29,40.11c.29,2.57,.19,5.16,.17,7.74-.18,.65-.04,1.32-.09,1.98,.02,.62-.04,1.24,.04,1.85,.11,.29,.08,.55-.2,.74-.28-2.18-.17-4.36-.16-6.54,.18-.66,.04-1.33,.08-2v-1.88c.07-.63-.16-1.28,.15-1.89Z"/>
  <path class="cls-29" d="M32.98,53.31c-.02-.07-.04-.14-.05-.21-.33-.42-.34-.88-.15-1.35,.15-.66,.14-1.32,.01-1.99-.02-2.58-.12-5.16,.17-7.73,.3,.61,.08,1.26,.15,1.88v1.88c.04,.67-.09,1.35,.08,2.01-.03,1.84,.22,3.69-.22,5.51Z"/>
  <path class="cls-58" d="M32.97,22.87c.18-.56-.13-1.2,.27-1.73,.44,.69,.21,1.46,.2,2.19-.03,1.77,.1,3.54-.17,5.31-.04-.05-.08-.09-.13-.14-.04-.56,0-1.12-.02-1.69-.03-.43,.08-.86-.08-1.28,.16-.73-.3-1.36-.32-2.06,.06-.21,.06-.44,.25-.6Z"/>
  <path class="cls-10" d="M3.23,21.26c.16,.78-.32,1.66,.36,2.36h-.02c.1,.4-.15,.69-.38,.98-.2,.55,.13,1.17-.22,1.7-.25-1.46-.11-2.94-.17-4.4-.01-.31,.12-.54,.43-.64Z"/>
  <path class="cls-41" d="M19.53,2.99c-.85,.71-1.71,.72-2.56,0,.85-.2,1.71,.3,2.56,0Z"/>
  <path class="cls-15" d="M3.21,28.64c0,1.28,0,2.56,0,3.84-.06,.14-.12,.14-.18,0,0-1.28,0-2.56-.01-3.84,.03-.05,.06-.11,.09-.16,.03,.05,.06,.11,.09,.16Z"/>
  <path class="cls-17" d="M33.06,43.92c-.03-.63-.06-1.25-.09-1.88,.02-.63,.03-1.26,.05-1.89,.06-.14,.12-.15,.18,0,0,1.28,0,2.55,0,3.83-.04,.04-.09,.09-.13,.13,0-.06,0-.13,0-.19Z"/>
  <path class="cls-52" d="M33.03,38.23c0-1.28,0-2.56,0-3.83,.06-.14,.11-.15,.17,0,0,1.28,0,2.56,0,3.83-.06,.14-.11,.15-.17,0Z"/>
  <path class="cls-34" d="M3.29,40.11c-.04,.64-.07,1.28-.11,1.92-.04,0-.08,.02-.13,.03,0-1.28,0-2.56,0-3.83,.06-.16,.13-.16,.19,0,.02,.63,.03,1.26,.05,1.88Z"/>
  <path class="cls-32" d="M3.04,32.47c.06,0,.12,0,.18,0,0,1.28,0,2.56,.01,3.84-.06,.14-.12,.15-.18,0,0-1.28,0-2.56,0-3.83Z"/>
  <path class="cls-32" d="M5.41,9.22c0,1.19,0,2.38,0,3.57-.38-1.19-.39-2.38,0-3.57Z"/>
  <path class="cls-49" d="M6.13,5.15c-.27-.59-.7-.73-1.28-.48,.28-.64,.77-.73,1.37-.5-.03,.33-.06,.65-.09,.98Z"/>
  <path class="cls-44" d="M5.13,15.2c-.15,.65-.29,1.3-.44,1.95-.35-.66,.09-1.3,.05-1.95,.13-.13,.26-.13,.39,0Z"/>
  <path class="cls-23" d="M4.69,5.07c.29,.57,.51,1.15,.24,1.8-.28-.57-.5-1.16-.24-1.8Z"/>
  <path class="cls-40" d="M12.61,2.68c-.57-.22-1.3,0-1.69-.67,.59,.07,1.18,.11,1.68,.49,.06,.03,.12,.06,.17,.08-.06,.03-.11,.07-.17,.1Z"/>
  <path class="cls-58" d="M25.09,2.28c-.43,.34-.96,.3-1.45,.42-.2-.08-.2-.17,0-.26,.44-.29,.97-.28,1.46-.41,.17,.08,.17,.16,0,.24Z"/>
  <path class="cls-62" d="M31.53,16.94c-.21-.58-.48-1.16-.2-1.8,.37,.44,.23,1.03,.43,1.52-.06,.1-.05,.26-.22,.28Z"/>
  <path class="cls-36" d="M31.06,7.99c.09-.57-.23-1.26,.5-1.63l-.27,1.86c-.21,.06-.32,.02-.23-.23Z"/>
  <path class="cls-12" d="M31.08,14.27c-.07-.38-.15-.76-.21-1.14-.02-.11,.06-.24,.2-.12,.08,.07,.13,.19,.19,.29-.09,.32,.22,.71-.18,.97Z"/>
  <path class="cls-4" d="M2.97,26.3c.07-.57,.15-1.14,.22-1.7,0,.71,.01,1.42,.02,2.13-.08,.18-.15,.18-.21,0-.01-.14-.02-.28-.03-.42Z"/>
  <path class="cls-45" d="M3.05,36.31c.06,0,.12,0,.18,0v1.92c-.05,0-.12,0-.18,0,0-.64,0-1.28,0-1.92Z"/>
  <path class="cls-13" d="M12.61,2.68c0-.06,0-.12,0-.18,.6-.13,1.14,.15,1.71,.23-.58,.58-1.13-.13-1.7-.04Z"/>
  <path class="cls-2" d="M33.03,38.23c.06,0,.11,0,.17,0,0,.64,0,1.28,0,1.92h-.09s-.09,0-.09,0c0-.64,0-1.28,.01-1.92Z"/>
  <path class="cls-16" d="M5.42,13.25c.03,.44,0,.87-.22,1.26-.23-.08-.1-.33-.22-.46-.03-.36-.02-.71,.44-.8Z"/>
  <path class="cls-64" d="M3.05,42.06s.08-.02,.13-.03c.01,.64,.02,1.29,.04,1.93-.02,.06-.04,.13-.06,.19-.04-.06-.07-.12-.11-.17,0-.64,0-1.28,0-1.92Z"/>
  <path class="cls-1" d="M30.12,4.17c-.47-.13-.97-.2-1.2-.72,.52,.04,1.03,.1,1.2,.72Z"/>
  <path class="cls-37" d="M3.05,43.98c.06,0,.11-.01,.17-.02,0,.65,.13,1.3-.17,1.92,0-.63,0-1.27,0-1.9Z"/>
  <path class="cls-59" d="M33.06,43.92s.09,.04,.14,.06v1.93c-.06,.17-.12,.17-.18,0,.01-.66,.03-1.32,.04-1.98Z"/>
  <path class="cls-5" d="M33.02,45.9c.06,0,.13,0,.19,0,0,.63,0,1.27,0,1.9-.3-.61-.17-1.26-.18-1.9Z"/>
  <path class="cls-43" d="M31.06,7.99c.08,.08,.15,.15,.23,.23,0,.3,0,.61,0,.91-.59-.27-.49-.69-.24-1.14Z"/>
  <path class="cls-58" d="M32.5,19.22c-.75-.15-.5-.69-.46-1.16,.32,.32,.32,.77,.46,1.16Z"/>
  <path class="cls-35" d="M3,26.71c.07,0,.14,0,.21,0,0,.64,0,1.28,0,1.92-.06,0-.12,0-.18,0,0-.64-.02-1.28-.02-1.92Z"/>
  <path class="cls-35" d="M33.04,30.56c0-.64,0-1.28,0-1.92,.04,0,.09,0,.13,.01l.1-.02c-.01,.64-.03,1.28-.04,1.92-.06,.17-.12,.17-.19,0Z"/>
  <path class="cls-21" d="M33.04,30.56c.06,0,.12,0,.19,0,0,.64,0,1.28-.01,1.92-.06,.15-.12,.14-.17,0,0-.64,0-1.28,0-1.92Z"/>
  <path class="cls-20" d="M33.04,32.47c.06,0,.12,0,.17,0,0,.64,0,1.28,0,1.92-.06,0-.11,0-.17,0,0-.64,0-1.28,0-1.92Z"/>
  <path class="cls-14" d="M23.63,2.44c0,.09,0,.17,0,.26-.48-.06-.94,.48-1.42,.03,.46-.18,.92-.32,1.42-.29Z"/>
  <path class="cls-33" d="M15.56,2.97c-.47,.41-.81,.23-1.08-.25,.38-.02,.75,.02,1.08,.25Z"/>
  <path class="cls-40" d="M33.01,20.75c-.44-.32-.74-.7-.49-1.29,.28,.39,.5,.79,.49,1.29Z"/>
  <path class="cls-31" d="M5.19,7.86c.23,.32,.32,.64-.02,.94-.23-.32-.29-.64,.02-.94Z"/>
  <path class="cls-40" d="M31.53,16.94c.07-.09,.15-.19,.22-.28,.1,.48,.2,.96,.3,1.44-.47-.25-.5-.71-.52-1.16Z"/>
  <path class="cls-34" d="M3.21,52.42c.04-.25,.07-.5,.11-.74,.03-.18,.1-.2,.2-.04h-.02c.09,.11,.17,.22,.25,.33,.22,.43,.12,.79-.23,1.09,0,.1-.01,.2-.02,.3-.48-.2-.22-.62-.28-.94Z"/>
  <path class="cls-54" d="M4.43,18.12c-.1,.43-.15,.87-.46,1.22-.23-.55-.09-.96,.46-1.22Z"/>
  <path class="cls-39" d="M4.98,14.05c.07,.15,.15,.31,.22,.46-.02,.23-.05,.46-.07,.69-.13,0-.26,0-.39,0l.23-1.15Z"/>
  <path class="cls-48" d="M25.09,2.28c0-.08,0-.16,0-.24,.32-.02,.64-.03,.95-.05,.02,.13,.35,.32-.04,.36-.3,.03-.61-.04-.92-.07Z"/>
  <path class="cls-15" d="M21.21,3.15c-.47-.02-.99,.33-1.4-.18,.39,0,.79-.02,1.18-.02,.25-.12,.27,0,.22,.21Z"/>
  <path class="cls-19" d="M21.21,3.15c-.07-.07-.14-.14-.22-.21,.27-.19,.55-.35,.81,.02-.2,.06-.39,.12-.59,.18Z"/>
  <path class="cls-50" d="M3.51,51.96c0-.1,0-.21-.01-.31,9.76,0,19.51-.02,29.27-.02,.02,.08,.05,.15,.07,.23-.07,.14-.17,.26-.31,.35-.59,.34-1.24,.29-1.87,.29-8.34,.01-16.68,.01-25.02,0-.74,0-1.54,.1-2.13-.53Z"/>
  <path class="cls-22" d="M6.85,13.36c-.32-1.44-.41-2.88,.01-4.31,.33,.42,.22,.91,.19,1.38-.14,.54-.14,1.08,0,1.63,.04,.45,.08,.9-.21,1.3Z"/>
  <path class="cls-49" d="M21,4.41l2.65-.48c-.78,.7-1.68,.81-2.65,.48Z"/>
  <path class="cls-8" d="M17.42,4.45c.97-.13,1.91,.1,2.87,.19-.46,.28-.96,.25-1.47,.21-.37-.17-.77-.04-1.15-.09-.18-.03-.32-.08-.26-.31Z"/>
  <path class="cls-27" d="M6.61,8.05c-.26-.68-.46-1.36-.21-2.08,.25,.68,.58,1.34,.21,2.08Z"/>
  <path class="cls-4" d="M30.07,6.55c-.22,.71-.06,1.49-.43,2.18-.06,.18-.12,.18-.2,0,.08-.8,.17-1.6,.25-2.4,.2-.06,.3,.05,.37,.22Z"/>
  <path class="cls-63" d="M30.07,6.55c-.12-.07-.25-.15-.37-.22-.12-.56,.35-.94,.42-1.44,.52,.57-.13,1.1-.05,1.66Z"/>
  <path class="cls-18" d="M10.68,3.49c.58,.09,1.17,.16,1.7,.44-.67,.58-1.16,0-1.7-.25-.17-.06-.17-.12,0-.18Z"/>
  <path class="cls-23" d="M23.86,3.92l1.7-.47c-.4,.74-1.02,.72-1.7,.47Z"/>
  <path class="cls-60" d="M17.42,4.45c.08,.07,.16,.13,.24,.2,.1,.05,.13,.09,.09,.13-.03,.04-.07,.06-.1,.06-.5,.03-1,.09-1.45-.24,0-.05-.02-.1-.03-.16,.41,0,.83,0,1.24,0Z"/>
  <path class="cls-46" d="M10.68,3.49c0,.06,0,.12,0,.18-.6-.05-1.28,.16-1.69-.51,.59-.03,1.14,.15,1.69,.33Z"/>
  <path class="cls-64" d="M6.13,17.6c-.17-.65-.25-1.28,.48-1.67-.16,.56-.32,1.11-.48,1.67Z"/>
  <path class="cls-57" d="M12.63,3.94l1.86,.28c.05,.22,0,.33-.24,.24-.57-.06-1.22,.1-1.62-.51Z"/>
  <path class="cls-42" d="M29.88,15.63c.32,.48,.41,1,.24,1.56-.33-.48-.47-.99-.24-1.56Z"/>
  <path class="cls-51" d="M32.01,25.12v1.02h-.12v-1.06s.08,.02,.12,.03Z"/>
  <path class="cls-61" d="M29.67,13.74c.26,.41,.27,.81-.05,1.2-.2-.29-.27-.61-.19-.97,.08-.08,.09-.23,.24-.23Z"/>
  <path class="cls-3" d="M31.32,20.42c.27,.38,.47,.79,.48,1.28-.46-.31-.81-.67-.48-1.28Z"/>
  <path class="cls-24" d="M3.31,49.77c-.02-.65-.15-1.3,.15-1.92,0,.63,0,1.27,0,1.9-.05,0-.1,.01-.14,.02Z"/>
  <path class="cls-53" d="M3.31,49.77s.1-.02,.14-.02c.02,.63,.05,1.26,.07,1.89-.07,.02-.14,.03-.2,.04,0-.64,0-1.27-.01-1.91Z"/>
  <path class="cls-59" d="M32.8,49.76c.3,.62,.17,1.28,.16,1.93-.06,.13-.14,.13-.24,.03l.04-.1c.01-.62,.02-1.24,.03-1.86Z"/>
  <path class="cls-9" d="M30.37,17.56c.23,.47,.4,.96,.43,1.48-.06,.12-.11,.12-.17,0-.23-.47-.62-.91-.26-1.48Z"/>
  <path class="cls-9" d="M33.17,28.65s-.09,0-.13-.01c0-.64,0-1.28,0-1.92,.04-.06,.08-.12,.12-.17,.01,.07,.02,.14,.04,.21,0,.63-.02,1.26-.03,1.89Z"/>
  <path class="cls-30" d="M6.62,15.47c-.39-.45-.32-.79,.24-1.01-.08,.34-.16,.67-.24,1.01Z"/>
  <path class="cls-4" d="M4.7,21.18c.15-.44,.05-1.04,.71-1.17-.18,.43-.19,.95-.71,1.17Z"/>
  <path class="cls-56" d="M30.63,19.04c.06,0,.11,0,.17,0l.51,1.18c-.69-.12-.55-.73-.68-1.18Z"/>
  <path class="cls-40" d="M7.06,12.06c-.26-.54-.26-1.08,0-1.63,0,.54,0,1.08,0,1.63Z"/>
  <path class="cls-17" d="M29.45,8.73c.07,0,.13,0,.2,0,0,.56,0,1.12,0,1.67-.54-.5-.17-1.11-.2-1.67Z"/>
  <path class="cls-23" d="M4.03,22.64c.03-.41,.11-.79,.61-.87-.12,.31-.13,.68-.48,.86-.05,0-.09,0-.14,.01Z"/>
  <path class="cls-47" d="M4.03,22.64s.09,0,.14-.01c-.11,.38-.15,.8-.6,.98,0,0,.02,.01,.02,.01,.02-.38,.11-.73,.44-.98Z"/>
  <path class="cls-51" d="M30.29,21.8s.12,.09,.14,.15c.03,.11,0,.22-.16,.19-.05-.01-.09-.12-.09-.18,0-.05,.07-.1,.11-.15Z"/>
  <path class="cls-45" d="M29.67,13.74l-.24,.23c.05-.47-.29-1,.21-1.41,0,.39,.02,.78,.03,1.17Z"/>
  <path class="cls-65" d="M32.97,22.87c0,.24,.14,.53-.25,.6-.07-.22-.15-.43-.22-.65-.07-.02-.1-.06-.08-.1,.01-.05,.03-.07,.05-.07,.17,.07,.34,.14,.51,.22Z"/>
  <path class="cls-11" d="M8,11.59c-.04,.05-.08,.1-.12,.15-.04-.06-.11-.11-.11-.17,0-.05,.07-.1,.11-.15,.04,.06,.08,.11,.12,.17Z"/>
  <path class="cls-25" d="M17.65,4.85c0-.07,0-.13,0-.2,.4,0,.8-.02,1.16,.2-.39,0-.78,0-1.17,0Z"/>
  <path class="cls-26" d="M16.18,4.46c0,.05,0,.11,.03,.16-.39,0-.79,0-1.18,0-.06-.05-.09-.1-.07-.15,.02-.06,.03-.08,.05-.08,.39,.03,.78,.05,1.17,.08Z"/>
  <path class="cls-28" d="M15.01,4.38c0,.08,.02,.16,.02,.23-.28,.05-.54,0-.77-.17,.08-.08,.16-.16,.24-.24,.2-.03,.37,.01,.51,.17Z"/>
  <path class="cls-1" d="M33.2,26.76c-.05-.02-.11-.03-.16-.04,0-.4,0-.79,0-1.19,.21,.39,.2,.81,.16,1.23Z"/>
  <path class="cls-62" d="M32.46,22.65c0,.06,.01,.12,.04,.17-.65,.06-.65-.28-.45-.74,.14,.19,.28,.38,.42,.57Z"/>
  <path class="cls-4" d="M29.64,10.64c-.07,.43,.16,.91-.25,1.27-.05-.45-.26-.93,.25-1.27Z"/>
  <path class="cls-55" d="M30.91,12.06v-2.31s.07,0,.1,0v2.31s-.07,0-.1,0Z"/>
  <path class="cls-7" d="M3.51,51.96c9.74,0,19.49,0,29.23,.01,.2,.38,.24,.75-.02,1.12-9.74,0-19.48-.02-29.22-.03,0-.37,0-.74,0-1.1Z"/>
  <path class="cls-6" d="M32.73,53.09c0-.37,.01-.75,.02-1.12,0-.08-.01-.16-.02-.24,.08-.01,.16-.02,.24-.03-.01,.47-.02,.94-.03,1.41-.07,0-.14,0-.21-.01Z"/>
</svg>