<?xml version="1.0" encoding="UTF-8"?>
<svg id="_Шар_1" data-name="Шар 1" xmlns="http://www.w3.org/2000/svg" viewBox="0 0 36.32 55.37">
  <defs>
    <style>
      .cls-1 {
        fill: #6a6a6a;
      }

      .cls-2 {
        fill: #797979;
      }

      .cls-3 {
        fill: #343434;
      }

      .cls-4 {
        fill: #262626;
      }

      .cls-5 {
        fill: #6c6c6c;
      }

      .cls-6 {
        fill: #555;
      }

      .cls-7 {
        fill: #585858;
      }

      .cls-8 {
        fill: #3d3d3d;
      }

      .cls-9 {
        fill: #727272;
      }

      .cls-10 {
        fill: #575757;
      }

      .cls-11 {
        fill: #4c4c4c;
      }

      .cls-12 {
        fill: #fafafa;
      }

      .cls-13 {
        fill: #848484;
      }

      .cls-14 {
        fill: #3f3f3f;
      }

      .cls-15 {
        fill: #f6f6f6;
      }

      .cls-16 {
        fill: #565656;
      }

      .cls-17 {
        fill: #363636;
      }

      .cls-18 {
        fill: #717171;
      }

      .cls-19 {
        fill: #4b4b4b;
      }

      .cls-20 {
        fill: #222;
      }

      .cls-21 {
        fill: #5f5f5f;
      }

      .cls-22 {
        fill: #4a4a4a;
      }

      .cls-23 {
        fill: #868686;
      }

      .cls-24 {
        fill: #2f2f2f;
      }

      .cls-25 {
        fill: #313131;
      }

      .cls-26 {
        fill: #e67373;
      }

      .cls-27 {
        fill: #818181;
      }

      .cls-28 {
        fill: #282828;
      }

      .cls-29 {
        fill: #626262;
      }

      .cls-30 {
        fill: gray;
      }

      .cls-31 {
        fill: #5a5a5a;
      }

      .cls-32 {
        fill: #505050;
      }

      .cls-33 {
        fill: #828282;
      }

      .cls-34 {
        fill: #272727;
      }

      .cls-35 {
        fill: #6f6f6f;
      }

      .cls-36 {
        fill: #747474;
      }

      .cls-37 {
        fill: #424242;
      }

      .cls-38 {
        fill: #2b2b2b;
      }

      .cls-39 {
        fill: #676767;
      }

      .cls-40 {
        fill: #3a3a3a;
      }

      .cls-41 {
        fill: #3b3b3b;
      }

      .cls-42 {
        fill: #5d5d5d;
      }

      .cls-43 {
        fill: #616161;
      }

      .cls-44 {
        fill: #494949;
      }

      .cls-45 {
        fill: #858585;
      }

      .cls-46 {
        fill: #2c2c2c;
      }

      .cls-47 {
        fill: #4f4f4f;
      }

      .cls-48 {
        fill: #2e2e2e;
      }

      .cls-49 {
        fill: #636363;
      }

      .cls-50 {
        fill: #353535;
      }

      .cls-51 {
        fill: #535353;
      }

      .cls-52 {
        fill: #515151;
      }

      .cls-53 {
        fill: #2d2d2d;
      }

      .cls-54 {
        fill: #252525;
      }

      .cls-55 {
        fill: #f7f7f7;
      }

      .cls-56 {
        fill: #545454;
      }

      .cls-57 {
        fill: #606060;
      }

      .cls-58 {
        fill: #7b7b7b;
      }

      .cls-59 {
        fill: #525252;
      }

      .cls-60 {
        fill: #7f7f7f;
      }

      .cls-61 {
        fill: #6d6d6d;
      }

      .cls-62 {
        fill: #595959;
      }

      .cls-63 {
        fill: #6e6e6e;
      }

      .cls-64 {
        fill: #5b5b5b;
      }

      .cls-65 {
        fill: #404040;
      }

      .cls-66 {
        fill: #838383;
      }

      .cls-67 {
        fill: #666;
      }
    </style>
  </defs>
  <path class="cls-26" d="M32.84,14.02c-.15,.34-.12,.69-.07,1.05,.05,.35,.25,.85-.5,.64-.2-.06-.35,.23-.3,.43,.26,.93-.2,1.85,.08,2.82,.27,.97,.55,1.09,1.29,.51,.12-.09,.3-.1,.45-.15,.29,.7,.55,1.4,.47,2.18,.09,.27,.18,.55,.27,.82-.02,.39-.02,.77-.03,1.16,.22,2.12-.61,4.3,.32,6.39,.08,.18,.17,.35,.3,.5,.18,.27,.05,.66,.34,.89,0,.18,.01,.37,.02,.55-.18,.4-.19,.79,0,1.19,0,.19,0,.37,.01,.56,.07,.74-.23,1.52,.19,2.24,0,.19,.02,.38,.03,.57-.25,.87-.06,1.76-.12,2.63v1.26c-.03,.66,.01,1.31,.12,1.97-.09,1.52,.23,3.07-.24,4.57v.03c-.27,.82-.98,.82-1.64,.91-.18,0-.34-.09-.5-.13-.81-.22-1.52,.06-2.2,.46-.57,.26-1.19,.11-1.78,.19-.47-.01-.8,.32-1.21,.46-.13,.04-.25,.07-.38,.08-.46,.02-.92,.02-1.38,0-.13,0-.26-.02-.39-.03-.53-.18-.97-.63-1.6-.5-.39,.1-.77-.03-1.16-.06-.87,.14-1.71-.08-2.56-.15-.66-.11-1.17-.44-1.5-1.04,0-.29,0-.57,0-.86-.19-.39-.18-.79,0-1.18,0-.35-.02-.7-.03-1.04-.39-.54-.14-1.15-.19-1.73,0-.36-.01-.72-.02-1.07-.19-.47-.18-.95,0-1.43,0-.11-.02-.22-.03-.33-.41-.64-.12-1.34-.19-2.01,0-.18,0-.37-.01-.55-.27-.55,0-1.17-.24-1.72-.09-.07-.17-.14-.26-.21-.19-.19-.22-.42-.19-.68,.43-.6,.33-1.23,.11-1.87-.03-.59,.17-1.17,.1-1.77,0-.11,0-.22,0-.33,0,.06,0,.13,0,.2,0,.28,0,.55,0,.81-.1,.58-.2,1.16,.09,1.72,.03,.24,.03,.47-.03,.71-.31,.52-.48,1.06-.3,1.67,0,.32,0,.63,0,.95-.43,.46-.18,1.03-.25,1.55,0,.12,0,.24,0,.36-.21,.65-.2,1.29,0,1.94,0,.18-.01,.36-.02,.53-.49,.71-.06,1.51-.19,2.25,0,.11-.02,.23-.03,.34-.19,.56-.19,1.11,0,1.67,0,.11-.02,.22-.03,.33-.45,.59,0,1.34-.34,1.96-.13,.14-.29,.24-.43,.37-.5,.53-1.18,.5-1.82,.59-.42-.01-.82-.15-1.23-.22-.5-.06-.97,.09-1.45,.21-.17,.01-.34,.02-.51,.02-.55-.03-1.02,.19-1.46,.5-.64,.21-1.26-.1-1.89-.06-.5-.16-.98-.48-1.53-.18-.35,.16-.73,.07-1.09,.09-.79-.13-1.56-.32-2.34-.47-.38-.13-.77-.23-1.17-.25-.43-.07-.77-.31-1.07-.62-.2-.17-.36-.37-.4-.64-.01-.14-.02-.28-.02-.42,0-2.25,0-4.5,0-6.74,0-.49-.02-.97,.03-1.46,.03-.14,.09-.26,.19-.36,.01-1.08,.03-2.17,.04-3.25,.19-.6-.29-1.27,.22-1.83,0-.76,.01-1.53,.02-2.29,0-.55-.08-1.1,.1-1.63,.03-.44,0-.88,.02-1.31,.18-.4,0-.91,.35-1.26,0-.31,0-.61,0-.92-.23-.47,0-.85,.24-1.23,1.9-1.23,1.44-3.01,1.12-4.76-.09-.51-.13-1.03-.2-1.54-.22-.74-.11-1.43,.28-2.09,.08-.48,.16-.95,.24-1.43-.11-.18-.02-.31,.1-.44,.56-.23,.23-.63,.19-.98,0-.11,.03-.22,.06-.32,0-.34,.03-.67,.23-.97,.03-.34-.03-.71,.37-.88,.05-.57,.22-1.11,.49-1.62,.41-.64,1.07-.43,1.64-.43,8.05-.01,16.1-.01,24.15,0,.47,.01,.95-.04,1.32,.34,.08,.32,.17,.63,.25,.95-.2,.54,.44,.95,.23,1.5,.08,.12,.16,.24,.25,.36,.06,.51,.05,1.04,.45,1.45,.01,.17,.03,.34,.04,.51-.13,.14-.05,.38-.24,.5Z"/>
  <path class="cls-12" d="M27.81,48.1c.11,0,.23,0,.34-.01,.57,0,1.14,.07,1.69-.1,.51-.02,1.05,.08,1.49-.28,.42-.17,.86-.26,1.32-.32,.38-.01,.77,.04,1.1-.23,.56-.11,1.13-.21,1.69-.32,.55,1.04-.25,1.36-.92,1.75-.62-.11-1.16,.18-1.73,.34-.19,.03-.39,0-.58,.04,.21-.04,.43,0,.64-.04,.17-.05,.32-.02,.45,.1-.81,.63-1.73,.69-2.69,.49-.35-.3-.76,0-1.13-.09-.4-.05-.82,.12-1.19-.11-.15,.08-.31,.16-.46,.24-.7-.34-1.49,.07-2.19-.25-.53,.05-1.07,.22-1.6,0-.24,0-.49,0-.73-.07-.66-.14-1.36-.05-1.97-.4-.33,.15-.67,.15-1-.01-.36-.22-.91-.04-1.13-.54-.06-.32-.11-.63,.11-.91,.53-.32,.98,.18,1.48,.14,.78,.25,1.61,.2,2.39,.47,.36,.01,.72,0,1.08,.01,.62,.23,1.26,0,1.88,.12,.06,0,.12,0,.18,0,.49,.2,.99,.2,1.48,0Z"/>
  <path class="cls-12" d="M1,46.67c.11,.08,.22,.15,.33,.23,.33,.2,.77,.15,1.03,.49,.33,0,.65,0,.98,0,.72,.49,1.67,.2,2.38,.71,.34-.07,.68-.14,1.03-.21,.47,.4,1.03,.13,1.54,.2,.57,0,1.15,0,1.72,.01,.67-.04,1.34,.09,2-.11,.3-.04,.57-.23,.88-.21,.72,.03,1.43,.04,2.13-.2,.49-.15,1.08,0,1.49-.44,.15,0,.3,0,.45,0,.05,.04,.1,.08,.15,.12,.09,.37,.03,.74-.03,1.11-.5,.47-1.14,.4-1.75,.44-.13,.08-.27,.16-.4,.24-.36-.08-.73,.16-1.09,0-.22,.07-.43,.14-.65,.21-.38,.18-.8-.02-1.18,.15-.41-.05-.84,.12-1.23-.11-.81,.25-1.61,.13-2.42,0-.58,.25-1.19,.06-1.78,.12-.81-.2-1.64-.28-2.48-.31-.45,.02-.84-.15-1.22-.37-.5-.14-1.06-.14-1.42-.61-.2-.02-.4-.04-.6-.06-.18-.49-.35-.99,.16-1.4Z"/>
  <path d="M16.07,6.15c.06,0,.13-.01,.19-.01,.39-.3,.84-.23,1.28-.25h.11c1.06,.17,2.12,.14,3.18,.09,.58-.16,1.15-.08,1.73,.02,1.11-.08,2.21,.05,3.32-.02,1.48,0,2.97-.21,4.45,0,.21,.14,.28,.33,.23,.57-.06,.13-.16,.24-.29,.31-.62,.19-1.27,.08-1.89,.22-.14,.01-.28,0-.41-.02-.67-.06-1.33-.08-2-.09-.57,0-1.13,.02-1.69,.14-.17,.04-.35,.08-.52,.08-.45-.02-.9-.01-1.35,.01-.34-.01-.68,0-1.01,0-.28-.01-.55-.1-.83-.11-.33-.04-.65-.04-.98,.03-.16,.04-.32,.07-.49,.07-.34-.03-.67-.13-1.01-.15-.12-.01-.23-.02-.35-.03-.54-.06-1.09,0-1.62-.09-.12-.04-.22-.11-.3-.21-.14-.29-.04-.47,.26-.56Z"/>
  <path class="cls-6" d="M30.67,8.73c-7.76,.01-15.53,.02-23.29,.04-.87,0-1.75,.05-2.62,.07-.07-.1-.13-.21-.2-.31,.16-.17,.34-.3,.58-.33,8.21-.1,16.42-.04,24.64-.02,.27,0,.52,.02,.76,.15,.15,.1,.19,.23,.14,.39Z"/>
  <path d="M16.07,6.15c-.08,.14-.17,.28-.25,.42-.02,.06-.05,.11-.07,.17-.18,.2-.43,.21-.67,.26-.18,.05-.36,.05-.55,.02-.24-.02-.49-.04-.73-.04-.43,0-.85,0-1.28,.03-.37,.02-.72,.13-1.08,.17-.49-.04-.96-.18-1.45-.18-.25-.01-.5-.02-.75-.02-.44,0-.89,0-1.33,0-.39,0-.77,.02-1.16,.07-.33,.03-.66,.15-1,.09-.42-.25-1.29-.25-.63-1.11,2.7-.1,5.4-.06,8.1-.14h.11c.88,.3,1.84-.18,2.71,.25h.03Z"/>
  <path class="cls-31" d="M13.22,5.89c-.36,.37-.82,.23-1.25,.23-2.32,.02-4.64,.01-6.96,.02-.14,.11-.21,.36-.46,.22-.1-.42,.09-.59,.5-.58,2.72,.06,5.45-.16,8.17,.11Z"/>
  <path class="cls-13" d="M.89,37.61c-.01,.07-.02,.15-.03,.22-.1,.46-.13,.92,.01,1.38,0,2.41,0,4.82,0,7.23-.14,.13-.28,.13-.41,0v-.28c.14-1.5,.13-3,.01-4.5,0-1.02-.02-2.03,0-3.05,0-.38-.07-.81,.41-1.01Z"/>
  <path class="cls-21" d="M35.46,46.81c.02-1.57,.03-3.14,.05-4.71,.13-.15,0-.42,.24-.53,.24,1.46,.09,2.93,.09,4.4,0,.33-.08,.63-.37,.84Z"/>
  <path class="cls-64" d="M30.43,6.14c-1.52-.02-3.04-.03-4.56-.05-.19-.07-.19-.15-.01-.24,1.39-.03,2.78-.06,4.17-.09,.26,0,.47,.07,.56,.34-.03,.1-.08,.12-.16,.04Z"/>
  <path class="cls-18" d="M4.55,6.36c.15-.07,.31-.15,.46-.22-.06,.69,.75,.4,.93,.82,.05,.09,.06,.19,.02,.29-.14,.2-.38,.31-.48,.54-.03,.09-.06,.18-.08,.27-.07,.18-.22,.29-.34,.43-.17,.02-.34,.04-.51,.05,0-.73,0-1.45,0-2.18Z"/>
  <path class="cls-29" d="M.48,41.66c.28,1.5,.29,3-.01,4.5,0-1.5,0-3,.01-4.5Z"/>
  <path class="cls-58" d="M35.67,35.8c-.73-.69-.46-1.46-.19-2.24,.41,.72,.11,1.49,.19,2.24Z"/>
  <path class="cls-13" d="M16.94,47.16c.21-.61-.24-1.39,.5-1.85,.02,.79,.16,1.58-.19,2.34-.21-.1-.1-.33-.18-.48h-.06s-.06-.01-.06-.01Z"/>
  <path class="cls-45" d="M17.5,42.97c-.14-.77-.68-1.57,.19-2.25-.05,.75,.16,1.52-.19,2.25Z"/>
  <path class="cls-22" d="M34.26,21.51c-.16-.73-.53-1.41-.47-2.18,.07-.15,.22-.5,.3-.18,.19,.76,.54,1.55,.17,2.37Z"/>
  <path class="cls-10" d="M16.04,6.14c-.9-.15-1.84,.26-2.71-.25,.91,0,1.86-.47,2.71,.25Z"/>
  <path class="cls-16" d="M25.86,5.85c0,.08,0,.16,.01,.24-1.12,0-2.24,0-3.35,0-.09-.05-.12-.1-.1-.15,.03-.05,.06-.08,.09-.08,1.12-.14,2.23-.11,3.35,0Z"/>
  <path class="cls-2" d="M18.68,37.39c.39,.64,.13,1.34,.19,2.01-.69-.61-.5-1.3-.19-2.01Z"/>
  <path class="cls-51" d="M20.83,6.09c-1.06-.05-2.14,.28-3.17-.21,1.06-.18,2.11-.09,3.17-.03,.06,.05,.08,.11,.06,.16-.02,.05-.04,.08-.05,.08Z"/>
  <path class="cls-9" d="M18.93,42.23c.34,.55,.12,1.16,.19,1.73-.63-.52-.56-1.11-.19-1.73Z"/>
  <path class="cls-66" d="M35.44,31.26c-.38-.05-.41-.37-.49-.65-.32-.29-.29-.61-.07-.94,.12-.11,.24-.12,.37-.03,.35,.51,.13,1.08,.19,1.63Z"/>
  <path class="cls-31" d="M.47,46.44c.14,0,.28,0,.41,0,.04,.08,.08,.15,.12,.23-.05,.47-.11,.94-.16,1.4-.68-.42-.26-1.08-.37-1.63Z"/>
  <path class="cls-60" d="M1.15,32.53c-.03,.62,.09,1.25-.22,1.83,0-.62-.75-1.33,.22-1.83Z"/>
  <path class="cls-59" d="M3.08,15.48c-.09,.7-.18,1.4-.28,2.09-.06,.02-.13,.05-.19,.08-.07,.18-.14,.18-.21,0,.27-.71-.12-1.62,.68-2.17Z"/>
  <path class="cls-43" d="M20.83,6.09c0-.08,0-.16,0-.24,.56-.17,1.12-.15,1.68,0,0,.08,0,.15,0,.23-.56,0-1.12,0-1.69,0Z"/>
  <path class="cls-33" d="M1.34,28.65c-.01,.53,.18,1.09-.17,1.59-.45-.53-.27-1.04,.02-1.56,.05,0,.1-.02,.15-.03Z"/>
  <path class="cls-56" d="M21.33,48.84c.73-.08,1.41,.2,2.11,.28,.03,.21,0,.35-.26,.23-.64-.09-1.39,.23-1.85-.51Z"/>
  <path class="cls-11" d="M4.03,48.86c.79,.2,1.64,.12,2.4,.45,.17,.06,.17,.13,0,.2-.72-.07-1.44-.14-2.16-.21-.15,0-.26-.07-.33-.2-.02-.1,.01-.18,.09-.24Z"/>
  <path class="cls-47" d="M30.67,8.73c0-.07,0-.15,0-.22,.06-.32,.41-.48,.43-.82,.06-.09,.14-.16,.23-.21,.11-.02,.2,0,.28,.08,.08,.4,.16,.79,.25,1.19-.4,0-.8-.01-1.19-.02Z"/>
  <path class="cls-5" d="M17.71,37.89c-.29-.58-.5-1.14,.25-1.55-.03,.53,.03,1.07-.25,1.55Z"/>
  <path class="cls-28" d="M18.21,34.22l-.04,.69c-.23,.09-.21,.29-.22,.48-.44-.56-.34-1.12-.01-1.68,.42,0,.41,.23,.28,.52Z"/>
  <path class="cls-54" d="M35.5,38.99c.06-.87-.33-1.78,.2-2.62,0,.87-.01,1.75-.02,2.62-.03,.05-.06,.1-.09,.16-.03-.05-.06-.11-.09-.16Z"/>
  <path class="cls-31" d="M33.36,15.91c.56,.73,.49,1.26,.42,1.79-.33-.45-.31-.97-.42-1.79Z"/>
  <path class="cls-10" d="M15.31,48.83c.56-.16,1.12-.33,1.68-.49,.11,.05,.17,.12,.2,.23-.6,.29-1.19,.63-1.88,.26Z"/>
  <path class="cls-5" d="M33.3,49.03c-.16,0-.32,.01-.48,.02-.17-.08-.17-.16,0-.24,.55-.19,1.07-.68,1.7-.21-.41,.15-.82,.29-1.23,.44Z"/>
  <path class="cls-8" d="M2.1,21c.08,.68,0,1.33-.44,1.93,.08-.64,.16-1.29,.24-1.93,.06-.17,.13-.17,.19,0Z"/>
  <path class="cls-58" d="M34.96,26.76c.3,.36,.28,.79,.23,1.22-.12,.09-.25,.11-.39,.08-.54-.33-.57-.75-.22-1.24,.11-.11,.24-.12,.38-.05Z"/>
  <path class="cls-1" d="M33.03,13.01c-.71-.31-.59-.88-.45-1.45,.35,.42,.33,.96,.45,1.45Z"/>
  <path class="cls-31" d="M3.52,13.79c-.07,.09-.14,.17-.2,.26-.39-.62-.02-1.15,.2-1.7,.09-.18,.17-.17,.24,.01,.01,.08,.02,.16,.03,.24-.02,.41,.22,.88-.27,1.18Z"/>
  <path class="cls-29" d="M1.64,26.03c-.02,.42,0,.84-.23,1.22-.03,.06-.06,.13-.09,.19l-.11-.18c.01-.46-.2-.99,.44-1.23Z"/>
  <path class="cls-62" d="M32.84,14.02c.02-.19,0-.4,.24-.5,.27,.49,.33,1.01,.3,1.6-.53-.24-.21-.83-.54-1.1Z"/>
  <path class="cls-49" d="M34.75,24.36c.23,.38,.26,.79,.2,1.21-.11,.07-.23,.08-.35,.01-.43-.35-.19-.79-.18-1.2,.1-.1,.21-.11,.32-.02Z"/>
  <path class="cls-44" d="M20.83,47.62c-.46-.07-.93-.14-1.39-.2-.18,.12-.35,.12-.5-.03,.07-.11,.14-.22,.22-.34,.56,.12,1.12,.24,1.68,.36,.09,.05,.12,.09,.09,.14-.03,.05-.06,.07-.09,.07Z"/>
  <path class="cls-43" d="M17.55,5.89c-.37,.39-.85,.19-1.28,.25,.32-.64,.81-.38,1.28-.25Z"/>
  <path class="cls-44" d="M25.63,49.31c.73,.1,1.51-.23,2.19,.25-.74,0-1.52,.32-2.19-.25Z"/>
  <path d="M30.43,6.14s.1-.05,.16-.04c.27,.02,.54,.04,.82,.07,.13,.2,.12,.39-.06,.57-.35,.21-.67,.2-.92-.16v-.44Z"/>
  <path class="cls-12" d="M4.04,49.07c.08,.08,.16,.15,.24,.23-.43,.1-.89,.39-1.2-.21,.31-.24,.64-.19,.96-.02Z"/>
  <path class="cls-61" d="M18.93,47.38c.17,.01,.34,.02,.5,.03-.03,.32-.06,.64-.1,.96-.01,.09-.06,.13-.15,.13-.37-.31-.21-.74-.26-1.13Z"/>
  <path class="cls-65" d="M2.1,21c-.06,0-.13,0-.19,0,.09-.64,.17-1.28,.26-1.91,.06-.08,.12-.08,.18,0,.09,.66-.02,1.3-.25,1.92Z"/>
  <path class="cls-62" d="M32.34,11.2c-.17-.48-.58-.93-.23-1.5,.18,.48,.59,.93,.23,1.5Z"/>
  <path class="cls-34" d="M18.43,35.11c.46,.52,.18,1.14,.24,1.72-.43-.53-.24-1.14-.24-1.72Z"/>
  <path class="cls-53" d="M17.71,40.19c-.41-.65-.36-1.3,0-1.94,0,.65,0,1.3,0,1.94Z"/>
  <path class="cls-32" d="M35.74,41.57c-.08,.18-.16,.35-.24,.53,0-.64,0-1.27,0-1.91,.07-.17,.14-.17,.2,0,.01,.46,.03,.92,.04,1.38Z"/>
  <path class="cls-6" d="M1.44,48.13c.47,.16,.93,.32,1.4,.49,.07,.09,.07,.17-.02,.25-.49-.19-1.2,.04-1.38-.73Z"/>
  <path class="cls-47" d="M2.35,19.08c-.06,0-.12,0-.18,0,.08-.48,.16-.96,.23-1.44,.07,0,.14,0,.21,0,.02,.5,.07,1-.26,1.43Z"/>
  <path class="cls-3" d="M6.44,49.51c0-.07,0-.13,0-.2,.64,0,1.27,0,1.91,0-.58,.55-1.27,.15-1.9,.2Z"/>
  <path class="cls-57" d="M1.88,23.88c-.08,.41-.16,.82-.24,1.23-.37-.5-.38-.92,.24-1.23Z"/>
  <path class="cls-45" d="M34.3,23.34c.04-.35-.16-.75,.22-1.02,.25,.25,.25,.55,.19,.87-.08,.11-.11,.26-.26,.31-.11,0-.16-.05-.15-.16Z"/>
  <path class="cls-24" d="M34.96,27.96c.08,0,.16,.01,.23,.02,.02,.55,.04,1.11,.06,1.66-.08,0-.16,0-.24-.01-.71-.53-.63-1.09-.05-1.66Z"/>
  <path class="cls-54" d="M17.47,44.98c-.41-.56-.38-1.11,0-1.67,0,.56,0,1.11,0,1.67Z"/>
  <path class="cls-42" d="M19.19,48.51c.05-.04,.1-.08,.15-.14,.3,.22,.78,.03,1,.45-.42,.03-.87,.17-1.14-.32Z"/>
  <path class="cls-14" d="M2.82,48.86l.02-.25c.4,.08,.8,.16,1.19,.24,0,.07,0,.14,0,.21-.32,0-.64,.01-.96,.02-.09-.08-.17-.15-.26-.23Z"/>
  <path class="cls-30" d="M13.82,49.06c.36-.1,.73-.4,1.09,0-.37,.25-.73,.42-1.09,0Z"/>
  <path class="cls-66" d="M12.19,49.29c.32-.33,.65-.1,.98-.01-.29,.25-.63,.32-1,.24-.18-.09-.18-.17,.02-.23Z"/>
  <path class="cls-59" d="M29.7,49.32c.27-.07,.53-.18,.8-.2,.51-.03,.22,.22,.1,.39-.3,0-.61,0-.91-.01-.16-.07-.16-.13,0-.18Z"/>
  <path class="cls-46" d="M1.2,27.25c.07,0,.14,0,.21-.01-.02,.47-.04,.94-.06,1.41-.05,0-.1,0-.15,.03,0-.47,0-.95,0-1.42Z"/>
  <path class="cls-48" d="M17.19,48.57c-.07-.08-.14-.16-.2-.23,.03-.39,.06-.78,.08-1.17,.06,.16,.12,.32,.18,.48-.02,.31-.04,.62-.06,.92Z"/>
  <path class="cls-4" d="M18.91,39.72v1.43c-.38-.47-.4-.95,0-1.43Z"/>
  <path class="cls-4" d="M29.7,49.32c0,.06,0,.12,0,.18-.48-.03-1,.29-1.41-.19,.47,0,.95,0,1.42,.01Z"/>
  <path class="cls-25" d="M31.39,6.62c0-.15,0-.3,0-.45,.52,.4,.21,.92,.22,1.4-.06,0-.12,0-.17,.01-.2-.09-.28-.25-.3-.45,.01-.2,.11-.36,.25-.51Z"/>
  <path class="cls-20" d="M12.19,49.29c0,.08-.01,.15-.02,.23-.47-.06-1,.29-1.41-.21,.48,0,.95-.02,1.43-.02Z"/>
  <path class="cls-55" d="M35.56,18.3c.04,.06,.11,.1,.11,.15,0,.06-.04,.13-.06,.2-.04-.04-.11-.09-.11-.14,0-.06,.03-.13,.06-.21Z"/>
  <path class="cls-6" d="M3.76,12.37c-.08,0-.16,0-.24-.01,0-.34-.02-.69,.25-.96,.09-.17,.16-.17,.24,0-.08,.32-.16,.64-.24,.96Z"/>
  <path class="cls-54" d="M35.47,33c-.35-.39-.41-.79,0-1.19,0,.4,0,.79,0,1.19Z"/>
  <path class="cls-38" d="M34.74,25.56c.07,0,.14,0,.21,.01,0,.4,0,.79,0,1.19-.05-.02-.11-.03-.16-.03-.41-.37-.45-.76-.06-1.18Z"/>
  <path class="cls-50" d="M34.48,23.43c.08-.08,.16-.16,.24-.24,.01,.39,.02,.78,.04,1.17-.07,0-.14-.01-.21,0-.34-.29-.23-.6-.06-.92Z"/>
  <path class="cls-52" d="M4,11.41c-.08,0-.16,0-.24,0,.03-.39-.08-.85,.51-.93-.09,.31-.18,.63-.27,.94Z"/>
  <path class="cls-28" d="M19.15,45c0,.39,0,.79,0,1.18-.36-.39-.39-.79,0-1.18Z"/>
  <path class="cls-9" d="M23.18,49.35c.09-.08,.18-.16,.26-.23,.2,.06,.39,.13,.59,.19-.27,.31-.56,.2-.85,.04Z"/>
  <path class="cls-15" d="M3.89,6.64c-.04,.05-.07,.1-.11,.15-.04-.05-.11-.1-.13-.16,0-.04,.06-.1,.1-.15,.05,.05,.09,.11,.14,.16Z"/>
  <path class="cls-3" d="M35.7,40.19c-.07,0-.13,0-.2,0,0-.4,0-.8,0-1.2,.06,0,.12,0,.18,0,0,.4,.01,.8,.02,1.2Z"/>
  <path class="cls-26" d="M34.48,23.43c.02,.31,.04,.61,.06,.92-.05,.42,0,.83,.2,1.21,.02,.39,.04,.78,.06,1.18-.04,.42-.11,.85,.16,1.22,.02,.55,.03,1.11,.05,1.66-.02,.33-.04,.66-.06,.99-.68,.41-1.14,.34-.86-.56,.12-.39,.09-.7-.03-1.02-.7-1.93,.23-3.79,.23-5.68,.06,.03,.12,.06,.18,.09Z"/>
  <path class="cls-26" d="M3.52,13.79c.06-.4,0-.83,.27-1.18q.95,.92,.77,1.95c-.37-.27-.7-.52-1.04-.77Z"/>
  <path class="cls-37" d="M17.98,30.36v-1.89c.52,.57,.44,1.23,.42,1.89-.14,.14-.28,.14-.42,0Z"/>
  <path class="cls-63" d="M18.21,34.22c-.09-.17-.18-.35-.28-.52,0-.23,0-.46-.01-.69,.03-.19,.03-.39,.19-.53,.09-.04,.18-.03,.26,.03,.21,.6,.65,1.21-.16,1.71Z"/>
  <path class="cls-27" d="M11.98,48.15c-.67,.32-1.33,.22-1.98-.04,.56-.25,1.15-.25,1.74-.2,.09,.07,.25,.06,.24,.23Z"/>
  <path class="cls-56" d="M20.83,47.62c0-.07,0-.14,0-.21,.81,.14,1.65,.12,2.41,.5,0,.05,0,.11,0,.16-.81-.11-1.64-.11-2.41-.45Z"/>
  <path class="cls-26" d="M31.15,47.61c.64-.63,1.41-.64,2.21-.44,0,.36-.28,.32-.51,.34-.45,.15-.9,.31-1.4,.24-.13,0-.23-.04-.31-.14Z"/>
  <path class="cls-66" d="M26.15,48.11c-.57,.07-1.14,.49-1.72,0-.19-.05-.2-.11-.02-.2,.59-.06,1.18-.08,1.74,.2Z"/>
  <path class="cls-45" d="M8.28,48.1c-.55,.23-1.12,.54-1.54-.2,.52,.03,1.06-.14,1.54,.2Z"/>
  <path class="cls-7" d="M5.71,48.11c-.79-.24-1.73,0-2.38-.71,.77,.3,1.76-.1,2.38,.71Z"/>
  <path class="cls-34" d="M18.38,32.51s-.09-.07-.14-.09c-.51-.26-.12-.76-.3-1.1,.01-.32,.02-.64,.03-.96,.14,0,.28,0,.42,0,.05,.72,.13,1.43-.02,2.15Z"/>
  <path class="cls-39" d="M17.94,31.32c.26,.32,.27,.72,.3,1.1-.11,.2-.21,.39-.32,.59-.38-.57-.16-1.13,.02-1.69Z"/>
  <path class="cls-32" d="M31.15,47.61c.08,.02,.16,.04,.25,.07,.06,.03,.12,.07,.17,.1l-.18,.09c-.5,.35-1.08,.25-1.64,.28-.23,.05-.51,.22-.49-.23,.62-.13,1.29,.02,1.89-.3Z"/>
  <path class="cls-33" d="M29.26,47.91c.16,.08,.33,.16,.49,.23-.54,.22-1.08,.34-1.6-.06,.34-.27,.73-.21,1.11-.18Z"/>
  <path class="cls-8" d="M15.11,47.64c-.68,.39-1.46,.32-2.2,.43-.05-.05-.08-.11-.07-.17,0-.06,.02-.09,.04-.09,.16-.17,.39-.05,.57-.15,.44-.02,.88-.04,1.33-.06,.13-.1,.24-.08,.34,.04Z"/>
  <path class="cls-19" d="M15.11,47.64c-.11-.01-.23-.03-.34-.04,.52-.35,1.18-.2,1.72-.45-.27,.72-.88,.45-1.39,.49Z"/>
  <path class="cls-26" d="M13.44,47.66c-.18,.08-.36,.15-.53,.23-.25,.13-.5,.19-.72-.06,.36-.46,.8-.4,1.25-.17Z"/>
  <path class="cls-26" d="M23.04,47.1h-1.21c.42-.22,.64-.22,1.21,0Z"/>
  <path class="cls-7" d="M.88,39.21c-.23-.46-.23-.92-.01-1.38,0,.46,0,.92,.01,1.38Z"/>
  <path class="cls-39" d="M2.35,47.39c-.35-.14-.8-.08-1.03-.49,.45-.06,.89-.1,1.03,.49Z"/>
  <path class="cls-17" d="M27.81,48.1c-.49,.39-.99,.38-1.48,0,.49,0,.99,0,1.48,0Z"/>
  <path class="cls-3" d="M24.41,47.91c0,.07,0,.14,.02,.2-.4-.02-.79-.03-1.19-.05,0-.05,0-.11,0-.16,.39,0,.78,0,1.17,0Z"/>
  <path class="cls-17" d="M32.83,47.42c.18-.08,.36-.16,.53-.24,.13,0,.26,0,.39-.01-.16,.45-.53,.48-.93,.45-.09-.04-.11-.08-.09-.13,.03-.04,.06-.06,.09-.06Z"/>
  <path class="cls-26" d="M4.83,46.55c-.07,.03-.13,.09-.19,.09-.06,0-.12-.06-.18-.09,.06-.03,.12-.09,.18-.09,.06,0,.12,.05,.19,.09Z"/>
  <path class="cls-26" d="M4.9,12.56c-.02,.07-.05,.13-.07,.19-.05-.05-.13-.08-.15-.14-.02-.05,.04-.12,.06-.18,.05,.04,.11,.09,.16,.13Z"/>
  <path class="cls-40" d="M12.19,47.83c.24,.02,.48,.04,.72,.06,0,.06,0,.13,0,.19-.31,.02-.62,.05-.93,.07-.08-.08-.16-.16-.24-.23,.15-.03,.3-.06,.45-.09Z"/>
  <path class="cls-8" d="M32.82,48.8v.24c-.5,0-.96,.38-1.52,.13,.5-.29,1-.37,1.52-.37Z"/>
  <path class="cls-41" d="M32.83,47.42c0,.06,0,.13,0,.19-.45,.24-.93,.32-1.44,.26,0-.06,0-.13,0-.19,.48-.09,.96-.17,1.43-.26Z"/>
  <path d="M31.39,7.09c.02,.17,.03,.33,.05,.5l-.1-.03c-.22,.31-.43,.62-.87,.61-5.02-.32-10.04-.3-15.06,0-.15-.01-.3-.02-.45,0-2.96,.03-5.9-.39-8.86-.25-.4,.02-.8-.03-1.08-.37,.02-.64,.58-.44,.92-.58,.38-.16,.78-.11,1.17-.12,.26,0,.53,0,.79,0h1.19c.46,0,.92,0,1.39,0,.33-.02,.65,.04,.97,.08,.37-.11,.75-.08,1.12-.08,.3,0,.59,0,.89,0,.38-.03,.8,.1,1.12-.23h.53c.23,.23,.46,.23,.68,0,0,0,.03-.04,.03-.04,.08,.02,.16,.03,.24,.05,.63,.24,1.25,.26,1.88,0,.11,0,.22,.02,.33,.03,.27,.22,.57,.34,.91,.15,.09-.05,.18-.11,.27-.16,.34,.37,.75,.14,1.14,.13,.24,.09,.5,.09,.75,.09,.4,0,.81,0,1.21,0,.39-.14,.8,.2,1.18-.03,.08-.07,.15-.13,.23-.2,.71,.44,1.5,.16,2.25,.24,.59-.18,1.24,.13,1.81-.23,.09,0,.18,0,.26,0,.71,.4,1.47,.12,2.2,.14,.32,.07,.66,.06,.91,.33Z"/>
  <path class="cls-13" d="M26.34,7.02c-.8-.1-1.71,.42-2.38-.4,.65,.02,1.3,.04,1.95,.06,.16,.09,.47,0,.43,.34Z"/>
  <path class="cls-1" d="M30.46,6.88c-.74,.06-1.54,.51-2.18-.26,.64,.02,1.29,.03,1.93,.05,.12,.03,.2,.1,.24,.21Z"/>
  <path class="cls-1" d="M26.34,7.02c-.14-.11-.29-.23-.43-.34,.7-.02,1.41-.04,2.11-.06-.4,.81-1.13,.2-1.67,.4Z"/>
  <path class="cls-57" d="M17.93,6.62c-.62,.55-1.25,.65-1.88,0,.63,0,1.25,0,1.88,0Z"/>
  <path class="cls-27" d="M20.57,6.9c-.43,.11-.9,.45-1.13-.27,.39,0,.77,0,1.16,0,.07,.1,.06,.18-.03,.26Z"/>
  <path class="cls-19" d="M30.46,6.88c-.08-.07-.16-.14-.24-.21,.07-.03,.14-.06,.21-.09,.32,.01,.64,.03,.97,.04,0,.16,0,.31,0,.47-.31-.07-.62-.14-.93-.21Z"/>
  <path class="cls-33" d="M23.73,6.81c-.38,.35-.78,.32-1.18,.03,.38-.48,.79-.08,1.18-.03Z"/>
  <path class="cls-66" d="M19.17,6.79c-.36,.33-.7,.45-.91-.15,.3,.05,.61,.1,.91,.15Z"/>
  <path class="cls-35" d="M20.57,6.9c0-.09,.02-.18,.03-.26,.26,0,.54-.02,.74,.21-.23,.3-.49,.22-.76,.05Z"/>
  <path d="M15.04,7.8c.1,0,.2,0,.3,0,.38-.2,.78-.11,1.18-.11,4.31,0,8.62,0,12.93,0,.39,0,.8-.09,1.18,.1,.24-.08,.48-.16,.73-.24,.15,.59-.03,.94-.68,.96-7.74-.02-15.47-.03-23.21-.05-.8,0-1.6,.01-2.39,.02-.02-.22-.04-.44-.05-.66,1.09-.29,2.19-.13,3.29-.12,2.25,.02,4.5-.15,6.74,.09Z"/>
  <path class="cls-7" d="M9.08,7c-.4-.02-.79-.05-1.19-.07-.06-.05-.08-.11-.06-.17,.02-.06,.03-.09,.05-.09,.47,0,.94-.02,1.42-.02,.08,.21-.02,.31-.22,.35Z"/>
  <path class="cls-39" d="M13.64,7.04c-.33-.03-.65-.06-.98-.1-.2,0-.27-.08-.2-.28,.47,0,.93-.02,1.4-.03,.14,.25-.06,.32-.22,.4Z"/>
  <path class="cls-36" d="M9.08,7l.22-.35c.25,0,.5,0,.76,0,.11,.13,.4,0,.39,.28-.45,.14-.91,.16-1.37,.07Z"/>
  <path class="cls-39" d="M10.44,6.93c-.13-.09-.26-.19-.39-.28,.51-.06,1.01-.09,1.4,.32v-.02c-.34,.07-.68,.11-1.01-.02Z"/>
  <path class="cls-27" d="M11.45,6.95s0,.02,0,.02c.26-.37,.63-.34,1.01-.3,.07,.09,.13,.18,.2,.28-.4,.12-.81,.17-1.21,0Z"/>
  <path class="cls-21" d="M7.88,6.67c0,.08,0,.17,0,.25-.25,.02-.49,.04-.74,.06-.18-.06-.55,.12-.44-.33,.39,0,.78,.01,1.17,.02Z"/>
  <path class="cls-23" d="M6.71,6.66c.15,.11,.29,.22,.44,.33-.4,.09-.81,.14-1.21-.01,0,0,0,0,0,0,.18-.29,.46-.34,.76-.3Z"/>
  <path class="cls-35" d="M13.64,7.04c.07-.13,.15-.27,.22-.4,.24,0,.48-.02,.72-.03-.09,.63-.58,.38-.94,.43Z"/>
  <path class="cls-67" d="M15.79,6.62c-.02,.25-.14,.42-.41,.41-.24-.01-.27-.2-.27-.4,.23,0,.45,0,.68-.01Z"/>
  <path class="cls-28" d="M15.04,7.8l-10.03,.03c0-.09,0-.18,0-.27,2.98,0,5.95,.01,8.93,.04,.36,0,.8-.23,1.09,.21Z"/>
  <path class="cls-28" d="M30.62,7.79H15.34c.16-.33,.47-.23,.73-.23,4.56,0,9.13,0,13.69,0,.29,0,.65-.13,.86,.22Z"/>
</svg>