<?xml version="1.0" encoding="utf-8"?>
<!-- Generator: Adobe Illustrator 27.0.1, SVG Export Plug-In . SVG Version: 6.00 Build 0)  -->
<svg version="1.1" id="Шар_1" xmlns="http://www.w3.org/2000/svg" xmlns:xlink="http://www.w3.org/1999/xlink" x="0px" y="0px"
	 viewBox="0 0 199.98 200.66" style="enable-background:new 0 0 199.98 200.66;" xml:space="preserve">
<style type="text/css">
	.st0{fill:#08090B;}
	.st1{fill:#2F2F30;}
	.st2{fill:#563017;}
	.st3{fill:#21150F;}
	.st4{fill:#7A7A7A;}
	.st5{fill:#6E6E6E;}
	.st6{fill:#7D7D7D;}
	.st7{fill:#646464;}
	.st8{fill:#707070;}
	.st9{fill:#8D8D8E;}
	.st10{fill:#787878;}
	.st11{fill:#616161;}
	.st12{fill:#4F4F4F;}
	.st13{fill:#808080;}
	.st14{fill:#5D5D5D;}
	.st15{fill:#6A6A6A;}
	.st16{fill:#767676;}
	.st17{fill:#545454;}
	.st18{fill:#666666;}
	.st19{fill:#565656;}
	.st20{fill:#3F3F3F;}
	.st21{fill:#6F6F6F;}
	.st22{fill:#080606;}
	.st23{fill:#7C7C7C;}
	.st24{fill:#4A4A4A;}
	.st25{fill:#5F5F5F;}
	.st26{fill:#4E4E4E;}
	.st27{fill:#20130B;}
	.st28{fill:#4D4D4D;}
	.st29{fill:#5C5C5C;}
	.st30{fill:#494949;}
	.st31{fill:#3F281C;}
	.st32{fill:#505050;}
	.st33{fill:#4C4C4C;}
	.st34{fill:#595959;}
	.st35{fill:#606060;}
	.st36{fill:#585858;}
	.st37{fill:#555555;}
	.st38{fill:#3A2C27;}
	.st39{fill:#F4F4F4;}
	.st40{fill:#070000;}
	.st41{fill:#040202;}
	.st42{fill:#79797A;}
	.st43{fill:#575757;}
	.st44{fill:#572A0C;}
	.st45{fill:#EB7525;}
	.st46{fill:#F5F5F5;}
	.st47{fill:#797979;}
	.st48{fill:#151414;}
	.st49{fill:#7F7F7F;}
	.st50{fill:#636363;}
	.st51{fill:#F1F1F1;}
	.st52{fill:#313131;}
	.st53{fill:#EAEAEA;}
	.st54{fill:#5E5E5E;}
	.st55{fill:#59595A;}
	.st56{fill:#535353;}
	.st57{fill:#F2F2F2;}
	.st58{fill:#5B5B5B;}
	.st59{fill:#030202;}
	.st60{fill:#6B6B6B;}
	.st61{fill:#464646;}
	.st62{fill:#F3F3F3;}
	.st63{fill:#4B4B4B;}
	.st64{fill:#7E7E7E;}
	.st65{fill:#484848;}
	.st66{fill:#737373;}
	.st67{fill:#474747;}
	.st68{fill:#383838;}
	.st69{fill:#515151;}
	.st70{fill:#1E1E1E;}
	.st71{fill:#545455;}
	.st72{fill:#F97C26;}
	.st73{fill:#130A04;}
	.st74{fill:#FD7E27;}
	.st75{fill:#3D0F09;}
	.st76{fill:#723611;}
	.st77{fill:#E0E0E1;}
	.st78{fill:#E5E5E5;}
	.st79{fill:#CBCBCB;}
	.st80{fill:#852224;}
	.st81{fill:#2F1607;}
	.st82{fill:#280905;}
	.st83{fill:#424242;}
	.st84{fill:#757575;}
	.st85{fill:#404040;}
	.st86{fill:#762629;}
	.st87{fill:#161211;}
	.st88{fill:#212022;}
	.st89{fill:#676767;}
	.st90{fill:#D56A21;}
	.st91{fill:#878787;}
	.st92{fill:#3A1D0A;}
	.st93{fill:#F57A26;}
	.st94{fill:#434343;}
	.st95{fill:#741C26;}
	.st96{fill:#702A2C;}
	.st97{fill:#932E33;}
	.st98{fill:#A84E52;}
	.st99{fill:#8B242A;}
	.st100{fill:#EFEFEF;}
	.st101{fill:#EDEDED;}
	.st102{fill:#65310F;}
	.st103{fill:#431F09;}
	.st104{fill:#361A08;}
	.st105{fill:#733811;}
	.st106{fill:#46210A;}
	.st107{fill:#321908;}
	.st108{fill:#422009;}
	.st109{fill:#0B0504;}
	.st110{fill:#241206;}
	.st111{fill:#4C250C;}
	.st112{fill:#FE7E27;}
	.st113{fill:#331807;}
	.st114{fill:#251912;}
	.st115{fill:#5A2C0E;}
	.st116{fill:#61300F;}
	.st117{fill:#5D2D0D;}
	.st118{fill:#3E1D09;}
	.st119{fill:#0E0C0A;}
	.st120{fill:#060000;}
	.st121{fill:#3E1E09;}
	.st122{fill:#311606;}
	.st123{fill:#35251B;}
	.st124{fill:#3A1A07;}
	.st125{fill:#351908;}
	.st126{fill:#3A1C09;}
	.st127{fill:#391A08;}
	.st128{fill:#3D0F0A;}
	.st129{fill:#311C10;}
	.st130{fill:#411B08;}
	.st131{fill:#EB1B24;}
	.st132{fill:#270101;}
	.st133{fill:#170000;}
	.st134{fill:#252525;}
	.st135{fill:#E51C23;}
	.st136{fill:#E11E26;}
	.st137{fill:#C6232A;}
	.st138{fill:#F77B26;}
	.st139{fill:#67320F;}
	.st140{fill:#090202;}
	.st141{fill:#84272A;}
	.st142{fill:#43160E;}
	.st143{fill:#DE1F27;}
	.st144{fill:#872729;}
	.st145{fill:#714143;}
	.st146{fill:#603737;}
	.st147{fill:#974446;}
	.st148{fill:#B56166;}
	.st149{fill:#B53035;}
	.st150{fill:#717171;}
	.st151{fill:#602D30;}
	.st152{fill:#7B4649;}
	.st153{fill:#9B3C41;}
	.st154{fill:#9A282D;}
	.st155{fill:#59494A;}
	.st156{fill:#DC1D26;}
	.st157{fill:#CE262C;}
	.st158{fill:#C46267;}
	.st159{fill:#882623;}
	.st160{fill:#232323;}
	.st161{fill:#150303;}
	.st162{fill:#821E23;}
	.st163{fill:#221913;}
	.st164{fill:#78817E;}
	.st165{fill:#180704;}
	.st166{fill:#6F4E50;}
	.st167{fill:#250B05;}
	.st168{fill:#231E1C;}
	.st169{fill:#EC1B24;}
	.st170{fill:#A72428;}
	.st171{fill:#ED1925;}
	.st172{fill:#1D0605;}
	.st173{fill:#48220A;}
	.st174{fill:#100804;}
	.st175{fill:#AD3539;}
	.st176{fill:#926468;}
	.st177{fill:#E61C24;}
	.st178{fill:#F01921;}
</style>
<g>
	<path class="st0" d="M52.19,127.66c-1.82-0.15-3.63-0.41-5.45-0.42c-14.23-0.03-28.45-0.07-42.68,0.03
		c-2.77,0.02-4.1-0.45-4.1-3.52C0.08,83.78,0.06,43.8,0,3.83c0-2.38,0.66-3.51,3.34-3.28C5.01,0.7,6.7,0.58,8.39,0.58
		c57.21,0,114.42,0.05,171.62-0.09c4.26-0.01,5.7,1.08,5.23,5.03c-0.33,2.71,0.1,5.49-0.08,8.22c-0.3,4.41-0.06,8.58,3.93,11.68
		c-0.21,0.99-0.04,2.09-1.02,2.83c-2.1,0.04-1.81-2.12-3.03-2.91c-1.15-1.15-2.33-2.28-2.09-4.07c0.29-4.72,0.09-9.44,0.13-14.15
		c0.01-1.43,0.12-2.93-1.73-3.59c-1.53-0.22-3.07-0.13-4.59-0.13c-55.82,0-111.64,0-167.46,0c-6.38,0-6.39,0.01-6.39,6.21
		c0,36.79,0,73.58,0,110.36c-0.55,3.51,1.01,4.86,4.82,4.82c12.52-0.13,25.04-0.04,37.56-0.05c1.22,0,2.55,0.08,3.55-0.61
		c1.79-1.24,3.16-1.14,4.77,0.37c1.84,1.73,4.33,1.13,6.55,0.89c1.81-0.19,3.6-0.62,5.43-0.62c1.23,0.13,2.27-0.54,3.41-0.79
		c3.99,0.94,7.98,1.64,12.14,1.02c1.96-0.29,3.95-0.01,5.61,1.26c0.38,0.33,0.52,0.73,0.44,1.2c-0.38,0.62-0.98,0.92-1.7,1.06
		c-0.68,0.1-1.35,0.05-2.02-0.09c-1.69-0.54-3.35-0.19-5.01,0.21c-0.66,0.12-1.32,0.18-1.99,0.2c-2.04,0.06-4.07,0.01-6.1,0.05
		c-1.07-0.01-2.14,0.21-3.21,0.13c-1.87-0.83-3.79-0.98-5.77-0.36c-0.42,0.07-0.84,0.1-1.27,0.12c-0.44,0.04-0.88,0.04-1.32,0.05
		c-1.59-0.04-3.18,0.11-4.75-0.22C53.35,128.37,52.71,128.12,52.19,127.66z"/>
	<path class="st1" d="M122.73,127.78c-2.06-0.59-4.13-0.55-6.19,0.01c-0.46,0.29-0.94,0.54-1.44,0.76
		c-2.74,0.47-5.48,0.89-8.01-0.73c-0.2-0.55-0.07-1.01,0.41-1.38c5.39-0.37,10.5-3.94,16.22-1.15c1.29,0.63,3.03,0.35,4.54,0.2
		c16.33-1.64,32.7-0.49,49.05-0.81c6.27-0.12,6.49-0.26,6.55-6.04c0.14-12.69-0.28-25.39,0.21-38.09c0.34-0.99,0.45-2.18,1.99-2.18
		c0.06,15.27,0.05,30.53,0.24,45.8c0.04,2.89-1.31,3.27-3.85,3.25c-14.97-0.07-29.93-0.04-44.9-0.02c-1.81,0-3.67-0.3-5.42,0.46
		c-0.65,0.38-1.31,0.74-2.07,0.88c-1.77,0.19-3.54,0.22-5.31,0C123.99,128.6,123.35,128.2,122.73,127.78z"/>
	<path class="st2" d="M197.17,35.91c3.84,9.13,3.5,18.33,0.5,27.56c-0.43,1.33-0.8,2.76-2.19,3.59c-0.63,0.51-1.07,1.53-2.2,0.74
		c-0.9-3,1.28-5.23,2.14-7.8c0.99-1.87,0.42-3.97,0.95-5.91c0.12-0.37,0.29-0.72,0.51-1.05c0.96-1.89,0.16-3.61-0.61-5.33
		c-0.57-0.84-0.92-1.76-1.11-2.73c-0.15-0.78-0.31-1.56,0.12-2.31c2.8-1.21,0.81-2.65,0.19-4.02c-0.54-0.97-0.96-1.94-0.17-2.98
		C195.97,35.33,196.6,35.41,197.17,35.91z"/>
	<path class="st3" d="M193.32,67.79c0.72-0.24,1.43-0.48,2.15-0.72c-1.8,4.75-6.05,7.69-9.4,11.3c-0.73,0.38-0.79,1.06-0.88,1.73
		c-1.38,0.39-2.77,0.88-3.98-0.37c-0.09-0.41-0.06-0.8,0.08-1.2c3.95-2.68,3.56-7.39,5.73-10.9c0.61-0.41,1.29-0.61,2.02-0.71
		C190.55,66.81,192.07,66.73,193.32,67.79z"/>
	<path class="st4" d="M122.73,127.78c0.68,0.01,1.35,0.03,2.03,0.04c2.15,2.86,0.52,6.26,1.46,9.29c0.26,0.61,0.64,1.21,0.29,1.9
		c0.07,0.98-0.07,1.89-0.93,2.57c-0.85-0.39-1.92-0.44-2.45-1.35c-0.8-1.24,0.44-2.64-0.35-3.87
		C122.76,133.5,122.74,130.64,122.73,127.78z"/>
	<path class="st5" d="M61.38,127.8c0.25,4.89,0.51,9.77,0.76,14.66c-0.66,0.51-1.34,0.5-2.02,0.04c-0.24-0.23-0.48-0.46-0.73-0.69
		c-0.47-0.85-0.76-1.73-0.7-2.7c0.42-1.61,0.46-3.25,0.42-4.9c0.17-2.17-0.53-4.49,1.24-6.37C60.69,127.82,61.03,127.81,61.38,127.8
		z"/>
	<path class="st6" d="M67.22,187.45c2.58,3.44,0.1,7.54,1.62,11.12c-0.06,0.64-0.67,0.73-1.1,1.01
		C65.82,195.6,66.88,191.51,67.22,187.45z"/>
	<path class="st7" d="M120.11,160.72c0.41,3.77-1.01,7.38-1.09,11.11c-2.17-0.24-1.69-1.93-1.99-3.2c0.04-2.22-0.1-4.44-0.41-6.64
		c-0.01-0.45,0.08-0.88,0.24-1.3c0.77-1.07,1.22-2.42,2.75-2.83C120.96,158.62,120.59,159.66,120.11,160.72z"/>
	<path class="st8" d="M64.32,167.45c-0.14-2.74-0.27-5.47-0.41-8.21c-0.22-1.11-0.92-2.31,0.63-3.11c1.43,0.44,1.62,1.7,2.1,2.78
		c0.36,1.15,0.42,2.33,0.47,3.51c0,1.42,0.05,2.85-0.47,4.23c-0.37,0.67-0.83,1.2-1.76,0.96C64.7,167.51,64.52,167.46,64.32,167.45z
		"/>
	<path class="st8" d="M67.77,182.34c0.29,1.8,0.19,3.56-0.59,5.25c-2.15-3.93-0.65-8.18-1.22-12.24c1.85-0.07,1.74,1.42,2.19,2.46
		C68.35,179.34,67.41,180.79,67.77,182.34z"/>
	<path class="st9" d="M129.99,127.93c0.72-0.03,1.43-0.05,2.15-0.08c-1.08,2.65-1.68,5.51-3.77,7.72c-0.84-0.42-1.2-1.14-1.39-1.97
		C127.22,131.36,127.53,129.14,129.99,127.93z"/>
	<path class="st10" d="M115.86,154.73c1.65-0.7,1.89-3.19,4.25-2.98c-0.04,1.04,1.79,1.52,0.96,2.81c-0.56,0.49-0.89,1.23-1.76,1.36
		c-1.19,0.28-2.19,1.05-3.44,1.16c-1.13-0.05-2.25-0.11-2.42-1.52C114.07,154.81,115.06,155.03,115.86,154.73z"/>
	<path class="st11" d="M122.77,136.36c1.56,1.17,0.65,2.86,1.02,4.28c0.14,0.66,0.26,1.31,0.25,1.99c-0.12,0.81-0.24,1.62-0.36,2.42
		c-0.45,0.46-0.69,1.29-1.66,0.85C121.89,142.69,121.81,139.49,122.77,136.36z"/>
	<path class="st12" d="M94.45,186.76c-0.9,1.46-0.92,3.07-0.9,4.69c0.35,0.51,0.29,0.98-0.19,1.39c-0.5-0.27-0.99-0.55-1.49-0.82
		c-0.94,0.29-1.27-0.08-1.14-0.94c1.44-1.44,1.01-2.79-0.2-4.12c0.72-0.96,1.72-1.44,2.95-1.52
		C94.2,185.62,94.78,185.89,94.45,186.76z"/>
	<path class="st13" d="M64.87,167.61c0.37-0.36,0.74-0.72,1.11-1.08c3.52,2.23,1.55,5.14,1.11,7.86c-0.36,0.42-0.77,0.46-1.21,0.11
		C64.37,172.36,65.16,169.91,64.87,167.61z"/>
	<path class="st14" d="M115.41,198.73c0.75-2.25-0.25-4.73,1.03-6.9c0.25-0.4,0.5-0.38,0.74,0c-0.05,2.59,1.11,5.3-0.84,7.71
		C115.91,199.39,115.61,199.12,115.41,198.73z"/>
	<path class="st15" d="M107.19,189.84c2.09,0.5,2.37,2.13,2.64,3.76c-0.22,0.38-0.3,0.87-0.88,0.95c-1.01-0.41-0.99-2.11-2.56-1.81
		c-1.02,0.16-1.58-0.08-1.18-1.18C105.87,190.99,106.53,190.42,107.19,189.84z"/>
	<path class="st16" d="M105.21,191.57c0.39,0.39,0.79,0.79,1.18,1.18c-0.41,1.74-0.97,3.4-2.83,4.28c-0.39,0.29-0.76,0.26-1.09-0.09
		C102.97,194.97,103.96,193.21,105.21,191.57z"/>
	<path class="st17" d="M52.19,127.66c0.59,0.03,1.18,0.05,1.77,0.08c1.71,0.98,2.73,2.3,2.41,4.29c-0.28,0.64-0.65,1.14-1.52,0.88
		C53.38,131.43,53.13,129.39,52.19,127.66z"/>
	<path class="st18" d="M118.12,176.22c-0.01,1.73-0.02,3.46-0.02,5.19c-0.29,0.28-0.62,0.33-1,0.15c-0.6-0.68-0.78-1.62-1.6-2.15
		c-0.25-0.28-0.43-0.59-0.55-0.94c-0.15-0.78,0.11-1.45,0.62-2.05c0.27-0.27,0.59-0.48,0.96-0.63
		C117.14,175.67,117.69,175.76,118.12,176.22z"/>
	<path class="st10" d="M117.42,181.47c0.23-0.02,0.45-0.04,0.68-0.06c0,2.09,0.68,4.26-0.72,6.21c-0.76-0.4-0.34-1.3-0.86-1.8
		c-0.02-1.19-0.05-2.38-0.07-3.56C116.7,181.91,116.8,181.42,117.42,181.47z"/>
	<path class="st19" d="M73.09,196.02c0.7-1.68,1.4-3.36,2.11-5.05c0.82-0.12,1.15,0.35,1.35,0.99c0.01,0.63-0.17,1.21-0.45,1.77
		c-0.71,1.07-1.42,2.15-2.13,3.22C73.15,197.07,72.66,196.93,73.09,196.02z"/>
	<path class="st20" d="M65.88,174.5c0.37-0.07,0.73-0.14,1.1-0.21c1.79-0.59,2.4,0.6,3.02,1.78c0.21,0.9,0.08,1.69-0.87,2.18
		c-0.46,0.09-0.86-0.03-1.22-0.31c-0.65-0.86-1.3-1.73-1.95-2.59C65.93,175.07,65.91,174.78,65.88,174.5z"/>
	<path class="st21" d="M96.14,197.42c1.56,0.48,3.12,0.96,4.68,1.43c0.29,0.07,0.41,0.24,0.35,0.52
		C98.28,201.09,97.54,200.81,96.14,197.42z"/>
	<path class="st4" d="M119.34,155.43c0.58-0.29,1.15-0.58,1.73-0.87c-0.16,2.08,0.41,4.25-0.96,6.16c-0.19-0.89,0.11-1.9-0.73-2.64
		C118.33,157.22,118.32,156.33,119.34,155.43z"/>
	<path class="st22" d="M188.02,28.03c0.02-1-0.09-2.04,1.06-2.63c0.87,0.9,1.74,1.79,2.6,2.69c0.76,0.86,0.51,1.47-0.53,1.88
		C189.77,29.81,188.69,29.21,188.02,28.03z"/>
	<path class="st23" d="M57.82,138.95c-1.67-0.61-1.18-2.39-2.08-3.42c0.08-0.81,0.23-1.58,1.14-1.97c1.6,0.25,1.74,1.58,2.24,2.65
		c0.19,0.6,0.23,1.2,0.09,1.81C58.92,138.58,58.66,139.15,57.82,138.95z"/>
	<path class="st24" d="M60.12,142.5c0.67-0.01,1.35-0.02,2.02-0.04c0.22,1.39,0.36,2.77-0.31,4.24c-2.25-0.48-1.16-2.33-1.74-3.4
		C60.24,143.04,60.25,142.77,60.12,142.5z"/>
	<path class="st25" d="M122.03,145.9c0.55-0.28,1.11-0.56,1.66-0.85c-0.24,2.06,0.18,4.42-2.73,5.24
		C121.32,148.82,121.67,147.36,122.03,145.9z"/>
	<path class="st26" d="M108.95,194.56c0.29-0.32,0.59-0.63,0.88-0.95c1.06,1.4,2.02,2.84,2.02,4.65
		C109.98,197.66,109.2,196.29,108.95,194.56z"/>
	<path class="st27" d="M193.88,31.38c1.34-0.03,1.45,0.88,1.53,1.8c0.65,1.05,0.38,1.79-0.84,2.21c-2.25-0.58-2.49-2.11-2.08-3.94
		C192.93,31.13,193.4,31.1,193.88,31.38z"/>
	<path class="st28" d="M78.75,190.88c1.79,1.73,1.68,4.08,2.32,6.19c-0.45-0.02-0.89-0.04-1.34-0.07C79,196.11,79,194.92,78.36,194
		c-0.08-0.55-0.14-1.11-0.3-1.65c-0.01-0.38,0.08-0.74,0.25-1.09C78.46,191.13,78.61,191,78.75,190.88z"/>
	<path class="st29" d="M127.52,133.85c0.81,0.34,0.68,1.1,0.86,1.73c-0.62,1.14-1.25,2.29-1.88,3.43c-0.32-0.3-0.63-0.61-0.95-0.91
		C125.5,136.4,125.2,134.58,127.52,133.85z"/>
	<path class="st30" d="M93.36,192.84c0.06-0.46,0.13-0.93,0.19-1.39c1.8,1.18,2.15,2.84,1.72,4.74
		C93.5,195.65,93.63,194.14,93.36,192.84z"/>
	<path class="st8" d="M90.73,191.08c0.38,0.31,0.76,0.63,1.14,0.94c-0.67,1.16-1.35,2.32-2.02,3.47c-0.6-0.15-0.96-0.52-1.09-1.09
		C89.11,193.13,89.21,191.73,90.73,191.08z"/>
	<path class="st31" d="M193.88,31.38c-0.45,0.06-0.9,0.11-1.35,0.17c-1,0.34-1.51-0.22-1.93-0.94c-0.1-0.41,0.06-0.72,0.45-0.92
		c0.21-0.53,0.42-1.06,0.63-1.59C193.31,28.66,193.79,29.91,193.88,31.38z"/>
	<path class="st13" d="M118.08,168.25c0.38,1.18-0.28,2.6,0.93,3.58c0.37,1.06,0.02,1.97-0.68,2.8c-0.98-0.45-1.46-1.27-1.79-2.19
		C116.31,170.81,115.77,169.06,118.08,168.25z"/>
	<path class="st32" d="M67.74,199.57c0.37-0.34,0.73-0.67,1.1-1.01c0.75-0.01,1.51-0.01,2.26-0.02c0.61-0.24,1.16-0.14,1.64,0.27
		C71.32,200.5,69.71,201.09,67.74,199.57z"/>
	<path class="st33" d="M82.34,198.41c1.57,0.57,3.15,0.31,4.73,0.05C84.92,201.13,84.31,201.13,82.34,198.41z"/>
	<path class="st32" d="M115.41,198.73c0.31,0.27,0.63,0.54,0.94,0.8c-1.79,1.66-3.04,0.97-4.05-0.81
		C113.33,198.73,114.37,198.73,115.41,198.73z"/>
	<path class="st34" d="M124.05,142.63c-1.06-0.55-1.4-1.18-0.25-1.98c1.1-0.55,1.77-0.36,1.77,0.94
		C125.43,142.41,124.91,142.74,124.05,142.63z"/>
	<path class="st35" d="M116.52,185.82c0.29,0.6,0.57,1.2,0.86,1.8c-0.06,1.4-0.13,2.81-0.19,4.21c-0.25,0-0.5,0-0.74,0
		C116.47,189.83,116.49,187.82,116.52,185.82z"/>
	<path class="st36" d="M56.68,133.8c-0.31,0.58-0.63,1.16-0.94,1.74c-1.33-0.57-0.78-1.69-0.88-2.62c0.3-0.28,0.6-0.56,0.91-0.85
		C57.34,132.04,57.28,132.79,56.68,133.8z"/>
	<path class="st5" d="M88.76,194.4c0.36,0.36,0.73,0.73,1.09,1.09c-0.68,1.21-0.99,2.74-2.89,2.85
		C87.14,196.86,87.8,195.57,88.76,194.4z"/>
	<path class="st32" d="M101.17,199.37c-0.08-0.19-0.2-0.37-0.35-0.52c0.54-0.64,1.09-1.27,1.63-1.91c0.36,0.03,0.73,0.06,1.09,0.09
		C103.35,198.35,102.77,199.32,101.17,199.37z"/>
	<path class="st37" d="M117.43,172.81c0.3,0.61,0.6,1.22,0.9,1.83c-0.07,0.53-0.14,1.05-0.21,1.58c-0.67-0.11-1.33-0.21-2-0.32
		C115.41,174.44,115.7,173.35,117.43,172.81z"/>
	<path class="st33" d="M57.82,138.95c0.23-0.14,0.45-0.28,0.68-0.42c0.07-0.33,0.22-0.62,0.38-0.59c0.55,0.09,0.59,0.52,0.6,0.95
		c-0.03,0.97-0.06,1.94-0.09,2.91C58.18,141.19,57.69,140.23,57.82,138.95z"/>
	<path class="st4" d="M78.72,191.48c0,0.71-0.01,1.41-0.01,2.12c-0.43,0.34-0.69,0.25-0.79-0.27c-0.91-1.08-1.21,0.28-1.82,0.41
		c-0.04-0.64-0.08-1.27-0.12-1.91C76.8,191.1,77.72,190.97,78.72,191.48z"/>
	<path class="st38" d="M194.43,35.07c0.82-0.4,0.86-1.17,0.98-1.89c1.16,0.58,1.5,1.63,1.75,2.73c-0.67,0.01-1.34,0.02-2.02,0.03
		C194.52,35.94,194.19,35.71,194.43,35.07z"/>
	<path class="st39" d="M77.92,193.33c0.27,0.06,0.54,0.15,0.79,0.27c0.34,1.13,0.68,2.27,1.02,3.4
		C78.38,196.11,77.85,194.85,77.92,193.33z"/>
	<path class="st10" d="M72.74,198.82c-0.55-0.09-1.1-0.18-1.64-0.27c0.66-0.84,1.33-1.69,1.99-2.53c0.29,0.31,0.58,0.63,0.87,0.94
		C74.06,197.87,73.65,198.49,72.74,198.82z"/>
	<path class="st40" d="M1.6,120.79c0-37.92,0.06-75.85-0.11-113.77C1.47,2.97,2.72,2,6.88,2c58.85,0.12,117.7,0.08,176.54,0.08
		c0.98,5.82,0.19,11.68,0.44,17.52c0.06,1.28-0.66,1.79-1.9,1.87c-1.88-0.06-3.81-0.04-4.94-1.87c-0.28-0.82,0.22-1.29,0.87-1.7
		c4.04-2.57,4.76-7.85,1.58-11.66c-1.66-0.48-3.35-0.32-5.02-0.32C120.09,5.91,65.73,5.9,11.36,5.95c-2.16,0-4.68-0.82-6.28,1.49
		c-0.64,2.13-0.35,4.31-0.36,6.46C4.65,49.07,4.85,84.23,4.62,119.4c-0.05,0.55-0.2,1.07-0.44,1.57
		C3.21,122.36,2.38,121.84,1.6,120.79z"/>
	<path class="st41" d="M1.6,120.79c0.6,0.29,1.21,0.58,1.81,0.87c7.47-0.75,14.96-0.41,22.43-0.28c11.28,0.2,22.59-1,33.83,0.76
		c1.28,0.2,2.31-0.66,3.49-0.91c0.76-0.26,1.53-0.29,2.3-0.06c0.74,0.31,1.14,0.9,1.45,1.58c0.37,1.09,0.85,2.2-0.14,3.24
		c-3.31,0.28-6.61,0.62-9.92,0.82c-2.43,0.15-5.26,0.73-5.13-3.78c-1.08,2.56-2.49,3.02-4.56,3c-13.39-0.11-26.78-0.23-40.16,0.04
		C2.54,126.16,0.82,124.9,1.6,120.79z"/>
	<path class="st22" d="M65.88,123.39c0-0.57,0-1.14-0.01-1.71c1.88-1.77,4.3-1.13,6.52-1.21c3.81-0.13,7.64,0.13,11.44-0.29
		c4.98,0.7,10.04-0.19,15.03,0.61c0.97,0.31,1.73,0.86,2.14,1.77c0.3,1.32-0.72,2.43-0.68,3.73c-0.11,0.46-0.37,0.81-0.77,1.08
		c-0.43,0.24-0.89,0.4-1.38,0.49c-3.77-0.1-7.67,1.14-11.22-1.03c-4.57-1.94-9.38,0.31-14.07-0.74c-1.66-0.37-3.11-0.63-4.25-1.84
		C67.31,125.08,67.33,122.15,65.88,123.39z"/>
	<path class="st22" d="M181.62,20.27c2.14,0.81,1.81-0.64,1.81-1.76c0-5.47,0-10.95,0-16.42c1.49,6.64,1.46,13.28,0.03,19.92
		c-0.49,0.54-1.08,0.55-1.73,0.32c-0.34-0.26-0.55-0.6-0.63-1.01C181.12,20.91,181.29,20.56,181.62,20.27z"/>
	<path class="st42" d="M76.95,132.08c-0.04-1.43-0.08-2.86-0.12-4.3c0.64-0.02,1.27-0.04,1.91-0.05c-0.29,4.97,0.26,9.97-0.8,14.9
		c-0.78-0.51-0.59-1.27-0.58-1.98C77.14,137.79,77.87,134.9,76.95,132.08z"/>
	<path class="st43" d="M86.94,126.83c4.31,0.03,8.63,0.06,12.94,0.09c0.24,0.36,0.34,0.75,0.31,1.17c-0.45,1.58-0.62,3.32-2.47,4.16
		c-1.01-0.17-1.36-0.94-1.74-1.68c-2.11-3.3-5.91-0.86-8.58-2.25c-0.41-0.21-0.67-0.52-0.79-0.94
		C86.76,127.23,86.87,127.04,86.94,126.83z"/>
	<path class="st23" d="M69.5,127.67c0.29,2.17,1.94,4,1.78,6.28c0.11,0.49-0.11,0.68-0.62,0.61c-2.73-1.26-2.56-4.04-3.63-6.17
		C67.77,127.92,68.52,127.44,69.5,127.67z"/>
	<path class="st44" d="M188.02,28.03c1.26,0.14,2.27,0.7,3.03,1.65c-0.14,0.09-0.29,0.19-0.44,0.28c-2.71,0.37-5.31,1.6-8.15,0.93
		c-0.45-0.5-0.54-1.08-0.38-1.71c0.35-0.75,1.07-1.15,1.72-1.61c1.23-0.65,1.31-2.11,2.32-2.92
		C187.94,25.19,186.65,27.27,188.02,28.03z"/>
	<path class="st45" d="M186.12,24.65c0.12,1.47,0.76,3.18-1.78,3.42c-0.12-0.16-0.23-0.32-0.35-0.48c0.05-2.5-3.61-3.15-3.28-5.8
		c0.4-0.21,0.77-0.17,1.13,0.1c0.54,0.04,1.07,0.07,1.61,0.11C184.34,22.89,185.23,23.77,186.12,24.65z"/>
	<path class="st46" d="M86.07,132.92c-1.84-1.36-1.74-3.59-2.7-5.35c0.57,0.06,1.14,0.13,1.71,0.19c1.28,1.09,1.82,2.45,1.68,4.06
		C86.64,132.25,86.4,132.61,86.07,132.92z"/>
	<path class="st12" d="M86.19,131.99c-0.37-1.41-0.74-2.82-1.11-4.23c0.51-0.12,1.02-0.24,1.54-0.37c0.13,0.13,0.27,0.25,0.42,0.36
		c0.66,0.72,0.96,1.55,0.87,2.51C87.68,131.14,87.56,132.12,86.19,131.99z"/>
	<path class="st47" d="M59.57,134.33c-0.05-2.19-0.1-4.39-0.16-6.58c0.31,0.03,0.62,0.05,0.93,0.08c-0.04,2.35-0.08,4.69-0.12,7.04
		C59.85,134.86,59.63,134.69,59.57,134.33z"/>
	<path class="st48" d="M65.88,123.39c1.36-0.98,1.92,0.32,2.75,0.86c-0.02,1.15-0.65,1.71-1.86,1.73
		C66.47,125.12,66.17,124.25,65.88,123.39z"/>
	<path class="st14" d="M68.37,154.68c1.5,2.81,2.88-0.54,4.79,0.03c-2.07,2.06-1.54,4.39-1.02,6.71c-1.7,1.08-3.5,0.78-5.31,0.38
		c-1.35-1.51,1.11-3.34-0.46-4.82c-0.4-0.58-0.74-1.2-1.3-1.67c-0.65-0.55-1.36-1.04-2.02-1.58c-0.05-0.53-0.11-1.06-0.16-1.59
		c0.18-0.6,0.57-1,1.23-1.13C66.25,151.48,66.52,153.89,68.37,154.68z"/>
	<path class="st49" d="M70.66,134.56c0.21-0.2,0.42-0.41,0.62-0.61c1.89,1.25,1.8,3.41,2.67,5.13c-0.75,0.67,0.55,2.24-1.22,2.47
		C71.83,139.27,70.44,137.13,70.66,134.56z"/>
	<path class="st50" d="M79.66,151.13c-1.82-0.14-3.52-0.08-4.62,1.68c-0.59,0.95-1.41,0.88-2.13,0.02c0.4-0.65,0.81-1.3,1.21-1.94
		c0.63-0.61,1.22-1.25,2.17-1.44c1.19-0.23,2.23,0.1,3.19,0.75C79.54,150.51,79.6,150.82,79.66,151.13z"/>
	<path class="st47" d="M63.04,153.73c1.02,0.07,2.18-0.25,2.79,0.92c-0.48,0.48-0.15,1.42-1.04,1.68c-0.97,0.79-0.65,1.93-0.88,2.92
		C63.06,157.48,63.18,155.59,63.04,153.73z"/>
	<path class="st29" d="M72.73,141.55c0.41-0.82,0.81-1.64,1.22-2.47c0.41,1.02,0.82,2.04,1.22,3.06c0.45,0.57,0.51,1.18,0.21,1.82
		c-1.94,1.21-1.33-1.11-2.18-1.4C73.04,142.22,72.88,141.89,72.73,141.55z"/>
	<path class="st51" d="M75.67,150.18c-0.52,0.23-1.03,0.47-1.55,0.7c0.39-1.59,1.26-3.1,0.83-4.82c0.2-0.13,0.4-0.25,0.6-0.38
		c0.51,0.11,0.86,0.39,1.07,0.84C76.86,147.87,77.38,149.29,75.67,150.18z"/>
	<path class="st52" d="M64.11,151c-0.41,0.38-0.82,0.76-1.23,1.13c-0.33-0.92-1.59-2.03-0.15-2.73C63.58,149,64.07,150.12,64.11,151
		z"/>
	<path class="st53" d="M73.2,142.56c0.56,0.66,1.11,1.33,1.67,1.99c0.61,0.33,0.73,0.76,0.26,1.29c0,0-0.17,0.23-0.18,0.23
		C73.61,145.24,73.04,144.06,73.2,142.56z"/>
	<path class="st54" d="M112.69,137.25c-1.18,3.04-2.16,6.19-4.57,8.66c-1.21,0.32,0.71,3.7-2.39,2.19c-1.3-3.87-0.94-7.79-0.31-11.7
		c0.17-0.42,0.46-0.78,0.83-1.06c2.69,0.3,1.5,2.62,2.36,4c1.42-0.46,1.48-2.84,3.55-2.43
		C112.34,137.02,112.52,137.14,112.69,137.25z"/>
	<path class="st7" d="M108.27,148.25c0.55,0.98,1.11,1.96,1.66,2.93c0.35,0.77-0.2,1.04-0.8,1.28c-1.98-0.22-3.86,1.66-5.91,0.3
		c-0.61-2.01,0.62-2.98,2.33-3.69C106.62,149.3,107.48,148.87,108.27,148.25z"/>
	<path class="st23" d="M114.59,131.35c0.25,2.22-0.71,4.09-1.9,5.9c0,0,0.05,0.03,0.05,0.03c-2.12-2.88-1.72-4.45,1.78-7.13
		C114.96,130.53,114.98,130.93,114.59,131.35z"/>
	<path class="st55" d="M108.27,148.25c-0.36,1.19-0.55,2.79-2.2,0.79c0.08-0.18,0.15-0.35,0.23-0.53c0.61-0.87,1.22-1.73,1.82-2.6
		C108.17,146.69,108.22,147.47,108.27,148.25z"/>
	<path class="st56" d="M109.31,151.94c0.21-0.25,0.41-0.5,0.62-0.76c1.37-0.12,0.62,1.56,1.65,1.73c0.73,0.35,0.78,0.99,0.81,1.65
		c-0.09,0.45-0.33,0.8-0.73,1.06C109.81,155,108.3,154.19,109.31,151.94z"/>
	<path class="st57" d="M111.9,154.25c-0.11-0.45-0.21-0.89-0.32-1.34c1.53,0.39,2.54,1.86,4.28,1.82c-0.51,0.85-1.34,0.96-2.25,0.89
		C112.45,155.81,112.14,155.07,111.9,154.25z"/>
	<path class="st58" d="M114.59,131.35c-0.07-0.41-0.14-0.82-0.22-1.23c-0.68-1.07-0.06-1.71,0.84-2.25
		c0.44-0.02,0.88-0.05,1.32-0.07C116.22,129.14,115.73,130.4,114.59,131.35z"/>
	<path class="st59" d="M100.75,123.42c-0.28-0.54-0.57-1.09-0.85-1.63c0.15-0.18,0.29-0.35,0.44-0.53c0.62-0.38,1.32-0.55,2.04-0.63
		c1.22-0.13,2.45-0.13,3.69-0.15c4.89,0.01,9.79,0.05,14.66-0.49c4.66,0.81,9.33,0.61,14,0.14c0.55-0.06,1.09-0.03,1.63,0.05
		c13.3,0.59,26.6,0.14,39.9,0.23c1.09,0.01,2.12-0.22,3.02-0.84c0.98-0.89,1.02-2.05,1.01-3.21c-0.06-10.22,0.23-20.43-0.16-30.64
		c-0.18-0.43-0.33-0.88-0.46-1.32c-0.11-1.73-3.06-4.61,1.93-4.33c1.2-0.76,2.4-0.88,3.59,0.03c0.01,13.96-0.07,27.93,0.11,41.89
		c0.04,3.25-1,4.19-4.41,4.14c-12.05-0.18-24.11,0.11-36.16-0.14c-6.57-0.14-13.04,0.99-19.58,0.87c-2.14-0.04-4.22-0.05-5.96-1.61
		c-0.97-0.87-1.15-0.73-2,1.02c-0.44,0.91-1.25,0.49-1.9,0.52c-2.73,0.12-5.47,0.17-8.21,0.24c-0.62,0.38-1.22,0.33-1.82-0.04
		c-0.21-0.38-0.16-0.73,0.13-1.02c0.15-0.19,0.36-0.35,0.61-0.46c-0.54,0.07-0.64,0.65-1.09,0.86c-1.77,0.81-3.21,0.42-4.41-0.98
		C100.16,124.68,100.29,124.03,100.75,123.42z"/>
	<path class="st55" d="M107.24,127.86c-0.01,2.55-0.03,5.1-0.04,7.65c-0.32,0-0.64,0-0.96,0c-0.88-0.7-1.1-1.7-1.07-2.67
		c0.09-2.84-1.62-4-4.29-4.38c-0.42-0.18-0.76-0.45-1.03-0.81c0-0.25,0.02-0.49,0.04-0.74c0,0-0.1-0.21-0.1-0.21
		c1.87-0.75,3.74-0.32,5.6,0.02c0.56,0.09,1.13,0.19,1.69,0.28C107.19,127.29,107.24,127.57,107.24,127.86z"/>
	<path class="st56" d="M86.99,181.39c-1.22,0.13-2.46-0.83-3.67,0.05c-0.92-0.28-1.28-0.94-1.39-1.78c0.33-2.07-2.13-3.9-0.61-6.08
		c2.19,0.27,4.3,1.16,6.58,0.69c1.17,2.32-0.84,4.42-0.51,6.68C87.26,181.09,87.13,181.24,86.99,181.39z"/>
	<path class="st60" d="M75.83,187.36c0.03-0.54,0.07-1.08,0.1-1.62c0.66-0.92,1.57-1.27,2.72-1.09c0.83,0.45,0.98,1.23,1.09,2.02
		c-0.61,1.34-1.4,2.65-0.98,4.2c0.08,0.18,0.06,0.35-0.06,0.51c-0.43-0.01-0.82-0.13-1.17-0.36
		C76.66,189.93,77.07,188.3,75.83,187.36z"/>
	<path class="st61" d="M90.61,186.96c-2.22-1.28-3.41-3.14-3.61-5.58c0,0-0.03,0.09-0.03,0.09c1.75-1.15,2.41,0.25,3.26,1.23
		C90.97,184.07,91.49,185.46,90.61,186.96z"/>
	<path class="st12" d="M79.74,186.68c-0.31-0.45-0.63-0.91-0.94-1.36c-1.4-1.62-0.36-2.5,1.12-3.24c1.29,0.02,1.66,0.72,1.5,1.81
		C81.32,185.06,80.52,185.86,79.74,186.68z"/>
	<path class="st62" d="M90.61,186.96c-0.16-1.31-0.34-2.62-1.26-3.7c1.99-0.99,2.79,1.03,4.2,1.49c0.22,0.36,0.22,0.71-0.01,1.06
		c-0.78,0.89-1.86,1.08-3,1.15C90.53,186.96,90.61,186.96,90.61,186.96z"/>
	<path class="st33" d="M81.41,183.88c-0.27-0.47-0.53-0.94-0.8-1.41c-0.77-1.71-0.75-2.89,1.79-2.34c0.3,0.43,0.61,0.87,0.91,1.3
		C82.86,182.37,82.46,183.35,81.41,183.88z"/>
	<path class="st63" d="M101.82,181.93c-0.35-0.18-0.69-0.35-1.04-0.53c-1-0.79-2.8,0.09-3.45-1.45c-0.66-1.71-2.24-3.12-1.92-5.16
		c0.17-0.61,0.5-1.1,1.13-1.38c1.69,0,2.79,1.52,4.47,1.57c0.6,0.2,0.99,0.59,1.16,1.17c0.16,1.05-0.34,2.14,0.21,3.17
		c0.3,0.67,0.65,1.34,0.43,2.11C102.56,181.73,102.23,181.89,101.82,181.93z"/>
	<path class="st64" d="M97.91,179.57c0.96,0.61,1.92,1.22,2.88,1.83c-2.48-0.39-2.96,1.92-4.41,2.91c-0.73-0.15-1.17-0.59-1.44-1.22
		C95.03,181.25,95.51,179.69,97.91,179.57z"/>
	<path class="st65" d="M107.13,188.12c-0.32,0.35-0.64,0.71-0.96,1.06c-0.87-1.46-1.73-2.92-2.6-4.37c-0.38-0.79,0.18-1,0.81-1.17
		c1.5,0.11,1.97,1.24,2.54,2.27C107.22,186.62,107.51,187.34,107.13,188.12z"/>
	<path class="st66" d="M95.19,183.14c0.39,0.39,0.79,0.79,1.18,1.18c-0.37,1.01-0.93,1.88-1.93,2.44c-0.31-0.32-0.61-0.63-0.92-0.95
		c-0.08-0.3-0.16-0.6-0.23-0.9C92.79,183.23,93.3,182.52,95.19,183.14z"/>
	<path class="st12" d="M104.3,184.06c-0.24,0.25-0.48,0.49-0.72,0.74c-1.12-0.66-1.69-1.63-1.75-2.87c0.15-0.27,0.39-0.43,0.71-0.48
		C104.66,181.4,104.9,182.48,104.3,184.06z"/>
	<path class="st28" d="M107.13,188.12c-0.29-0.49-0.57-0.98-0.86-1.47c1.17-2.52,2.04-5.27,5.21-6.33c0.98,0.34,1.13,1.1,1.12,1.95
		C110.89,184.3,110.92,187.8,107.13,188.12z"/>
	<path class="st67" d="M112.61,182.26c-0.25-0.48-0.5-0.97-0.75-1.45c-0.88-0.7-0.62-1.41-0.01-2.11c0.35-0.21,0.74-0.32,1.16-0.32
		c0.71,0.72,1.71,0,2.49,0.43l-0.03,0.03c0.55,0.66,0.5,1.3-0.08,1.91C113.99,180.49,113.55,181.78,112.61,182.26z"/>
	<path class="st68" d="M115.38,180.75c0.03-0.64,0.05-1.28,0.08-1.91c1.88,0.07,1.86,1.39,1.95,2.64c-0.32,0.26-0.65,0.52-0.97,0.78
		C116.09,181.75,115.74,181.25,115.38,180.75z"/>
	<path class="st69" d="M73.99,173.65c-0.19,2.27-3.91,3.18-2.59,6.03c0.23,0.95-0.19,1.23-1.13,0.98c-0.48,0.08-0.95,0.15-1.43,0.23
		c-1.15-0.83-0.8-1.85-0.41-2.88c0.84-0.37,1.1-1.05,1.14-1.85c0.45-1.59,1.6-2.51,3.22-2.95C73.25,173.2,73.65,173.35,73.99,173.65
		z"/>
	<path class="st68" d="M68.41,178.01c0.14,0.96,0.28,1.92,0.41,2.88c-0.35,0.49-0.71,0.97-1.06,1.46c-1.78-1.52-0.55-2.95,0.14-4.4
		C68.07,177.97,68.24,177.99,68.41,178.01z"/>
	<path class="st26" d="M73.18,182.31c1.05,0.99,1.84,2.12,2.17,3.51c-2.32-0.11-2.68-1.89-3.3-3.45
		C72.41,181.94,72.78,181.92,73.18,182.31z"/>
	<path class="st30" d="M77.8,190.96c0.3,0.14,0.59,0.28,0.89,0.43c0,0,0.03,0.1,0.03,0.09c-0.92,0.11-1.83,0.23-2.75,0.34
		c-0.26-0.28-0.52-0.57-0.77-0.85c-0.1-0.91,1.16-1.53,0.62-2.54C78.49,187.87,76.6,190.49,77.8,190.96z"/>
	<path class="st70" d="M77.8,190.96c-1.21-0.46-0.4-2.33-1.98-2.53c-0.85-0.36-0.85-0.71,0.01-1.06
		C78.26,187.69,77.55,189.56,77.8,190.96z"/>
	<path class="st71" d="M73.18,182.31c-0.38,0.02-0.75,0.04-1.13,0.06c-0.6-0.57-1.2-1.14-1.79-1.71c0.38-0.33,0.76-0.65,1.13-0.98
		C71.99,180.56,72.59,181.43,73.18,182.31z"/>
	<path class="st72" d="M193.32,67.79c-1.42,0.46-2.85,0.57-4.28,0.06c-2.44-1.12-2.09-2.89-1.26-4.77c0.66-1.03,0.56-2.12,0.24-3.23
		c-0.08-0.38-0.13-0.76-0.16-1.15c0.04-1.98-0.63-3.86-0.97-5.78c-0.07-1.22-0.79-2.21-1.35-3.25c-0.51-1.16-0.93-2.34-1.19-3.57
		c-0.15-0.88-0.12-1.76,0.13-2.62c1.44-3.34,3.88-3.42,6.95-2.02c1.79,0.82,3.25,2.02,4.83,3.09c0.23,0.9-0.05,1.97,0.95,2.63
		c0.71,2.03,0.67,4.07,0.06,6.11l0.02-0.06c-1.35,2.23,0.15,4.8-0.92,7.06C195.34,62.78,194.33,65.29,193.32,67.79z"/>
	<path class="st45" d="M182.51,30.69c2.69-0.38,5.21-2.34,8.1-0.73c0.64,0.53,1.28,1.06,1.92,1.59c0.63,1.17,1.27,2.35,1.9,3.52
		c0.24,0.29,0.48,0.58,0.72,0.87c0.34,0.79,0.68,1.58,1.03,2.36c-0.05,0.22-0.1,0.43-0.15,0.65c-2.04,2.21-4.27,0.9-6.46,0.32
		c-2.64-1.07-5.45,1.1-8.08-0.36c-1.55-1-2.04-2.57-2.52-4.14C178.77,32.35,179.02,30.26,182.51,30.69z"/>
	<path class="st45" d="M196.25,44.54c-1.89-0.76-3.9-1.33-5.65-2.31c-2.47-1.39-4.13-0.93-5.34,1.44c-0.29,0.3-0.65,0.39-1.06,0.27
		c-0.55-0.3-0.94-0.72-1.12-1.3c-0.01-0.4,0.11-0.75,0.36-1.07c0.9-0.8,1.89-1.48,3.02-1.96c0.81-0.26,1.63-0.3,2.47-0.18
		c1.64,0.36,3.09,1.14,4.58,1.84c0.72,0.41,1.42,0.84,1.72,1.65C195.57,43.46,195.91,44,196.25,44.54z"/>
	<path class="st73" d="M195.23,42.92c-0.58-0.31-1.16-0.62-1.74-0.92c-0.74-2.32,2.52-1.92,2.75-3.58c0,0-0.06-0.11-0.06-0.11
		c1.38,1.18,2.35,2.67,1.75,4.37C197.5,43.91,196.12,42.46,195.23,42.92z"/>
	<path class="st45" d="M196.36,60.28c0.28-2.36-1.07-4.9,0.92-7.06C196.71,55.54,197.84,58.07,196.36,60.28z"/>
	<path class="st45" d="M197.26,53.28c-0.02-2.04-0.04-4.07-0.06-6.11C198.54,49.2,198.71,51.23,197.26,53.28z"/>
	<path class="st74" d="M187.13,67.95c-1.1,4.04-0.22,8.97-5.62,11.07c-7.67,5.23-16.21,7.32-25.61,6.28
		c-1.79-0.54-3.75-0.8-4.79-2.58c-0.13-0.41-0.12-0.83,0.03-1.23c2.47-4.42,7.15-7.26,9.5-11.77c0.78-0.84,1.53-1.7,2.02-2.74
		c0.73-0.82,1.4-1.67,1.89-2.65c0.71-0.8,1.38-1.64,1.81-2.62c0.45-0.58,0.64-1.3,1.08-1.9c0.89-0.83,1.29-1.9,1.64-2.97
		c0.21-0.15,0.28-0.33,0.17-0.51c-0.12-0.21-0.25-0.16-0.38,0.17c-0.25,1.03-0.5,2.03-1.24,2.85c-0.54,0.53-0.78,1.22-1.15,1.85
		c-0.6,0.9-0.99,1.93-1.81,2.7c-0.68,0.88-1.07,1.93-1.92,2.7c-0.63,0.96-1.15,2.01-2.05,2.8c-3.71,3.55-6.6,7.85-11.07,10.7
		c-3.8,3.04-7.25,1.79-10.61-0.74c-1-1.08-1.95-2.22-3.08-3.2c-2.89-2.99-6.12-5.69-8.71-8.95c-0.84-1.6-1.08-3.27-0.75-5.03
		c0.21-0.84,0.62-1.57,1.36-2.12c1.72-0.25,3.24-2.14,5.2-0.61c0.02,0.14,0.1,0.36,0.03,0.42c-4.44,4.23-1.28,7.3,1.74,10.42
		c0.93,0.96,1.87,1.9,2.85,2.81c6.45,6.06,8.54,5.82,14.89-0.46c8.21-8.13,14-17.71,19.57-27.48c0.79-1.39,1.69-2.74,2.75-3.97
		c0.87-1.01,1.94-2.17,0.89-3.46c-1.18-1.46-2.51-0.27-3.65,0.28c-11.64,5.7-23.25,11.45-33.6,19.19c-1.55,1.16-2.95,3.15-5.53,2.26
		c-0.6-0.8-0.31-1.58,0.05-2.36c3.88-3.18,8.01-6.06,12.31-8.72c2.75-1.73,5.27-3.79,8.2-5.26c1.5-1.06,3.22-1.78,4.84-2.66
		c1.29-0.65,2.48-1.47,3.84-2.01c3.22-1.15,6.25-2.65,9.18-4.35c1.72-0.93,3.5-1.22,5.4-0.56c0.9,0.41,1.53,1.07,2,1.87
		c1.07,2.15,2.85,4.26,0.62,6.68c-2.92,1.61-4.25,4.43-5.95,6.97c0.72-1.05,1.64-1.97,2.15-3.15c1.15-1.38,2.38-2.67,4.33-3.05
		c1.53-0.21,2.8,0.24,3.79,1.37c0.8,1.12,0.4,2.59,1.25,3.69c0.24,1.08,0.48,2.15,1.25,3.03c1.4,2.82,0.83,5.97,1.7,8.89
		C188.24,62.62,187.57,65.27,187.13,67.95z"/>
	<path class="st75" d="M155.13,84.18c9.48,1.4,17.89-2.03,26.37-5.16c0.03,0.35,0.06,0.7,0.09,1.04c-2.85,0.55-1.24,2.17-0.95,3.48
		c-0.35,0.26-0.74,0.43-1.18,0.5c-2.36,0.13-4,1.89-6.17,2.45c-1.89,0.48-3.78,1.03-5.6-0.2c-0.22-0.38-0.23-0.77,0-1.15
		c0.69-0.35,1.43-0.35,2.18-0.26c-1.45-0.35-2.57,0.28-3.63,1.1c-3.74,0.47-7.48,1.11-11.1-0.52
		C154.77,85.05,154.77,84.62,155.13,84.18z"/>
	<path class="st76" d="M187.13,67.95c-0.06-2.83-0.12-5.66-0.18-8.48c0.1-0.16,0.19-0.32,0.29-0.48c0.58-0.24,1.12-0.21,1.59,0.24
		c0.05,0.29,0.1,0.58,0.15,0.87c-0.79,0.91,0.17,1.8,0.05,2.7c-1.11,1.68-1.17,3.36,0,5.04C188.4,67.89,187.77,67.92,187.13,67.95z"
		/>
	<path class="st77" d="M59.57,134.33c0.2,0.2,0.42,0.38,0.66,0.53c-0.36,1.33,0.39,2.84-0.75,4.03c-0.2-0.43-0.46-0.7-0.98-0.36
		c-0.04-0.69-0.08-1.39-0.11-2.08C59.31,136.01,59.44,135.17,59.57,134.33z"/>
	<path class="st33" d="M116.86,156.34c-2.63,1.69-0.03,2.91,0.44,4.31c-0.01,0.32-0.01,0.63-0.02,0.95
		c-0.69-0.14-1.64,0.17-1.83-0.89c-0.66-0.76-2.07-0.41-2.51-1.5c-0.5-1.22-1.75-2.24-1.16-3.76c0.04-0.4,0.07-0.8,0.11-1.2
		c0.57,0.46,1.14,0.91,1.7,1.37C114.47,156.75,115.76,156.16,116.86,156.34z"/>
	<path class="st78" d="M66.7,161.81c0.01,0.22-0.09,0.39-0.3,0.51c-0.22-1.08-0.44-2.16-0.65-3.23c-0.15-1.15-1.28-2.66,1.17-2.87
		C70.39,158.21,66.31,159.93,66.7,161.81z"/>
	<path class="st79" d="M66.92,156.22c-1.34,0.61-0.98,1.84-1.17,2.87c-0.93-0.73-0.7-1.82-0.95-2.76c0.17-0.66,0.24-1.37,1.04-1.68
		C66.2,155.17,66.56,155.69,66.92,156.22z"/>
	<path class="st61" d="M111.81,173.59c1.37,1.01,2.23,2.87,4.49,2.39c-0.27,0.94-0.54,1.88-0.81,2.83
		c-0.64,0.11-1.32,0.99-1.91-0.08c-1.03-0.91-2.17-1.72-2.88-2.91c-0.17-0.36-0.24-0.73-0.2-1.13
		C110.73,174.1,111.16,173.73,111.81,173.59z"/>
	<path class="st80" d="M3.47,120.69C3.46,82.61,3.45,44.54,3.44,6.46C4.2,5,5.62,5.13,7,5.13c31.87,0.02,63.74-0.04,95.61,0.04
		c0.29,0,0.59,0.15,0.88,0.23c-0.35,2.9-2.85,2.12-4.59,2.17c-5.49,0.18-10.99,0.07-16.49,0.07c-22.75,0-45.5-0.01-68.25,0.02
		c-1.96,0-3.98-0.32-5.86,0.5c-1.89,1.1-1.76,2.88-1.76,4.62c0,34.01,0.03,68.03-0.05,102.04c-0.01,3.56,1.39,4.85,5.13,4.8
		c10.39-0.14,20.78-0.05,31.16-0.05c1.86,0,3.65-0.19,5.37-0.91c1.87-0.12,3,0.34,2.09,2.39c-1.58,1.13-3.43,1.04-5.26,1.04
		c-12.37-0.01-24.74,0.01-37.11-0.02C6.31,122.05,4.43,122.62,3.47,120.69z"/>
	<path class="st22" d="M103.54,5.62C91.63,5.54,79.72,5.43,67.81,5.41C48.25,5.37,28.7,5.4,9.14,5.4c-1.97,0-4.01-0.27-5.7,1.06
		c0.67-2.92,3.18-1.72,4.88-1.73c39.64-0.07,79.27-0.05,118.91-0.05c16.53,0,33.06-0.02,49.58,0.02c1.61,0,3.4-0.55,4.79,0.8
		c-0.43,0.42-0.94,0.73-1.52,0.94c-3.02,0.6-6.08,0.31-9.12,0.31c-20.29,0.03-40.57,0.03-60.86-0.01
		C107.87,6.75,105.48,7.26,103.54,5.62z"/>
	<path class="st81" d="M181.62,20.27c-0.01,0.29-0.02,0.59-0.03,0.88c-1.56,0.46-2.32,1.76-3.31,2.81
		c-1.54,1.13-3.05,2.29-4.26,3.75c-0.46,0.42-0.98,0.69-1.65,0.61c-0.79-0.28-1.41-0.82-2.1-1.25c-1.53-0.97-4.01-0.22-4.87-2.4
		c-1.69-4.81-4.02-6.46-9.3-6.78c-2.04-0.13-4.36,0.63-5.94-1.37c2.88-3.23,6.64-1.38,10.04-1.47c1.48-0.04,2.88,0.76,4.31,1.15
		c1.94,0.92,2.82,2.92,4.57,4.05c2.49,1.61,4.9,2.3,7.08-0.44c0.3-0.3,0.67-0.49,1.09-0.58C178.47,20.49,180.08,20.22,181.62,20.27z
		"/>
	<path class="st22" d="M3.47,120.69c1.45,1.02,3.13,0.98,4.81,0.98c12.05-0.01,24.1-0.04,36.15,0.02c2.03,0.01,3.92-0.39,5.82-0.89
		c0.69-0.11,1.38-0.27,2.09-0.27c1.93-0.01,3.87-0.04,5.8-0.07c2.03,0.16,4.24-0.45,5.89,1.27c-2.04,1.46-3.86,3.57-6.73,0.97
		c-0.65-0.59-2.34-0.18-3.56-0.18c-15.2-0.01-30.41,0.01-45.61-0.03c-1.6,0-3.38,0.56-4.73-0.84
		C3.43,121.33,3.45,121.01,3.47,120.69z"/>
	<path class="st82" d="M180.53,5.63c0.36-0.04,0.72-0.08,1.07-0.12c1.63,3.27,0.77,6.72,0.79,10.09c0.01,3.26-3.3,2.58-5.14,3.65
		c0,0-0.34,0.24-0.34,0.24c-3.17-0.2-6.39-0.31-7.6-3.9c0.85-1.57,2.32-1.46,3.82-1.25c0.56,0.21-0.13-0.11,0.43,0.11
		c5.78,2.27,5.77,2.27,5.9-3.87C179.51,8.88,179.23,7.1,180.53,5.63z"/>
	<path class="st37" d="M89.76,145.9c0.02-0.28,0.04-0.57,0.06-0.85c0.36-0.53,0.61-1.14,1.18-1.54c1.28-0.64,2.56-1.21,3.71,0.2
		c0.44,2.1,0.09,4.06-1.12,5.88c-0.9,0.57-1.83,0.6-2.79,0.13C89.57,148.66,90.84,146.99,89.76,145.9z"/>
	<path class="st8" d="M90.78,143.87c-0.32,0.39-0.64,0.78-0.96,1.17c-0.23-2.75-1.95-5.21-1.75-8.05c-0.01-1.08,0.74-0.95,1.48-0.82
		C91.83,138.47,92.57,140.99,90.78,143.87z"/>
	<path class="st83" d="M75.67,150.18c0.05-1.35,0.11-2.7,0.16-4.05c-0.28-1.52,0.42-2.14,2-1.95c0.33,2.06-0.09,4.31,1.65,6.03
		C78.21,150.2,76.94,150.19,75.67,150.18z"/>
	<path class="st58" d="M77.83,144.17c-1.01,0.34-1.61,1.05-2,1.95c-0.23-0.1-0.46-0.2-0.7-0.29c-0.09-0.43-0.18-0.86-0.26-1.29
		c0.1-0.8,0.2-1.61,0.3-2.41c0.58-0.48,1.17-0.95,1.75-1.43c0.28-0.42,0.49-0.39,0.65,0.08c0.12,0.61,0.25,1.22,0.37,1.83
		C77.91,143.14,77.87,143.66,77.83,144.17z"/>
	<path class="st84" d="M88.72,136.4c-0.22,0.2-0.44,0.4-0.66,0.6c-2.03-0.77-0.33-3.16-2-4.08c0.04-0.31,0.08-0.62,0.13-0.92
		c0.28-0.58,0.56-1.15,0.84-1.73C89.94,131.73,90.17,133.86,88.72,136.4z"/>
	<path class="st62" d="M89.76,145.9c1.58,0.84,1.15,2.2,1.01,3.48c0.47,1.62-0.75,2.47-1.75,3.43c-0.39,0.19-0.77,0.15-1.11-0.11
		C87.65,150.22,90.61,148.52,89.76,145.9z"/>
	<path class="st85" d="M82.97,159.7c1.16-1.17-1.27-2.65,0.37-3.78c0.6,0.11,1.21,0.22,1.81,0.33c1.04,0.77,1.34,1.82,1.34,3
		c-0.1,0.48-0.39,0.82-0.86,1.03C84.61,160.58,83.69,160.54,82.97,159.7z"/>
	<path class="st58" d="M87.9,152.7c0.31,0.06,0.61,0.13,0.92,0.19c0.13,0.16,0.26,0.32,0.39,0.48c0.28,1.35-0.25,2.35-1.47,3.06
		c-0.47,0.07-0.76-0.1-0.82-0.57C85.96,154.45,86.71,153.52,87.9,152.7z"/>
	<path class="st33" d="M86.93,155.87c0,0,0.03-0.02,0.03-0.02c1.23,1.46,0.08,2.25-0.96,3.07c-1.02-0.68-0.79-1.71-0.86-2.66
		C85.74,156.12,86.33,155.99,86.93,155.87z"/>
	<path class="st86" d="M64.04,121.73c-2.15-0.07-4.3-0.15-6.45-0.22c-0.23-0.36-0.21-0.69,0.08-1.02c0.34-0.22,0.7-0.38,1.1-0.49
		c0.59-0.13,1.2-0.17,1.8-0.2c0.96-0.08,1.94-0.13,2.42-1.13c0.55-0.78,0.87-1.93,2.31-1.33c2.99,3.36,7.11,2.03,10.83,2.31
		c0.41-0.02,0.83,0,1.24,0.01c0.59-0.01,1.18-0.01,1.76-0.09c1.67-0.41,1.15-2.11,1.98-3.01c0.3-0.29,0.67-0.42,1.1-0.43
		c0.65,0.15,1.13,0.52,1.52,1.01c0.54,0.88,0.83,1.83,0.89,2.85c-0.02,0.42-0.21,0.75-0.56,1c-6.02,1.33-12.14,0.4-18.2,0.69
		C65.26,121.7,64.65,121.71,64.04,121.73z"/>
	<path class="st86" d="M99.9,121.79c-5.26-0.64-10.63,0.77-15.83-0.81c0.12-0.14,0.23-0.28,0.35-0.42c4.5-1.94,9.16-0.96,13.79-0.71
		c0.79,0.29,1.57,0.59,1.55,1.59L99.9,121.79z"/>
	<path class="st87" d="M105.39,126.73c-1.87-0.01-3.74-0.01-5.6-0.02c0.03-0.24,0.05-0.47,0.05-0.71c0.1-0.51,0.42-0.81,0.96-0.9
		c1.4,0.88,2.97,0.95,4.57,0.89l-0.01-0.01C105.37,126.23,105.38,126.48,105.39,126.73z"/>
	<path class="st88" d="M100.8,125.1c-0.32,0.3-0.64,0.6-0.96,0.9c-1.63-1.47-0.19-1.97,0.91-2.58
		C100.77,123.98,100.78,124.54,100.8,125.1z"/>
	<path class="st89" d="M77.57,140.79c-0.21-0.04-0.43-0.07-0.65-0.08c0.01-2.88,0.02-5.76,0.03-8.64
		C78.64,134.89,77.47,137.88,77.57,140.79z"/>
	<path class="st90" d="M177.82,23.71c0.31-2.1,1.74-2.73,3.77-2.56c0.13,0.24,0.21,0.49,0.25,0.75c-0.39,0.07-0.78,0.13-1.16,0.2
		C180.05,23.16,179.52,24.36,177.82,23.71z"/>
	<path class="st46" d="M99.85,127.66c0.3,0.04,0.61,0.09,0.91,0.13c0.18,2.72,0.64,5.55-2.94,6.82c-0.65-0.9-0.57-1.77,0.16-2.6
		C98.6,130.57,99.23,129.12,99.85,127.66z"/>
	<path class="st91" d="M97.98,132.02c-0.03,0.87-0.06,1.74-0.09,2.6c-0.26,0.22-0.56,0.31-0.91,0.23c-0.46-0.24-0.78-0.59-0.86-1.1
		c0.1-1.21-0.21-2.52,0.95-3.48C97.36,130.85,97.67,131.44,97.98,132.02z"/>
	<path class="st92" d="M172.49,28.07c0.32-0.35,0.63-0.7,0.95-1.04c2.24-0.1,3.75,2.15,6.1,1.69c0.99,0.02,2.03-0.36,2.94,0.31
		c0.01,0.55,0.02,1.11,0.02,1.66c-1.93,0.81-3.47,1.85-2.7,4.21c0.16,1.6-0.68,1.53-1.82,0.98c-0.33-0.59-0.66-1.18-0.99-1.76
		c-1.16-0.78-3.27-0.02-3.69-2.01C173.07,30.76,171.77,29.6,172.49,28.07z"/>
	<path class="st45" d="M182.49,29.03c-0.92,0.15-1.67,1.08-2.74,0.55c0.52-2.65,1.16-2.88,4.52-1.59c0,0,0.07,0.09,0.07,0.09
		C183.73,28.39,183.11,28.71,182.49,29.03z"/>
	<path class="st93" d="M184.27,27.98c-1.52,0.51-3.79-0.89-4.52,1.59c-3.06,1.25-4.36-1.36-6.31-2.55c1.37-1.21,2.28-2.95,4.37-3.32
		c0.95-0.54,1.91-1.08,2.86-1.61C182.03,23.98,186.42,24.2,184.27,27.98z"/>
	<path class="st37" d="M76.91,165.79c1.47-1.26,2.93-2.51,4.4-3.77c0.43,0.25,0.7,0.6,0.84,1.06c0.08,2.75-1.82,4.53-3.52,6.41
		C76.56,168.88,76.18,167.56,76.91,165.79z"/>
	<path class="st94" d="M76.91,165.79c0.05,1.39,0.57,2.59,1.7,3.53c0.21,0.17,0.3,0.36,0.27,0.57c-0.03,0.21-0.08,0.32-0.14,0.32
		c-0.59,0.01-1.18,0.01-1.77,0.02c-0.97,0.13-1.42-0.23-1.19-1.18c0.42-1.2-0.33-2.15-0.74-3.18c-0.47-0.9,0.01-1,0.8-0.84
		C76.2,165.28,76.55,165.54,76.91,165.79z"/>
	<path class="st37" d="M81.5,163.27c-0.06-0.41-0.12-0.83-0.18-1.24c0.04-1.1,0.64-1.84,1.65-2.33c1.06,0.03,2.12,0.06,3.18,0.09
		c0.12,0.38,0.05,0.74-0.19,1.07C84.42,161.57,83.52,163.34,81.5,163.27z"/>
	<path class="st65" d="M75.84,165.02c-0.27,0.28-0.53,0.56-0.8,0.84c-1.27-0.86-2.01-1.96-1.82-3.5
		C74.76,162.66,75.18,163.95,75.84,165.02z"/>
	<path class="st95" d="M179.67,83.53c0.33,0.01,0.66,0.01,0.99,0.02c0.03,0.27,0.06,0.54,0.07,0.82
		c0.55,12.12,0.86,24.23-0.16,36.34c-1.13,0.85-2.44,1.01-3.85,1.01c-12.75-0.02-25.51-0.01-38.26-0.01c-1.07,0-2.14,0-2.95-0.82
		c0.36-0.45,0.83-0.78,1.39-0.98c9.11-1.05,18.26-0.24,27.39-0.48c3.05-0.08,6.1-0.09,9.15-0.01c3.52,0.09,4.89-1.45,4.88-4.69
		c-0.03-8.34-0.05-16.68,0.02-25.03C178.35,87.58,177.97,85.34,179.67,83.53z"/>
	<path class="st75" d="M180.56,120.7c0.05-12.11,0.11-24.23,0.16-36.34c0.28,0.64,0.79,1.28,0.8,1.92
		c0.05,10.73,0.04,21.46,0.04,32.19C181.56,119.35,181.5,120.2,180.56,120.7z"/>
	<path class="st96" d="M120.78,121c-5.19,0.58-10.37,1.27-15.59,0.24c0.03-0.47,0.26-0.82,0.71-1.03c0.41-0.18,0.85-0.31,1.3-0.39
		c5.68,0.45,10.76-0.21,13.1-6.13c1.36-0.14,1.86,0.85,2.49,1.67c0.52,1.24-0.63,2.16-0.72,3.29c-0.1,0.55-0.22,1.1-0.44,1.63
		C121.45,120.63,121.17,120.87,120.78,121z"/>
	<path class="st97" d="M99.76,121.44c-0.29-0.23-0.58-0.46-0.88-0.69c0.26-2.77,0.3-5.59,2.43-7.84c1.09-0.36,1.6,0.2,1.88,1.08
		c-0.37,1.11,0.05,2.1,0.59,3.07c-0.12,1.67-0.14,3.38-2.09,4.25C101.06,121.35,100.41,121.4,99.76,121.44z"/>
	<path class="st95" d="M134.83,120.84c-4.66,1.59-9.35,0.99-14.05,0.16c0,0,0.21-0.24,0.21-0.24c0.94-0.7,1.56-1.65,2.31-2.5
		c0.31-0.26,0.67-0.38,1.07-0.41c0.59,0.1,1.07,0.4,1.5,0.78c0.64,0.66,1.41,1.09,2.39,1.1c1.21,0.06,2.41-0.01,3.61,0.02
		c0.66,0.01,1.3,0.11,1.92,0.31C134.23,120.23,134.57,120.49,134.83,120.84z"/>
	<path class="st98" d="M101.71,121.31c0.59-1.34,1.18-2.68,1.77-4.02c2.39,0.31,2.84,1.52,1.81,3.43c-0.07,0.17-0.1,0.34-0.09,0.52
		C104.03,121.26,102.87,121.29,101.71,121.31z"/>
	<path class="st87" d="M105.37,125.99c0.24-1.15-0.67-2.75,1.24-3.24c0.87-0.22,1.37,0.46,1.43,1.25
		C108.2,125.9,106.82,126,105.37,125.99C105.36,125.98,105.37,125.99,105.37,125.99z"/>
	<path class="st99" d="M134.83,120.84c-0.39-0.07-0.79-0.14-1.18-0.21c-0.75-1.69,0.3-2.46,1.73-3.05c0.71-0.14,1.38-0.06,2,0.3
		c0.92,1.17,0.06,1.98-0.65,2.82c-0.41,0.06-0.82,0.12-1.23,0.19C135.28,120.88,135.05,120.87,134.83,120.84z"/>
	<path class="st16" d="M104.47,171.82c0.76,1.99-1.48,2.83-1.88,4.37c-0.17,0.34-0.43,0.43-0.77,0.22
		c-0.32-0.33-0.65-0.66-0.97-0.99C101.53,173.75,102.16,172.03,104.47,171.82z"/>
	<path class="st26" d="M95.44,171.82c0.85,0.36,1.43,0.93,1.56,1.83c-0.27,0.28-0.54,0.55-0.82,0.83c-1.61-0.26-2.1-1.17-1.72-2.6
		C94.78,171.54,95.1,171.5,95.44,171.82z"/>
	<path class="st100" d="M101.82,176.41c0.27-0.02,0.53-0.1,0.77-0.22c-0.3,1.16-0.6,2.32-0.89,3.48
		C100.31,178.54,101.42,177.49,101.82,176.41z"/>
	<path class="st101" d="M112.68,178.72c-0.59-1.15-2.01-1.93-1.76-3.46c1.39,0.81,2.32,1.94,2.66,3.47
		C113.28,178.73,112.98,178.72,112.68,178.72z"/>
	<path class="st7" d="M75.78,169.05c0.4,0.39,0.8,0.79,1.19,1.18c-1,1.14-1.99,2.29-2.99,3.43c-0.3-0.01-0.6-0.03-0.9-0.08
		C73.07,171.58,74.46,170.33,75.78,169.05z"/>
	<path class="st102" d="M186.95,59.47c-1.23-2.79,0.01-6.05-1.88-8.71c0.17-0.61,0.55-1.02,1.23-1.15c1.21,0.57,1.67,1.55,1.66,2.77
		c-1.26,2.14,1.2,4.65-0.74,6.73C187.12,59.22,187.03,59.34,186.95,59.47z"/>
	<path class="st103" d="M187.22,59.1c0.26-2.24-0.88-4.62,0.74-6.73c0.42,2.27,1.2,4.5,0.87,6.86
		C188.29,59.19,187.76,59.14,187.22,59.1z"/>
	<path class="st104" d="M186.3,49.6c-0.41,0.38-0.82,0.77-1.23,1.15c-1.04-0.66-0.68-1.72-0.83-2.63c-0.3-0.92-0.79-1.93,1-1.83
		C185.99,47.28,186.35,48.38,186.3,49.6z"/>
	<path class="st105" d="M185.23,46.3c-0.33,0.61-0.67,1.22-1,1.83c-1.05-0.93-0.63-2.27-1.07-3.37c0.19-0.67,0.65-1.08,1.35-1.27
		c0.25,0.07,0.5,0.13,0.75,0.18C185.26,44.55,185.24,45.42,185.23,46.3z"/>
	<path class="st106" d="M189.03,62.81c-1.23-0.88-1.28-1.78-0.05-2.7C189.41,61,189.99,61.89,189.03,62.81z"/>
	<path class="st107" d="M178,35.88c0.78-0.03,1.46-0.25,1.82-0.98c1.61,0.67,0.68,2.56,1.85,3.44c0.28,0.27,0.4,0.6,0.4,0.98
		c-0.32,1.24-0.65,2.48-1.47,3.54c-0.27,0.26-0.55,0.51-0.84,0.75c-1.19,0.98-2.38,1.96-3.56,2.95c-1.71-2.8,1.88-3.2,2.52-4.94
		C181.46,39.37,178.02,37.81,178,35.88z"/>
	<path class="st104" d="M196.24,38.42c0.22,1.97-2.38,2.01-2.75,3.58c-1.72-0.2-3.13-1.06-4.54-1.92c-0.58-1.08-0.61-1.86,1.06-1.69
		C192.08,39.3,194.15,40.29,196.24,38.42z"/>
	<path class="st108" d="M190.01,38.38c-0.75,0.35-1.03,0.95-1.06,1.69c-0.93,0.03-1.86,0.07-2.79,0.1
		c-1.22,0.12-2.43,0.24-3.63-0.16c-0.39-0.15-0.69-0.4-0.93-0.73c0.02-0.32,0.03-0.64,0.05-0.96
		C184.44,39.57,187.24,36.8,190.01,38.38z"/>
	<path class="st109" d="M181.61,39.29c0.29,0.04,0.58,0.08,0.87,0.13c1.65,0.46,2.94,1.04,1.02,2.7c0.02,0.22,0.07,0.44,0.13,0.66
		c-1.3,0.75-2.6,0.7-3.87-0.06C180.38,41.58,180.99,40.44,181.61,39.29z"/>
	<path class="st110" d="M183.51,42.12c0.77-1.27-0.13-1.99-1.02-2.7c1.26,0.11,2.67-0.44,3.68,0.75
		C185.52,41.12,184.72,41.88,183.51,42.12z"/>
	<path class="st111" d="M179.77,42.72c1.29,0.02,2.58,0.04,3.87,0.06c0.29,0.24,0.58,0.47,0.87,0.71c-0.45,0.42-0.9,0.84-1.35,1.27
		c-0.98-0.82-2.13-1.16-3.42-1.15C179.75,43.31,179.76,43.02,179.77,42.72z"/>
	<path class="st112" d="M132.82,59.17c6.14-2.62,10.76-7.37,16.48-10.53c8.24-4.55,16.68-8.78,25.04-13.13
		c1.01-0.53,1.81-0.11,2.3,0.71c0.74,1.22,1.97,2.58,0.67,3.95c-6.85,7.23-9.58,16.87-15.99,24.32c-3.54,4.12-7.43,7.99-11.24,11.9
		c-3.13,3.21-6.53,3.09-9.98,0.41c-4.15-3.23-7.16-7.45-10.86-11.08c-1.18-1.16-0.48-2.03,0.42-2.96c1.12-1.16,2.65-2,3.17-3.62
		L132.82,59.17z"/>
	<path class="st41" d="M139.26,78.35c3.23,1.89,6.42,4.16,10.11,0.8c0.93-0.34,1.96-1.48,2.85-0.56c1.18,1.23,0.16,2.37-0.85,3.32
		l0.07-0.04c-1.04,0.86,1.19,2.46-0.79,3.11c-0.69,0.22-1.4,0.25-2.11,0.16c-3.02-0.72-4.26,0.45-4.26,3.31
		c0.02,5.48,0.03,10.95-0.01,16.43c-0.02,2.02,0.05,4.07-1.46,5.76c-0.75,0.77-1.66,1.28-2.73,1.55c-4.26,0.57-8.55,0.05-12.82,0.35
		c-1.56,0.29-3.1,0.72-4.72,0.48c-4.87-1.1-9.81-0.39-14.72-0.54c-2.31,0.56-4.59-0.08-6.88-0.17c-5.79,0.34-11.58,0-17.37,0.2
		c-1.53,0.1-3.04,0.7-4.61,0.24c-0.75-0.2-1.42-0.54-2.07-0.93c-3.89-1.87-8.04-1.34-12.02-0.74c-2.75,0.42-5.29,0.62-8.04-0.03
		c-2.94-0.69-6.01-0.56-9.02,0.05c-1.8,0.36-3.59,0.6-5.35-0.19c-0.77-0.44-1.2-1.11-1.45-1.9c-0.66-14.93-0.18-29.86-0.26-44.78
		c-0.03-6.02-0.36-12.06,0.25-18.07c1.09-3.06,3.84-1.59,5.93-1.95c4.21,0.02,8.43,0.01,12.65-0.01c4.85,0.02,9.71,0.01,14.56,0
		c5.16,0.03,10.33,0.01,15.49,0c3.7,0.02,7.39,0.02,11.09,0c4.49,0.03,8.98,0.01,13.47,0.01c2.75,0.19,5.57-0.41,8.25,0.66
		c0.51,0.3,0.78,0.74,0.82,1.31c-0.16,1.32-1.19,1.72-2.34,2c-2,0.32-3.98,0.19-5.96-0.19c-1.78-0.54-3.61-0.47-5.45-0.47
		c-18.93,0-37.86-0.01-56.79,0c-6.12,0-6.65,0.48-6.65,6.03c-0.02,15.41-0.02,30.82,0.01,46.23c0,1.82-0.47,3.81,1.47,5.16
		c2.2,0.88,4.52,0.6,6.79,0.6c25.01,0.04,50.02-0.04,75.02,0.04c2.36,0.23,4.73,0.21,7.09,0.08c0.71,0.01,1.39-0.08,1.96-0.53
		c0.97-7.83,1.08-15.65-0.11-23.45c-0.65-0.85-1.57-1.54-1.92-2.59c-0.05-0.44,0.1-0.8,0.46-1.09
		C137.72,77.6,138.53,77.74,139.26,78.35z"/>
	<path class="st113" d="M151.36,81.91c0.82-1.88,1.42-3.61-1.99-2.76c4.35-2.82,6.57-7.62,10.91-10.45
		c0.99-0.27,1.32,0.13,1.15,1.02C159.44,74.8,154.74,77.87,151.36,81.91z"/>
	<path class="st114" d="M128.2,67.11c2.8,2.88,5.59,5.76,8.39,8.64c0.68,0.86,0.77,1.73,0.06,2.61l-0.22,0.07
		c-1.98,0.95-3.17-0.41-4.17-1.52c-2.2-2.44-4.78-4.69-5.55-8.03C126.8,67.98,126.83,67.04,128.2,67.11z"/>
	<path class="st115" d="M145.8,48.98c-3.43,3.56-8.06,5.63-12.02,8.53c-1.43,0.12-1.43-0.84-1.49-1.75c2.87-3.91,6.84-6.6,11.2-8.82
		c0.82-0.42,1.73-0.45,2.53,0.18C146.35,47.78,146.31,48.41,145.8,48.98z"/>
	<path class="st116" d="M132.77,55.47c0.11,0.78,0.2,1.57,1.01,2.04c-0.32,0.55-0.64,1.11-0.96,1.66c0,0,0.01-0.03,0.01-0.03
		c-1.65-0.42-2.23,2.41-4.14,1.21c-2.37-0.06-4.37-0.76-5.57-2.85c-0.32-0.66-0.48-1.35-0.55-2.07c-0.2-3.07-0.04-6.13,0.31-9.19
		c-0.02-0.27-0.06-0.54-0.12-0.81c-0.29-0.43-0.24-0.81,0.16-1.15c0.43-0.19,0.89-0.25,1.36-0.16c0.43,0.17,0.76,0.45,1,0.82
		c0.91,2.33,0.45,4.76,0.56,7.14c0.21,4.53,0.64,4.83,5.19,3.36C131.62,55.25,132.19,55.25,132.77,55.47z"/>
	<path class="st117" d="M171.69,35.11c-2.93,1.8-5.88,3.55-9.4,4.17c-0.54-0.53-0.7-1.17-0.6-1.88c1.62-3.01,4.35-4.06,7.77-3.89
		C170.4,33.79,171.24,34.21,171.69,35.11z"/>
	<path class="st118" d="M145.8,48.98c-0.02-0.64-0.04-1.29-0.07-1.93c1.43-2.82,3.39-5.05,6.92-5.52c0.79,0.56,0.59,1.72,1.5,2.21
		C151.37,45.49,148.59,47.23,145.8,48.98z"/>
	<path class="st111" d="M178.7,41.61c-0.17,1.95-3.04,2.68-2.52,4.94c-1.07,2.17-1.95,5.87-4.58,4.92c-1.66-0.6,1.87-3.32,2.59-5.31
		C174.95,44.04,176.54,42.54,178.7,41.61z"/>
	<path class="st119" d="M123.75,57.47c1.65,0.96,3.29,1.92,4.94,2.88c-0.39,0.5-0.79,1-1.18,1.5c-1.49,0.83,0.68,3.42-1.99,3.69
		c-2.19-1.26-2.46-3.39-2.82-5.48C122.7,59.07,122.88,58.15,123.75,57.47z"/>
	<path class="st120" d="M154.16,43.74c-1.37-0.07-1.61-0.71-1.03-1.78c0.57-1.82,1.75-2.93,3.88-2.93c1.01,0.45,2.25,0.74,1.76,2.24
		C157.23,42.09,155.69,42.92,154.16,43.74z"/>
	<path class="st121" d="M171.69,35.11c-0.86-0.13-1.72-0.27-2.13-1.14c0.38-2.6,2.4-2.73,4.53-2.69c-0.12,1.94,2.08,1.77,2.91,2.84
		C175.08,33.71,173.3,34.02,171.69,35.11z"/>
	<path class="st122" d="M158.77,41.27c-0.66-0.63-1.32-1.26-1.98-1.89c1.28-2.11,3.09-2.79,5.51-1.82c0,0.57-0.01,1.15-0.01,1.72
		C161.14,39.99,160.33,41.23,158.77,41.27z"/>
	<path class="st123" d="M125.55,65.36c1.5-0.75,0.24-2.87,1.96-3.51c-0.12,1.79-0.23,3.59,0.69,5.26c-0.29,0.6-0.58,1.21-0.87,1.81
		C125.18,68.42,124.65,67.21,125.55,65.36z"/>
	<path class="st124" d="M167.03,59.31c0.83-1.01,0.17-3.12,2.5-3.04l0.05,0.26c0.57,1.71-0.29,2.84-1.68,3.76
		C167.37,60.16,167.09,59.83,167.03,59.31z"/>
	<path class="st125" d="M161.42,69.73c-0.38-0.34-0.76-0.68-1.15-1.02c0.66-0.84,1.32-1.69,1.98-2.53c0.91-0.2,1.3,0.09,1.02,0.98
		C163.21,68.37,162.52,69.18,161.42,69.73z"/>
	<path class="st126" d="M163.27,67.16c-0.34-0.33-0.68-0.66-1.02-0.98c0.41-1,0.86-1.99,1.91-2.57c0.83-0.16,1.25,0.04,0.93,0.92
		C165.14,65.81,164.36,66.58,163.27,67.16z"/>
	<path class="st127" d="M165.09,64.53c-0.31-0.31-0.62-0.61-0.93-0.92c0.29-1.08,0.83-1.99,1.88-2.58c0.83-0.17,1.32-0.03,0.89,0.9
		C166.98,63.21,166.22,63.99,165.09,64.53z"/>
	<path class="st128" d="M151.29,84.4c-0.18-0.85-1.77-1.78,0.14-2.53c0.43,1.91,2.72,1.18,3.7,2.31c0,0-0.25,0.32-0.25,0.32
		C153.65,85.43,152.46,85.39,151.29,84.4z"/>
	<path class="st129" d="M136.64,78.35c-0.02-0.87-0.04-1.74-0.06-2.61c1.19,0.6,2.31,1.26,2.67,2.61
		C138.39,78.35,137.52,78.35,136.64,78.35z"/>
	<path class="st130" d="M169.59,56.54c0,0-0.06-0.28-0.06-0.27c-0.69-0.96-0.03-1.54,0.75-1.95c0.24-0.13,1.06,0.17,1.06,0.25
		C171.29,55.62,170.8,56.38,169.59,56.54z"/>
	<path class="st124" d="M166.93,61.93c-0.3-0.3-0.59-0.6-0.89-0.9c-0.05-0.77,0.24-1.36,0.99-1.72c0.29,0.33,0.58,0.65,0.87,0.98
		C167.9,61.01,167.67,61.6,166.93,61.93z"/>
	<path class="st131" d="M140.29,111.27c0.61-0.28,1.21-0.56,1.82-0.84c2.09-0.94,1.83-2.74,1.83-4.45c0.01-6.14,0-12.29,0-18.43
		c0-2.58,0.66-4.36,3.99-3.17c0.44,0.23,0.91,0.4,1.4,0.53c1.88,0.52,3.92,0.37,5.76,1.11c4.25,0.3,8.51-0.06,12.76,0.2
		c3.19-0.12,6.27-0.53,8.78-2.66c0.98-0.83,2.02-1.31,3.05-0.03c-0.01,10.77-0.15,21.55,0.05,32.31c0.07,3.64-0.9,5.11-5.08,5.03
		c-12.63-0.25-25.27-0.14-37.9-0.17c0.21-0.84,0.41-1.69,0.62-2.53c-0.5-1.25,0.06-2.37,0.5-3.5
		C138.55,113.47,139.16,112.2,140.29,111.27z"/>
	<path class="st132" d="M167.85,86.22c-4.57,1.08-9.16,0.85-13.75,0.16c-1.33-1.18-3.23-0.23-4.64-1.11l-0.02-0.01
		c-0.31-0.2-0.4-0.4-0.29-0.59c0.11-0.19,0.22-0.28,0.32-0.28c0.61,0.01,1.22,0.01,1.83,0.02c1.2,0.04,2.4,0.07,3.59,0.11
		c3.9,1.67,8.01,0.37,12.01,0.76c0.32-0.33,0.63-0.34,0.94,0.01C167.83,85.59,167.84,85.91,167.85,86.22z"/>
	<path class="st133" d="M167.83,85.27c-0.31,0-0.62-0.01-0.94-0.01c1.03-1.3,2.37-0.68,4-0.85
		C169.8,85.62,168.72,85.06,167.83,85.27z"/>
	<path class="st6" d="M109,164.09c0.74-1.5,1.35-3.11,3.49-3.27c0.31,0.09,0.45,0.23,0.41,0.41c-0.04,0.21-0.1,0.31-0.19,0.31
		c-0.09,1.7-1.56,2.54-2.54,3.69C109.48,165.12,109.37,164.49,109,164.09z"/>
	<path class="st6" d="M109.75,172.8c-1.25-0.52-1.68-2.34-3.49-1.98c-0.2-0.39-0.12-0.72,0.21-1c0.74-0.51,1.59-0.19,2.39-0.3
		c1.48,0.31,1.98,1.28,1.96,2.59C110.87,172.9,110.62,173.27,109.75,172.8z"/>
	<path class="st50" d="M109,164.09c0.39,0.31,0.79,0.62,1.18,0.94c-0.72,0.65-1.44,1.3-2.16,1.95c-0.27,0.21-0.59,0.28-0.97,0.22
		c-0.72-0.16-1.2-0.59-1.76-0.93l0.09-0.06c-0.21-0.72,0.12-0.97,1.04-0.72C107.6,165.38,108.34,164.78,109,164.09z"/>
	<path class="st134" d="M107.34,167.72c0.21-0.11,0.44-0.15,0.67-0.11c0.16,0.68-0.02,1.5,0.85,1.91c-0.84,0.15-1.68,0.31-2.52,0.46
		C105.41,168.73,106.08,168.11,107.34,167.72z"/>
	<path class="st26" d="M112.71,161.54c-0.08-0.24-0.15-0.48-0.23-0.73c-0.39-1.03,0.15-1.72,0.96-2.31
		c0.67,0.74,1.34,1.47,2.01,2.21C114.22,160.06,113.61,161.22,112.71,161.54z"/>
	<path class="st94" d="M109.75,172.8c0.36-0.23,0.72-0.46,1.08-0.69c0.65,0.3,0.97,0.8,0.98,1.48c-0.29,0.3-0.58,0.59-0.87,0.89
		C110.55,173.92,110.15,173.36,109.75,172.8z"/>
	<path class="st135" d="M180.53,5.63c0.11,2.85,0.14,5.7,0.34,8.54c0.26,3.76-1.47,4.23-4.58,2.62c-1.05-0.54-2.1-1.09-3.15-1.64
		c-1.53-1.16-3.21-0.11-4.81-0.29c-6.8-0.34-13.62-1.15-20.28,0.96c-1.6,0.91-3.24,1.78-4.91,2.59c-1.31,0.6-2.67,1.07-4.14,1.17
		c-1.26,0.03-2.5-0.05-3.46-0.97c1.22-3.42,4.78-4.38,7.61-5.43c9.23-3.41,18.84-3.84,28.52-1.61c2.02,0.46,4.14,1.49,5.61-0.92
		c-0.9-3.72-4.31-1.52-6.41-2.4c-4.29-0.35-8.5,0.5-12.77,0.49C110.63,8.65,63.16,8.69,15.68,8.66c-2.72,0-5.52,0.38-8.11-0.84
		c-0.6-0.35-0.76-0.83-0.48-1.44C37.48,6.36,67.86,6.36,98.25,6.3c1.77,0,3.68,0.58,5.29-0.69C129.2,5.62,154.86,5.63,180.53,5.63z"
		/>
	<path class="st136" d="M7.09,6.38c0,0.3,0,0.6,0,0.9c0.66,1.67,0.58,3.41,0.49,5.13C6.96,24.05,8.03,35.68,7.97,47.33
		C7.88,61.81,7.15,76.34,8.37,90.86c0.62,7.28-1.2,14.62-0.8,21.99c0.28,5.12,0.68,5.67,6.16,5.71c8.4,0.07,16.8,0.03,25.2,0.01
		c1.83,0,3.67-0.07,5.4-0.75c0.41-0.32,0.87-0.55,1.36-0.72c1.2-0.23,1.92,0.4,2.51,1.26c0.07,0.23,0.13,0.46,0.2,0.69
		c-0.71,1.69-2.23,1.72-3.81,1.72c-11.91-0.01-23.83-0.06-35.74,0.05c-2.82,0.03-3.68-0.92-3.68-3.52
		C5.23,81.42,5.21,45.55,5.23,9.67C5.23,8.31,4.78,6.62,7.09,6.38z"/>
	<path class="st137" d="M51.13,121.21c-0.29-0.14-0.58-0.27-0.87-0.41c0-1.17-0.65-1.73-1.87-1.75c0,0,0.03,0.03,0.03,0.03
		c-0.78-1.24-1.32-2.55-1.24-4.03c0.18-0.4,0.5-0.65,0.95-0.76c3.06,1.22,3.9,3.72,4.2,6.52C52.01,121.15,51.6,121.27,51.13,121.21z
		"/>
	<path class="st74" d="M162.3,37.56c-1.95,0.31-3.89,0.62-5.51,1.82c-1.73,0.21-2.26,1.95-3.66,2.58c-3.49,0.37-4.79,3.57-7.39,5.09
		c-4.97,1.93-8.71,5.52-12.96,8.43c-2.26,0.45-3.33,3.92-6.22,2.45c-3.08-1.57-1.67-4.56-1.86-6.97c-0.16-2.11,0.01-4.25,0.03-6.38
		c-1.45-4.33,1.28-7.78,2.71-11.5c0.96-2.07,2.59-3.49,4.78-4.37c4.43-1.81,9.3-0.17,13.79-1.54c2.65-0.43,5.32-0.21,7.98-0.32
		c5.82-0.69,11.64-1.57,17.51-0.51c0.33,0.58,0.67,1.16,1,1.73c0.53,1.07,1.07,2.14,1.6,3.21c-1.19,1.37-3.54,1.01-4.53,2.69
		C166.77,34.49,164.06,35.18,162.3,37.56z"/>
	<path class="st138" d="M150.38,16.68c5.13,0.44,10.82-1.25,14.75,3.74c1.08,1.37,2.2,2.42,0.72,4.05c-3.4,2.22-7.45,1.51-11.2,2.16
		c-1.6,0.28-3.29,0-4.91,0.35c-2.27,0.31-4.61,0.16-6.79,0.98c-2.59-0.17-5.85,1.24-6.91-2.58c0.94-3.42,4.02-4.75,6.92-6.24
		c1.59-0.81,3.32-1.35,4.85-2.28C148.63,16.41,149.47,16.07,150.38,16.68z"/>
	<path class="st90" d="M169.46,16.19c2.48,1.1,4.97,2.2,7.45,3.3c-0.81,4.53-3.92,3.96-7.03,2.61c-2.32-1.01-4.33-2.56-4.71-5.25
		c0.11-0.72,0.54-1.2,1.23-1.5C167.58,15.07,168.74,14.93,169.46,16.19z"/>
	<path class="st139" d="M149.36,26.19c5.43-1.13,10.94-1.55,16.48-1.72c1.37,2.01,4.3-0.2,5.65,1.87
		c-5.83,0.55-11.66,1.1-17.48,1.65c-0.28-0.25-0.59-0.46-0.92-0.63c-0.94-0.26-1.96-0.08-2.89-0.4
		C149.82,26.8,149.54,26.54,149.36,26.19z"/>
	<path class="st140" d="M166.07,16.07c-0.3,0.26-0.6,0.52-0.91,0.78c-3.58,0.39-6.89-1.7-10.52-0.98c-1.42,0.28-3.04-0.41-4.27,0.81
		c-0.67,0.32-1.34,0.65-2.01,0.97c-1.85,0.24-3.46,1.68-5.5,1.01c-0.3-0.43-0.3-0.86,0-1.28c1.29-0.76,2.59-1.52,3.88-2.28
		c6.27-1.1,12.56-1.25,18.88-0.43C166.18,15.02,166.33,15.49,166.07,16.07z"/>
	<path class="st141" d="M51.13,121.21c0.33-0.17,0.65-0.34,0.98-0.5c1.27-1.16,2.77-1.02,4.31-0.71c0.49,0.16,0.9,0.45,1.2,0.85
		c-0.01,0.22-0.02,0.44-0.02,0.66C55.43,121.63,53.25,121.99,51.13,121.21z"/>
	<path class="st142" d="M166.07,16.07c-0.02-0.33-0.04-0.66-0.06-0.99c0.69-0.95,1.81-0.81,2.8-0.98c1.47,0.23,3.17-0.36,4.32,1.03
		c-1.32,0.06-2.81-0.42-3.67,1.05C168.33,16.15,167.2,16.11,166.07,16.07z"/>
	<path class="st17" d="M93.27,149.38c0.11,0.26,0.17,0.54,0.17,0.82c0.23,0.23,0.31,0.47,0.27,0.72c-0.05,0.26-0.1,0.39-0.17,0.39
		c-1.46,0.84-2.78,2.07-4.75,1.5c0,0,0.03,0.09,0.03,0.09c-0.08-1.53,0.89-2.54,1.94-3.52C91.6,149.38,92.44,149.38,93.27,149.38z"
		/>
	<path class="st136" d="M101.68,113.08c-1.51,2.37-0.19,5.65-2.8,7.67c-4.82-0.06-9.65-0.12-14.47-0.18
		c-0.92-0.92-1.11-2.06-1.12-3.25c-1.81-4.77-1.25-5.61,3.89-5.61c4.67,0,9.35-0.09,14.02,0.06
		C101.86,112.05,102.02,112.49,101.68,113.08z"/>
	<path class="st143" d="M76.78,120.59c-2.56,0.07-5.13,0.21-7.69,0.19c-2.35-0.02-4.16-0.79-4.19-3.42
		c-1.68-1.19-2.19-2.78-1.4-4.56c0.78-1.75,2.61-1.82,4.29-1.82c2.72,0,5.48-0.44,8.12,0.58C78.97,114.32,78.87,117.37,76.78,120.59
		z"/>
	<path class="st141" d="M76.01,112.17c-2.27-0.02-4.54-0.06-6.82-0.05c-5.61,0.02-5.61,0.03-4.29,5.24
		c-1.04,0.64-0.82,1.67-0.91,2.6c-1.1,0.3-1.43-0.5-1.85-1.15c-0.18-0.31-0.48-0.96-0.57-0.89c-0.42,0.29-0.11,0.84-0.27,1.27
		c-0.12,0.59-0.44,1.07-0.82,1.52c-0.67,0.01-1.34,0.03-2.01,0.04c-0.27-0.34-0.73-0.7-0.7-1.07c0.38-4.56-2.02-6.88-6.65-7.45
		c-0.23-0.51-0.13-0.95,0.29-1.33c0.27-0.14,0.56-0.38,0.82-0.34c7.92,1.14,15.87-0.99,23.78,0.17c0.57,0.09,0.97,0.39,1.19,0.9
		C77.01,112.23,76.61,112.41,76.01,112.17z"/>
	<path class="st144" d="M101.43,112.18c-4.25-0.02-8.53,0.26-12.74-0.13c-4.56-0.43-6.01,1.31-5.39,5.27
		c-0.31-0.28-0.63-0.56-0.94-0.84c-1.52-1.77-1.16-3.51,0.09-5.24c6.42,0.01,12.85,0.02,19.27,0.02
		C101.98,111.67,101.88,111.98,101.43,112.18z"/>
	<path class="st137" d="M51.22,112.08c7.54,0.04,7.54,0.04,7.24,8.67c-0.28,0.01-0.56,0.05-0.84,0.1c-0.31-0.04-0.63-0.08-0.94-0.13
		c-0.99-6.46-0.99-6.46-8.14-6.79c-0.6-0.03-1.2,0.15-1.81-0.02C46.88,110.95,47.42,110.73,51.22,112.08z"/>
	<path class="st145" d="M76.86,111.92c-0.01-0.23-0.01-0.45-0.01-0.68c0.25-0.32,0.55-0.36,0.9-0.14c0.34,0.34,0.68,0.67,1.02,1.01
		c0.96,0.95,1.21,2.2,1.6,3.39c0.12,1.81,1.07,3.72-0.72,5.29c-0.7-0.05-1.39-0.1-2.09-0.15C76.96,117.75,77.92,114.76,76.86,111.92
		z"/>
	<path class="st146" d="M79.62,115.57c-1.3-0.94-0.76-2.27-0.84-3.47c1.23-0.29,2.45-0.57,3.68-0.86c-0.03,1.75-0.06,3.49-0.09,5.24
		c-0.29-0.01-0.57-0.02-0.86-0.02C80.74,116.43,80.29,115.78,79.62,115.57z"/>
	<path class="st147" d="M79.62,115.57c1.33-1.01,1.39,0.36,1.89,0.89c-0.49,1.49,1.13,3.79-1.86,4.32
		C80.3,119.04,79.62,117.31,79.62,115.57z"/>
	<path class="st148" d="M76.86,111.92c1.98,2.78,0.65,5.8,0.7,8.72c0,0-0.39,0.01-0.39,0.01s-0.39-0.05-0.39-0.06
		c-0.09-2.82,0.6-5.71-0.78-8.42C76.3,112.12,76.59,112.03,76.86,111.92z"/>
	<path class="st149" d="M63.1,118.19c0.3,0.59,0.59,1.17,0.89,1.76c-0.93,1.26-2.3,0.68-3.52,0.75c-0.03-0.56-0.07-1.11-0.1-1.67
		C61.13,118.31,61.91,117.67,63.1,118.19z"/>
	<path class="st6" d="M97.18,134.77c-0.47,2-0.46,4.15-1.99,5.83c-0.37-0.13-0.63-0.38-0.77-0.73c-0.07-2.2,0.67-4.2,1.69-6.13
		C96.47,134.09,96.83,134.43,97.18,134.77z"/>
	<path class="st150" d="M94.43,139.88c0.26,0.24,0.51,0.49,0.77,0.73c0.29,1.07-0.05,1.98-0.85,2.75
		C93.27,142.18,92.94,141.01,94.43,139.88z"/>
	<path class="st83" d="M100.92,157.39c0.16,0.81,0.33,1.61,0.49,2.42c-0.37,0.28-0.79,0.4-1.26,0.37c-2.21-0.12-1.58-1.68-1.65-2.89
		c-0.01-0.45,0.14-0.83,0.49-1.14c0.23-0.1,0.45-0.09,0.67,0.03C100.72,155.99,101.14,156.38,100.92,157.39z"/>
	<path class="st61" d="M96.23,152.95c-1.74,0.51-2.18-0.78-2.82-1.8c0.01-0.32,0.02-0.64,0.03-0.95
		C95.65,149.96,95.2,152.12,96.23,152.95z"/>
	<path class="st61" d="M98.99,156.15c-0.02,0.34-0.03,0.67-0.05,1.01c-0.24,0.4-0.48,0.4-0.73,0c-1.38-0.95-2.22-2.16-2.09-3.84
		C97.08,154.27,98.03,155.21,98.99,156.15z"/>
	<path class="st34" d="M101.32,157.48c-0.55-0.41-1.11-0.83-1.66-1.24c1.32-0.67,2.65-1.34,3.97-2.01
		C103.74,155.65,102.75,156.65,101.32,157.48z"/>
	<path class="st28" d="M100.77,159.79c0.21-0.04,0.43-0.03,0.64,0.02c1.2,0.78,2.25,1.65,2.21,3.2c0.34,0.44,0.3,0.84-0.13,1.2
		c-1.72-0.66-1.94-2.31-2.71-3.6c-0.33-0.18-0.44-0.36-0.33-0.54C100.55,159.88,100.66,159.79,100.77,159.79z"/>
	<path class="st24" d="M103.49,164.21c0.04-0.4,0.08-0.8,0.13-1.2c1.5,0.42,1.83,1.89,2.81,2.79c-0.35,0.29-0.69,0.59-1.04,0.88
		C104.75,165.85,104.12,165.03,103.49,164.21z"/>
	<path class="st143" d="M120.93,113.84c-0.38,0.76-0.91,1.48-1.11,2.28c-0.92,3.68-3.27,5.21-7.27,4.73
		c-1.94-0.23-3.93-0.13-5.9-0.18c-1.67-1.07-0.72-2.57-0.72-3.92c0.58-1.87,0.48-4.07,2.85-5.04c3.27-0.04,6.54-0.05,9.81,0
		C119.95,111.74,121.95,111.37,120.93,113.84z"/>
	<path class="st151" d="M120.93,113.84c-0.3-2.04-1.98-1.78-3.45-1.8c-3.15-0.03-6.3-0.01-9.45-0.02c-0.28,0.35-0.61,0.4-0.99,0.17
		c-0.22-0.37-0.18-0.7,0.13-1c5.22,0.32,10.58-1.19,15.66,1c0.87,0.9,0.98,1.89,0.43,2.97c-0.17,0.15-0.33,0.29-0.5,0.44
		C121.56,115.56,121.03,114.9,120.93,113.84z"/>
	<path class="st152" d="M107.22,117.4c-0.46,1.05-1.16,2.06-0.58,3.28c-0.45,0.02-0.9,0.03-1.35,0.05c-0.1-1.38-0.6-2.57-1.81-3.43
		c-0.53-0.77-1.96-1.25-0.87-2.51c1.75-3.48,2.85-1.81,3.88,0.43C106.81,115.91,106.56,116.79,107.22,117.4z"/>
	<path class="st153" d="M124.58,118.24c-0.28-0.02-0.56-0.03-0.83-0.02c-0.72,0.92-1.43,1.85-2.8,0.82
		c-0.32-1.58,0.84-2.46,1.81-3.43c0,0,0.06,0,0.06,0c1.07-0.43,1.69,0.13,2.22,0.9C125.24,117.16,125.15,117.75,124.58,118.24z"/>
	<path class="st154" d="M120.95,119.03c0.93-0.27,1.86-0.55,2.8-0.82c0.15,1.88-0.67,2.82-2.75,2.54
		C120.98,120.18,120.96,119.61,120.95,119.03z"/>
	<path class="st155" d="M106.26,115.54c-1.12-0.68-1.73-3.5-3.66-0.77c-0.06-0.68-0.11-1.37-0.92-1.7c-0.08-0.3-0.16-0.6-0.25-0.9
		c0.09-0.31,0.19-0.61,0.29-0.92c1.83,0.7,3.64,0.64,5.45-0.07c0.02,0.22,0.03,0.43,0.04,0.65
		C107.16,113.14,107.27,114.47,106.26,115.54z"/>
	<path class="st156" d="M132.01,120.73c-1.53-0.01-3.06-0.03-4.58-0.04c-0.89-0.9-1.12-2.05-1.17-3.18
		c-0.08-1.84-0.49-4.13,1.73-4.92c2.54-0.9,5.4-0.9,7.99,0.08c1.3,0.49,0.7,1.73,0.32,2.64
		C135.41,117.48,133.62,119.05,132.01,120.73z"/>
	<path class="st157" d="M132.01,120.73c1.32-2.37,2.65-4.74,3.95-7.07c-0.39-0.3-0.6-0.6-0.81-0.6c-9.46-0.1-7.56-0.77-7.73,7.63
		c-1.23,0.09-1.77-0.5-1.82-1.6c0.21-2.12-0.77-4.29,0.23-6.39c0.24-0.46,0.62-0.78,1.13-0.96c2.71-0.09,5.41,0,8.12-0.05
		c1.62-0.03,3.1,0.06,3.07,2.12c-0.52,1.61-1.27,3.1-2.45,4.38c-1.2,0.43-1.77,1.33-2.05,2.44
		C133.1,120.67,132.56,120.7,132.01,120.73z"/>
	<path class="st158" d="M126.43,113.01c-0.25,2.03,0.95,4.23-0.83,6.07c-0.34-0.28-0.68-0.57-1.02-0.85c-0.01-0.6-0.02-1.2-0.02-1.8
		C124.36,114.9,124.12,113.33,126.43,113.01z"/>
	<path class="st159" d="M135.7,118.19c-0.18-1.52,0.13-2.81,1.8-3.47c0.33-0.31,0.66-0.29,0.98,0.02c0.03,1.26-0.25,2.44-1.13,3.44
		C136.8,118.18,136.25,118.19,135.7,118.19z"/>
	<path class="st54" d="M89.71,165.71c1.26-0.06,2.51-0.12,3.77-0.18c-0.05,0.98-0.11,1.96-0.16,2.94c-0.96,0.26-0.49,0.98-0.54,1.53
		c-0.13,0.11-0.26,0.22-0.39,0.32c-1.04,0.27-3.04,1.82-2.11-0.97C90.8,167.82,89.86,166.91,89.71,165.71z"/>
	<path class="st32" d="M86.03,160.61c3.04-0.22,3.01,2.19,3.78,3.92C87.42,164.18,86.85,162.29,86.03,160.61z"/>
	<path class="st54" d="M95.44,171.82c-0.32,0.02-0.65,0.04-0.97,0.05c0,0-0.45,0.01-0.45,0.01s-0.45-0.05-0.45-0.05
		c-0.39-0.51-0.79-1.02-1.18-1.53c0.11-0.16,0.23-0.32,0.34-0.48c0.18-0.35,0.47-0.59,0.87-0.71
		C94.84,169.64,95.31,170.62,95.44,171.82z"/>
	<path class="st33" d="M100.77,159.79c0,0.27,0.01,0.55,0.01,0.82c-1.76-0.42-2.5,1.08-3.7,1.72c-0.64-0.28-0.98-0.7-0.77-1.4
		c0.02-1.53,2.41-2,1.9-3.76c0.24-0.01,0.48-0.01,0.73,0C98.95,158.41,98.88,159.7,100.77,159.79z"/>
	<path class="st33" d="M96.32,160.93c0.26,0.47,0.51,0.93,0.77,1.4c-0.53,1.23-1.21,2.32-2.72,2.64
		C93.2,162.84,95.46,162.19,96.32,160.93z"/>
	<path class="st150" d="M107.34,167.72c-0.33,0.75-0.66,1.5-0.99,2.26c-0.04,0.28-0.07,0.56-0.09,0.84c-0.61,0.1-1.23,0.2-1.84,0.29
		c-0.45-1.58,1.78-2.7,0.87-4.36C106.15,166.74,106.9,166.95,107.34,167.72z"/>
	<path class="st160" d="M93.6,169.12c-0.29,0.24-0.58,0.47-0.87,0.71c-0.83-0.64-1.48-1.35-0.93-2.46c0.51,0.36,1.01,0.72,1.52,1.08
		C93.47,168.66,93.57,168.88,93.6,169.12z"/>
	<path class="st64" d="M125.55,65.36c-0.05,1.47,0.87,2.51,1.78,3.55c2.34,3.75,4.81,7.4,9.09,9.5c0.43,0.81,1.02,1.45,1.99,1.69
		c0.66,0.38,1.31,0.83,1.29,1.63c-0.16,8.38,0.76,16.77-0.47,25.13c-0.57-0.02-1.15-0.03-1.72-0.05c-2.43-2.28-4.87,0.46-7.31-0.01
		c-28.08,0.01-56.16,0.03-84.23,0.04c-1.36-1.01-0.71-2.42-0.71-3.63c-0.05-17.18-0.04-34.36-0.03-51.53c0-4.74,0.22-4.96,5.08-4.96
		c20.5-0.01,41.01-0.01,61.51,0c1.21,0,2.46-0.22,3.61,0.33c1.78,0.07,3.55,0.15,5.33,0.22c2.13,0.52,2,2.15,2.05,3.7
		c0.05,1.54-0.15,3.09,0.26,4.6c0.5,1.55-0.2,3.22,0.55,4.75C123.88,62.14,124.53,63.81,125.55,65.36z"/>
	<path class="st82" d="M122.83,44.59c0,0.28-0.03,0.57-0.08,0.85c-2.74-0.01-5.47-0.03-8.21-0.04c-4.59-0.71-9.18-0.71-13.78,0
		c-3.67,0-7.35,0-11.02,0c-5.2-0.72-10.41-0.72-15.61,0c-4.9,0-9.8,0-14.69,0c-4.29-0.72-8.57-0.72-12.86,0
		c-1.53,0-3.06,0.01-4.59,0.01c-0.71,0.89-0.47,1.94-0.47,2.92c-0.01,19.42-0.01,38.85,0,58.27c0,0.99-0.23,2.03,0.45,2.93
		c0.31,0.29,0.62,0.58,0.92,0.87c0.28,0.59,0.11,1.01-0.51,1.28c-1.3,0.33-2.29-0.03-2.95-1.15c-0.52-1.08-0.56-2.24-0.56-3.39
		c-0.04-19.47-0.04-38.93,0-58.4c0-2.03,0.01-4.09,2.07-5.45c1.82-1.01,3.85-0.81,5.82-0.81c23.39-0.02,46.78-0.02,70.17,0
		c1.82,0,3.69-0.18,5.4,0.67C122.91,43.49,123.08,43.98,122.83,44.59z"/>
	<path class="st161" d="M115.43,47.06c-21.36,0.05-42.73,0.22-64.09,0.05c-4.45-0.03-5.66,1.16-5.6,5.32
		c0.27,18.14,0.18,36.28,0.23,54.42c-1.83-0.88-1.18-2.51-1.19-3.85c-0.04-17.31,0.05-34.63-0.09-51.94c-0.03-3.47,1-4.88,4.92-4.86
		c20.65,0.14,41.29,0.06,61.94,0.08C112.88,46.28,114.34,45.91,115.43,47.06z"/>
	<path class="st161" d="M41.98,109.53c-1.25-1-0.87-2.37-0.87-3.62c-0.02-18.96-0.02-37.92,0-56.88c0-1.25-0.39-2.63,0.89-3.61
		C41.99,66.78,41.99,88.15,41.98,109.53z"/>
	<path class="st128" d="M149.46,84.38c-0.01,0.29-0.02,0.59-0.03,0.88c-3.77-1.56-4.99-0.45-4.79,3.42
		c0.31,6.12,0.1,12.26,0.07,18.4c-0.01,1.67,0.37,3.7-2.62,3.35c1.83-4,0.62-8.21,0.87-12.32c0.19-3.14,0.02-6.31,0.04-9.46
		C143.04,83.23,144,82.6,149.46,84.38z"/>
	<path class="st161" d="M42.92,111.21c0-0.27-0.01-0.55-0.01-0.82c9.58-1.69,19.29,0.57,28.89-0.83c2.12-0.31,4.3-0.11,5.96,1.54
		c-0.3,0.05-0.6,0.1-0.9,0.14c-8.56,0.02-17.11,0.04-25.67,0.06C48.43,111.06,45.65,113.73,42.92,111.21z"/>
	<path class="st129" d="M139.23,106.87c0.02-7.55,0.04-15.1,0.08-22.65c0.01-1.43,0.03-2.86-0.9-4.1c1.33,0.05,1.85,0.78,1.84,1.94
		c-0.01,7.83-0.01,15.65-0.09,23.48C140.16,105.98,139.56,106.42,139.23,106.87z"/>
	<path class="st162" d="M138.47,114.74c-0.33-0.01-0.65-0.01-0.98-0.02c0.19-2.16-1.06-2.72-3.1-2.64c-2.6,0.1-5.2,0.06-7.8,0.07
		c-0.31-0.12-0.44-0.29-0.39-0.49c0.05-0.22,0.11-0.33,0.19-0.33c4.63-0.02,9.26-0.05,13.9-0.07
		C140.38,112.75,140.02,114.02,138.47,114.74z"/>
	<path class="st163" d="M122.66,55.86c-1.94-2.6,0.18-6.01-1.9-8.58c0.79-0.18,1.65-0.25,2.12-1.03c1.7,3.08,0.51,6.37,0.73,9.55
		C123.32,56.22,123,56.24,122.66,55.86z"/>
	<path class="st164" d="M130.2,106.81c1.59-1.23,3.68-1.31,5.45-2.73c1.9-1.53,1.54,1.5,1.86,2.74
		C135.07,106.81,132.64,106.81,130.2,106.81z"/>
	<path class="st165" d="M74.14,45.4c5.2-1.35,10.41-1.35,15.61,0C84.55,45.4,79.34,45.4,74.14,45.4z"/>
	<path class="st166" d="M126.39,111.34c0.05,0.27,0.12,0.55,0.2,0.81c-0.05,0.29-0.11,0.58-0.16,0.86
		c-0.63,1.14-1.25,2.28-1.88,3.43c-0.58-0.28-1.16-0.56-1.74-0.84c0-1.14,0.01-2.27,0.01-3.41
		C124.02,111.91,125.21,111.62,126.39,111.34z"/>
	<path class="st165" d="M100.77,45.4c4.59-1.37,9.18-1.37,13.78,0C109.96,45.4,105.36,45.4,100.77,45.4z"/>
	<path class="st165" d="M46.59,45.4c4.29-1.35,8.57-1.35,12.86,0C55.16,45.4,50.87,45.4,46.59,45.4z"/>
	<path class="st165" d="M122.83,44.59c-0.06-0.39-0.11-0.77-0.17-1.16c-0.19-0.38-0.27-0.77-0.25-1.19
		c0.29-1.82,0.12-3.66,0.28-5.49c2.86-7.6,8.12-13.35,15.29-17.63c0.68,0.1,1.22,0.41,1.59,0.97c0.12,2.39-2.62,2.93-3.43,4.71
		c1.72,3.98-2.2,3.68-4.15,4.88c-1.27,1.2-2.53,2.4-3.8,3.61c-2.91,3.22-2.31,7.68-4.45,11.18
		C123.44,44.54,123.13,44.57,122.83,44.59z"/>
	<path class="st167" d="M123.74,44.48c1.45-3.74,0.53-8.32,4.46-11.18c-1.33,3.71-3.24,7.26-3.47,11.28
		C124.4,44.55,124.07,44.52,123.74,44.48z"/>
	<path class="st168" d="M122.66,55.86c0.32-0.02,0.63-0.04,0.95-0.06c0.05,0.56,0.09,1.11,0.14,1.67c-0.04,0.95-0.09,1.91-0.13,2.86
		C122.32,59.03,122.66,57.41,122.66,55.86z"/>
	<path class="st128" d="M149.46,85.27c1.59,0.21,3.5-0.77,4.64,1.11C152.48,86.26,150.81,86.34,149.46,85.27z"/>
	<path class="st169" d="M45.7,117.29c0.15,2.13-1.06,2.66-3.12,2.65c-10.86-0.06-21.72-0.07-32.58,0c-3.13,0.02-3.97-1.46-3.83-4.06
		c0.34-6.6-0.13-13.18,0.74-19.82c0.89-6.82-0.62-13.8-0.52-20.65c0.19-12.44,0.16-24.9,0.49-37.34c0.23-8.72-0.86-17.51-0.67-26.29
		c0.03-1.52-0.61-3.21,0.89-4.49c51.52,0,103.04-0.03,154.56,0.06c3.59,0.01,7.17-1.78,10.76-0.06c0.43,0.37,0.55,0.82,0.43,1.29
		c-0.24,0.12-0.31,0.29-0.2,0.48c0.17-0.2,0.39-0.28,0.7-0.22c1.78,0.82,3.95,0.58,5.5,1.92c-1.51,4.32-4.93,2.82-7.79,2.05
		c-7.25-1.93-14.34-1.46-21.67-0.13c-5.24,0.95-9.38,3.42-13.68,5.93c0.53,1.56-0.77,2.33-1.68,3.17c-2.86,2.66-5.6,5.42-8.25,8.27
		c-3.83-0.57-0.82,2.6-2.09,3.43c-0.19,0.69-0.62,1.25-1.03,1.83c-2.22,7.5-2.22,7.5-10.56,7.5c-22.43,0-44.86,0-67.29,0.01
		c-2.42,0-5.11-0.4-5.66,2.89c-0.84,3.98-0.37,8.01-0.41,12.01c-0.15,14.19,0.17,28.39-0.16,42.57c-0.15,1.36-0.84,2.68-0.31,4.09
		c0.5,2.03,0.08,4.16,0.74,6.17c0.45,1.83,2.36,1.51,3.61,2.15c1.72,0.88,2.71,2.22,3.12,3.99C45.71,116.89,45.7,117.09,45.7,117.29
		z"/>
	<path class="st170" d="M125.55,29.8c2.2-4.68,7.21-7.11,10.14-11.2c1.18-0.04,2.36-0.08,3.53-0.12c0.49,0.86,0.12,1.12-0.78,1.02
		c-6.39,4.55-11.78,9.88-14.82,17.04c-1.01,2,0.35,4.29-0.85,6.28c-0.08,0.2-0.12,0.41-0.12,0.62c-2.58,0.13-5.16,0.38-7.74,0.38
		c-24.56,0.04-49.12,0.04-73.68,0.05c-0.09-0.26-0.17-0.53-0.26-0.79c1.43-1.29,3.21-0.64,4.8-0.65c23.25-0.05,46.5-0.1,69.75,0.04
		c3.83,0.02,6.24-0.47,5.78-4.77c-0.13-1.26,0.5-2.54,1.48-3.54c0.01-0.56,0.02-1.12,0.03-1.68
		C124.11,31.91,124.13,30.23,125.55,29.8z"/>
	<path class="st82" d="M168.81,14.11c-0.64,1.07-1.76,0.94-2.8,0.98c-6.42,0-12.84,0.01-19.26,0.01
		C154,12.63,161.39,13.01,168.81,14.11z"/>
	<path class="st171" d="M178.84,10.75c-2.3-0.04-4.79,0.52-6.43-1.73v0c0-0.58,0-1.15,0-1.73C174.89,7.88,179.25,5.37,178.84,10.75z
		"/>
	<path class="st172" d="M138.44,19.5c0.26-0.34,0.52-0.68,0.78-1.02c1.21-0.37,2.43-0.73,3.64-1.1c0.05,0.4,0.1,0.79,0.14,1.19
		c-0.49,1.95-1.82,2.33-3.66,1.72C139.05,20.02,138.75,19.76,138.44,19.5z"/>
	<path class="st170" d="M42.92,111.21c2.75,1.06,5.52-0.58,8.27,0.08c-0.01,0.26,0,0.52,0.03,0.79c-0.99,1.05-4.12-1.86-3.72,1.78
		c0.23,0.18,0.31,0.36,0.25,0.56c-0.06,0.2-0.12,0.3-0.19,0.3l-0.16,0.08c-0.39,0.81,0.2,1.91-0.83,2.53
		c-0.29-0.01-0.59-0.03-0.88-0.04c0,0,0,0.02,0,0.02c-0.64-2.96-2.77-4.5-5.67-5.31c-0.12-0.41,0-0.74,0.4-0.96
		C41.26,111.1,42.09,111.15,42.92,111.21z"/>
	<path class="st80" d="M46.57,117.33c0.08-0.9-0.17-1.9,0.83-2.54c1.08,1.28,1.16,2.76,1.02,4.3
		C47.81,118.5,47.19,117.91,46.57,117.33z"/>
	<path class="st136" d="M47.56,114.71c-0.04-0.29-0.06-0.57-0.06-0.86c2.66-1.71,6.05-1.52,8.33-0.59c3.63,1.48,1.64,4.81,0.85,7.45
		c-1.53,0-3.05-0.01-4.58-0.01C50.6,118.7,50.05,116.06,47.56,114.71z"/>
	<path class="st173" d="M131.99,29.7c1.53-1.51,4.86-1.85,3.7-5.1c0.3-0.34,0.6-0.32,0.89,0.01c0.58,4.23,4.04,2.11,6.33,2.55
		c1.29-0.33,2.33,0.02,3.12,1.04C141.55,30.37,136.58,28.43,131.99,29.7z"/>
	<path class="st121" d="M146.02,28.2c-1.04-0.35-2.08-0.69-3.12-1.04c1.96-1.47,4.36-0.3,6.45-0.97c0.07,0.16,0.18,0.31,0.31,0.44
		c1.39,0.48,2.96-0.26,4.3,0.53c0,0.28,0.01,0.55,0.03,0.83C151.36,28.66,148.69,28.33,146.02,28.2z"/>
	<path class="st82" d="M136.58,24.61l-0.45-0.03c0,0-0.45,0.02-0.45,0.02c1.22-1.44,2.45-2.88,3.67-4.31
		c1.45-0.14,2.72-0.61,3.66-1.72c1.79-0.26,3.45-1.25,5.35-0.91C144.34,19.83,139.77,21.18,136.58,24.61z"/>
	<path class="st174" d="M153.98,27.16c-1.45-0.08-2.99,0.52-4.3-0.54C151.16,26.45,152.72,25.75,153.98,27.16z"/>
	<path class="st175" d="M63.1,118.19c-0.91,0.28-1.82,0.56-2.73,0.85c0-1.21,0-2.42,0-3.8C62.39,115.73,62.39,117.22,63.1,118.19z"
		/>
	<path class="st176" d="M106.26,115.54c0.07-1.29-0.31-2.68,0.95-3.69c0.27,0.09,0.54,0.16,0.82,0.19
		c-0.27,1.79-0.54,3.57-0.81,5.36C106.9,116.78,106.58,116.16,106.26,115.54z"/>
	<path class="st170" d="M41.24,43.86c-0.82,0.95-1.01,2.05-1,3.24c0.07,21.31,0.13,42.63,0.19,63.94c0,0-0.33,0.27-0.33,0.27
		c-2.15-0.43-1.73-2.12-1.73-3.44c-0.06-19.99-0.08-39.99,0.06-59.98c0.01-1.58-0.99-4.34,2.56-4.34L41.24,43.86z"/>
	<path class="st82" d="M122.78,42.81c0.15-2.11-0.77-4.34,0.85-6.27C123.43,38.64,124.59,40.91,122.78,42.81z"/>
	<path class="st135" d="M40.98,43.54c-1.81,0.39-1.77,1.74-1.77,3.06c0,20.78,0,41.56,0,62.35c0,0.88,0.11,1.73,0.88,2.36
		c2.64,1.36,5.98,2.14,5.6,6c-1.14-3.45-5.44-3.47-7.38-6.05c-1.22-2.2,0.36-4.73-0.92-6.93c-1.17-0.87-1.18-1.74,0-2.6
		c0.9-1.48,0.45-3.1,0.45-4.65c0.04-15.67,0.01-31.34,0.04-47.01c0-1.55-0.42-3.16,0.42-4.66c-0.22-3.84,2.66-3.47,5.29-3.47
		c23.32,0,46.65-0.07,69.97,0.07c4.07,0.02,7.36,0.05,7.25-5.01c-0.03-1.17-0.03-2.75,1.98-2.86c-0.2,0.69-0.31,1.42-0.62,2.06
		c-0.95,1.95,0.77,4.7-1.48,6.05c-2.25,1.34-5.07,0.54-7.63,0.54c-22.27,0.05-44.53,0.02-66.8,0.05
		C44.5,42.84,42.59,42.33,40.98,43.54z"/>
	<path class="st177" d="M38.31,45.4c0,17.28,0.02,34.56-0.02,51.84c0,1.51,0.61,3.2-0.89,4.48c0-17.28-0.02-34.56,0.03-51.83
		C37.43,48.38,36.82,46.68,38.31,45.4z"/>
	<path class="st135" d="M125.55,29.8c-0.61,1.16-0.98,2.53-2.72,2.66c0.1-0.4,0.32-0.81,0.28-1.2c-0.12-1.09-3.02-1.37-1.34-2.78
		C123.19,27.27,124.23,29.42,125.55,29.8z"/>
	<path class="st178" d="M125.51,20.87c-0.84-0.17-1.44-0.62-1.44-1.38c0.01-1.21,0.9-1.72,2.06-1.65c0.87,0.05,1.25,0.68,1.1,1.48
		C127.06,20.23,126.51,20.81,125.51,20.87z"/>
	<path class="st177" d="M37.4,104.33c1.84,2.13,0.52,4.63,0.92,6.93C36.49,109.13,37.81,106.62,37.4,104.33z"/>
	<path class="st135" d="M172.41,9.02c-0.54,0.79-0.93,1.89-2.27,1.2c-0.24-0.13-0.41-0.81-0.28-1.09
		C170.59,7.62,171.54,8.88,172.41,9.02C172.41,9.02,172.41,9.02,172.41,9.02z"/>
</g>
</svg>
