<?xml version="1.0" encoding="UTF-8"?>
<svg id="_Слой_2" data-name="Слой 2" xmlns="http://www.w3.org/2000/svg" viewBox="0 0 114.76 199">
  <defs>
    <style>
      .cls-1 {
        stroke-width: 5px;
      }

      .cls-1, .cls-2, .cls-3, .cls-4 {
        stroke: #fd0;
      }

      .cls-1, .cls-3, .cls-4 {
        stroke-miterlimit: 10;
      }

      .cls-1, .cls-4 {
        fill: #fd0;
      }

      .cls-2 {
        stroke-linejoin: round;
      }

      .cls-2, .cls-3 {
        fill: none;
        stroke-width: 7px;
      }

      .cls-5 {
        fill: #fe0002;
      }
    </style>
  </defs>
  <g id="_Слой_9" data-name="Слой 9">
    <g>
      <polygon class="cls-4" points="92.26 .5 92.26 23.5 24.26 23.5 24.26 .5 40.26 .5 40.26 9.5 50.26 9.5 50.26 .5 66.26 .5 66.26 9.5 76.26 9.5 76.26 .5 92.26 .5"/>
      <g>
        <g>
          <path class="cls-1" d="M112.26,140.46c0,30.95-24.57,56.04-54.88,56.04S2.5,171.41,2.5,140.46V36.11H111.31v93.97c.62,3.36,.95,6.83,.95,10.38Z"/>
          <g>
            <rect class="cls-5" x="10.26" y="44.5" width="94" height="71"/>
            <path class="cls-5" d="M57.22,143.32l39.22,23.05c-40.56,49-78.44,0-78.44,0"/>
            <polygon class="cls-5" points="57.49 144.5 10.73 115.5 104.26 115.5 57.49 144.5"/>
          </g>
        </g>
        <g>
          <path class="cls-2" d="M57.02,100.48c24.74,21.52,25.74-4.48,28-8.72"/>
          <path class="cls-2" d="M58.17,101.1c-26.41,18.9-26.41-5.1-28-8.72"/>
          <line class="cls-3" x1="57.76" y1="57.5" x2="57.76" y2="103"/>
          <line class="cls-3" x1="46.26" y1="69.5" x2="69.26" y2="69.5"/>
        </g>
      </g>
    </g>
  </g>
</svg>