<?xml version="1.0" encoding="UTF-8"?>
<svg id="_Слой_2" data-name="Слой 2" xmlns="http://www.w3.org/2000/svg" viewBox="0 0 111 183.82">
  <defs>
    <style>
      .cls-1 {
        fill: #ffd205;
      }
    </style>
  </defs>
  <g id="_Слой_17" data-name="Слой 17">
    <path class="cls-1" d="M109.97,14.2c-22.1,11.06-27.75,35.7-27.75,35.7-4.11,21.07-5.14,46.76-5.14,46.76,11.82,0,10.28,9.25,10.28,9.25-.51,10.79-12.85,9.76-12.85,9.76-14.9-29.29-14.39-46.76-14.39-46.76,3.6-57.04,2.06-55.5,2.06-55.5-1.54-7.71-6.68-13.41-6.68-13.41,0,0-5.14,5.71-6.68,13.41,0,0-1.54-1.54,2.06,55.5,0,0,.51,17.47-14.39,46.76,0,0-12.33,1.03-12.85-9.76,0,0-1.54-9.25,10.28-9.25,0,0-1.03-25.69-5.14-46.76,0,0-5.65-24.64-27.75-35.7l-1.03-.27V147.02H31.53s.84,18.5,19.86,32.38c0,0,1.03-.41,4.11,4.42,3.08-4.83,4.11-4.42,4.11-4.42,19.01-13.88,19.86-32.38,19.86-32.38h31.53V13.93l-1.03,.27ZM9.76,33.45c3.08,1.53,9.76,18,9.76,18,2.06,7.19,4.62,38.03,4.62,38.03-8.74,4.62-9.25,11.31-9.25,11.31l-5.14,.15V33.45Zm20.41,104.33H9.76v-27.24h4.98c2.92,14.9,17.63,13.88,17.63,13.88-3.08,2.57-2.2,13.36-2.2,13.36Zm20.7,28.78c-9.76-11.31-10.15-19.2-10.15-19.2h10.15v19.2Zm0-28.78h-11.31c0-8.74,1.54-11.31,1.54-11.31,11.31,3.08,9.76,11.31,9.76,11.31Zm4.62-12.89s-8.22-7.15-10.28-6.12c0,0,9.25-16.95,10.28-22.61,1.03,5.66,10.28,22.61,10.28,22.61-2.06-1.03-10.28,6.12-10.28,6.12Zm4.62,41.67v-19.2h10.15s-.39,7.89-10.15,19.2Zm0-28.78s-1.54-8.22,9.76-11.31c0,0,1.54,2.57,1.54,11.31h-11.31Zm41.11,0h-20.41s.89-10.79-2.2-13.36c0,0,14.71,1.03,17.63-13.88h4.98v27.24Zm0-36.85l-5.14-.15s-.51-6.68-9.25-11.31c0,0,2.57-30.83,4.62-38.03,0,0,6.68-16.46,9.76-18V100.93Z"/>
  </g>
</svg>