<?xml version="1.0" encoding="UTF-8"?>
<svg id="_Слой_2" data-name="Слой 2" xmlns="http://www.w3.org/2000/svg" viewBox="0 0 417 197">
  <defs>
    <style>
      .cls-1 {
        fill: #fd0;
        stroke: #fd0;
      }

      .cls-1, .cls-2 {
        stroke-width: 5px;
      }

      .cls-1, .cls-2, .cls-3, .cls-4 {
        stroke-miterlimit: 10;
      }

      .cls-2, .cls-3, .cls-4 {
        stroke: red;
      }

      .cls-2, .cls-3, .cls-5 {
        fill: #fe0002;
      }

      .cls-3 {
        stroke-width: .75px;
      }

      .cls-4 {
        fill: none;
        stroke-width: 14px;
      }
    </style>
  </defs>
  <g id="_Слой_9" data-name="Слой 9">
    <g>
      <rect class="cls-1" x="2.5" y="2.5" width="412" height="192"/>
      <path class="cls-3" d="M138.96,73.07c-1.08-5.3-2.66-14.3-7.37-17.48-4.71-3.18-13.17-2.01-18.4-1.08-5.96,1.06-11.57,3.27-14.57,9.18-3.06,6.02-3.57,13.69-4.3,20.33-.88,8.04-1.24,16.12-1.33,24.21-.09,7.94,.37,15.94,.04,23.88-.1,2.29-.97,8.82-4.41,7.88-2.7-.75-2-6.35-1.9-8.5,.74-16.42,2.56-32.79,1.98-49.24-.23-6.52,.07-15.17-3.04-21.07-2.85-5.4-8.59-7.75-14.18-8.29-10.54-1.03-24.67,.03-29.3,11.92-2.82,7.24-2.4,16.28-2.71,23.93-.36,9.04-.39,18.08-.17,27.12,.17,7.14,.85,18.68-6.58,22.55-9.87,5.14-9.07-10.5-9.5-16.26-.46-6.16-9.65-5.92-9.19,.28,.5,6.68-.23,13.89,3.4,19.78,3.06,4.98,8.62,7.28,14.15,6.46,13.9-2.06,17.14-18.09,16.96-30.32-.11-8.09-.29-16.17-.08-24.26,.2-7.52-.05-15.69,1.46-23.09,1.43-6.98,7.08-8.24,13.07-8.54,6.18-.31,14.22-1.07,15.5,6.9,2.58,16.02,.9,33.04-.15,49.16-.63,9.55-4.27,32.05,11.01,31.27,15.14-.78,12.84-21.89,12.79-32.46-.04-8.09,.02-16.2,.53-24.28,.47-7.47,.81-16.13,3.35-23.24,1.56-4.36,5.16-5.27,9.16-5.91,2.92-.47,9.66-1.6,11.62,.83,1.99,2.47,2.7,8.09,3.33,11.2,.9,4.44,1.19,8.96,1.2,13.5,.05,18.2-1.12,36.5-1.72,54.7-.21,6.21,8.98,5.91,9.19-.28,.54-16.07,1.13-32.14,1.61-48.21,.23-7.59,.06-15.1-1.46-22.54Z"/>
      <path class="cls-5" d="M156.59,91.21c-.08,17.08-.16,34.15-.24,51.23-.03,6.6,9.73,6.3,9.76-.3,.08-17.08,.16-34.15,.24-51.23,.03-6.6-9.73-6.3-9.76,.3Z"/>
      <path class="cls-5" d="M178.89,90.77c-.37-6.56-10.13-6.3-9.76,.3,.99,17.45,.97,34.92-.07,52.39-.39,6.58,9.37,6.25,9.76-.3,1.04-17.46,1.06-34.94,.07-52.39Z"/>
      <path class="cls-5" d="M176.31,55.09c-3.34-2.59-7.83-2.56-11.1,.23-.13,.11-.26,.24-.38,.36-1.82-.39-3.78,.27-4.91,2.54-2.16,4.35-1.42,9.13,1.55,12.79,2.6,3.2,6.74,5.57,10.86,4.5,8.48-2.19,10.85-15.09,3.98-20.41Z"/>
      <path class="cls-5" d="M198.01,98.81s40.37-3.27,43.76-45.25c0,0-41.88,6.46-43.76,45.25Z"/>
      <path class="cls-5" d="M241.21,148.5s-7.72-43.56-44.7-43.41c0,0,4.62,42.15,44.7,43.41"/>
      <line class="cls-2" x1="258.16" y1="57.67" x2="347.02" y2="58.43"/>
      <line class="cls-2" x1="257.03" y1="69.84" x2="346.17" y2="71.11"/>
      <line class="cls-2" x1="256.18" y1="82.53" x2="345.29" y2="82.65"/>
      <line class="cls-2" x1="289.94" y1="94.6" x2="290.69" y2="152.22"/>
      <line class="cls-2" x1="303.22" y1="94.88" x2="303.96" y2="152.5"/>
      <line class="cls-2" x1="315.27" y1="94.51" x2="316.02" y2="152.13"/>
      <path class="cls-4" d="M397.17,102.54c.47,24.54-1.2,44.5-16.08,44.95-14.88,.45-17.31-19.38-17.78-43.93-.47-24.54-1.86-43.14,16.08-44.95s17.31,19.38,17.78,43.93Z"/>
    </g>
  </g>
</svg>