<?xml version="1.0" encoding="UTF-8"?>
<svg id="_Слой_2" data-name="Слой 2" xmlns="http://www.w3.org/2000/svg" viewBox="0 0 367 244">
  <defs>
    <style>
      .cls-1 {
        fill: #fff;
      }

      .cls-2 {
        fill: none;
        stroke: #fff;
        stroke-miterlimit: 10;
        stroke-width: 9px;
      }

      .cls-3 {
        fill: red;
      }
    </style>
  </defs>
  <g id="_Слой_8" data-name="Слой 8">
    <g>
      <path class="cls-3" d="M367,244V0C244.67,0,122.33,0,0,0V244H367Z"/>
      <path class="cls-1" d="M30.83,30.54V0C20.55,10.18,10.28,20.36,0,30.54"/>
      <path class="cls-1" d="M61.83,30.54V0c-10.28,10.18-20.55,20.36-30.83,30.54"/>
      <path class="cls-1" d="M91.83,30.54V0c-10.28,10.18-20.55,20.36-30.83,30.54"/>
      <path class="cls-1" d="M122.83,30.54c0-10.18,0-20.36,0-30.54-10.28,10.18-20.55,20.36-30.83,30.54"/>
      <path class="cls-1" d="M152.83,30.54c0-10.18,0-20.36,0-30.54-10.28,10.18-20.55,20.36-30.83,30.54"/>
      <path class="cls-1" d="M183.83,30.54c0-10.18,0-20.36,0-30.54-10.28,10.18-20.55,20.36-30.83,30.54"/>
      <path class="cls-1" d="M213.83,30.54V0c-10.28,10.18-20.55,20.36-30.83,30.54"/>
      <path class="cls-1" d="M244.83,30.54c0-10.18,0-20.36,0-30.54-10.28,10.18-20.55,20.36-30.83,30.54"/>
      <path class="cls-1" d="M274.83,30.54V0c-10.28,10.18-20.55,20.36-30.83,30.54"/>
      <path class="cls-1" d="M304.83,30.54V0c-10.28,10.18-20.55,20.36-30.83,30.54"/>
      <path class="cls-1" d="M335.83,30.54V0c-10.28,10.18-20.55,20.36-30.83,30.54"/>
      <path class="cls-1" d="M336,30v30.54c10.28-10.18,20.55-20.36,30.83-30.54"/>
      <path class="cls-1" d="M336,61v30.54c10.28-10.18,20.55-20.36,30.83-30.54"/>
      <path class="cls-1" d="M336,91v30.54c10.28-10.18,20.55-20.36,30.83-30.54"/>
      <path class="cls-1" d="M336.14,152.68c10.18,0,20.36,0,30.54,0-10.18-10.28-20.36-20.55-30.54-30.83"/>
      <path class="cls-1" d="M336.14,183.68c10.18,0,20.36,0,30.54,0-10.18-10.28-20.36-20.55-30.54-30.83"/>
      <path class="cls-1" d="M336.14,213.68h30.54c-10.18-10.28-20.36-20.55-30.54-30.83"/>
      <path class="cls-1" d="M336.69,212.86h-30.54c10.18,10.28,20.36,20.55,30.54,30.83"/>
      <path class="cls-1" d="M305.68,212.86h-30.54c10.18,10.28,20.36,20.55,30.54,30.83"/>
      <path class="cls-1" d="M275.68,212.86h-30.54l30.54,30.83"/>
      <path class="cls-1" d="M245.68,212.86h-30.54c10.18,10.28,20.36,20.55,30.54,30.83"/>
      <path class="cls-1" d="M214.68,212.86h-30.54c10.18,10.28,20.36,20.55,30.54,30.83"/>
      <path class="cls-1" d="M184.68,212.86h-30.54c10.18,10.28,20.36,20.55,30.54,30.83"/>
      <path class="cls-1" d="M153.68,212.86h-30.54l30.54,30.83"/>
      <path class="cls-1" d="M122.68,212.86h-30.54c10.18,10.28,20.36,20.55,30.54,30.83"/>
      <path class="cls-1" d="M92.68,212.86h-30.54c10.18,10.28,20.36,20.55,30.54,30.83"/>
      <path class="cls-1" d="M62.68,212.86h-30.54c10.18,10.28,20.36,20.55,30.54,30.83"/>
      <path class="cls-1" d="M32.68,212.86H2.14l30.54,30.83"/>
      <path class="cls-2" d="M168,130V50.5"/>
      <path class="cls-2" d="M136.25,78.25c20.75,0,41.5,0,62.25,0"/>
      <path class="cls-1" d="M173,120h-10c-1,17-14,14-14,14-14-3-12.75-20.83-12.75-20.83,3.25,2.17,4.75,.83,4.75,.83-5-7-2-17-2-17,0,0-7.77,5.64-8.2,25-.26,11.9,12.34,25.48,22.2,24,2.59-.39,8,.61,15-6.69"/>
      <path class="cls-1" d="M163,120h10c1,17,14,14,14,14,14-3,12.75-20.83,12.75-20.83-3.25,2.17-4.75,.83-4.75,.83,5-7,2-17,2-17,0,0,8.24,5.15,8.2,25-.03,12.09-11.91,25.62-22.2,24-2.61-.41-8,.61-15-6.69"/>
      <path class="cls-1" d="M221,194c-5-2-4-6-4-6-6-5-24-9-24-9-2,13-7,12-7,12-4,0-4-3-4-3,1-4,4-2,4-2,3,1,4-9,4-9-10.68-2.78-21.17-7.4-31-12-19.21-8.99-46.93-23.67-52-45-1.31-5.51,2-4,2-4,15.92,29.89,79.21,57.28,84,54,1.67-1.14,4.91-11,4.91-11,3.91-3,6.09,0,6.09,0,1,6-3,5-3,5-2-7-5,8-5,8,9.29,2.48,21.37,5.1,27,10,7.96,6.94-2,12-2,12Z"/>
      <path class="cls-1" d="M115.9,194c5-2,4-6,4-6,6-5,24-9,24-9,2,13,7,12,7,12,4,0,4-3,4-3-1-4-4-2-4-2-3,1-4-9-4-9,10.69-2.9,21.14-7.39,31-12,19.21-8.98,46.97-23.59,52-45,1.3-5.53-2-4-2-4-14.85,29.95-79.33,57.2-84,54-1.67-1.14-4.91-11-4.91-11-3.91-3-6.09,0-6.09,0-1,6,3,5,3,5,2-7,5,8,5,8-9.19,2.28-21.43,5.11-27,10-7.98,7,2,12,2,12Z"/>
    </g>
  </g>
</svg>