<?xml version="1.0" encoding="UTF-8"?>
<svg id="_Слой_2" data-name="Слой 2" xmlns="http://www.w3.org/2000/svg" viewBox="0 0 417 197">
  <defs>
    <style>
      .cls-1 {
        fill: #fe0002;
        stroke-width: 3px;
      }

      .cls-1, .cls-2, .cls-3 {
        stroke-miterlimit: 10;
      }

      .cls-1, .cls-3 {
        stroke: red;
      }

      .cls-2 {
        fill: #fd0;
        stroke: #fd0;
        stroke-width: 5px;
      }

      .cls-3 {
        fill: none;
        stroke-linecap: round;
        stroke-width: 7px;
      }

      .cls-4 {
        fill: red;
      }
    </style>
  </defs>
  <g id="_Слой_9" data-name="Слой 9">
    <g>
      <rect class="cls-2" x="2.5" y="2.5" width="412" height="192"/>
      <path class="cls-4" d="M50.03,121.03c10.01-5.17,18.91-12.29,27-20.07,4-3.85,7.83-7.88,11.58-11.98,1.82-2,3.63-4.01,5.43-6.03s3.78-4.14,4.89-6.78c1.25-2.96,1.31-6.64-1.18-9.03s-6.45-2.7-9.37-.69c-2.67,1.84-4.13,4.53-5.48,7.38-1.28,2.69-2.52,5.4-3.72,8.12-5.01,11.32-9.45,22.89-13.21,34.69-1.97,6.17-3.59,12.44-5.43,18.65-.4,1.36-.84,2.71-1.33,4.04-.09,.24-.18,.48-.27,.72-.12,.31-.46,1.06-.13,.34-.31,.69-.63,1.38-.98,2.05-.29,.55-.6,1.09-.93,1.62-.16,.26-.34,.52-.51,.78-.12,.18-.96,1.22-.29,.43-.89,1.06-1.84,2.01-2.93,2.87l7.07,5.45c.49-.75,1-1.48,1.53-2.2-.61,.84,.36-.44,.47-.58,.24-.29,.49-.58,.74-.86,1.17-1.32,2.42-2.57,3.73-3.74,.66-.59,1.34-1.15,2.03-1.71,.98-.8-.72,.53,.29-.23,.41-.3,.82-.61,1.23-.9,1.41-1,2.86-1.94,4.34-2.83,3.06-1.84,6.24-3.46,9.47-4.96,1.65-.77,3.32-1.5,5-2.22,.36-.15,.72-.31,1.08-.46-.96,.41,.55-.23,.72-.3,.83-.35,1.67-.69,2.5-1.03,2.17-.89,3.95-3.03,3.14-5.54-.68-2.09-3.2-4.1-5.54-3.14-14.47,5.96-29.62,12.56-38.51,26.15-1.23,1.88-.53,4.5,1.16,5.81,1.91,1.47,4.12,1.06,5.91-.35,8.15-6.4,9.88-17.79,12.6-27.14,3.15-10.84,6.85-21.51,11.08-31.97,.53-1.31,1.07-2.61,1.61-3.91,.36-.85,.17-.41,.09-.22,.12-.29,.25-.58,.37-.87,.34-.79,.68-1.58,1.03-2.37,1.13-2.59,2.29-5.16,3.48-7.71,.56-1.21,1.13-2.41,1.71-3.61,.25-.51,.5-1.02,.8-1.51,.16-.26,.33-.52,.51-.76-.46,.62-.01,.05,.25-.2,.17-.17,.34-.32,.52-.48-.18,.15-.72,.4-.09,.14-1.01,.42-.45,.14-.22,.1-.49,.08-.77,.06-1.22-.04,.77,.17-.23-.11-.42-.26-.44-.32-.65-.72-.8-1.24,.18,.64-.13-.29,0-.39v.28c-.03,.49,0,.39,.06-.31,.02,0-.18,.66-.16,.61-.22,.92,.03-.2,.09-.15,.07,.06-.71,1.28-.74,1.34-.15,.24-.32,.47-.48,.7,.09-.12,.62-.71,.09-.15-.49,.51-.94,1.06-1.41,1.59-1.7,1.91-3.41,3.82-5.13,5.72-3.45,3.8-6.96,7.54-10.61,11.15-4.13,4.08-8.43,7.99-13.02,11.54,.15-.12,.61-.46-.09,.07-.34,.25-.67,.51-1.01,.76-.57,.42-1.13,.83-1.71,1.24-1.15,.82-2.31,1.61-3.49,2.37-2.49,1.61-5.05,3.1-7.69,4.46-2.1,1.08-2.88,4.19-1.61,6.16,1.38,2.14,3.92,2.77,6.16,1.61h0Z"/>
      <path class="cls-4" d="M97.19,42.93c-.46-.13-.95-.19-1.43-.2-.22,0-.57,.07-.71,.09-.15,.02-.49,.04-.71,.1-.44,.12-.87,.3-1.26,.53-.04,.02-.08,.05-.12,.07-.31,.21-.72,.52-1,.78-.4,.37-.75,.83-1.01,1.31-.52,.95-.69,1.69-.76,2.77,0,.1,0,.2,0,.3,.05,.45,.07,.94,.2,1.37,.3,1,.76,1.71,1.46,2.48,.37,.41,.85,.75,1.31,1.04,.1,.06,.2,.11,.3,.16,.44,.2,.9,.42,1.36,.56,.56,.17,1.22,.22,1.77,.28,.22,.02,.44,.03,.66,0,.59-.05,1.21-.11,1.78-.27s1.11-.41,1.63-.66c.35-.17,.64-.41,.95-.65,.33-.25,.64-.47,.9-.79,.34-.42,.72-.83,.95-1.33,.48-1.06,.67-1.58,.74-2.77,.03-.55-.07-1.12-.19-1.65-.02-.08-.04-.15-.07-.22-.14-.41-.32-.86-.53-1.24-.25-.45-.59-.86-.94-1.24-.05-.05-.11-.1-.17-.15-.33-.28-.69-.57-1.06-.81-.58-.37-1.26-.66-1.93-.78-.54-.1-1.08-.19-1.63-.21s-1.18,.11-1.69,.19c-.69,.11-1.37,.41-1.98,.74-.46,.24-.87,.61-1.27,.94s-.71,.81-1.03,1.24c-.76,1.03-1.05,2.29-1.16,3.54-.01,.13-.02,.25,0,.38,.02,.41,.11,.87,.17,1.27,0,.06,.02,.12,.03,.19,.1,.46,.34,.91,.53,1.33,.05,.12,.12,.22,.19,.33,.61,.86,1.13,1.44,2.05,2s1.73,.7,2.8,.81c.6,.06,1.24-.03,1.8-.23,.87-.3,1.76-.73,2.37-1.45,.25-.3,.64-.72,.83-1.13,.15-.32,.36-.78,.47-1.12,.02-.05,.03-.1,.04-.15,.24-1.11,.23-1.74,.01-2.86-.16-.78-.54-1.38-1-1.98s-.67-.87-1.4-1.29c-.41-.24-.85-.42-1.3-.56-.6-.19-1.2-.21-1.79-.08-.6,.03-1.16,.21-1.67,.53-.52,.28-.95,.67-1.26,1.16-.4,.43-.67,.94-.81,1.53l-.16,1.2c0,.81,.21,1.57,.61,2.27l.7,.91c.56,.56,1.22,.94,1.99,1.16,.03,0,.06,.02,.1,.04l-1.07-.45s.09,.05,.13,.07l-.91-.7c.05,.04,.1,.08,.14,.13l-.7-.91c.05,.07,.09,.13,.13,.21l-.45-1.07c.04,.1,.06,.19,.08,.29l-.16-1.2c.01,.1,.01,.21,0,.31l.16-1.2c-.02,.1-.04,.2-.08,.3l.45-1.07c-.04,.08-.08,.15-.13,.22l.7-.91c-.05,.07-.11,.13-.18,.18l.91-.7c-.06,.04-.13,.08-.2,.11l1.07-.45c-.08,.03-.16,.05-.24,.07l1.2-.16c-.12,.02-.24,.02-.37,0l1.2,.16c-.13-.02-.24-.06-.36-.11l1.07,.45c-.12-.06-.23-.12-.33-.2l.91,.7c-.1-.08-.19-.17-.27-.27l.7,.91c-.08-.1-.14-.21-.19-.33l.45,1.07c-.05-.14-.09-.29-.11-.44l.16,1.2c-.01-.15-.01-.3,0-.45l-.16,1.2c.03-.23,.09-.45,.18-.67l-.45,1.07c.1-.21,.21-.41,.36-.6l-.7,.91c.11-.13,.23-.25,.36-.36l-.91,.7c.16-.12,.34-.22,.53-.3l-1.07,.45c.23-.09,.46-.15,.7-.19l-1.2,.16c.26-.03,.51-.03,.77,0l-1.2-.16c.23,.03,.45,.09,.67,.17l-1.07-.45c.17,.07,.34,.17,.49,.28l-.91-.7c.11,.09,.2,.18,.29,.29l-.7-.91c.07,.1,.13,.2,.18,.31l-.45-1.07c.05,.12,.08,.24,.1,.36l-.16-1.2c.02,.15,.02,.3,0,.45l.16-1.2c-.02,.14-.06,.28-.11,.41l.45-1.07c-.06,.15-.14,.29-.24,.42l.7-.91c-.13,.16-.28,.31-.44,.44l.91-.7c-.21,.16-.43,.28-.68,.38l1.07-.45c-.27,.11-.54,.18-.83,.22l1.2-.16c-.29,.04-.57,.03-.86,0l1.2,.16c-.25-.04-.49-.1-.73-.19l1.07,.45c-.19-.08-.36-.18-.52-.3l.91,.7c-.12-.1-.23-.2-.32-.32l.7,.91c-.08-.11-.14-.22-.2-.34l.45,1.07c-.03-.08-.05-.15-.07-.23l.16,1.2c-.02-.12-.02-.24,0-.36l-.16,1.2c.02-.12,.05-.24,.1-.35l-.45,1.07c.05-.11,.11-.21,.18-.31l-.7,.91c.06-.08,.13-.15,.21-.21l-.91,.7c.08-.06,.15-.1,.24-.14l-1.07,.45c.07-.03,.14-.05,.21-.06l-1.2,.16c.08,0,.15,0,.23,0l-1.2-.16s.08,.02,.12,.03c.6,.19,1.2,.21,1.79,.08,.6-.03,1.16-.21,1.67-.53,.52-.28,.95-.67,1.26-1.16,.4-.43,.67-.94,.81-1.53l.16-1.2c0-.81-.21-1.57-.61-2.27-.64-.99-1.54-1.75-2.69-2.07h0Z"/>
      <rect class="cls-1" x="123.75" y="121.37" width="13.93" height="13.93"/>
      <rect class="cls-1" x="123.75" y="137.77" width="13.93" height="13.93"/>
      <rect class="cls-1" x="140.15" y="121.37" width="13.93" height="13.93"/>
      <rect class="cls-1" x="156.54" y="121.37" width="13.93" height="13.93"/>
      <rect class="cls-1" x="172.93" y="121.37" width="13.93" height="13.93"/>
      <rect class="cls-1" x="189.32" y="121.37" width="13.93" height="13.93"/>
      <rect class="cls-1" x="189.32" y="137.77" width="13.93" height="13.93"/>
      <rect class="cls-1" x="140.15" y="104.98" width="13.93" height="13.93" transform="translate(35.16 259.06) rotate(-90)"/>
      <rect class="cls-1" x="140.15" y="88.59" width="13.93" height="13.93" transform="translate(51.56 242.67) rotate(-90)"/>
      <rect class="cls-1" x="140.15" y="72.2" width="13.93" height="13.93" transform="translate(67.95 226.28) rotate(-90)"/>
      <rect class="cls-1" x="172.93" y="104.98" width="13.93" height="13.93" transform="translate(67.95 291.85) rotate(-90)"/>
      <rect class="cls-1" x="172.93" y="88.59" width="13.93" height="13.93" transform="translate(84.34 275.45) rotate(-90)"/>
      <rect class="cls-1" x="172.93" y="72.2" width="13.93" height="13.93" transform="translate(100.73 259.06) rotate(-90)"/>
      <rect class="cls-1" x="156.54" y="55.81" width="13.93" height="13.93"/>
      <polygon class="cls-1" points="295.01 55.31 233.25 84.89 233.25 55.31 295.01 55.31"/>
      <polygon class="cls-1" points="295.01 88.52 233.25 118.1 233.25 88.52 295.01 88.52"/>
      <polygon class="cls-1" points="295.01 121.73 233.25 151.31 233.25 121.73 295.01 121.73"/>
      <line class="cls-3" x1="331.25" y1="62.81" x2="331.25" y2="128.81"/>
      <line class="cls-3" x1="373.25" y1="78.81" x2="331.25" y2="128.81"/>
      <line class="cls-3" x1="374.25" y1="144.81" x2="374.25" y2="78.81"/>
      <path class="cls-3" d="M339.75,38.31c11.99,18.76,23.56,23.52,34.59,11.01"/>
    </g>
  </g>
</svg>